<?xml version="1.0" standalone="yes"?>
<svg xmlns="http://www.w3.org/2000/svg" width="156" height="156">
<path style="fill:#010101; stroke:none;" d="M0 0L0 38L1 38C3.65045 20.3173 20.3351 3.64581 38 1C27.964 -3.21124 10.9106 0 0 0z"/>
<path style="fill:#0644ff; stroke:none;" d="M29 152L29 119C29 113.995 28.3328 108.378 31.6528 104.188C36.5901 97.957 44.95 99 52 99L101 99C108.05 99 116.41 97.957 121.347 104.188C124.87 108.634 123.941 114.713 124.004 120C124.135 131.042 124 141.906 124 153C150.065 148.935 156 120.52 156 99C156 64.0359 165.196 8.97383 118 0.464508C107.184 -1.48563 94.9764 0 84 0C58.0507 0 27.5366 -5.36159 9.52932 18C-0.563128 31.0933 0 45.3898 0 61C0 90.6445 -8.86565 141.071 29 152z"/>
<path style="fill:#010101; stroke:none;" d="M118 0L118 1C135.683 3.65041 152.354 20.3351 155 38L156 38L156 0L118 0z"/>
<path style="fill:#fefeff; stroke:none;" d="M63 26C63.3917 44.2924 82.8347 40 96 40C95.1717 22.1333 75.9158 26 63 26z"/>
<path style="fill:#cad8ff; stroke:none;" d="M87 26L88 27L87 26z"/>
<path style="fill:#7094ff; stroke:none;" d="M88 26L89 27L88 26z"/>
<path style="fill:#cad8ff; stroke:none;" d="M90 27L91 28L90 27M91 28L92 29L91 28M93 30L94 31L93 30M94 31L95 32L94 31M63 32L64 33L63 32z"/>
<path style="fill:#7094ff; stroke:none;" d="M95.3333 32.6667L95.6667 33.3333L95.3333 32.6667M63 33L64 34L63 33z"/>
<path style="fill:#cad8ff; stroke:none;" d="M95 34L96 35L95 34z"/>
<path style="fill:#7094ff; stroke:none;" d="M64 35L65 36L64 35z"/>
<path style="fill:#cad8ff; stroke:none;" d="M65 36L66 37L65 36M66 37L67 38L66 37M67 38L68 39L67 38z"/>
<path style="fill:#7094ff; stroke:none;" d="M68 39L69 40L68 39z"/>
<path style="fill:#cad8ff; stroke:none;" d="M69 39L70 40L69 39z"/>
<path style="fill:#7094ff; stroke:none;" d="M70.6667 40.3333L71.3333 40.6667L70.6667 40.3333z"/>
<path style="fill:#cad8ff; stroke:none;" d="M72 40L72 41L96 41L72 40z"/>
<path style="fill:#7094ff; stroke:none;" d="M72 44L72 45L96 45L72 44M69 45L70 46L69 45z"/>
<path style="fill:#fefeff; stroke:none;" d="M63 76C74.3174 75.4816 76.9989 69.2874 77 59C87.5858 59 95.7101 57.3292 96 45C88.3205 45 73.3579 42.1342 67.2137 47.4336C60.1925 53.4895 63 67.7115 63 76z"/>
<path style="fill:#7094ff; stroke:none;" d="M67 46L68 47L67 46M66 47L67 48L66 47M65 48L66 49L65 48M64 49L65 50L64 49z"/>
<path style="fill:#cad8ff; stroke:none;" d="M64 50L65 51L64 50z"/>
<path style="fill:#7094ff; stroke:none;" d="M63 51L64 52L63 51z"/>
<path style="fill:#cad8ff; stroke:none;" d="M95 51L96 52L95 51M63 52L64 53L63 52z"/>
<path style="fill:#7094ff; stroke:none;" d="M95 52L96 53L95 52z"/>
<path style="fill:#cad8ff; stroke:none;" d="M94 53L95 54L94 53z"/>
<path style="fill:#7094ff; stroke:none;" d="M93 55L94 56L93 55M92 56L93 57L92 56z"/>
<path style="fill:#cad8ff; stroke:none;" d="M90 57L91 58L90 57z"/>
<path style="fill:#7094ff; stroke:none;" d="M91 57L92 58L91 57z"/>
<path style="fill:#cad8ff; stroke:none;" d="M88 58L89 59L88 58z"/>
<path style="fill:#7094ff; stroke:none;" d="M89 58L90 59L89 58z"/>
<path style="fill:#cad8ff; stroke:none;" d="M77 59L77 66L78 66L77 59z"/>
<path style="fill:#7094ff; stroke:none;" d="M78 59L78 60L86 60L78 59M77.3333 66.6667L77.6667 67.3333L77.3333 66.6667z"/>
<path style="fill:#cad8ff; stroke:none;" d="M76 69L77 70L76 69z"/>
<path style="fill:#7094ff; stroke:none;" d="M75 71L76 72L75 71M74 72L75 73L74 72M73 73L74 74L73 73z"/>
<path style="fill:#cad8ff; stroke:none;" d="M71 74L72 75L71 74z"/>
<path style="fill:#7094ff; stroke:none;" d="M72 74L73 75L72 74z"/>
<path style="fill:#cad8ff; stroke:none;" d="M68 75L69 76L68 75z"/>
<path style="fill:#7094ff; stroke:none;" d="M69.6667 75.3333L70.3333 75.6667L69.6667 75.3333M125 154C122.469 143.369 124.135 129.984 124.004 119C123.943 113.849 124.959 107.585 121.347 103.34C116.485 97.6253 107.666 99 101 99L51 99C44.5594 99 36.3401 97.8311 31.6528 103.34C25.0473 111.104 29 132.265 29 142C29 146.674 27.8383 152.192 33.0586 154.235C47.3784 159.84 68.7834 156 84 156C97.7867 156 111.469 156.791 125 154z"/>
<path style="fill:#010101; stroke:none;" d="M0 118L0 156L38 156L38 155C16.6377 151.798 9.02684 134.583 0 118M155 118C152.35 135.683 135.665 152.354 118 155L118 156L156 156C156 145.089 159.211 128.036 155 118z"/>
<path style="fill:#cad8ff; stroke:none;" d="M124 138L124 126C118.56 126 108.066 123.989 103.434 127.179C99.6085 129.813 101.127 135.809 105.059 137.397C110.28 139.505 118.42 138 124 138z"/>
<path style="fill:#0644ff; stroke:none;" d="M105.564 130.171C103.573 131.471 105.241 135.261 107.436 133.829C109.427 132.529 107.759 128.739 105.564 130.171z"/>
<path style="fill:#7094ff; stroke:none;" d="M103.333 131.667L103.667 132.333L103.333 131.667M109.333 131.667L109.667 132.333L109.333 131.667z"/>
</svg>
