<?xml version="1.0" standalone="yes"?>
<svg xmlns="http://www.w3.org/2000/svg" width="300" height="300">
<path style="fill:#fdfdfb; stroke:none;" d="M0 0L0 300L300 300L300 0L0 0z"/>
<path style="fill:#c9b54a; stroke:none;" d="M10 112L27 108C27 114.237 28.8784 123.881 25 129L25 130L29 130L27 133L59 130C57.4445 125.333 57.1126 113.028 61 114L58 108L72 106C59.8781 100.913 37.8254 105.14 25 106.715C19.57 107.382 13.0567 106.764 10 112M207 112L215 111L214 109C219.118 108.958 223.956 107.085 227 112L224 111C224 115.878 222.041 126.161 225.318 130.106C229.682 135.361 250.479 132.33 256 130L256 112L257 112L257 126L258 126L257 105C244.975 105.816 233.027 104.787 221 106.425C215.628 107.157 210.047 107.017 207 112z"/>
<path style="fill:#afa49e; stroke:none;" d="M254 105L255 106L254 105M256 106L256 107L265 107L256 106z"/>
<path style="fill:#c9b54a; stroke:none;" d="M258 105L258 106L272 106L258 105z"/>
<path style="fill:#afa49e; stroke:none;" d="M64.6667 106.333L65.3333 106.667L64.6667 106.333z"/>
<path style="fill:#7c5e32; stroke:none;" d="M58 110L61 109L61 130L60 130L60 114L59 114L59 131L41 132L41 133L94 132L94 133L93 136C98.5258 130.459 103.72 115.089 94.7716 109.14C90.0042 105.97 83.3564 107.34 78 106.83C71.8824 106.248 62.4077 104.544 58 110z"/>
<path style="fill:#afa49e; stroke:none;" d="M75 106L75 107L84 107L75 106z"/>
<path style="fill:#c9b54a; stroke:none;" d="M84 106L84 107L87 107L84 106M111 113L117 112L117 127L116 127L115 118L114 118L114 129L109 131L112 140L113 140L113 134C122.949 133.965 123.999 128.996 124 120L125 120L125 130L126 130L126 120L128 120C127.721 123.537 126.07 128.489 128.894 131.397C132.431 135.038 153.579 134.561 157.411 131.051C161.37 127.424 159 114.052 159 109L160 109L160 130L161 130L161 106C148.536 106 136.369 105.912 124 107.576C118.824 108.272 113.214 107.439 111 113z"/>
<path style="fill:#afa49e; stroke:none;" d="M161 106L168 108L161 106z"/>
<path style="fill:#c9b54a; stroke:none;" d="M163.667 106.333L164.333 106.667L163.667 106.333M168 106L168 107L180 107L168 106z"/>
<path style="fill:#7c5e32; stroke:none;" d="M258 107L258 128L257 128L257 112L256 112L253 133C262.5 130.738 273.27 131.954 283 132.001C286.049 132.015 291.798 133.659 294.397 131.782C299.031 128.433 295.887 111.794 291.772 108.938C283.331 103.082 267.486 106.804 258 107z"/>
<path style="fill:#afa49e; stroke:none;" d="M278 106L278 107L284 107L278 106z"/>
<path style="fill:#c9b54a; stroke:none;" d="M284.667 106.333L285.333 106.667L284.667 106.333z"/>
<path style="fill:#afa49e; stroke:none;" d="M90.6667 107.333L91.3333 107.667L90.6667 107.333z"/>
<path style="fill:#c9b54a; stroke:none;" d="M92 107L93 108L92 107z"/>
<path style="fill:#7c5e32; stroke:none;" d="M161 108L161 131L160 131L160 109L159 109L157 133C166.088 133 176.637 134.091 185 132C188.951 131.012 193.467 133.132 193 135L199 133C199 126.982 200.761 117.564 197.543 112.225C192.044 103.1 169.749 107.405 161 108z"/>
<path style="fill:#afa49e; stroke:none;" d="M184 107L184 108L188 108L184 107z"/>
<path style="fill:#c9b54a; stroke:none;" d="M188.667 107.333L189.333 107.667L188.667 107.333z"/>
<path style="fill:#afa49e; stroke:none;" d="M288.667 107.333L289.333 107.667L288.667 107.333z"/>
<path style="fill:#c9b54a; stroke:none;" d="M290 107L291 108L290 107z"/>
<path style="fill:#fdfdfb; stroke:none;" d="M28 108L28 117L29 117L28 108z"/>
<path style="fill:#afa49e; stroke:none;" d="M94.6667 108.333L95.3333 108.667L94.6667 108.333M192.667 108.333L193.333 108.667L192.667 108.333z"/>
<path style="fill:#c9b54a; stroke:none;" d="M194 108L195 109L194 108z"/>
<path style="fill:#7c5e32; stroke:none;" d="M253 108L254 109L253 108M255.667 108.333L256.333 108.667L255.667 108.333z"/>
<path style="fill:#afa49e; stroke:none;" d="M292 108L293 109L292 108M60 109L61 110L60 109z"/>
<path style="fill:#c9b54a; stroke:none;" d="M96 109L97 110L96 109z"/>
<path style="fill:#fdfdfb; stroke:none;" d="M118 110L118 129C121.906 125.587 120 115.93 120 111L123 111L124 119L128 119L128 110L129 110L129 118L130 118L130 109L118 110z"/>
<path style="fill:#afa49e; stroke:none;" d="M195.667 109.333L196.333 109.667L195.667 109.333M293 109L294 110L293 109z"/>
<path style="fill:#fdfdfb; stroke:none;" d="M15 110L16 111L15 110z"/>
<path style="fill:#c9b54a; stroke:none;" d="M20 111C20.5289 113.6 20.9646 115.563 18 116L19 128L18 128L18 122L16 125L12 124L12 131L8 131L14 136L13 133L17 133L19 129L18 133L23 133L23 132L20 129L21 129L22 131L24 110L20 111M25 110L25 128L26 128L25 110M62 110L63 111L62 110M97 110L98 111L97 110z"/>
<path style="fill:#afa49e; stroke:none;" d="M197.333 110.667L197.667 111.333L197.333 110.667z"/>
<path style="fill:#c9b54a; stroke:none;" d="M217.333 110.667L217.667 111.333L217.333 110.667M220 110L218 116L214 119L213 112L212 112C211.999 118.794 212.553 126.178 206 130L206 133L210 136L211 136L210 133L225 133L225 132L209 131L209 130C220.942 130 224.882 121.634 220 110z"/>
<path style="fill:#7c5e32; stroke:none;" d="M255 110L256 111L255 110z"/>
<path style="fill:#c9b54a; stroke:none;" d="M294 110L295 111L294 110z"/>
<path style="fill:#afa49e; stroke:none;" d="M97 111L98 112L97 111z"/>
<path style="fill:#c9b54a; stroke:none;" d="M222 111L222 130L223 130L222 111z"/>
<path style="fill:#afa49e; stroke:none;" d="M294 111L295 112L294 111z"/>
<path style="fill:#fdfdfb; stroke:none;" d="M22 112L22 118L23 118L22 112z"/>
<path style="fill:#c9b54a; stroke:none;" d="M98.3333 112.667L98.6667 113.333L98.3333 112.667z"/>
<path style="fill:#fdfdfb; stroke:none;" d="M121.333 112.667L121.667 113.333L121.333 112.667z"/>
<path style="fill:#afa49e; stroke:none;" d="M163 112L163 116L164 116L163 112M198.333 112.667L198.667 113.333L198.333 112.667z"/>
<path style="fill:#fdfdfb; stroke:none;" d="M219 112L219 117L220 117L219 112M225 112L225 116L226 116L225 112z"/>
<path style="fill:#c9b54a; stroke:none;" d="M295 112L296 113L295 112z"/>
<path style="fill:#afa49e; stroke:none;" d="M59 113L60 114L59 113M295 113L295 117L296 117L295 113z"/>
<path style="fill:#7c5e32; stroke:none;" d="M56 114L56 129L57 129L56 114z"/>
<path style="fill:#afa49e; stroke:none;" d="M60 114L60 120L61 120L60 114M98 114L98 119L99 119L98 114M253.333 114.667L253.667 115.333L253.333 114.667z"/>
<path style="fill:#c9b54a; stroke:none;" d="M16 115L14 121C16.5545 119.35 17.098 117.88 16 115z"/>
<path style="fill:#afa49e; stroke:none;" d="M58 115L58 119L59 119L58 115M255 115L255 120L256 120L255 115z"/>
<path style="fill:#fdfdfb; stroke:none;" d="M121 116L122 117L121 116z"/>
<path style="fill:#7c5e32; stroke:none;" d="M253.333 116.667L253.667 117.333L253.333 116.667z"/>
<path style="fill:#afa49e; stroke:none;" d="M163 118L163 121L164 121L163 118M253 118L253 121L254 121L253 118z"/>
<path style="fill:#c9b54a; stroke:none;" d="M12 119L13 120L12 119M199 119L199 126L200 126L199 119M209 119L210 120L209 119z"/>
<path style="fill:#fdfdfb; stroke:none;" d="M219 119L219 124L220 124L219 119M20 120L21 121L20 120M22 120L22 123L23 123L22 120M28 120L29 121L28 120z"/>
<path style="fill:#c9b54a; stroke:none;" d="M60 120L60 123L61 123L60 120M112 120L113 121L112 120z"/>
<path style="fill:#fdfdfb; stroke:none;" d="M124 120L122 133L129 133L128 120L126 120L126 130L125 130L124 120M214 120L215 128L216 128L216 120L214 120z"/>
<path style="fill:#7c5e32; stroke:none;" d="M253 121L253 130L254 130L253 121z"/>
<path style="fill:#afa49e; stroke:none;" d="M255 122L256 123L255 122M60 123L60 128L61 128L60 123M255 125L255 128L256 128L255 125M199 126L199 133L200 133L199 126M257 126L258 127L257 126z"/>
<path style="fill:#fdfdfb; stroke:none;" d="M22.3333 127.667L22.6667 128.333L22.3333 127.667z"/>
<path style="fill:#c9b54a; stroke:none;" d="M208 127L209 128L208 127z"/>
<path style="fill:#fdfdfb; stroke:none;" d="M219 127L220 128L219 127z"/>
<path style="fill:#c9b54a; stroke:none;" d="M257 127L258 128L257 127z"/>
<path style="fill:#fdfdfb; stroke:none;" d="M28 128L29 129L28 128z"/>
<path style="fill:#c9b54a; stroke:none;" d="M60.3333 128.667L60.6667 129.333L60.3333 128.667z"/>
<path style="fill:#7c5e32; stroke:none;" d="M156 128L157 129L156 128z"/>
<path style="fill:#fdfdfb; stroke:none;" d="M15 129L16 130L15 129M17 129L17 133L19 129L17 129z"/>
<path style="fill:#afa49e; stroke:none;" d="M58 130L59 131L58 130z"/>
<path style="fill:#fdfdfb; stroke:none;" d="M113 130L115 133L113 130M116 130L116 133L121 133L116 130z"/>
<path style="fill:#afa49e; stroke:none;" d="M160 130L161 131L160 130z"/>
<path style="fill:#3b3329; stroke:none;" d="M195 130L196 131L195 130z"/>
<path style="fill:#afa49e; stroke:none;" d="M53 131L54 132L53 131M55.6667 131.333L56.3333 131.667L55.6667 131.333z"/>
<path style="fill:#3b3329; stroke:none;" d="M96 131L97 132L96 131z"/>
<path style="fill:#fdfdfb; stroke:none;" d="M111 131L112 132L111 131z"/>
<path style="fill:#afa49e; stroke:none;" d="M159 131L160 132L159 131M252.667 131.333L253.333 131.667L252.667 131.333z"/>
<path style="fill:#fdfdfb; stroke:none;" d="M15 132L16 133L15 132z"/>
<path style="fill:#afa49e; stroke:none;" d="M37.6667 132.333L38.3333 132.667L37.6667 132.333M40 132L41 133L40 132z"/>
<path style="fill:#3b3329; stroke:none;" d="M32 134L32 135L41 144C35.4695 144.456 30.8403 145.62 32 152L33 152L33 148L34 148L34 152L36 150L37 150C40.3897 154.453 47.929 153 53 153C68.2204 153 82.9091 151.907 98 150L94 133L76 132L32 134z"/>
<path style="fill:#afa49e; stroke:none;" d="M97 132L98 133L97 132z"/>
<path style="fill:#c9b54a; stroke:none;" d="M98 132L99 133L98 132z"/>
<path style="fill:#afa49e; stroke:none;" d="M152 132L153 133L152 132M154 132L154 133L157 133L154 132z"/>
<path style="fill:#3b3329; stroke:none;" d="M133 135L140 143L141 143L147 141L147 142L142 142L144 145L144 146L137 147L136 147L135 145L134 145C132.079 148.949 133.109 151.073 137 153L136 151L137 151C146.248 157.583 172.985 154.04 184 152.576C187.574 152.101 195.595 152.538 197.932 149.262C200.873 145.138 193.368 138.084 194 133C176.718 130.818 149.795 130.036 133 135M194.667 132.333L195.333 132.667L194.667 132.333z"/>
<path style="fill:#afa49e; stroke:none;" d="M224 136L233 133C229.117 131.375 225.409 131.755 224 136z"/>
<path style="fill:#7c5e32; stroke:none;" d="M233 132L233 133L252 133L233 132z"/>
<path style="fill:#3b3329; stroke:none;" d="M230 134L230 135L233 137L240 145L238 143L228 149L231 148L233 152L232 150L233 150C238.081 153.614 244.999 153 251 153C265.772 153 281.697 153.019 296 149L291 132C272.228 132 248.036 128.669 230 134z"/>
<path style="fill:#afa49e; stroke:none;" d="M294 132L295 133L294 132M13 133L10.0579 146L12 182L13 182L14 170L32 175L32 176L28 176L28 177L31 177L31 178L29 180L45 180L42 182L42 183L45 183L45 184L42 186L42 187L62 187L53 177L54 173L53 173L53 176L22 170L28 169L27 171L28 171L31 161L36 163L35 167L39 169C44.0686 165.248 52.7922 171.103 52 161L55 162L58 160L58 159L54 158L54 156L61 155L61 154L35 153L35 154L39 154L34 161L30 157L29 163L28 163L29 159L26 156L21 157L21 166L14 166L12 152L28 151L27 153L31 153L32 141L25 140L23 143L16 142L16 141L20 138L27 139L26 136L20 137L20 133L13 133z"/>
<path style="fill:#7c5e32; stroke:none;" d="M20 133L20 137C23.4613 136.413 25.9598 136.665 27 133L20 133z"/>
<path style="fill:#afa49e; stroke:none;" d="M27 133L28 137L29 137L31 134L27 133z"/>
<path style="fill:#7c5e32; stroke:none;" d="M28 133L29 134L28 133M30 133L28 135L28 136L32 139L20 138L16 141L16 142L23 143L25 140L32 141C31.3563 149.892 28.5629 152.991 40 153L40 152L37 150L36 150L34 152L34 148L33 148L33 152L32 152C31.4976 145.862 35.5241 144.753 41 144L32 135L32 134L36 134L30 133z"/>
<path style="fill:#afa49e; stroke:none;" d="M121 133L121 134L124 134L121 133z"/>
<path style="fill:#c9b54a; stroke:none;" d="M124.667 133.333L125.333 133.667L124.667 133.333z"/>
<path style="fill:#afa49e; stroke:none;" d="M126 133L127 134L126 133z"/>
<path style="fill:#c9b54a; stroke:none;" d="M127 133L128 134L127 133z"/>
<path style="fill:#afa49e; stroke:none;" d="M128 133L127 137L134 134L128 133z"/>
<path style="fill:#7c5e32; stroke:none;" d="M134 133L134 134L149 134L134 133z"/>
<path style="fill:#afa49e; stroke:none;" d="M196.667 133.333L197.333 133.667L196.667 133.333M210 133C209.23 148.44 205.348 166.262 210 182L211 182L211 167L212 167C212.979 172.643 218.969 173.449 224 173L227 177L227 178L224 178L224 179L240 182L239 175L243 184L243 185L216 185L216 186L259 187L257 181L247.711 174.564L219 172L219 170C225.218 169.796 227.102 166.958 228 161C230.54 162.693 231.316 165.421 232 162L233 162L232 167L249 167L250 161L254 159L252 155L258 155L258 153L236 153C233.6 158.241 227.68 159.09 223 156L218 157L218 166L211 166L209 151L225 151L230 153L230 152L227 152L230 144L230 141L222 142L220 140L220 145L218 142L217 133L210 133z"/>
<path style="fill:#7c5e32; stroke:none;" d="M217 133L216 143L220 143L220 140L222 142L230 141L230 144L227 152L229 150L230 150C230.946 154.413 236.233 153 240 153L240 152L232 150L233 152L232 152L231 148L228 149C230.892 144.399 235.305 143.491 240 145L233 137L235 135L231 133L226 136L229 137L229 138L218 139L224 136L224 133L217 133z"/>
<path style="fill:#afa49e; stroke:none;" d="M290 133L291 134L290 133M113 134L111.005 149L113 184L114 184L113 152C117.692 152.971 122.996 154.033 127 151L136 154L136 153L130 152L133 142L127 141L127 143L124 139L133 139L133 137L130 136L131 139L123 136L124 139L113 134z"/>
<path style="fill:#7c5e32; stroke:none;" d="M120 134L121 137L128 134L120 134M129 137L133 137L133 139L124 139L127 143L127 141L133 142L130 152L135 153C134.122 151.023 131.595 145.163 136 147L137 147L144 146L144 145L142 142L147 142L147 141L141 143L140 143L134 134L129 137z"/>
<path style="fill:#afa49e; stroke:none;" d="M194.333 134.667L194.667 135.333L194.333 134.667z"/>
<path style="fill:#7c5e32; stroke:none;" d="M290 134L294 141L290 134z"/>
<path style="fill:#c9b54a; stroke:none;" d="M291 134L292 135L291 134z"/>
<path style="fill:#7c5e32; stroke:none;" d="M17.6667 135.333L18.3333 135.667L17.6667 135.333M41 135L40 138L41 138L41 135M215 135L216 136L215 135M243 135L240 137L240 138L243 135z"/>
<path style="fill:#afa49e; stroke:none;" d="M291 135L292 136L291 135z"/>
<path style="fill:#c9b54a; stroke:none;" d="M26.6667 136.333L27.3333 136.667L26.6667 136.333M29 136L30 137L29 136z"/>
<path style="fill:#afa49e; stroke:none;" d="M30 136L32 139L30 136M32 136L33 137L32 136z"/>
<path style="fill:#7c5e32; stroke:none;" d="M42 141L39 140L39 141L41 145L42 145L43 145L42 141L48 141L48 140L43 141L47 137C43.9538 136.556 43.0261 138.298 42 141z"/>
<path style="fill:#afa49e; stroke:none;" d="M94 136L95 137L94 136z"/>
<path style="fill:#c9b54a; stroke:none;" d="M115 136L116 137L115 136z"/>
<path style="fill:#7c5e32; stroke:none;" d="M118.667 136.333L119.333 136.667L118.667 136.333z"/>
<path style="fill:#3b3329; stroke:none;" d="M131 136L132 137L131 136z"/>
<path style="fill:#7c5e32; stroke:none;" d="M137 136L137 139L138 139L137 136M141.333 136.667L141.667 137.333L141.333 136.667M193 136L198 143L193 136z"/>
<path style="fill:#c9b54a; stroke:none;" d="M218 136L218 138L220 138L220 136L218 136z"/>
<path style="fill:#afa49e; stroke:none;" d="M218 138L218 139L223 136L218 138z"/>
<path style="fill:#c9b54a; stroke:none;" d="M223 136L224 137L223 136z"/>
<path style="fill:#fdfdfb; stroke:none;" d="M223 137L223 138L227 136L223 137z"/>
<path style="fill:#afa49e; stroke:none;" d="M227 136L224 138L224 139C226.348 138.706 227.951 138.507 227 136M229.667 136.333L230.333 136.667L229.667 136.333z"/>
<path style="fill:#7c5e32; stroke:none;" d="M237 136L238 137L237 136M289 136L290 137L289 136z"/>
<path style="fill:#c9b54a; stroke:none;" d="M12 137L13 138L12 137M21.6667 137.333L22.3333 137.667L21.6667 137.333z"/>
<path style="fill:#fdfdfb; stroke:none;" d="M26 137L26 138L30 138L26 137z"/>
<path style="fill:#7c5e32; stroke:none;" d="M37.6667 137.333L38.3333 137.667L37.6667 137.333M94 137L97 142L94 137z"/>
<path style="fill:#c9b54a; stroke:none;" d="M118 137L118 139L120 137L118 137M122 137L122 139L124 139L124 137L122 137M126 137L127 138L126 137z"/>
<path style="fill:#fdfdfb; stroke:none;" d="M127 137L127 139L131 139L131 137L127 137z"/>
<path style="fill:#7c5e32; stroke:none;" d="M144 139L147 138L144 139z"/>
<path style="fill:#afa49e; stroke:none;" d="M195.333 137.667L195.667 138.333L195.333 137.667z"/>
<path style="fill:#c9b54a; stroke:none;" d="M209 137L210 138L209 137M214 137L215 138L214 137M228 137L229 138L228 137z"/>
<path style="fill:#afa49e; stroke:none;" d="M292.333 137.667L292.667 138.333L292.333 137.667z"/>
<path style="fill:#c9b54a; stroke:none;" d="M27 138L28 139L27 138M29 138L30 139L29 138z"/>
<path style="fill:#afa49e; stroke:none;" d="M95 138L96 139L95 138M96.3333 139.667L96.6667 140.333L96.3333 139.667z"/>
<path style="fill:#7c5e32; stroke:none;" d="M120 139L120 144L117 145L117 146L124 144L122 139L120 139z"/>
<path style="fill:#3b3329; stroke:none;" d="M134 139L135 140L134 139z"/>
<path style="fill:#afa49e; stroke:none;" d="M196.333 139.667L196.667 140.333L196.333 139.667z"/>
<path style="fill:#3b3329; stroke:none;" d="M228 139L229 140L228 139M231.333 139.667L231.667 140.333L231.333 139.667z"/>
<path style="fill:#7c5e32; stroke:none;" d="M239 139L244 142L239 139z"/>
<path style="fill:#afa49e; stroke:none;" d="M293 139L294 140L293 139M121.333 140.667L121.667 141.333L121.333 140.667z"/>
<path style="fill:#7c5e32; stroke:none;" d="M214 140L212 143L212 144L215 146L216 145L214 144L214 140z"/>
<path style="fill:#afa49e; stroke:none;" d="M217 140L218 141L217 140M97 141L98 146L99 146L97 141M197 141L198 142L197 141M294 141L295 142L294 141z"/>
<path style="fill:#7c5e32; stroke:none;" d="M116 142L114 146L118 142L116 142z"/>
<path style="fill:#c9b54a; stroke:none;" d="M198 142L199 143L198 142z"/>
<path style="fill:#7c5e32; stroke:none;" d="M227 142L228 143L227 142M294 142L295 143L294 142M16 143L19 146L16 143M44 143L45 144L44 143M97.3333 143.667L97.6667 144.333L97.3333 143.667z"/>
<path style="fill:#afa49e; stroke:none;" d="M122 143L123 144L122 143M139 143L140 144L139 143z"/>
<path style="fill:#7c5e32; stroke:none;" d="M196 143L197 144L196 143z"/>
<path style="fill:#afa49e; stroke:none;" d="M198 143L199 144L198 143z"/>
<path style="fill:#7c5e32; stroke:none;" d="M210 143L211 144L210 143z"/>
<path style="fill:#c9b54a; stroke:none;" d="M217.667 143.333L218.333 143.667L217.667 143.333z"/>
<path style="fill:#7c5e32; stroke:none;" d="M241 143L242 144L241 143z"/>
<path style="fill:#afa49e; stroke:none;" d="M295.333 143.667L295.667 144.333L295.333 143.667z"/>
<path style="fill:#fdfdfb; stroke:none;" d="M20 144L22 146L22 144L20 144M25 144L26 147L23 148L23 149L29 149L25 144M120 144L123 146L120 144z"/>
<path style="fill:#c9b54a; stroke:none;" d="M122 144L123 145L122 144M126 144L127 145L126 144z"/>
<path style="fill:#7c5e32; stroke:none;" d="M198.333 144.667L198.667 145.333L198.333 144.667z"/>
<path style="fill:#fdfdfb; stroke:none;" d="M217 144L217 145L220 145L217 144M222 144L224 147L221 146L220 147L221 150L226 149L226 145L222 144z"/>
<path style="fill:#7c5e32; stroke:none;" d="M294 144L295 145L294 144z"/>
<path style="fill:#fdfdfb; stroke:none;" d="M126 145L124 150L129 150L128 145L126 145z"/>
<path style="fill:#7c5e32; stroke:none;" d="M295.333 145.667L295.667 146.333L295.333 145.667z"/>
<path style="fill:#fdfdfb; stroke:none;" d="M18 146L17 147L17 148L17 149L20 146L18 146z"/>
<path style="fill:#7c5e32; stroke:none;" d="M98 146L98 150L59 153L59 154L66 155L64 160L69 166L98 162L98 146z"/>
<path style="fill:#afa49e; stroke:none;" d="M199 146L199 153L200 153L199 146z"/>
<path style="fill:#fdfdfb; stroke:none;" d="M214 147L214 148L217 149L217 146L214 147z"/>
<path style="fill:#c9b54a; stroke:none;" d="M223 146L224 147L223 146z"/>
<path style="fill:#7c5e32; stroke:none;" d="M37 147L37 149L39 149L39 147L37 147M112 147L113 148L112 147z"/>
<path style="fill:#c9b54a; stroke:none;" d="M116 147L117 148L116 147z"/>
<path style="fill:#fdfdfb; stroke:none;" d="M118 147L118 150L121 149L121 148L118 147z"/>
<path style="fill:#c9b54a; stroke:none;" d="M120 147L121 148L120 147z"/>
<path style="fill:#7c5e32; stroke:none;" d="M147 147L148 148L147 147z"/>
<path style="fill:#c9b54a; stroke:none;" d="M213 147L214 148L213 147M225 147L226 148L225 147z"/>
<path style="fill:#7c5e32; stroke:none;" d="M234 147L234 149L236 149L236 147L234 147z"/>
<path style="fill:#fdfdfb; stroke:none;" d="M116 148L117 149L116 148z"/>
<path style="fill:#7c5e32; stroke:none;" d="M135 148L136 149L135 148M137 148L138 150L139 150L140 148L137 148M22.3333 149.667L22.6667 150.333L22.3333 149.667z"/>
<path style="fill:#c9b54a; stroke:none;" d="M129 149L130 150L129 149z"/>
<path style="fill:#7c5e32; stroke:none;" d="M133 149L134 150L133 149M219 149L220 150L219 149M258 153L258 155C261.465 155.541 263.026 156.39 262 160C273.264 169.622 281.68 163.96 295 162L296 149L258 153M18.6667 150.333L19.3333 150.667L18.6667 150.333M123 150L124 151L123 150M157 153L157 154L161 154L160 156L167 156L165 161L170 167C176.069 166.772 194.992 161.641 198 166L199 166L199 150L157 153M216 150L217 151L216 150z"/>
<path style="fill:#3b3329; stroke:none;" d="M229.333 150.667L229.667 151.333L229.333 150.667z"/>
<path style="fill:#c9b54a; stroke:none;" d="M10 151L11 152L10 151z"/>
<path style="fill:#fdfdfb; stroke:none;" d="M24 151L24 152L26 152L26 153L12 152L14 166L21 166L21 157L26 156L26 159L35 159L38 156L38 155L27 153L28 151L24 151z"/>
<path style="fill:#7c5e32; stroke:none;" d="M120 151L121 152L120 151M136 151L136 154L151 154L151 153L136 151z"/>
<path style="fill:#c9b54a; stroke:none;" d="M209.667 151.333L210.333 151.667L209.667 151.333z"/>
<path style="fill:#7c5e32; stroke:none;" d="M218 151L219 152L218 151z"/>
<path style="fill:#fdfdfb; stroke:none;" d="M221 151L222 152L221 151M209 152L211 166L212 166L218 166L218 157L232 159L234 153L225 151L209 152z"/>
<path style="fill:#c9b54a; stroke:none;" d="M20 152L21 153L20 152M24 152L25 153L24 152z"/>
<path style="fill:#afa49e; stroke:none;" d="M25 152L26 153L25 152M98 152L98 160L99 160L98 152M63 153L64 154L63 153z"/>
<path style="fill:#7c5e32; stroke:none;" d="M154.667 153.333L155.333 153.667L154.667 153.333z"/>
<path style="fill:#c9b54a; stroke:none;" d="M199 153L200 154L199 153M209 153L210 154L209 153M234 153L234 156L236 156L236 153L234 153z"/>
<path style="fill:#afa49e; stroke:none;" d="M295 153L295 164L296 164L295 153z"/>
<path style="fill:#c9b54a; stroke:none;" d="M12 154L13 155L12 154M35 154L35 155L39 156L35 154M133 154L134 155L133 154M135 154L142 156L142 155L135 154z"/>
<path style="fill:#fdfdfb; stroke:none;" d="M136.667 154.333L137.333 154.667L136.667 154.333M139 154L140 155L139 154z"/>
<path style="fill:#afa49e; stroke:none;" d="M140 154L140 155L142 155L142 156L133 161L130 158L130 164L126 163L128 161L127 157L122 157L122 167L115 166L115 172L131 178L131 179L128 179L128 180L144 181L142 185L142 186L146 186L146 187L115 184L115 185C130.39 189.88 146.067 188 162 188L155 176L155 175L122 172L122 171L129 171L130 165L137 165L136 168L152 168L153 162L156 163L157 162L155 156L161 155L140 154z"/>
<path style="fill:#7c5e32; stroke:none;" d="M55 159L56 159L58 156C55.3347 155.375 54.9195 156.463 55 159z"/>
<path style="fill:#3b3329; stroke:none;" d="M55 156L62 159L62 160L59 160L59 161L62 162C58.8588 163.056 48.7003 171.783 56 173L57 176L57 177L55 178C61.7584 181.606 65.7442 178.625 71 174L70 177L77 176L76 179L79 179L78 176L87 175C87.6102 178.64 93.4067 175.829 96 175L94 173L96 172L94 171L94 170C97.8839 168.634 97.9074 165.816 98 162L69 166L64 160L66 155L55 156z"/>
<path style="fill:#7c5e32; stroke:none;" d="M252 155L252 156L255 156L252 155z"/>
<path style="fill:#3b3329; stroke:none;" d="M252 156C252.929 157.937 253.665 158.971 255 157L259 159L259 160L257 161L251.333 167L254 180L269.004 174.498L285 172L285 173L268 177L280 176L280 177L277 177L277 178L292 176L292 177L289 182L251 188L251 189C262.189 189 291.808 192.122 295 179L291 173L295 162L269.129 165.4L262 160C264.415 153.272 256.226 155.215 252 156M290 155L290 157L293 157L293 155L290 155z"/>
<path style="fill:#c9b54a; stroke:none;" d="M35 156L38 158L35 156z"/>
<path style="fill:#3b3329; stroke:none;" d="M92 156L92 157L96 157L92 156z"/>
<path style="fill:#c9b54a; stroke:none;" d="M134 156L135 157L134 156z"/>
<path style="fill:#7c5e32; stroke:none;" d="M155 156L158 162C154.266 163.007 152.387 163.957 153 168L137 168L137 169L152 169L152 176L155 175L155 176L153 177L158 181L156 178L159 179L159 178L153 172L155 166L157 164L161 165L163 163L163 162L160 160L162 161L162 160L156 159L157 156L155 156z"/>
<path style="fill:#3b3329; stroke:none;" d="M156 159L160 161L160 162L163 162L163 163L161 165L157 164L155 166C153.867 170.948 154.656 175.036 159 178L159 179L156 178C162.343 184.164 166.977 177.071 173.09 174.854C177.626 173.209 183.249 174 188 174L188 175L171 176L171 177L178 180L182 177L181 179L184 179L184 176L187 176C187.609 179.651 192.645 177.211 195 176L193 182L194 179L190 180L191 183L154 188L154 189L185 188.285L196.24 185.436L197 176L195 176L198 163L170 167L165 161L167 156C162.808 156 158.48 155.175 156 159M180 159L180 160C184.687 159.984 193.444 160.434 196 156L180 159z"/>
<path style="fill:#c9b54a; stroke:none;" d="M233.333 156.667L233.667 157.333L233.333 156.667z"/>
<path style="fill:#3b3329; stroke:none;" d="M276 158L276 159C280.283 159.724 286.193 159.687 289 156L276 158z"/>
<path style="fill:#c9b54a; stroke:none;" d="M26 157L27 158L26 157M48 157L48 161L49 161L51 157L48 157z"/>
<path style="fill:#7c5e32; stroke:none;" d="M58.6667 157.333L59.3333 157.667L58.6667 157.333z"/>
<path style="fill:#3b3329; stroke:none;" d="M80 160L91 159L91 157L80 160z"/>
<path style="fill:#c9b54a; stroke:none;" d="M113.333 157.667L113.667 158.333L113.333 157.667M223 157L224 158L223 157M231 157L232 158L231 157z"/>
<path style="fill:#7c5e32; stroke:none;" d="M255 157L250 162L250 167L234 167L235 170L239 170L248 168L251 175L249 174C249.579 175.91 249.985 177.334 251 175L252 175L253 178C252.903 169.821 249.672 166.212 259 162L255 157z"/>
<path style="fill:#c9b54a; stroke:none;" d="M29.3333 158.667L29.6667 159.333L29.3333 158.667M32 158L33 159L32 158M135.667 158.333L136.333 158.667L135.667 158.333z"/>
<path style="fill:#7c5e32; stroke:none;" d="M252.667 158.333L253.333 158.667L252.667 158.333z"/>
<path style="fill:#c9b54a; stroke:none;" d="M33 159L33 161L35 159L33 159z"/>
<path style="fill:#7c5e32; stroke:none;" d="M58 159L52 163L51 175L62 162L58 159z"/>
<path style="fill:#afa49e; stroke:none;" d="M59.6667 159.333L60.3333 159.667L59.6667 159.333z"/>
<path style="fill:#7c5e32; stroke:none;" d="M61 159L62 160L61 159z"/>
<path style="fill:#3b3329; stroke:none;" d="M77 159L78 160L77 159M80 161L80 163L96 160L80 161z"/>
<path style="fill:#c9b54a; stroke:none;" d="M127 159L128 160L127 159M148 159L149 160L148 159z"/>
<path style="fill:#3b3329; stroke:none;" d="M176 159L176 160L179 160L176 159z"/>
<path style="fill:#c9b54a; stroke:none;" d="M208 159L209 160L208 159z"/>
<path style="fill:#fdfdfb; stroke:none;" d="M225 159L225 162L227 162L227 159L225 159z"/>
<path style="fill:#c9b54a; stroke:none;" d="M252 159L253 160L252 159z"/>
<path style="fill:#afa49e; stroke:none;" d="M256.667 159.333L257.333 159.667L256.667 159.333z"/>
<path style="fill:#7c5e32; stroke:none;" d="M258 159L259 160L258 159z"/>
<path style="fill:#3b3329; stroke:none;" d="M272 162L272 163L286 163L286 161L290 162L293 160L272 162z"/>
<path style="fill:#fdfdfb; stroke:none;" d="M26.3333 160.667L26.6667 161.333L26.3333 160.667M28 160L28 163L30 160L28 160z"/>
<path style="fill:#c9b54a; stroke:none;" d="M42 160L44 163L40 163L42 166L45 166L46 166L42 160M54.6667 160.333L55.3333 160.667L54.6667 160.333M98 160L99 161L98 160M143 160L138 163L138 164L143 160M152.333 160.667L152.667 161.333L152.333 160.667M155 160L154 162L155 160z"/>
<path style="fill:#afa49e; stroke:none;" d="M160 160L161 161L160 160z"/>
<path style="fill:#3b3329; stroke:none;" d="M180 162L180 164L196 161L180 162z"/>
<path style="fill:#c9b54a; stroke:none;" d="M218 160L219 161L218 160z"/>
<path style="fill:#fdfdfb; stroke:none;" d="M223.333 160.667L223.667 161.333L223.333 160.667z"/>
<path style="fill:#c9b54a; stroke:none;" d="M226 160L227 161L226 160M230 160L231 161L230 160M235 161L240 163L240 161L239 160L235 161M245 160L242 162L242 163L245 160M249 160L250 161L249 160M251 160L252 161L251 160z"/>
<path style="fill:#7c5e32; stroke:none;" d="M31 161L30 168L33 165L34 165L33 168L33 169L38 168L38 167L35 167L36 163L31 161z"/>
<path style="fill:#c9b54a; stroke:none;" d="M34 161L35 162L34 161z"/>
<path style="fill:#fdfdfb; stroke:none;" d="M39 161L37 164L40 165L41 162L39 161z"/>
<path style="fill:#c9b54a; stroke:none;" d="M40 161L41 162L40 161M52.6667 161.333L53.3333 161.667L52.6667 161.333z"/>
<path style="fill:#fdfdfb; stroke:none;" d="M126.333 161.667L126.667 162.333L126.333 161.667z"/>
<path style="fill:#c9b54a; stroke:none;" d="M127 161L128 162L127 161z"/>
<path style="fill:#3b3329; stroke:none;" d="M157 161L158 162L157 161z"/>
<path style="fill:#7c5e32; stroke:none;" d="M228 161C226.694 166.428 224.846 169.555 219 170L219 172L226 173L230 165L233 166L233 162L232 162L231 164L228 161z"/>
<path style="fill:#afa49e; stroke:none;" d="M238 161L237 163L238 161z"/>
<path style="fill:#c9b54a; stroke:none;" d="M250 161L251 162L250 161z"/>
<path style="fill:#afa49e; stroke:none;" d="M255 161L256 162L255 161z"/>
<path style="fill:#c9b54a; stroke:none;" d="M11.3333 162.667L11.6667 163.333L11.3333 162.667M50.3333 162.667L50.6667 163.333L50.3333 162.667z"/>
<path style="fill:#3b3329; stroke:none;" d="M71 162L71 165L72 165L71 162M77.6667 162.333L78.3333 162.667L77.6667 162.333z"/>
<path style="fill:#fdfdfb; stroke:none;" d="M141 162L142 163L141 162z"/>
<path style="fill:#c9b54a; stroke:none;" d="M153 162L154 163L153 162M210.333 162.667L210.667 163.333L210.333 162.667M248 162L249 163L248 162z"/>
<path style="fill:#3b3329; stroke:none;" d="M251 162L252 163L251 162M268 162L268 165L269 165L268 162z"/>
<path style="fill:#afa49e; stroke:none;" d="M39 163L40 164L39 163z"/>
<path style="fill:#c9b54a; stroke:none;" d="M129 163L130 164L129 163z"/>
<path style="fill:#7c5e32; stroke:none;" d="M130 165L129 171L122 171L122 172L129 174L134 166L135 166L134 171L135 171L137 165L130 165z"/>
<path style="fill:#fdfdfb; stroke:none;" d="M139 163L138 165L140 165L139 163M142 163L143 164L142 163z"/>
<path style="fill:#c9b54a; stroke:none;" d="M146 163L146 167L147 167L146 163z"/>
<path style="fill:#3b3329; stroke:none;" d="M172 163L171 165L173 165L172 163M176.667 163.333L177.333 163.667L176.667 163.333z"/>
<path style="fill:#fdfdfb; stroke:none;" d="M235.667 163.333L236.333 163.667L235.667 163.333M238 163L239 164L238 163z"/>
<path style="fill:#3b3329; stroke:none;" d="M249 163L249 167L250 167L249 163M52.3333 164.667L52.6667 165.333L52.3333 164.667z"/>
<path style="fill:#afa49e; stroke:none;" d="M54 164L55 165L54 164z"/>
<path style="fill:#7c5e32; stroke:none;" d="M59 164L60 165L59 164z"/>
<path style="fill:#c9b54a; stroke:none;" d="M141 164L143 166L143 164L141 164z"/>
<path style="fill:#3b3329; stroke:none;" d="M153 164L154 165L153 164z"/>
<path style="fill:#c9b54a; stroke:none;" d="M212 164L213 165L212 164M218 164L219 165L218 164M240 164L238 165L238 166L240 164M242.667 164.333L243.333 164.667L242.667 164.333z"/>
<path style="fill:#afa49e; stroke:none;" d="M251 164L252 165L251 164z"/>
<path style="fill:#7c5e32; stroke:none;" d="M255 164L257 166L257 164L255 164z"/>
<path style="fill:#c9b54a; stroke:none;" d="M17 165L18 166L17 165z"/>
<path style="fill:#3b3329; stroke:none;" d="M33 165L29 168L28 173L34 171L35 171C38.5148 175.617 46.7363 174 52 174L51 168L42 170L38 170L33 169L33 168L33 165z"/>
<path style="fill:#7c5e32; stroke:none;" d="M56 165L55 167L56 165z"/>
<path style="fill:#c9b54a; stroke:none;" d="M115 165L116 166L115 165z"/>
<path style="fill:#fdfdfb; stroke:none;" d="M141 165L142 166L141 165z"/>
<path style="fill:#3b3329; stroke:none;" d="M156 165L157 166L156 165M230 165L226 173L232 171L233 171C236.525 175.18 244.955 173.999 250 174L248 168L239 170L235 170L232 168L230 165z"/>
<path style="fill:#7c5e32; stroke:none;" d="M253 165L254 166L253 165z"/>
<path style="fill:#c9b54a; stroke:none;" d="M48 166L49 167L48 166M120.667 166.333L121.333 166.667L120.667 166.333z"/>
<path style="fill:#3b3329; stroke:none;" d="M134 166L129 174L135 172L136 172L153 175L152 169L136 168L135 171L134 171L134 166z"/>
<path style="fill:#7c5e32; stroke:none;" d="M140 166L141 167L140 166z"/>
<path style="fill:#fdfdfb; stroke:none;" d="M143 166L144 167L143 166z"/>
<path style="fill:#7c5e32; stroke:none;" d="M159.667 166.333L160.333 166.667L159.667 166.333z"/>
<path style="fill:#afa49e; stroke:none;" d="M198 166L198 183L199 183L198 166z"/>
<path style="fill:#7c5e32; stroke:none;" d="M212 166L213 167L212 166M39 167C40.4593 169.455 41.4305 169.289 43 167L39 167M58.3333 167.667L58.6667 168.333L58.3333 167.667z"/>
<path style="fill:#3b3329; stroke:none;" d="M152 167L153 168L152 167z"/>
<path style="fill:#c9b54a; stroke:none;" d="M211 167L212 168L211 167z"/>
<path style="fill:#7c5e32; stroke:none;" d="M232 167L233 168L232 167M255.333 167.667L255.667 168.333L255.333 167.667M97 168L94 170L94 171L96 172L94 173L96 175C92.627 175.562 85.9633 179.147 87 175L78 176L79 179L76 179L77 176L70 177L71 174L57 180L57 181C69.8341 190.821 85.1676 186.14 97 176L97 182L98 182L97 168M158 168L158 170L160 170L158 168z"/>
<path style="fill:#fdfdfb; stroke:none;" d="M211 168L212 169L211 168z"/>
<path style="fill:#7c5e32; stroke:none;" d="M230 168L231 169L230 168M294 168L291 173L293 180L294 180L294 168M26 169L22 170C24.2263 172.74 26.9714 172.944 29 170L27 171L28 169L26 169M38 169L39 170L38 169z"/>
<path style="fill:#c9b54a; stroke:none;" d="M112 169L113 170L112 169z"/>
<path style="fill:#7c5e32; stroke:none;" d="M127 169L128 170L127 169z"/>
<path style="fill:#c9b54a; stroke:none;" d="M211 169L212 170L211 169z"/>
<path style="fill:#afa49e; stroke:none;" d="M249.333 169.667L249.667 170.333L249.333 169.667z"/>
<path style="fill:#c9b54a; stroke:none;" d="M14 170L15 171L14 170z"/>
<path style="fill:#afa49e; stroke:none;" d="M97.3333 170.667L97.6667 171.333L97.3333 170.667z"/>
<path style="fill:#7c5e32; stroke:none;" d="M197 170L195 176L197 176L197 181L198 181L197 170M231 170L232 171L231 170z"/>
<path style="fill:#c9b54a; stroke:none;" d="M15 171L16 172L15 171z"/>
<path style="fill:#7c5e32; stroke:none;" d="M34 171L32 173L32 174L38 174L38 173L34 171M56.6667 171.333L57.3333 171.667L56.6667 171.333M92 171L93 172L92 171z"/>
<path style="fill:#afa49e; stroke:none;" d="M153 171L154 172L153 171z"/>
<path style="fill:#7c5e32; stroke:none;" d="M157 171L157 173L159 173L159 171L157 171z"/>
<path style="fill:#c9b54a; stroke:none;" d="M213 171L214 172L213 171z"/>
<path style="fill:#7c5e32; stroke:none;" d="M232 171L230 173L230 174L238 174L238 173L232 171M254.667 171.333L255.333 171.667L254.667 171.333M287 171L288 172L287 171z"/>
<path style="fill:#c9b54a; stroke:none;" d="M20 172L21 173L20 172z"/>
<path style="fill:#7c5e32; stroke:none;" d="M72 174L72 175L90 173L72 174z"/>
<path style="fill:#c9b54a; stroke:none;" d="M118 172L119 173L118 172z"/>
<path style="fill:#7c5e32; stroke:none;" d="M135 172L134 175L135 172M190.667 172.333L191.333 172.667L190.667 172.333M254 180L254 181L257 181C258.561 192.82 281.732 183.552 289 182L288 179L292 177L292 176L277 178L277 177L280 177L280 176L268 177L285 173C273.661 170.276 264.447 178.255 254 180M55 173L54 175L56 175L55 173M239 173L240 174L239 173z"/>
<path style="fill:#afa49e; stroke:none;" d="M250.333 173.667L250.667 174.333L250.333 173.667z"/>
<path style="fill:#7c5e32; stroke:none;" d="M38 174L39 175L38 174M41 174L42 175L41 174M90 174L91 175L90 174M138 174L138 175L142 175L138 174M143 174L143 175L147 175L143 174M159 181L162 188L191 183L190 180L194 179L193 182L195 176C192.051 176.983 185.941 180.238 187 176L181 179L182 177L178 180L177 177L171 177L171 176L188 175C177.233 170.482 168.682 178.179 159 181M238 174L239 175L238 174M286.667 174.333L287.333 174.667L286.667 174.333z"/>
<path style="fill:#afa49e; stroke:none;" d="M22 175L23 176L22 175z"/>
<path style="fill:#c9b54a; stroke:none;" d="M31 175L32 176L31 175z"/>
<path style="fill:#fdfdfb; stroke:none;" d="M33 175L34 176L33 175M35 175L35 176L38 176L35 175M42.6667 175.333L43.3333 175.667L42.6667 175.333z"/>
<path style="fill:#3b3329; stroke:none;" d="M52 175L53 176L52 175z"/>
<path style="fill:#afa49e; stroke:none;" d="M122 175L123 176L122 175z"/>
<path style="fill:#7c5e32; stroke:none;" d="M190.667 175.333L191.333 175.667L190.667 175.333z"/>
<path style="fill:#afa49e; stroke:none;" d="M219 175L220 176L219 175z"/>
<path style="fill:#fdfdfb; stroke:none;" d="M226 175L227 176L226 175z"/>
<path style="fill:#c9b54a; stroke:none;" d="M227 175L228 176L227 175z"/>
<path style="fill:#fdfdfb; stroke:none;" d="M229 175L230 176L229 175M231 175L232 176L231 175z"/>
<path style="fill:#c9b54a; stroke:none;" d="M232 175L233 176L232 175z"/>
<path style="fill:#fdfdfb; stroke:none;" d="M233.667 175.333L234.333 175.667L233.667 175.333z"/>
<path style="fill:#c9b54a; stroke:none;" d="M235 175L236 176L235 175M237 175L238 176L237 175M239 175L240 185L241 185C241.67 181.368 242.002 177.52 239 175M247 175L248 176L247 175z"/>
<path style="fill:#afa49e; stroke:none;" d="M251 175L252 176L251 175z"/>
<path style="fill:#7c5e32; stroke:none;" d="M280 175L280 176L284 176L280 175M41 176L42 177L41 176z"/>
<path style="fill:#c9b54a; stroke:none;" d="M45 176L45 180L46 180L45 176M50 176L52 178L50 176z"/>
<path style="fill:#7c5e32; stroke:none;" d="M53 176L53 177L57 177L53 176z"/>
<path style="fill:#3b3329; stroke:none;" d="M95 176C87.6095 188.166 64.8852 187.893 52 188L52 189L84 187.715L95.3935 185.142L97 176L95 176z"/>
<path style="fill:#c9b54a; stroke:none;" d="M122 176L123 177L122 176z"/>
<path style="fill:#afa49e; stroke:none;" d="M125 176L126 177L125 176z"/>
<path style="fill:#c9b54a; stroke:none;" d="M134 176L135 177L134 176z"/>
<path style="fill:#fdfdfb; stroke:none;" d="M135 176L136 177L135 176M137 176L138 177L137 176z"/>
<path style="fill:#c9b54a; stroke:none;" d="M138 176L139 177L138 176M140 176L141 177L140 176M143 176L144 177L143 176z"/>
<path style="fill:#7c5e32; stroke:none;" d="M182 176L183 177L182 176M238 176L239 177L238 176z"/>
<path style="fill:#3b3329; stroke:none;" d="M251 176L252 177L251 176z"/>
<path style="fill:#fdfdfb; stroke:none;" d="M33 177L33 178L36 178L33 177z"/>
<path style="fill:#c9b54a; stroke:none;" d="M47 177L49 179L47 177z"/>
<path style="fill:#7c5e32; stroke:none;" d="M57.6667 177.333L58.3333 177.667L57.6667 177.333z"/>
<path style="fill:#3b3329; stroke:none;" d="M80 177L80 178L84 178L80 177z"/>
<path style="fill:#7c5e32; stroke:none;" d="M141.667 177.333L142.333 177.667L141.667 177.333z"/>
<path style="fill:#3b3329; stroke:none;" d="M155 177L156 178L155 177z"/>
<path style="fill:#afa49e; stroke:none;" d="M219 177L220 178L219 177z"/>
<path style="fill:#c9b54a; stroke:none;" d="M220 177L221 178L220 177z"/>
<path style="fill:#fdfdfb; stroke:none;" d="M230 177L230 178L233 179L230 177z"/>
<path style="fill:#c9b54a; stroke:none;" d="M233.667 177.333L234.333 177.667L233.667 177.333M236 177L238 179L236 177z"/>
<path style="fill:#7c5e32; stroke:none;" d="M255 177L256 178L255 177z"/>
<path style="fill:#3b3329; stroke:none;" d="M273 177L273 179L276 179L276 177L273 177z"/>
<path style="fill:#c9b54a; stroke:none;" d="M34 178L34 179L39 179L34 178z"/>
<path style="fill:#fdfdfb; stroke:none;" d="M39.6667 178.333L40.3333 178.667L39.6667 178.333M42.6667 178.333L43.3333 178.667L42.6667 178.333z"/>
<path style="fill:#c9b54a; stroke:none;" d="M53 178L53 180L55 180L53 178z"/>
<path style="fill:#afa49e; stroke:none;" d="M122 178L123 179L122 178z"/>
<path style="fill:#c9b54a; stroke:none;" d="M130 178L131 179L130 178M132.667 178.333L133.333 178.667L132.667 178.333z"/>
<path style="fill:#fdfdfb; stroke:none;" d="M134.667 178.333L135.333 178.667L134.667 178.333M137 178L138 179L137 178z"/>
<path style="fill:#c9b54a; stroke:none;" d="M138.667 178.333L139.333 178.667L138.667 178.333z"/>
<path style="fill:#fdfdfb; stroke:none;" d="M140 178L141 179L140 178M143 178L144 179L143 178z"/>
<path style="fill:#c9b54a; stroke:none;" d="M152 179L152 180L155 180L152 179M249 178L249 179L252 179L249 178z"/>
<path style="fill:#7c5e32; stroke:none;" d="M253.333 178.667L253.667 179.333L253.333 178.667z"/>
<path style="fill:#fdfdfb; stroke:none;" d="M47 179L48 180L47 179z"/>
<path style="fill:#7c5e32; stroke:none;" d="M56 179L57 180L56 179z"/>
<path style="fill:#c9b54a; stroke:none;" d="M127 179L128 180L127 179z"/>
<path style="fill:#7c5e32; stroke:none;" d="M291 179L289 180L289 181L291 179z"/>
<path style="fill:#c9b54a; stroke:none;" d="M36.6667 180.333L37.3333 180.667L36.6667 180.333M40 180L41 181L40 180z"/>
<path style="fill:#fdfdfb; stroke:none;" d="M42.6667 180.333L43.3333 180.667L42.6667 180.333z"/>
<path style="fill:#c9b54a; stroke:none;" d="M44 180L42 181L42 182L44 180M135 180L136 181L135 180M234 180L235 181L234 180M237 180L238 181L237 180z"/>
<path style="fill:#fdfdfb; stroke:none;" d="M239 180L240 181L239 180M48 181L49 182L48 181z"/>
<path style="fill:#c9b54a; stroke:none;" d="M132.667 181.333L133.333 181.667L132.667 181.333M142 181L143 182L142 181z"/>
<path style="fill:#fdfdfb; stroke:none;" d="M143 181L144 182L143 181z"/>
<path style="fill:#c9b54a; stroke:none;" d="M153 181L152 183L153 181M236 181L237 182L236 181z"/>
<path style="fill:#7c5e32; stroke:none;" d="M294 181L295 182L294 181z"/>
<path style="fill:#c9b54a; stroke:none;" d="M38 182L39 183L38 182z"/>
<path style="fill:#afa49e; stroke:none;" d="M39 182L40 183L39 182M97.3333 182.667L97.6667 183.333L97.3333 182.667z"/>
<path style="fill:#c9b54a; stroke:none;" d="M139 182L141 184L139 182z"/>
<path style="fill:#afa49e; stroke:none;" d="M294.333 182.667L294.667 183.333L294.333 182.667M14.6667 183.333L15.3333 183.667L14.6667 183.333z"/>
<path style="fill:#c9b54a; stroke:none;" d="M40 183L41 184L40 183M42 183L43 184L42 183z"/>
<path style="fill:#fdfdfb; stroke:none;" d="M43.6667 183.333L44.3333 183.667L43.6667 183.333z"/>
<path style="fill:#afa49e; stroke:none;" d="M141 183L142 184L141 183M211 183L211 184L216 185L216 184L211 183M237.667 183.333L238.333 183.667L237.667 183.333M16 184L16 185L35 187L35 186L16 184z"/>
<path style="fill:#7c5e32; stroke:none;" d="M197 184L198 185L197 184z"/>
<path style="fill:#fdfdfb; stroke:none;" d="M241 184L242 185L241 184z"/>
<path style="fill:#c9b54a; stroke:none;" d="M242 184L243 185L242 184z"/>
<path style="fill:#7c5e32; stroke:none;" d="M293 184L294 185L293 184z"/>
<path style="fill:#afa49e; stroke:none;" d="M39 185L38 188L45 189L45 188L39 188L39 185z"/>
<path style="fill:#c9b54a; stroke:none;" d="M42.6667 185.333L43.3333 185.667L42.6667 185.333z"/>
<path style="fill:#afa49e; stroke:none;" d="M96 185L97 186L96 185z"/>
<path style="fill:#c9b54a; stroke:none;" d="M141 185L142 186L141 185z"/>
<path style="fill:#afa49e; stroke:none;" d="M197 185L198 186L197 185z"/>
<path style="fill:#c9b54a; stroke:none;" d="M238 185L239 186L238 185z"/>
<path style="fill:#afa49e; stroke:none;" d="M293 185L294 186L293 185z"/>
<path style="fill:#7c5e32; stroke:none;" d="M93 186L94 187L93 186z"/>
<path style="fill:#afa49e; stroke:none;" d="M94.6667 186.333L95.3333 186.667L94.6667 186.333z"/>
<path style="fill:#7c5e32; stroke:none;" d="M196 186L197 187L196 186z"/>
<path style="fill:#c9b54a; stroke:none;" d="M239 186L240 187L239 186z"/>
<path style="fill:#fdfdfb; stroke:none;" d="M240 186L241 187L240 186z"/>
<path style="fill:#7c5e32; stroke:none;" d="M289.667 186.333L290.333 186.667L289.667 186.333z"/>
<path style="fill:#afa49e; stroke:none;" d="M291 186L292 187L291 186z"/>
<path style="fill:#7c5e32; stroke:none;" d="M34 187L34 188L38 188L34 187M39 187L39 188L60 188L39 187M85.6667 187.333L86.3333 187.667L85.6667 187.333z"/>
<path style="fill:#afa49e; stroke:none;" d="M87 187L87 188L91 188L87 187z"/>
<path style="fill:#7c5e32; stroke:none;" d="M192 187L193 188L192 187z"/>
<path style="fill:#afa49e; stroke:none;" d="M193.667 187.333L194.333 187.667L193.667 187.333z"/>
<path style="fill:#c9b54a; stroke:none;" d="M195 187L196 188L195 187z"/>
<path style="fill:#7c5e32; stroke:none;" d="M232 187L232 188L255 188L232 187M280 187L280 188L283 188L280 187z"/>
<path style="fill:#afa49e; stroke:none;" d="M283 187L283 188L286 188L283 187z"/>
<path style="fill:#7c5e32; stroke:none;" d="M70 188L70 189L75 189L70 188z"/>
<path style="fill:#afa49e; stroke:none;" d="M75 188L75 189L82 189L75 188z"/>
<path style="fill:#7c5e32; stroke:none;" d="M136 188L136 189L160 190L136 188M183 188L184 189L183 188z"/>
<path style="fill:#afa49e; stroke:none;" d="M184 188L184 189L188 189L184 188M239 188L239 189L245 189L239 188z"/>
<path style="fill:#7c5e32; stroke:none;" d="M264 188L264 189L268 189L264 188z"/>
<path style="fill:#afa49e; stroke:none;" d="M268 188L268 189L275 189L268 188M55 189L55 190L61 190L55 189z"/>
<path style="fill:#c9b54a; stroke:none;" d="M61.6667 189.333L62.3333 189.667L61.6667 189.333z"/>
<path style="fill:#afa49e; stroke:none;" d="M63 189L64 190L63 189M144 189L144 190L152 190L144 189z"/>
<path style="fill:#7c5e32; stroke:none;" d="M162 189L162 190L170 190L162 189z"/>
<path style="fill:#afa49e; stroke:none;" d="M170 189L170 190L176 190L170 189z"/>
</svg>
