<?xml version="1.0" standalone="yes"?>
<svg xmlns="http://www.w3.org/2000/svg" width="156" height="156">
<path style="fill:#010101; stroke:none;" d="M0 0L0 38L1 38C3.65045 20.3173 20.3351 3.64581 38 1C27.964 -3.21124 10.9106 0 0 0z"/>
<path style="fill:#2952c4; stroke:none;" d="M36 155C37.6586 146.854 43.9577 147.001 51 147L51 131L42 131L42 105C26.9454 100.771 38.9306 86.0633 49 84.2284C60.9149 82.0572 74.8858 84 87 84C93.5312 84 101.672 82.7028 108 84.4336C118.31 87.2538 128.017 100.231 114 105L114 131L102 131C102 127.031 103.553 118.861 100.972 115.603C98.6391 112.658 86.3463 112.776 84.6034 116.318C82.7263 120.133 84 126.817 84 131L72 131L72 147C83.1945 147 117.188 141.188 120 155C133.243 151.862 144.517 143.103 150.741 131C157.837 117.199 156 102.066 156 87C156 54.2711 161.234 6.67697 117 0.300156C105.718 -1.32622 93.3932 0 82 0C56.8071 0 28.3589 -4.82884 10.3287 17C-1.79385 31.6766 0 49.2465 0 67C0 100.22 -6.26963 144.96 36 155z"/>
<path style="fill:#010101; stroke:none;" d="M118 0L118 1C135.683 3.65041 152.354 20.3351 155 38L156 38L156 0L118 0z"/>
<path style="fill:#9fb2e5; stroke:none;" d="M52 33L53 34L52 33z"/>
<path style="fill:#e8ecf9; stroke:none;" d="M53.0394 34.3449C44.4484 34.5088 46.7862 44.8488 51.0193 48.331C59.6656 55.4436 69.9611 58.2593 81 57.9853C89.9228 57.7639 99.3951 53.8517 105.981 47.8148C110.567 43.6107 111.599 37.9552 104.995 34.7515C100.097 32.375 88.4392 44.0112 82 44.8148C75.1582 45.6687 68.8406 44.1347 63 40.5316C60.1551 38.7766 56.5802 34.2774 53.0394 34.3449z"/>
<path style="fill:#9fb2e5; stroke:none;" d="M54 33L55 34L54 33z"/>
<path style="fill:#6c88d7; stroke:none;" d="M101 33L102 34L101 33M104 33L105 34L104 33z"/>
<path style="fill:#9fb2e5; stroke:none;" d="M55 34L56 35L55 34z"/>
<path style="fill:#6c88d7; stroke:none;" d="M100 34L101 35L100 34M105 34L106 35L105 34M56 35L57 36L56 35M99 35L100 36L99 35M106 35L107 36L106 35M57 36L58 37L57 36M98 36L99 37L98 36M107 36L108 37L107 36z"/>
<path style="fill:#9fb2e5; stroke:none;" d="M48 37L49 38L48 37z"/>
<path style="fill:#6c88d7; stroke:none;" d="M58 37L59 38L58 37M97 37L98 38L97 37M108 37L109 38L108 37z"/>
<path style="fill:#9fb2e5; stroke:none;" d="M47 38L48 39L47 38M59 38L60 39L59 38z"/>
<path style="fill:#6c88d7; stroke:none;" d="M96 38L97 39L96 38z"/>
<path style="fill:#9fb2e5; stroke:none;" d="M46 39L47 40L46 39M95 39L96 40L95 39z"/>
<path style="fill:#6c88d7; stroke:none;" d="M45 40L46 41L45 40M62 40L63 41L62 40M93 40L94 41L93 40z"/>
<path style="fill:#9fb2e5; stroke:none;" d="M45 41L46 42L45 41z"/>
<path style="fill:#6c88d7; stroke:none;" d="M64 41L65 42L64 41M91 41L92 42L91 41M45 42L46 43L45 42M66 42L67 43L66 42M89 42L90 43L89 42z"/>
<path style="fill:#9fb2e5; stroke:none;" d="M68 43L69 44L68 43z"/>
<path style="fill:#6c88d7; stroke:none;" d="M69 43L70 44L69 43z"/>
<path style="fill:#9fb2e5; stroke:none;" d="M87 43L88 44L87 43M71 44L72 45L71 44z"/>
<path style="fill:#6c88d7; stroke:none;" d="M72.6667 44.3333L73.3333 44.6667L72.6667 44.3333M82.6667 44.3333L83.3333 44.6667L82.6667 44.3333z"/>
<path style="fill:#9fb2e5; stroke:none;" d="M84 44L85 45L84 44z"/>
<path style="fill:#6c88d7; stroke:none;" d="M109 44L110 45L109 44M108 45L109 46L108 45M107 46L108 47L107 46M106 47L107 48L106 47z"/>
<path style="fill:#9fb2e5; stroke:none;" d="M51 48L52 49L51 48M52 49L53 50L52 49z"/>
<path style="fill:#6c88d7; stroke:none;" d="M102 50L103 51L102 50z"/>
<path style="fill:#9fb2e5; stroke:none;" d="M55 51L56 52L55 51z"/>
<path style="fill:#6c88d7; stroke:none;" d="M101 51L102 52L101 51z"/>
<path style="fill:#9fb2e5; stroke:none;" d="M99 52L100 53L99 52z"/>
<path style="fill:#6c88d7; stroke:none;" d="M58 53L59 54L58 53z"/>
<path style="fill:#9fb2e5; stroke:none;" d="M97 53L98 54L97 53z"/>
<path style="fill:#6c88d7; stroke:none;" d="M60 54L61 55L60 54z"/>
<path style="fill:#9fb2e5; stroke:none;" d="M95 54L96 55L95 54z"/>
<path style="fill:#6c88d7; stroke:none;" d="M62 55L63 56L62 55z"/>
<path style="fill:#9fb2e5; stroke:none;" d="M63 55L64 56L63 55z"/>
<path style="fill:#6c88d7; stroke:none;" d="M93 55L94 56L93 55M65 56L66 57L65 56z"/>
<path style="fill:#9fb2e5; stroke:none;" d="M66 56L67 57L66 56M90 56L91 57L90 56z"/>
<path style="fill:#6c88d7; stroke:none;" d="M91 56L92 57L91 56M68.6667 57.3333L69.3333 57.6667L68.6667 57.3333z"/>
<path style="fill:#9fb2e5; stroke:none;" d="M70 57L71 58L70 57M86 57L87 58L86 57z"/>
<path style="fill:#6c88d7; stroke:none;" d="M87 57L88 58L87 57M74 58L74 59L82 59L74 58z"/>
<path style="fill:#9fb2e5; stroke:none;" d="M46 84L47 85L46 84z"/>
<path style="fill:#e8ecf9; stroke:none;" d="M40 91C47.691 91 53.4688 91.9336 57 84C49.4915 84.0008 44.6658 84.5365 40 91z"/>
<path style="fill:#9fb2e5; stroke:none;" d="M34 96L68 92L69 96L87 96L88 92L103 92C106.377 98.1245 115.873 96 122 96L115 89C115 92.0943 107.709 91.6728 105 90.8333C101.546 89.7631 101.52 86.1674 98.8333 84.5C95.961 82.7172 89.3299 84 86 84L86 91L70 91L70 84C66.4126 84 61.5686 83.1729 58.2091 84.6034C54.9098 86.0083 53.6808 89.7306 49.9846 90.6821C43.0959 92.4554 38.9232 89.2956 34 96z"/>
<path style="fill:#e8ecf9; stroke:none;" d="M70 84L70 91L86 91L86 84L70 84M99 84C102.531 91.9335 108.309 91 116 91C111.334 84.5365 106.508 84.0008 99 84z"/>
<path style="fill:#9fb2e5; stroke:none;" d="M109 84L110 85L109 84z"/>
<path style="fill:#6c88d7; stroke:none;" d="M44 85L45 86L44 85M111 85L112 86L111 85M43 86L44 87L43 86M112 86L113 87L112 86M42 87L43 88L42 87M113 87L114 88L113 87M41 88L42 89L41 88M114 88L115 89L114 88z"/>
<path style="fill:#9fb2e5; stroke:none;" d="M40 89L41 90L40 89z"/>
<path style="fill:#6c88d7; stroke:none;" d="M51 96L69 96L68 92C61.8671 92.325 54.8615 90.3476 51 96M88 92L87 96L105 96L103 92L88 92M34 94L35 95L34 94M121 94L122 95L121 94M33 95L34 96L33 95M122 95L123 96L122 95z"/>
<path style="fill:#e8ecf9; stroke:none;" d="M33 96C35.8635 103.788 47.7672 104.972 51 97L69 97C72.6411 105.009 83.5747 105.446 87 97L105 97C108.501 104.701 120.063 103.987 123 96L33 96z"/>
<path style="fill:#9fb2e5; stroke:none;" d="M51 97L50 100L59 105L71 101L69 97L51 97M86 100L95 105L107 101L105 97L86 100M33 98L34 99L33 98M122 98L123 99L122 98z"/>
<path style="fill:#6c88d7; stroke:none;" d="M33 99L34 100L33 99M51 99L42 105L42 131L51 131L51 147C48.5206 147 29.933 148.437 37.6188 154.821C41.1585 157.761 50.6523 156 55 156L101 156C104.974 156 116.31 157.926 118.928 154.258C120.995 151.364 117.506 148.178 114.956 147.434C108.178 145.456 99.0329 147 92 147L72 147L72 131L84 131C84 126.905 82.6632 119.861 85.0278 116.318C87.4437 112.697 98.5563 112.697 100.972 116.318C103.337 119.861 102 126.905 102 131L114 131L114 105C111.181 104.052 107.96 101.176 105 101.176C96.9999 101.176 94.6725 107.954 88 99C84.8072 101.172 81.2226 105.111 77 104.458C74.1099 104.012 71.9579 101.176 69 101.176C59.9311 101.176 59.5625 106.645 51 99M122 99L123 100L122 99z"/>
<path style="fill:#9fb2e5; stroke:none;" d="M34 100L35 101L34 100M121 100L122 101L121 100M35 101C38.4468 104.621 42.2237 105.038 47 104L35 101M109 103L109 104C113.89 105.123 117.502 104.785 121 101L109 103M73 103L73 104L83 104L73 103z"/>
<path style="fill:#6c88d7; stroke:none;" d="M38 104L38 105L41 105L38 104M116 104L117 105L116 104z"/>
<path style="fill:#9fb2e5; stroke:none;" d="M51 129L72 129C72 125.325 73.2426 118.661 70.821 115.603C68.4415 112.599 54.4225 112.782 52.0278 115.742C49.6928 118.628 51 125.488 51 129z"/>
<path style="fill:#010101; stroke:none;" d="M0 118L0 156L38 156L38 155C16.6377 151.798 9.02684 134.583 0 118M155 118C152.35 135.683 135.665 152.354 118 155L118 156L156 156C156 145.089 159.211 128.036 155 118z"/>
</svg>
