<?xml version="1.0" standalone="yes"?>
<svg xmlns="http://www.w3.org/2000/svg" width="500" height="500">
<path style="fill:#10a7b5; stroke:none;" d="M0 0L0 500L500 500L500 0L0 0z"/>
<path style="fill:#7ebf67; stroke:none;" d="M192 45L193 46L192 45z"/>
<path style="fill:#ffdb0e; stroke:none;" d="M193 45L211 78L249 144L251 144L289 78L307 45L193 45z"/>
<path style="fill:#7ebf67; stroke:none;" d="M307 45L308 46L307 45M193 47L194 48L193 47M306 47L307 48L306 47M194 49L195 50L194 49M305 49L306 50L305 49z"/>
<path style="fill:#feffff; stroke:none;" d="M50 50L50 98L73 73L98 50L50 50M402 50L427 73L450 98L450 50L402 50z"/>
<path style="fill:#7ebf67; stroke:none;" d="M196 52L197 53L196 52M303 52L304 53L303 52M197 54L198 55L197 54M302 54L303 55L302 54M198 56L199 57L198 56M301 56L302 57L301 56z"/>
<path style="fill:#a6dee4; stroke:none;" d="M199 58L200 59L199 58M300 58L301 59L300 58z"/>
<path style="fill:#7ebf67; stroke:none;" d="M195 59L196 60L195 59z"/>
<path style="fill:#a6dee4; stroke:none;" d="M196 59L197 60L196 59z"/>
<path style="fill:#feffff; stroke:none;" d="M290 76C303.043 80.9205 316.406 84.0736 329 90.3704C368.503 110.122 400.961 145.634 416.575 187C456.857 293.722 379.691 425.078 261 427.985C229.684 428.753 199.258 423.759 171 409.63C88.9085 368.584 49.1072 266.928 85.4275 182C102.192 142.8 132.755 109.493 171 90.3704C183.594 84.0736 196.957 80.9205 210 76C207.962 71.6396 203.9 61.1672 198.895 59.7878C192.264 57.9602 179.996 64.7011 174 67.2809C150.642 77.3304 129.053 90.975 111 109C60.5196 159.403 40.3018 234.207 59.4244 303C66.673 329.077 79.0883 354.118 96.4352 375C167.669 460.752 301.262 472.951 384 395.91C406.193 375.246 423.063 350.066 434.396 322C443.847 298.595 448.296 272.172 447.996 247C447.263 185.364 416.023 125.488 366 89.5795C351.262 78.9995 335.049 70.304 318 64.0532C313.735 62.4894 304.623 57.9411 300.213 60.1211C295.656 62.3736 292.073 71.5647 290 76z"/>
<path style="fill:#a6dee4; stroke:none;" d="M303 59L304 60L303 59z"/>
<path style="fill:#7ebf67; stroke:none;" d="M304 59L305 60L304 59z"/>
<path style="fill:#a6dee4; stroke:none;" d="M192.667 60.3333L193.333 60.6667L192.667 60.3333M306.667 60.3333L307.333 60.6667L306.667 60.3333M189 61L190 62L189 61M310 61L311 62L310 61M186 62L187 63L186 62M313 62L314 63L313 62M183 63L184 64L183 63M316 63L317 64L316 63M180 64L181 65L180 64M319 64L320 65L319 64z"/>
<path style="fill:#7ebf67; stroke:none;" d="M177 65L178 66L177 65z"/>
<path style="fill:#a6dee4; stroke:none;" d="M178 65L179 66L178 65M321 65L322 66L321 65z"/>
<path style="fill:#7ebf67; stroke:none;" d="M322 65L323 66L322 65z"/>
<path style="fill:#a6dee4; stroke:none;" d="M175 66L176 67L175 66M324 66L325 67L324 66M173 67L174 68L173 67M326 67L327 68L326 67z"/>
<path style="fill:#7ebf67; stroke:none;" d="M170 68L171 69L170 68z"/>
<path style="fill:#a6dee4; stroke:none;" d="M171 68L172 69L171 68M328 68L329 69L328 68z"/>
<path style="fill:#7ebf67; stroke:none;" d="M329 68L330 69L329 68z"/>
<path style="fill:#a6dee4; stroke:none;" d="M168 69L169 70L168 69M331 69L332 70L331 69M166 70L167 71L166 70M333 70L334 71L333 70M164 71L165 72L164 71M335 71L336 72L335 71M162 72L163 73L162 72M337 72L338 73L337 72M160 73L161 74L160 73M339 73L340 74L339 73M158 74L159 75L158 74M341 74L342 75L341 74M156 75L157 76L156 75M343 75L344 76L343 75M154 76L155 77L154 76M209 76L210 77L209 76M290 76L291 77L290 76M345 76L346 77L345 76z"/>
<path style="fill:#7ebf67; stroke:none;" d="M152 77L153 78L152 77z"/>
<path style="fill:#a6dee4; stroke:none;" d="M205.667 77.3333L206.333 77.6667L205.667 77.3333z"/>
<path style="fill:#10a7b5; stroke:none;" d="M278 98C290.75 102.324 303.688 104.954 316 110.781C347.2 125.548 373.635 152.007 388.741 183C425.286 257.982 392.9 349.859 319 387.741C294.692 400.201 268.059 404.648 241 403.985C137.993 401.462 69.5953 286.895 106.45 194C120.583 158.376 148.508 128.068 183 111.259C195.595 105.121 208.895 102.445 222 98C220.17 92.9726 214.899 79.6772 209.61 77.6937C205.133 76.0143 197.244 80.2518 193 81.6667C177.091 86.9706 161.721 94.4541 148 104.144C101.9 136.701 74.4982 188.846 72.0394 245C71.0749 267.026 75.2736 290.392 82.9498 311C91.6527 334.364 104.752 355.95 122.039 374C189.114 444.034 304.592 444.436 374 377.961C394.594 358.237 409.708 332.873 418.921 306C440.213 243.899 422.753 171.692 376.985 125.001C359.357 107.017 336.77 92.1597 313 83.6921C307.651 81.7866 295.992 75.5923 290.39 77.6937C285.101 79.6772 279.83 92.9727 278 98z"/>
<path style="fill:#a6dee4; stroke:none;" d="M293.667 77.3333L294.333 77.6667L293.667 77.3333z"/>
<path style="fill:#7ebf67; stroke:none;" d="M347 77L348 78L347 77z"/>
<path style="fill:#a6dee4; stroke:none;" d="M151 78L152 79L151 78M201.667 78.3333L202.333 78.6667L201.667 78.3333z"/>
<path style="fill:#7ebf67; stroke:none;" d="M211 78L212 79L211 78M288 78L289 79L288 78z"/>
<path style="fill:#a6dee4; stroke:none;" d="M297.667 78.3333L298.333 78.6667L297.667 78.3333M348 78L349 79L348 78M149 79L150 80L149 79M198 79L199 80L198 79z"/>
<path style="fill:#7ebf67; stroke:none;" d="M199 79L200 80L199 79M300 79L301 80L300 79z"/>
<path style="fill:#a6dee4; stroke:none;" d="M301 79L302 80L301 79M350 79L351 80L350 79M147 80L148 81L147 80M195 80L196 81L195 80z"/>
<path style="fill:#7ebf67; stroke:none;" d="M196 80L197 81L196 80M212 80L213 81L212 80M287 80L288 81L287 80M303 80L304 81L303 80z"/>
<path style="fill:#a6dee4; stroke:none;" d="M304 80L305 81L304 80M352 80L353 81L352 80M146 81L147 82L146 81M192 81L193 82L192 81z"/>
<path style="fill:#7ebf67; stroke:none;" d="M193 81L194 82L193 81M306 81L307 82L306 81z"/>
<path style="fill:#a6dee4; stroke:none;" d="M307 81L308 82L307 81M353 81L354 82L353 81M144 82L145 83L144 82M189 82L190 83L189 82z"/>
<path style="fill:#7ebf67; stroke:none;" d="M190 82L191 83L190 82M213 82L214 83L213 82M286 82L287 83L286 82M309 82L310 83L309 82z"/>
<path style="fill:#a6dee4; stroke:none;" d="M310 82L311 83L310 82M355 82L356 83L355 82z"/>
<path style="fill:#7ebf67; stroke:none;" d="M142 83L143 84L142 83z"/>
<path style="fill:#a6dee4; stroke:none;" d="M186 83L187 84L186 83z"/>
<path style="fill:#7ebf67; stroke:none;" d="M187 83L188 84L187 83M214 83L215 84L214 83M285 83L286 84L285 83M312 83L313 84L312 83z"/>
<path style="fill:#a6dee4; stroke:none;" d="M313 83L314 84L313 83z"/>
<path style="fill:#7ebf67; stroke:none;" d="M357 83L358 84L357 83z"/>
<path style="fill:#a6dee4; stroke:none;" d="M141 84L142 85L141 84M184 84L185 85L184 84M315 84L316 85L315 84M358 84L359 85L358 84z"/>
<path style="fill:#7ebf67; stroke:none;" d="M139 85L140 86L139 85z"/>
<path style="fill:#a6dee4; stroke:none;" d="M181 85L182 86L181 85z"/>
<path style="fill:#7ebf67; stroke:none;" d="M182 85L183 86L182 85M215 85L216 86L215 85M284 85L285 86L284 85M317 85L318 86L317 85z"/>
<path style="fill:#a6dee4; stroke:none;" d="M318 85L319 86L318 85z"/>
<path style="fill:#7ebf67; stroke:none;" d="M360 85L361 86L360 85z"/>
<path style="fill:#a6dee4; stroke:none;" d="M138 86L139 87L138 86M179 86L180 87L179 86M320 86L321 87L320 86M361 86L362 87L361 86M177 87L178 88L177 87z"/>
<path style="fill:#7ebf67; stroke:none;" d="M216 87L217 88L216 87M283 87L284 88L283 87z"/>
<path style="fill:#a6dee4; stroke:none;" d="M322 87L323 88L322 87M135 88L136 89L135 88z"/>
<path style="fill:#7ebf67; stroke:none;" d="M175 88L176 89L175 88M324 88L325 89L324 88z"/>
<path style="fill:#a6dee4; stroke:none;" d="M364 88L365 89L364 88M134 89L135 90L134 89M172 89L173 90L172 89z"/>
<path style="fill:#7ebf67; stroke:none;" d="M173 89L174 90L173 89M326 89L327 90L326 89z"/>
<path style="fill:#a6dee4; stroke:none;" d="M327 89L328 90L327 89M365 89L366 90L365 89z"/>
<path style="fill:#7ebf67; stroke:none;" d="M132 90L133 91L132 90z"/>
<path style="fill:#a6dee4; stroke:none;" d="M170 90L171 91L170 90z"/>
<path style="fill:#7ebf67; stroke:none;" d="M171 90L172 91L171 90M218 90L219 91L218 90M281 90L282 91L281 90M328 90L329 91L328 90z"/>
<path style="fill:#a6dee4; stroke:none;" d="M329 90L330 91L329 90z"/>
<path style="fill:#7ebf67; stroke:none;" d="M367 90L368 91L367 90z"/>
<path style="fill:#a6dee4; stroke:none;" d="M131 91L132 92L131 91M168 91L169 92L168 91z"/>
<path style="fill:#7ebf67; stroke:none;" d="M169 91L170 92L169 91M330 91L331 92L330 91z"/>
<path style="fill:#a6dee4; stroke:none;" d="M331 91L332 92L331 91M368 91L369 92L368 91z"/>
<path style="fill:#7ebf67; stroke:none;" d="M167 92L168 93L167 92M219 92L220 93L219 92M280 92L281 93L280 92M332 92L333 93L332 92M128 93L129 94L128 93M165 93L166 94L165 93M334 93L335 94L334 93M371 93L372 94L371 93z"/>
<path style="fill:#a6dee4; stroke:none;" d="M127 94L128 95L127 94M163 94L164 95L163 94z"/>
<path style="fill:#7ebf67; stroke:none;" d="M220 94L221 95L220 94M279 94L280 95L279 94z"/>
<path style="fill:#a6dee4; stroke:none;" d="M336 94L337 95L336 94M372 94L373 95L372 94M126 95L127 96L126 95M161 95L162 96L161 95z"/>
<path style="fill:#7ebf67; stroke:none;" d="M221 95L222 96L221 95M278 95L279 96L278 95z"/>
<path style="fill:#a6dee4; stroke:none;" d="M338 95L339 96L338 95M373 95L374 96L373 95M159 96L160 97L159 96M340 96L341 97L340 96z"/>
<path style="fill:#7ebf67; stroke:none;" d="M123 97L124 98L123 97M158 97L159 98L158 97M222 97L221 99L222 97M277 97L279 99L277 97M341 97L342 98L341 97M376 97L377 98L376 97z"/>
<path style="fill:#a6dee4; stroke:none;" d="M122 98L123 99L122 98M156 98L157 99L156 98M222 98L223 99L222 98M277 98L278 99L277 98M343 98L344 99L343 98M377 98L378 99L377 98M121 99L122 100L121 99z"/>
<path style="fill:#7ebf67; stroke:none;" d="M155 99L156 100L155 99M216 99L217 100L216 99z"/>
<path style="fill:#a6dee4; stroke:none;" d="M217.667 99.3333L218.333 99.6667L217.667 99.3333z"/>
<path style="fill:#feffff; stroke:none;" d="M267 117C281.337 118.141 294.847 123.604 308 129L270 196C257.749 190.729 242.251 190.729 230 196L192 129C205.153 123.604 218.663 118.141 233 117C231.609 112.271 227.526 101.633 222.621 99.6427C218.429 97.9421 211.084 101.092 207 102.294C192.078 106.688 177.968 113.064 165 121.667C122.133 150.107 99.5411 195.597 96.0895 246C94.8125 264.647 99.0328 285.607 105.576 303C144.697 406.983 284.778 438.806 361.91 356C374.893 342.062 385.477 325.684 392.551 308C415.016 251.839 402.546 185.42 359.985 142.001C343.414 125.095 323.059 113.009 301 104.811C295.45 102.748 283.21 97.2772 277.379 99.6427C272.474 101.633 268.391 112.271 267 117z"/>
<path style="fill:#a6dee4; stroke:none;" d="M281.667 99.3333L282.333 99.6667L281.667 99.3333z"/>
<path style="fill:#7ebf67; stroke:none;" d="M283 99L284 100L283 99M344 99L345 100L344 99z"/>
<path style="fill:#a6dee4; stroke:none;" d="M378 99L379 100L378 99M120 100L121 101L120 100M153 100L154 101L153 100z"/>
<path style="fill:#7ebf67; stroke:none;" d="M212 100L213 101L212 100z"/>
<path style="fill:#a6dee4; stroke:none;" d="M213 100L214 101L213 100M286 100L287 101L286 100z"/>
<path style="fill:#7ebf67; stroke:none;" d="M287 100L288 101L287 100z"/>
<path style="fill:#a6dee4; stroke:none;" d="M346 100L347 101L346 100M379 100L380 101L379 100z"/>
<path style="fill:#7ebf67; stroke:none;" d="M208 101L209 102L208 101z"/>
<path style="fill:#a6dee4; stroke:none;" d="M209 101L210 102L209 101M290 101L291 102L290 101z"/>
<path style="fill:#7ebf67; stroke:none;" d="M291 101L292 102L291 101z"/>
<path style="fill:#a6dee4; stroke:none;" d="M150 102L151 103L150 102M205.667 102.333L206.333 102.667L205.667 102.333M293.667 102.333L294.333 102.667L293.667 102.333M349 102L350 103L349 102M202 103L203 104L202 103M297 103L298 104L297 103z"/>
<path style="fill:#7ebf67; stroke:none;" d="M115 104L116 105L115 104z"/>
<path style="fill:#a6dee4; stroke:none;" d="M147 104L148 105L147 104M199.667 104.333L200.333 104.667L199.667 104.333M300 104L301 105L300 104M352 104L353 105L352 104z"/>
<path style="fill:#7ebf67; stroke:none;" d="M384 104L385 105L384 104M114 105L115 106L114 105M146 105L147 106L146 105z"/>
<path style="fill:#a6dee4; stroke:none;" d="M196.667 105.333L197.333 105.667L196.667 105.333M302.667 105.333L303.333 105.667L302.667 105.333z"/>
<path style="fill:#7ebf67; stroke:none;" d="M353 105L354 106L353 105M385 105L386 106L385 105z"/>
<path style="fill:#a6dee4; stroke:none;" d="M113 106L114 107L113 106M144 106L145 107L144 106M194 106L195 107L194 106M305 106L306 107L305 106M355 106L356 107L355 106M386 106L387 107L386 106M112 107L113 108L112 107M143 107L144 108L143 107M191 107L192 108L191 107M308 107L309 108L308 107M356 107L357 108L356 107M387 107L388 108L387 107M111 108L112 109L111 108M189 108L190 109L189 108M310 108L311 109L310 108M388 108L389 109L388 108M110 109L111 110L110 109M140 109L141 110L140 109z"/>
<path style="fill:#7ebf67; stroke:none;" d="M186 109L187 110L186 109z"/>
<path style="fill:#a6dee4; stroke:none;" d="M187 109L188 110L187 109M312 109L313 110L312 109z"/>
<path style="fill:#7ebf67; stroke:none;" d="M313 109L314 110L313 109z"/>
<path style="fill:#a6dee4; stroke:none;" d="M359 109L360 110L359 109M389 109L390 110L389 109M109 110L110 111L109 110M139 110L140 111L139 110z"/>
<path style="fill:#7ebf67; stroke:none;" d="M184 110L185 111L184 110M315 110L316 111L315 110z"/>
<path style="fill:#a6dee4; stroke:none;" d="M360 110L361 111L360 110M390 110L391 111L390 110M108 111L109 112L108 111z"/>
<path style="fill:#7ebf67; stroke:none;" d="M138 111L139 112L138 111z"/>
<path style="fill:#a6dee4; stroke:none;" d="M182 111L183 112L182 111M317 111L318 112L317 111z"/>
<path style="fill:#7ebf67; stroke:none;" d="M361 111L362 112L361 111z"/>
<path style="fill:#a6dee4; stroke:none;" d="M391 111L392 112L391 111M107 112L108 113L107 112z"/>
<path style="fill:#7ebf67; stroke:none;" d="M180 112L181 113L180 112M319 112L320 113L319 112z"/>
<path style="fill:#a6dee4; stroke:none;" d="M392 112L393 113L392 112M106 113L107 114L106 113M135 113L136 114L135 113z"/>
<path style="fill:#7ebf67; stroke:none;" d="M178 113L179 114L178 113M321 113L322 114L321 113z"/>
<path style="fill:#a6dee4; stroke:none;" d="M393 113L394 114L393 113z"/>
<path style="fill:#7ebf67; stroke:none;" d="M105 114L106 115L105 114z"/>
<path style="fill:#a6dee4; stroke:none;" d="M134 114L135 115L134 114z"/>
<path style="fill:#7ebf67; stroke:none;" d="M176 114L177 115L176 114M323 114L324 115L323 114z"/>
<path style="fill:#a6dee4; stroke:none;" d="M365 114L366 115L365 114z"/>
<path style="fill:#7ebf67; stroke:none;" d="M394 114L395 115L394 114M104 115L105 116L104 115z"/>
<path style="fill:#a6dee4; stroke:none;" d="M133 115L134 116L133 115M175 115L176 116L175 115M324 115L325 116L324 115M366 115L367 116L366 115z"/>
<path style="fill:#7ebf67; stroke:none;" d="M395 115L396 116L395 115M103 116L104 117L103 116z"/>
<path style="fill:#a6dee4; stroke:none;" d="M132 116L133 117L132 116M173 116L174 117L173 116M326 116L327 117L326 116M367 116L368 117L367 116z"/>
<path style="fill:#7ebf67; stroke:none;" d="M396 116L397 117L396 116M131 117L132 118L131 117z"/>
<path style="fill:#a6dee4; stroke:none;" d="M171 117L172 118L171 117M228 117L228 118L231 118L228 117z"/>
<path style="fill:#7ebf67; stroke:none;" d="M231 117L232 118L231 117z"/>
<path style="fill:#10a7b5; stroke:none;" d="M192 129L230 195C244.455 192.018 255.545 192.018 270 195L308 129L266 117L251 145L249 145L234 117L192 129z"/>
<path style="fill:#7ebf67; stroke:none;" d="M268 117L269 118L268 117z"/>
<path style="fill:#a6dee4; stroke:none;" d="M269 117L269 118L272 118L269 117M328 117L329 118L328 117z"/>
<path style="fill:#7ebf67; stroke:none;" d="M368 117L369 118L368 117M169 118L170 119L169 118z"/>
<path style="fill:#a6dee4; stroke:none;" d="M223.667 118.333L224.333 118.667L223.667 118.333z"/>
<path style="fill:#7ebf67; stroke:none;" d="M225 118L226 119L225 118M234 118L235 119L234 118M265 118L266 119L265 118M274 118L275 119L274 118z"/>
<path style="fill:#a6dee4; stroke:none;" d="M275.667 118.333L276.333 118.667L275.667 118.333z"/>
<path style="fill:#7ebf67; stroke:none;" d="M330 118L331 119L330 118z"/>
<path style="fill:#a6dee4; stroke:none;" d="M168 119L169 120L168 119M218.667 119.333L219.333 119.667L218.667 119.333z"/>
<path style="fill:#7ebf67; stroke:none;" d="M220 119L221 120L220 119M279 119L280 120L279 119z"/>
<path style="fill:#a6dee4; stroke:none;" d="M280.667 119.333L281.333 119.667L280.667 119.333M331 119L332 120L331 119M100 120L101 121L100 120z"/>
<path style="fill:#7ebf67; stroke:none;" d="M166 120L167 121L166 120z"/>
<path style="fill:#a6dee4; stroke:none;" d="M215 120L216 121L215 120z"/>
<path style="fill:#7ebf67; stroke:none;" d="M216 120L217 121L216 120M283 120L284 121L283 120z"/>
<path style="fill:#a6dee4; stroke:none;" d="M284 120L285 121L284 120z"/>
<path style="fill:#7ebf67; stroke:none;" d="M333 120L334 121L333 120z"/>
<path style="fill:#a6dee4; stroke:none;" d="M399 120L400 121L399 120M99 121L100 122L99 121M165 121L166 122L165 121M211.667 121.333L212.333 121.667L211.667 121.333z"/>
<path style="fill:#7ebf67; stroke:none;" d="M236 121L237 122L236 121M263 121L264 122L263 121z"/>
<path style="fill:#a6dee4; stroke:none;" d="M287.667 121.333L288.333 121.667L287.667 121.333M334 121L335 122L334 121M400 121L401 122L400 121M98 122L99 123L98 122z"/>
<path style="fill:#7ebf67; stroke:none;" d="M163 122L164 123L163 122z"/>
<path style="fill:#a6dee4; stroke:none;" d="M208 122L209 123L208 122z"/>
<path style="fill:#7ebf67; stroke:none;" d="M209 122L210 123L209 122M290 122L291 123L290 122z"/>
<path style="fill:#a6dee4; stroke:none;" d="M291 122L292 123L291 122z"/>
<path style="fill:#7ebf67; stroke:none;" d="M336 122L337 123L336 122z"/>
<path style="fill:#a6dee4; stroke:none;" d="M401 122L402 123L401 122z"/>
<path style="fill:#7ebf67; stroke:none;" d="M97 123L98 124L97 123z"/>
<path style="fill:#a6dee4; stroke:none;" d="M162 123L163 124L162 123M205 123L206 124L205 123z"/>
<path style="fill:#7ebf67; stroke:none;" d="M206 123L207 124L206 123M237 123L238 124L237 123M262 123L263 124L262 123M293 123L294 124L293 123z"/>
<path style="fill:#a6dee4; stroke:none;" d="M294 123L295 124L294 123M337 123L338 124L337 123z"/>
<path style="fill:#7ebf67; stroke:none;" d="M402 123L403 124L402 123M160 124L161 125L160 124z"/>
<path style="fill:#a6dee4; stroke:none;" d="M202 124L203 125L202 124z"/>
<path style="fill:#7ebf67; stroke:none;" d="M203 124L204 125L203 124M296 124L297 125L296 124z"/>
<path style="fill:#a6dee4; stroke:none;" d="M297 124L298 125L297 124z"/>
<path style="fill:#7ebf67; stroke:none;" d="M339 124L340 125L339 124z"/>
<path style="fill:#a6dee4; stroke:none;" d="M159 125L160 126L159 125M200 125L201 126L200 125z"/>
<path style="fill:#7ebf67; stroke:none;" d="M238 125L239 126L238 125M261 125L262 126L261 125z"/>
<path style="fill:#a6dee4; stroke:none;" d="M299 125L300 126L299 125M340 125L341 126L340 125M95 126L96 127L95 126M197 126L198 127L197 126z"/>
<path style="fill:#7ebf67; stroke:none;" d="M198 126L199 127L198 126M239 126L240 127L239 126M260 126L261 127L260 126M301 126L302 127L301 126z"/>
<path style="fill:#a6dee4; stroke:none;" d="M302 126L303 127L302 126M404 126L405 127L404 126M94 127L95 128L94 127z"/>
<path style="fill:#7ebf67; stroke:none;" d="M156 127L157 128L156 127z"/>
<path style="fill:#a6dee4; stroke:none;" d="M195 127L196 128L195 127M304 127L305 128L304 127z"/>
<path style="fill:#7ebf67; stroke:none;" d="M343 127L344 128L343 127z"/>
<path style="fill:#a6dee4; stroke:none;" d="M405 127L406 128L405 127z"/>
<path style="fill:#7ebf67; stroke:none;" d="M93 128L94 129L93 128z"/>
<path style="fill:#a6dee4; stroke:none;" d="M155 128L156 129L155 128M193 128L194 129L193 128z"/>
<path style="fill:#7ebf67; stroke:none;" d="M240 128L241 129L240 128M259 128L260 129L259 128z"/>
<path style="fill:#a6dee4; stroke:none;" d="M306 128L307 129L306 128M344 128L345 129L344 128z"/>
<path style="fill:#7ebf67; stroke:none;" d="M406 128L407 129L406 128z"/>
<path style="fill:#a6dee4; stroke:none;" d="M154 129L155 130L154 129M345 129L346 130L345 129z"/>
<path style="fill:#7ebf67; stroke:none;" d="M118 130L119 131L118 130z"/>
<path style="fill:#a6dee4; stroke:none;" d="M192 130L193 131L192 130z"/>
<path style="fill:#7ebf67; stroke:none;" d="M241 130L242 131L241 130M258 130L259 131L258 130z"/>
<path style="fill:#a6dee4; stroke:none;" d="M307 130L308 131L307 130M91 131L92 132L91 131z"/>
<path style="fill:#7ebf67; stroke:none;" d="M117 131L118 132L117 131M151 131L152 132L151 131M348 131L349 132L348 131M382 131L383 132L382 131z"/>
<path style="fill:#a6dee4; stroke:none;" d="M408 131L409 132L408 131z"/>
<path style="fill:#7ebf67; stroke:none;" d="M90 132L91 133L90 132M116 132L117 133L116 132z"/>
<path style="fill:#a6dee4; stroke:none;" d="M150 132L151 133L150 132M193 132L194 133L193 132z"/>
<path style="fill:#7ebf67; stroke:none;" d="M242 132L243 133L242 132M257 132L258 133L257 132z"/>
<path style="fill:#a6dee4; stroke:none;" d="M306 132L307 133L306 132M349 132L350 133L349 132z"/>
<path style="fill:#7ebf67; stroke:none;" d="M383 132L384 133L383 132M409 132L410 133L409 132z"/>
<path style="fill:#a6dee4; stroke:none;" d="M115 133L116 134L115 133M149 133L150 134L149 133z"/>
<path style="fill:#7ebf67; stroke:none;" d="M194 133L195 134L194 133M243 133L244 134L243 133M256 133L257 134L256 133M305 133L306 134L305 133z"/>
<path style="fill:#a6dee4; stroke:none;" d="M350 133L351 134L350 133M384 133L385 134L384 133M89 134L90 135L89 134M114 134L115 135L114 134M148 134L149 135L148 134M351 134L352 135L351 134M385 134L386 135L385 134M410 134L411 135L410 134M88 135L89 136L88 135M113 135L114 136L113 135M195 135L196 136L195 135z"/>
<path style="fill:#7ebf67; stroke:none;" d="M244 135L245 136L244 135M255 135L256 136L255 135z"/>
<path style="fill:#a6dee4; stroke:none;" d="M304 135L305 136L304 135M386 135L387 136L386 135M411 135L412 136L411 135M196 137L197 138L196 137z"/>
<path style="fill:#7ebf67; stroke:none;" d="M245 137L246 138L245 137M254 137L255 138L254 137z"/>
<path style="fill:#a6dee4; stroke:none;" d="M303 137L304 138L303 137M86 138L87 139L86 138z"/>
<path style="fill:#7ebf67; stroke:none;" d="M111 138L112 139L111 138M388 138L389 139L388 138z"/>
<path style="fill:#a6dee4; stroke:none;" d="M413 138L414 139L413 138z"/>
<path style="fill:#7ebf67; stroke:none;" d="M85 139L86 140L85 139z"/>
<path style="fill:#a6dee4; stroke:none;" d="M110 139L111 140L110 139M174 139L176 141L174 139M197 139L198 140L197 139M302 139L303 140L302 139M325 139L324 141L325 139M389 139L390 140L389 139z"/>
<path style="fill:#7ebf67; stroke:none;" d="M414 139L415 140L414 139z"/>
<path style="fill:#a6dee4; stroke:none;" d="M109 140L110 141L109 140z"/>
<path style="fill:#7ebf67; stroke:none;" d="M141 140L142 141L141 140z"/>
<path style="fill:#a6dee4; stroke:none;" d="M172 140L171 142L172 140z"/>
<path style="fill:#10a7b5; stroke:none;" d="M117 240L193 240C194.121 231.68 197.626 223.857 202.44 217C204.906 213.487 210.355 209.352 211.006 205C211.817 199.58 204.72 191.501 202.15 187C193.191 171.306 184.433 155.413 175 140C165.667 143.61 157.365 152.629 150.845 160.001C131.842 181.484 117.081 210.697 117 240z"/>
<path style="fill:#7ebf67; stroke:none;" d="M198 140L199 141L198 140M247 140L248 141L247 140M252 140L253 141L252 140M301 140L302 141L301 140z"/>
<path style="fill:#10a7b5; stroke:none;" d="M325 140C315.567 155.413 306.809 171.306 297.85 187C295.28 191.501 288.183 199.58 288.994 205C289.645 209.352 295.094 213.487 297.56 217C302.374 223.857 305.879 231.68 307 240L383 240C382.919 210.664 368.136 181.528 349.155 160C342.621 152.589 334.384 143.629 325 140z"/>
<path style="fill:#a6dee4; stroke:none;" d="M327 140L328 141L327 140z"/>
<path style="fill:#7ebf67; stroke:none;" d="M358 140L359 141L358 140z"/>
<path style="fill:#a6dee4; stroke:none;" d="M390 140L391 141L390 140M84 141L85 142L84 141z"/>
<path style="fill:#7ebf67; stroke:none;" d="M140 141L141 142L140 141z"/>
<path style="fill:#a6dee4; stroke:none;" d="M328 141L329 142L328 141z"/>
<path style="fill:#7ebf67; stroke:none;" d="M359 141L360 142L359 141z"/>
<path style="fill:#a6dee4; stroke:none;" d="M415 141L416 142L415 141z"/>
<path style="fill:#7ebf67; stroke:none;" d="M83 142L84 143L83 142M108 142L109 143L108 142z"/>
<path style="fill:#a6dee4; stroke:none;" d="M176 142L177 143L176 142M199 142L200 143L199 142z"/>
<path style="fill:#7ebf67; stroke:none;" d="M248 142L249 143L248 142M251 142L252 143L251 142z"/>
<path style="fill:#a6dee4; stroke:none;" d="M300 142L301 143L300 142M323 142L324 143L323 142z"/>
<path style="fill:#7ebf67; stroke:none;" d="M391 142L392 143L391 142M416 142L417 143L416 142z"/>
<path style="fill:#a6dee4; stroke:none;" d="M107 143L108 144L107 143M168 143L169 144L168 143M331 143L332 144L331 143M392 143L393 144L392 143M82 144L83 145L82 144M106 144L107 145L106 144M167 144L168 145L167 144z"/>
<path style="fill:#7ebf67; stroke:none;" d="M177 144L178 145L177 144z"/>
<path style="fill:#a6dee4; stroke:none;" d="M200 144L201 145L200 144z"/>
<path style="fill:#7ebf67; stroke:none;" d="M249.667 144.333L250.333 144.667L249.667 144.333z"/>
<path style="fill:#a6dee4; stroke:none;" d="M299 144L300 145L299 144z"/>
<path style="fill:#7ebf67; stroke:none;" d="M322 144L323 145L322 144z"/>
<path style="fill:#a6dee4; stroke:none;" d="M332 144L333 145L332 144M393 144L394 145L393 144M417 144L418 145L417 144z"/>
<path style="fill:#7ebf67; stroke:none;" d="M166 145L167 146L166 145z"/>
<path style="fill:#a6dee4; stroke:none;" d="M178 145L179 146L178 145M321 145L322 146L321 145z"/>
<path style="fill:#7ebf67; stroke:none;" d="M333 145L334 146L333 145z"/>
<path style="fill:#a6dee4; stroke:none;" d="M81 146L82 147L81 146z"/>
<path style="fill:#7ebf67; stroke:none;" d="M105 146L106 147L105 146M394 146L395 147L394 146z"/>
<path style="fill:#a6dee4; stroke:none;" d="M418 146L419 147L418 146M80 147L81 148L80 147M104 147L105 148L104 147M163 147L164 148L163 147M179 147L180 148L179 147z"/>
<path style="fill:#7ebf67; stroke:none;" d="M202 147L203 148L202 147M297 147L298 148L297 147z"/>
<path style="fill:#a6dee4; stroke:none;" d="M320 147L321 148L320 147M336 147L337 148L336 147M395 147L396 148L395 147M419 147L420 148L419 147M134 148L135 149L134 148M162 148L163 149L162 148M337 148L338 149L337 148M365 148L366 149L365 148M79 149L80 150L79 149M133 149L134 150L133 149M161 149L162 150L161 149M180 149L181 150L180 149M203 149L204 150L203 149M296 149L297 150L296 149M319 149L320 150L319 149M338 149L339 150L338 149M366 149L367 150L366 149M420 149L421 150L420 149M102 150L103 151L102 150M132 150L133 151L132 150z"/>
<path style="fill:#7ebf67; stroke:none;" d="M160 150L161 151L160 150M339 150L340 151L339 150z"/>
<path style="fill:#a6dee4; stroke:none;" d="M367 150L368 151L367 150M397 150L398 151L397 150M78 151L79 152L78 151z"/>
<path style="fill:#7ebf67; stroke:none;" d="M131 151L132 152L131 151M159 151L160 152L159 151M181 151L182 152L181 151z"/>
<path style="fill:#a6dee4; stroke:none;" d="M204 151L205 152L204 151M295 151L296 152L295 151z"/>
<path style="fill:#7ebf67; stroke:none;" d="M318 151L319 152L318 151M340 151L341 152L340 151M368 151L369 152L368 151z"/>
<path style="fill:#a6dee4; stroke:none;" d="M421 151L422 152L421 151z"/>
<path style="fill:#7ebf67; stroke:none;" d="M77 152L78 153L77 152M158 152L159 153L158 152z"/>
<path style="fill:#a6dee4; stroke:none;" d="M182 152L183 153L182 152z"/>
<path style="fill:#7ebf67; stroke:none;" d="M205 152L206 153L205 152M294 152L295 153L294 152z"/>
<path style="fill:#a6dee4; stroke:none;" d="M317 152L318 153L317 152z"/>
<path style="fill:#7ebf67; stroke:none;" d="M422 152L423 153L422 152z"/>
<path style="fill:#a6dee4; stroke:none;" d="M100 153L101 154L100 153M399 153L400 154L399 153M76 154L77 155L76 154M129 154L130 155L129 154M183 154L184 155L183 154M206 154L207 155L206 154M293 154L294 155L293 154M316 154L317 155L316 154M370 154L371 155L370 154M423 154L424 155L423 154M128 155L129 156L128 155M371 155L372 156L371 155M75 156L76 157L75 156M98 156L99 157L98 156z"/>
<path style="fill:#7ebf67; stroke:none;" d="M127 156L128 157L127 156z"/>
<path style="fill:#a6dee4; stroke:none;" d="M184 156L185 157L184 156M207 156L208 157L207 156M292 156L293 157L292 156M315 156L316 157L315 156z"/>
<path style="fill:#7ebf67; stroke:none;" d="M372 156L373 157L372 156z"/>
<path style="fill:#a6dee4; stroke:none;" d="M401 156L402 157L401 156M424 156L425 157L424 156M74 158L75 159L74 158z"/>
<path style="fill:#7ebf67; stroke:none;" d="M97 158L98 159L97 158M152 158L153 159L152 158M185 158L186 159L185 158z"/>
<path style="fill:#a6dee4; stroke:none;" d="M208 158L209 159L208 158M291 158L292 159L291 158z"/>
<path style="fill:#7ebf67; stroke:none;" d="M314 158L315 159L314 158M347 158L348 159L347 158M402 158L403 159L402 158z"/>
<path style="fill:#a6dee4; stroke:none;" d="M425 158L426 159L425 158M96 159L97 160L96 159M125 159L126 160L125 159z"/>
<path style="fill:#7ebf67; stroke:none;" d="M151 159L152 160L151 159z"/>
<path style="fill:#a6dee4; stroke:none;" d="M186 159L187 160L186 159z"/>
<path style="fill:#7ebf67; stroke:none;" d="M209 159L210 160L209 159M290 159L291 160L290 159z"/>
<path style="fill:#a6dee4; stroke:none;" d="M313 159L314 160L313 159z"/>
<path style="fill:#7ebf67; stroke:none;" d="M348 159L349 160L348 159z"/>
<path style="fill:#a6dee4; stroke:none;" d="M374 159L375 160L374 159M403 159L404 160L403 159M73 160L74 161L73 160z"/>
<path style="fill:#7ebf67; stroke:none;" d="M124 160L125 161L124 160M150 160L151 161L150 160M349 160L350 161L349 160M375 160L376 161L375 160z"/>
<path style="fill:#a6dee4; stroke:none;" d="M426 160L427 161L426 160M95 161L96 162L95 161M149 161L150 162L149 161M187 161L188 162L187 161M210 161L211 162L210 161M289 161L290 162L289 161M312 161L313 162L312 161M350 161L351 162L350 161M404 161L405 162L404 161M72 162L73 163L72 162M123 162L124 163L123 162M148 162L149 163L148 162M351 162L352 163L351 162M376 162L377 163L376 162M427 162L428 163L427 162M94 163L95 164L94 163z"/>
<path style="fill:#7ebf67; stroke:none;" d="M122 163L123 164L122 163z"/>
<path style="fill:#a6dee4; stroke:none;" d="M147 163L148 164L147 163z"/>
<path style="fill:#7ebf67; stroke:none;" d="M188 163L189 164L188 163z"/>
<path style="fill:#a6dee4; stroke:none;" d="M211 163L212 164L211 163M288 163L289 164L288 163M311 163L312 164L311 163M352 163L353 164L352 163z"/>
<path style="fill:#7ebf67; stroke:none;" d="M377 163L378 164L377 163z"/>
<path style="fill:#a6dee4; stroke:none;" d="M405 163L406 164L405 163M71 164L72 165L71 164M428 164L429 165L428 164z"/>
<path style="fill:#7ebf67; stroke:none;" d="M93 165L94 166L93 165z"/>
<path style="fill:#a6dee4; stroke:none;" d="M121 165L122 166L121 165z"/>
<path style="fill:#7ebf67; stroke:none;" d="M189 165L190 166L189 165z"/>
<path style="fill:#a6dee4; stroke:none;" d="M212 165L213 166L212 165M287 165L288 166L287 165z"/>
<path style="fill:#7ebf67; stroke:none;" d="M310 165L311 166L310 165z"/>
<path style="fill:#a6dee4; stroke:none;" d="M378 165L379 166L378 165z"/>
<path style="fill:#7ebf67; stroke:none;" d="M406 165L407 166L406 165z"/>
<path style="fill:#a6dee4; stroke:none;" d="M70 166L71 167L70 166z"/>
<path style="fill:#7ebf67; stroke:none;" d="M120 166L121 167L120 166M145 166L146 167L145 166z"/>
<path style="fill:#a6dee4; stroke:none;" d="M190 166L191 167L190 166z"/>
<path style="fill:#7ebf67; stroke:none;" d="M213 166L214 167L213 166M286 166L287 167L286 166z"/>
<path style="fill:#a6dee4; stroke:none;" d="M309 166L310 167L309 166z"/>
<path style="fill:#7ebf67; stroke:none;" d="M354 166L355 167L354 166M379 166L380 167L379 166z"/>
<path style="fill:#a6dee4; stroke:none;" d="M429 166L430 167L429 166z"/>
<path style="fill:#7ebf67; stroke:none;" d="M92 167L93 168L92 167z"/>
<path style="fill:#a6dee4; stroke:none;" d="M144 167L145 168L144 167M355 167L356 168L355 167z"/>
<path style="fill:#7ebf67; stroke:none;" d="M407 167L408 168L407 167z"/>
<path style="fill:#a6dee4; stroke:none;" d="M69 168L70 169L69 168M119 168L120 169L119 168M143 168L144 169L143 168M191 168L192 169L191 168M214 168L215 169L214 168M285 168L286 169L285 168M308 168L309 169L308 168M356 168L357 169L356 168M380 168L381 169L380 168M430 168L431 169L430 168z"/>
<path style="fill:#7ebf67; stroke:none;" d="M91 169L92 170L91 169M118 169L119 170L118 169M381 169L382 170L381 169M408 169L409 170L408 169M68 170L69 171L68 170M192 170L193 171L192 170z"/>
<path style="fill:#a6dee4; stroke:none;" d="M215 170L216 171L215 170M284 170L285 171L284 170z"/>
<path style="fill:#7ebf67; stroke:none;" d="M307 170L308 171L307 170M431 170L432 171L431 170z"/>
<path style="fill:#a6dee4; stroke:none;" d="M68 171L69 172L68 171z"/>
<path style="fill:#7ebf67; stroke:none;" d="M90 171L91 172L90 171z"/>
<path style="fill:#a6dee4; stroke:none;" d="M117 171L118 172L117 171M141 171L142 172L141 171M193 171L194 172L193 171M306 171L307 172L306 171M358 171L359 172L358 171M382 171L383 172L382 171z"/>
<path style="fill:#7ebf67; stroke:none;" d="M409 171L410 172L409 171z"/>
<path style="fill:#a6dee4; stroke:none;" d="M431 171L432 172L431 171M140 172L141 173L140 172M359 172L360 173L359 172M67 173L68 174L67 173z"/>
<path style="fill:#7ebf67; stroke:none;" d="M89 173L90 174L89 173z"/>
<path style="fill:#a6dee4; stroke:none;" d="M116 173L117 174L116 173M194 173L195 174L194 173z"/>
<path style="fill:#7ebf67; stroke:none;" d="M217 173L218 174L217 173M282 173L283 174L282 173z"/>
<path style="fill:#a6dee4; stroke:none;" d="M305 173L306 174L305 173M383 173L384 174L383 173z"/>
<path style="fill:#7ebf67; stroke:none;" d="M410 173L411 174L410 173z"/>
<path style="fill:#a6dee4; stroke:none;" d="M432 173L433 174L432 173z"/>
<path style="fill:#7ebf67; stroke:none;" d="M139 174L140 175L139 174M360 174L361 175L360 174z"/>
<path style="fill:#a6dee4; stroke:none;" d="M66 175L67 176L66 175z"/>
<path style="fill:#7ebf67; stroke:none;" d="M88 175L89 176L88 175z"/>
<path style="fill:#a6dee4; stroke:none;" d="M115 175L116 176L115 175M138 175L139 176L138 175M195 175L196 176L195 175M218 175L219 176L218 175M281 175L282 176L281 175M304 175L305 176L304 175M361 175L362 176L361 175M384 175L385 176L384 175M411 175L412 176L411 175M433 175L434 176L433 175z"/>
<path style="fill:#7ebf67; stroke:none;" d="M114 176L115 177L114 176M385 176L386 177L385 176z"/>
<path style="fill:#a6dee4; stroke:none;" d="M87 177L88 178L87 177M137 177L138 178L137 177z"/>
<path style="fill:#7ebf67; stroke:none;" d="M196 177L197 178L196 177z"/>
<path style="fill:#a6dee4; stroke:none;" d="M219 177L220 178L219 177M280 177L281 178L280 177z"/>
<path style="fill:#7ebf67; stroke:none;" d="M303 177L304 178L303 177M362 177L363 178L362 177z"/>
<path style="fill:#a6dee4; stroke:none;" d="M412 177L413 178L412 177M65 178L66 179L65 178z"/>
<path style="fill:#7ebf67; stroke:none;" d="M113 178L114 179L113 178z"/>
<path style="fill:#a6dee4; stroke:none;" d="M136 178L137 179L136 178M197 178L198 179L197 178z"/>
<path style="fill:#7ebf67; stroke:none;" d="M220 178L221 179L220 178M279 178L280 179L279 178z"/>
<path style="fill:#a6dee4; stroke:none;" d="M302 178L303 179L302 178M363 178L364 179L363 178z"/>
<path style="fill:#7ebf67; stroke:none;" d="M386 178L387 179L386 178z"/>
<path style="fill:#a6dee4; stroke:none;" d="M434 178L435 179L434 178M86 179L87 180L86 179M413 179L414 180L413 179M64 180L65 181L64 180M112 180L113 181L112 180M135 180L136 181L135 180M198 180L199 181L198 180M221 180L222 181L221 180M278 180L279 181L278 180M301 180L302 181L301 180M364 180L365 181L364 180M387 180L388 181L387 180M435 180L436 181L435 180M85 181L86 182L85 181M414 181L415 182L414 181z"/>
<path style="fill:#7ebf67; stroke:none;" d="M85 182L86 183L85 182z"/>
<path style="fill:#a6dee4; stroke:none;" d="M111 182L112 183L111 182z"/>
<path style="fill:#7ebf67; stroke:none;" d="M134 182L135 183L134 182z"/>
<path style="fill:#a6dee4; stroke:none;" d="M199 182L200 183L199 182M222 182L223 183L222 182M277 182L278 183L277 182M300 182L301 183L300 182z"/>
<path style="fill:#7ebf67; stroke:none;" d="M365 182L366 183L365 182z"/>
<path style="fill:#a6dee4; stroke:none;" d="M388 182L389 183L388 182z"/>
<path style="fill:#7ebf67; stroke:none;" d="M414 182L415 183L414 182z"/>
<path style="fill:#a6dee4; stroke:none;" d="M63 183L64 184L63 183M133 183L134 184L133 183M366 183L367 184L366 183M436 183L437 184L436 183M84 184L85 185L84 184z"/>
<path style="fill:#7ebf67; stroke:none;" d="M110 184L111 185L110 184M200 184L201 185L200 184z"/>
<path style="fill:#a6dee4; stroke:none;" d="M223 184L224 185L223 184M276 184L277 185L276 184z"/>
<path style="fill:#7ebf67; stroke:none;" d="M299 184L300 185L299 184M389 184L390 185L389 184z"/>
<path style="fill:#a6dee4; stroke:none;" d="M415 184L416 185L415 184M132 185L133 186L132 185M201 185L202 186L201 185z"/>
<path style="fill:#7ebf67; stroke:none;" d="M224 185L225 186L224 185M275 185L276 186L275 185z"/>
<path style="fill:#a6dee4; stroke:none;" d="M298 185L299 186L298 185M367 185L368 186L367 185M62 186L63 187L62 186M83 186L84 187L83 186z"/>
<path style="fill:#7ebf67; stroke:none;" d="M109 186L110 187L109 186M390 186L391 187L390 186z"/>
<path style="fill:#a6dee4; stroke:none;" d="M416 186L417 187L416 186M437 186L438 187L437 186z"/>
<path style="fill:#7ebf67; stroke:none;" d="M83 187L84 188L83 187z"/>
<path style="fill:#a6dee4; stroke:none;" d="M109 187L110 188L109 187M131 187L132 188L131 187M202 187L203 188L202 187M225 187L226 188L225 187M274 187L275 188L274 187M297 187L298 188L297 187M368 187L369 188L368 187M390 187L391 188L390 187z"/>
<path style="fill:#7ebf67; stroke:none;" d="M416 187L417 188L416 187z"/>
<path style="fill:#a6dee4; stroke:none;" d="M61 189L62 190L61 189M82 189L83 190L82 189M108 189L109 190L108 189M130 189L131 190L130 189M203 189L204 190L203 189M226 189L227 190L226 189M273 189L274 190L273 189M296 189L297 190L296 189M369 189L370 190L369 189M391 189L392 190L391 189M417 189L418 190L417 189M438 189L439 190L438 189z"/>
<path style="fill:#7ebf67; stroke:none;" d="M82 190L83 191L82 190M417 190L418 191L417 190z"/>
<path style="fill:#a6dee4; stroke:none;" d="M107 191L108 192L107 191M129 191L130 192L129 191z"/>
<path style="fill:#7ebf67; stroke:none;" d="M204 191L205 192L204 191z"/>
<path style="fill:#a6dee4; stroke:none;" d="M227 191L228 192L227 191M272 191L273 192L272 191z"/>
<path style="fill:#7ebf67; stroke:none;" d="M295 191L296 192L295 191z"/>
<path style="fill:#a6dee4; stroke:none;" d="M370 191L371 192L370 191M392 191L393 192L392 191M60.3333 192.667L60.6667 193.333L60.3333 192.667M81 192L82 193L81 192M205 192L206 193L205 192z"/>
<path style="fill:#7ebf67; stroke:none;" d="M228 192L229 193L228 192M241 192L242 193L241 192z"/>
<path style="fill:#a6dee4; stroke:none;" d="M242 192L242 193L245 193L242 192M255 192L255 193L258 193L255 192z"/>
<path style="fill:#7ebf67; stroke:none;" d="M258 192L259 193L258 192M271 192L272 193L271 192z"/>
<path style="fill:#a6dee4; stroke:none;" d="M294 192L295 193L294 192M418 192L419 193L418 192M439.333 192.667L439.667 193.333L439.333 192.667z"/>
<path style="fill:#7ebf67; stroke:none;" d="M106 193L107 194L106 193z"/>
<path style="fill:#a6dee4; stroke:none;" d="M128 193L129 194L128 193z"/>
<path style="fill:#7ebf67; stroke:none;" d="M236 193L237 194L236 193z"/>
<path style="fill:#a6dee4; stroke:none;" d="M237 193L238 194L237 193M262 193L263 194L262 193z"/>
<path style="fill:#7ebf67; stroke:none;" d="M263 193L264 194L263 193z"/>
<path style="fill:#a6dee4; stroke:none;" d="M371 193L372 194L371 193z"/>
<path style="fill:#7ebf67; stroke:none;" d="M393 193L394 194L393 193z"/>
<path style="fill:#a6dee4; stroke:none;" d="M106 194L107 195L106 194M206 194L207 195L206 194M229 194L230 195L229 194z"/>
<path style="fill:#7ebf67; stroke:none;" d="M232 194L233 195L232 194z"/>
<path style="fill:#a6dee4; stroke:none;" d="M233 194L234 195L233 194M266 194L267 195L266 194z"/>
<path style="fill:#7ebf67; stroke:none;" d="M267 194L268 195L267 194z"/>
<path style="fill:#a6dee4; stroke:none;" d="M270 194L271 195L270 194M293 194L294 195L293 194M393 194L394 195L393 194z"/>
<path style="fill:#7ebf67; stroke:none;" d="M59 195L60 196L59 195z"/>
<path style="fill:#a6dee4; stroke:none;" d="M80 195L81 196L80 195M127 195L128 196L127 195M230 195L231 196L230 195M269 195L270 196L269 195M372 195L373 196L372 195M419 195L420 196L419 195z"/>
<path style="fill:#7ebf67; stroke:none;" d="M440 195L441 196L440 195z"/>
<path style="fill:#a6dee4; stroke:none;" d="M59 196L60 197L59 196z"/>
<path style="fill:#7ebf67; stroke:none;" d="M80 196L81 197L80 196z"/>
<path style="fill:#a6dee4; stroke:none;" d="M105.333 196.667L105.667 197.333L105.333 196.667z"/>
<path style="fill:#7ebf67; stroke:none;" d="M207 196L208 197L207 196M292 196L293 197L292 196z"/>
<path style="fill:#a6dee4; stroke:none;" d="M394.333 196.667L394.667 197.333L394.333 196.667M440 196L441 197L440 196M126 197L127 198L126 197M208 197L209 198L208 197M291 197L292 198L291 197M373 197L374 198L373 197M79 198L80 199L79 198z"/>
<path style="fill:#7ebf67; stroke:none;" d="M126 198L127 199L126 198M373 198L374 199L373 198z"/>
<path style="fill:#a6dee4; stroke:none;" d="M420 198L421 199L420 198M58.3333 199.667L58.6667 200.333L58.3333 199.667z"/>
<path style="fill:#7ebf67; stroke:none;" d="M79 199L80 200L79 199z"/>
<path style="fill:#a6dee4; stroke:none;" d="M104 199L105 200L104 199M209 199L210 200L209 199M290 199L291 200L290 199M395 199L396 200L395 199z"/>
<path style="fill:#7ebf67; stroke:none;" d="M420 199L421 200L420 199z"/>
<path style="fill:#a6dee4; stroke:none;" d="M441.333 199.667L441.667 200.333L441.333 199.667M125 200L126 201L125 200M374 200L375 201L374 200M78.3333 201.667L78.6667 202.333L78.3333 201.667M210 201L211 202L210 201M289 201L290 202L289 201M421.333 201.667L421.667 202.333L421.333 201.667M103 202L104 203L103 202M124 202L125 203L124 202M375 202L376 203L375 202M396 202L397 203L396 202M57.3333 203.667L57.6667 204.333L57.3333 203.667z"/>
<path style="fill:#7ebf67; stroke:none;" d="M124 203L125 204L124 203M211 203L212 204L211 203M288 203L289 204L288 203M375 203L376 204L375 203z"/>
<path style="fill:#a6dee4; stroke:none;" d="M442.333 203.667L442.667 204.333L442.333 203.667M212 204L213 205L212 204M287 204L288 205L287 204M77.3333 205.667L77.6667 206.333L77.3333 205.667M102.333 205.667L102.667 206.333L102.333 205.667M123 205L124 206L123 205z"/>
<path style="fill:#7ebf67; stroke:none;" d="M212 205L213 206L212 205M287 205L288 206L287 205z"/>
<path style="fill:#a6dee4; stroke:none;" d="M376 205L377 206L376 205M397.333 205.667L397.667 206.333L397.333 205.667M422.333 205.667L422.667 206.333L422.333 205.667z"/>
<path style="fill:#7ebf67; stroke:none;" d="M123 206L124 207L123 206M211 206L212 207L211 206M288 206L289 207L288 206M376 206L377 207L376 206M56 207L57 208L56 207M210 207L211 208L210 207M289 207L290 208L289 207z"/>
<path style="fill:#a6dee4; stroke:none;" d="M443.333 207.667L443.667 208.333L443.333 207.667M56 208L57 209L56 208z"/>
<path style="fill:#7ebf67; stroke:none;" d="M101 208L102 209L101 208z"/>
<path style="fill:#a6dee4; stroke:none;" d="M122 208L123 209L122 208M209 208L210 209L209 208M290 208L291 209L290 208M377 208L378 209L377 208z"/>
<path style="fill:#7ebf67; stroke:none;" d="M398 208L399 209L398 208z"/>
<path style="fill:#a6dee4; stroke:none;" d="M76.3333 209.667L76.6667 210.333L76.3333 209.667M101 209L102 210L101 209z"/>
<path style="fill:#7ebf67; stroke:none;" d="M122 209L123 210L122 209z"/>
<path style="fill:#a6dee4; stroke:none;" d="M208 209L209 210L208 209M291 209L292 210L291 209z"/>
<path style="fill:#7ebf67; stroke:none;" d="M377 209L378 210L377 209z"/>
<path style="fill:#a6dee4; stroke:none;" d="M398 209L399 210L398 209M423.333 209.667L423.667 210.333L423.333 209.667M207 210L208 211L207 210M292 210L293 211L292 210M121.333 211.667L121.667 212.333L121.333 211.667z"/>
<path style="fill:#7ebf67; stroke:none;" d="M206 211L207 212L206 211M293 211L294 212L293 211z"/>
<path style="fill:#a6dee4; stroke:none;" d="M378 211L379 212L378 211M55.3333 212.667L55.6667 213.333L55.3333 212.667z"/>
<path style="fill:#7ebf67; stroke:none;" d="M100 212L101 213L100 212M205 212L206 213L205 212z"/>
<path style="fill:#a6dee4; stroke:none;" d="M242 212L242 213L245 213L242 212z"/>
<path style="fill:#7ebf67; stroke:none;" d="M245 212L246 213L245 212z"/>
<path style="fill:#10a7b5; stroke:none;" d="M246 212.428C198.337 219.195 204.973 293.383 253 287.713C261.395 286.722 269.658 283.614 275.96 277.815C301.638 254.185 281.346 207.41 246 212.428z"/>
<path style="fill:#7ebf67; stroke:none;" d="M254 212L255 213L254 212z"/>
<path style="fill:#a6dee4; stroke:none;" d="M255 212L255 213L258 213L255 212z"/>
<path style="fill:#7ebf67; stroke:none;" d="M294 212L295 213L294 212M378 212L379 213L378 212M399 212L400 213L399 212z"/>
<path style="fill:#a6dee4; stroke:none;" d="M444.333 212.667L444.667 213.333L444.333 212.667M75.3333 213.667L75.6667 214.333L75.3333 213.667M100 213L101 214L100 213M238.667 213.333L239.333 213.667L238.667 213.333M260.667 213.333L261.333 213.667L260.667 213.333M399 213L400 214L399 213M424.333 213.667L424.667 214.333L424.333 213.667M236 214L237 215L236 214M263 214L264 215L263 214z"/>
<path style="fill:#7ebf67; stroke:none;" d="M75 215L76 216L75 215z"/>
<path style="fill:#a6dee4; stroke:none;" d="M120 215L121 216L120 215M203 215L204 216L203 215z"/>
<path style="fill:#7ebf67; stroke:none;" d="M234 215L235 216L234 215M265 215L266 216L265 215z"/>
<path style="fill:#a6dee4; stroke:none;" d="M266 215L267 216L266 215M296 215L297 216L296 215M379 215L380 216L379 215z"/>
<path style="fill:#7ebf67; stroke:none;" d="M424 215L425 216L424 215M99 216L100 217L99 216M120 216L121 217L120 216M202 216L203 217L202 216M232 216L233 217L232 216M267 216L268 217L267 216M297 216L298 217L297 216M379 216L380 217L379 216M400 216L401 217L400 216M54 217L55 218L54 217z"/>
<path style="fill:#a6dee4; stroke:none;" d="M99.3333 217.667L99.6667 218.333L99.3333 217.667M230 217L231 218L230 217M269 217L270 218L269 217M400.333 217.667L400.667 218.333L400.333 217.667z"/>
<path style="fill:#7ebf67; stroke:none;" d="M445 217L446 218L445 217z"/>
<path style="fill:#a6dee4; stroke:none;" d="M54.3333 218.667L54.6667 219.333L54.3333 218.667M119.333 218.667L119.667 219.333L119.333 218.667M201 218L202 219L201 218M228 218L229 219L228 218M271 218L272 219L271 218M298 218L299 219L298 218M380.333 218.667L380.667 219.333L380.333 218.667M445.333 218.667L445.667 219.333L445.333 218.667M74.3333 219.667L74.6667 220.333L74.3333 219.667z"/>
<path style="fill:#7ebf67; stroke:none;" d="M200 219L201 220L200 219M227 219L228 220L227 219M272 219L273 220L272 219M299 219L300 220L299 219z"/>
<path style="fill:#a6dee4; stroke:none;" d="M425.333 219.667L425.667 220.333L425.333 219.667z"/>
<path style="fill:#7ebf67; stroke:none;" d="M119 220L120 221L119 220M380 220L381 221L380 220M74 221L75 222L74 221M98 221L99 222L98 221z"/>
<path style="fill:#a6dee4; stroke:none;" d="M199 221L200 222L199 221M224 221L225 222L224 221M275 221L276 222L275 221M300 221L301 222L300 221z"/>
<path style="fill:#7ebf67; stroke:none;" d="M401 221L402 222L401 221M425 221L426 222L425 221z"/>
<path style="fill:#a6dee4; stroke:none;" d="M98.3333 222.667L98.6667 223.333L98.3333 222.667M223 222L224 223L223 222M276 222L277 223L276 222M401.333 222.667L401.667 223.333L401.333 222.667M118.333 223.667L118.667 224.333L118.333 223.667M198 223L199 224L198 223M222 223L223 224L222 223M277 223L278 224L277 223M301 223L302 224L301 223M381.333 223.667L381.667 224.333L381.333 223.667z"/>
<path style="fill:#7ebf67; stroke:none;" d="M53 224L54 225L53 224z"/>
<path style="fill:#a6dee4; stroke:none;" d="M221 224L222 225L221 224M278 224L279 225L278 224z"/>
<path style="fill:#7ebf67; stroke:none;" d="M446 224L447 225L446 224z"/>
<path style="fill:#a6dee4; stroke:none;" d="M53 225L53 228L54 228L53 225M73 225L73 228L74 228L73 225z"/>
<path style="fill:#7ebf67; stroke:none;" d="M118 225L119 226L118 225z"/>
<path style="fill:#a6dee4; stroke:none;" d="M197 225L198 226L197 225M302 225L303 226L302 225z"/>
<path style="fill:#7ebf67; stroke:none;" d="M381 225L382 226L381 225z"/>
<path style="fill:#a6dee4; stroke:none;" d="M426 225L426 228L427 228L426 225M446 225L446 228L447 228L446 225z"/>
<path style="fill:#7ebf67; stroke:none;" d="M97 227L98 228L97 227z"/>
<path style="fill:#a6dee4; stroke:none;" d="M196 227L197 228L196 227M219 227L220 228L219 227z"/>
<path style="fill:#7ebf67; stroke:none;" d="M280 227L281 228L280 227z"/>
<path style="fill:#a6dee4; stroke:none;" d="M303 227L304 228L303 227z"/>
<path style="fill:#7ebf67; stroke:none;" d="M402 227L403 228L402 227M73 228L74 229L73 228z"/>
<path style="fill:#a6dee4; stroke:none;" d="M97 228L97 231L98 231L97 228M117 228L117 231L118 231L117 228M218 228L219 229L218 228M281 228L282 229L281 228M382 228L382 231L383 231L382 228M402 228L402 231L403 231L402 228z"/>
<path style="fill:#7ebf67; stroke:none;" d="M426 228L427 229L426 228M195 229L196 230L195 229M304 229L305 230L304 229z"/>
<path style="fill:#a6dee4; stroke:none;" d="M195 230L196 231L195 230z"/>
<path style="fill:#7ebf67; stroke:none;" d="M217 230L218 231L217 230M282 230L283 231L282 230z"/>
<path style="fill:#a6dee4; stroke:none;" d="M304 230L305 231L304 230z"/>
<path style="fill:#7ebf67; stroke:none;" d="M117 231L118 232L117 231z"/>
<path style="fill:#a6dee4; stroke:none;" d="M216 231L217 232L216 231M283 231L284 232L283 231z"/>
<path style="fill:#7ebf67; stroke:none;" d="M382 231L383 232L382 231M194 232L195 233L194 232M216 232L217 233L216 232M283 232L284 233L283 232M305 232L306 233L305 232M52.3333 233.667L52.6667 234.333L52.3333 233.667z"/>
<path style="fill:#a6dee4; stroke:none;" d="M72 233L72 238L73 238L72 233M194 233L195 234L194 233M215 233L216 234L215 233M284 233L285 234L284 233M305 233L306 234L305 233M427 233L427 238L428 238L427 233z"/>
<path style="fill:#7ebf67; stroke:none;" d="M447.333 233.667L447.667 234.333L447.333 233.667M215 234L216 235L215 234M284 234L285 235L284 234z"/>
<path style="fill:#a6dee4; stroke:none;" d="M52 235L52 241L53 241L52 235z"/>
<path style="fill:#7ebf67; stroke:none;" d="M96.3333 235.667L96.6667 236.333L96.3333 235.667M403.333 235.667L403.667 236.333L403.333 235.667z"/>
<path style="fill:#a6dee4; stroke:none;" d="M447 235L447 241L448 241L447 235M116 236L116 240L117 240L116 236z"/>
<path style="fill:#7ebf67; stroke:none;" d="M193 236L194 237L193 236z"/>
<path style="fill:#a6dee4; stroke:none;" d="M214 236L215 237L214 236M285 236L286 237L285 236z"/>
<path style="fill:#7ebf67; stroke:none;" d="M306 236L307 237L306 236z"/>
<path style="fill:#a6dee4; stroke:none;" d="M383 236L383 240L384 240L383 236M96 237L96 243L97 243L96 237M193 237L194 238L193 237M306 237L307 238L306 237M403 237L403 243L404 243L403 237z"/>
<path style="fill:#7ebf67; stroke:none;" d="M72 238L72 241L73 241L72 238z"/>
<path style="fill:#a6dee4; stroke:none;" d="M213.333 238.667L213.667 239.333L213.333 238.667M286.333 238.667L286.667 239.333L286.333 238.667z"/>
<path style="fill:#7ebf67; stroke:none;" d="M427 238L427 241L428 241L427 238z"/>
<path style="fill:#a6dee4; stroke:none;" d="M212.333 242.667L212.667 243.333L212.333 242.667M287.333 242.667L287.667 243.333L287.333 242.667z"/>
<path style="fill:#7ebf67; stroke:none;" d="M212.333 244.667L212.667 245.333L212.333 244.667M287.333 244.667L287.667 245.333L287.333 244.667M212.333 254.667L212.667 255.333L212.333 254.667M287.333 254.667L287.667 255.333L287.333 254.667z"/>
<path style="fill:#a6dee4; stroke:none;" d="M212.333 256.667L212.667 257.333L212.333 256.667M287.333 256.667L287.667 257.333L287.333 256.667M96 257L96 263L97 263L96 257M403 257L403 263L404 263L403 257M52 259L52 265L53 265L52 259z"/>
<path style="fill:#7ebf67; stroke:none;" d="M72 259L72 262L73 262L72 259M427 259L427 262L428 262L427 259z"/>
<path style="fill:#a6dee4; stroke:none;" d="M447 259L447 265L448 265L447 259M116 260L116 264L117 264L116 260z"/>
<path style="fill:#10a7b5; stroke:none;" d="M117 260C117.081 289.336 131.864 318.472 150.845 340C157.379 347.411 165.616 356.371 175 360C184.433 344.587 193.191 328.694 202.15 313C204.72 308.499 211.817 300.42 211.006 295C210.355 290.648 204.906 286.513 202.44 283C197.626 276.143 194.121 268.32 193 260L117 260z"/>
<path style="fill:#a6dee4; stroke:none;" d="M213.333 260.667L213.667 261.333L213.333 260.667M286.333 260.667L286.667 261.333L286.333 260.667z"/>
<path style="fill:#10a7b5; stroke:none;" d="M307 260C305.879 268.32 302.374 276.143 297.56 283C295.094 286.513 289.645 290.648 288.994 295C288.183 300.42 295.28 308.499 297.85 313C306.809 328.694 315.567 344.587 325 360C334.384 356.371 342.621 347.411 349.155 340C368.136 318.472 382.919 289.336 383 260L307 260z"/>
<path style="fill:#a6dee4; stroke:none;" d="M383 260L383 264L384 264L383 260M72 262L72 267L73 267L72 262M193 262L194 263L193 262M306 262L307 263L306 262M427 262L427 267L428 267L427 262z"/>
<path style="fill:#7ebf67; stroke:none;" d="M96.3333 263.667L96.6667 264.333L96.3333 263.667M193 263L194 264L193 263z"/>
<path style="fill:#a6dee4; stroke:none;" d="M214 263L215 264L214 263M285 263L286 264L285 263z"/>
<path style="fill:#7ebf67; stroke:none;" d="M306 263L307 264L306 263M403.333 263.667L403.667 264.333L403.333 263.667M52.3333 265.667L52.6667 266.333L52.3333 265.667M215 265L216 266L215 265M284 265L285 266L284 265M447.333 265.667L447.667 266.333L447.333 265.667z"/>
<path style="fill:#a6dee4; stroke:none;" d="M194 266L195 267L194 266M215 266L216 267L215 266M284 266L285 267L284 266M305 266L306 267L305 266z"/>
<path style="fill:#7ebf67; stroke:none;" d="M194 267L195 268L194 267M216 267L217 268L216 267M283 267L284 268L283 267M305 267L306 268L305 267M117 268L118 269L117 268z"/>
<path style="fill:#a6dee4; stroke:none;" d="M216 268L217 269L216 268M283 268L284 269L283 268z"/>
<path style="fill:#7ebf67; stroke:none;" d="M382 268L383 269L382 268z"/>
<path style="fill:#a6dee4; stroke:none;" d="M97 269L97 272L98 272L97 269M117 269L117 272L118 272L117 269M195 269L196 270L195 269z"/>
<path style="fill:#7ebf67; stroke:none;" d="M217 269L218 270L217 269M282 269L283 270L282 269z"/>
<path style="fill:#a6dee4; stroke:none;" d="M304 269L305 270L304 269M382 269L382 272L383 272L382 269M402 269L402 272L403 272L402 269z"/>
<path style="fill:#7ebf67; stroke:none;" d="M195 270L196 271L195 270M304 270L305 271L304 270M73 271L74 272L73 271z"/>
<path style="fill:#a6dee4; stroke:none;" d="M218 271L219 272L218 271M281 271L282 272L281 271z"/>
<path style="fill:#7ebf67; stroke:none;" d="M426 271L427 272L426 271z"/>
<path style="fill:#a6dee4; stroke:none;" d="M53 272L53 275L54 275L53 272M73 272L73 275L74 275L73 272z"/>
<path style="fill:#7ebf67; stroke:none;" d="M97 272L98 273L97 272z"/>
<path style="fill:#a6dee4; stroke:none;" d="M196 272L197 273L196 272M219 272L220 273L219 272z"/>
<path style="fill:#7ebf67; stroke:none;" d="M280 272L281 273L280 272z"/>
<path style="fill:#a6dee4; stroke:none;" d="M303 272L304 273L303 272z"/>
<path style="fill:#7ebf67; stroke:none;" d="M402 272L403 273L402 272z"/>
<path style="fill:#a6dee4; stroke:none;" d="M426 272L426 275L427 275L426 272M446 272L446 275L447 275L446 272z"/>
<path style="fill:#7ebf67; stroke:none;" d="M118 274L119 275L118 274z"/>
<path style="fill:#a6dee4; stroke:none;" d="M197 274L198 275L197 274M302 274L303 275L302 274z"/>
<path style="fill:#7ebf67; stroke:none;" d="M381 274L382 275L381 274M53 275L54 276L53 275z"/>
<path style="fill:#a6dee4; stroke:none;" d="M118.333 275.667L118.667 276.333L118.333 275.667M221 275L222 276L221 275M278 275L279 276L278 275M381.333 275.667L381.667 276.333L381.333 275.667z"/>
<path style="fill:#7ebf67; stroke:none;" d="M446 275L447 276L446 275z"/>
<path style="fill:#a6dee4; stroke:none;" d="M98.3333 276.667L98.6667 277.333L98.3333 276.667M198 276L199 277L198 276M222 276L223 277L222 276M277 276L278 277L277 276M301 276L302 277L301 276M401.333 276.667L401.667 277.333L401.333 276.667M223 277L224 278L223 277M276 277L277 278L276 277z"/>
<path style="fill:#7ebf67; stroke:none;" d="M74 278L75 279L74 278M98 278L99 279L98 278z"/>
<path style="fill:#a6dee4; stroke:none;" d="M199 278L200 279L199 278M224 278L225 279L224 278M275 278L276 279L275 278M300 278L301 279L300 278z"/>
<path style="fill:#7ebf67; stroke:none;" d="M401 278L402 279L401 278M425 278L426 279L425 278z"/>
<path style="fill:#a6dee4; stroke:none;" d="M74.3333 279.667L74.6667 280.333L74.3333 279.667z"/>
<path style="fill:#7ebf67; stroke:none;" d="M119 279L120 280L119 279M380 279L381 280L380 279z"/>
<path style="fill:#a6dee4; stroke:none;" d="M425.333 279.667L425.667 280.333L425.333 279.667M54.3333 280.667L54.6667 281.333L54.3333 280.667M119.333 280.667L119.667 281.333L119.333 280.667z"/>
<path style="fill:#7ebf67; stroke:none;" d="M200 280L201 281L200 280M227 280L228 281L227 280M272 280L273 281L272 280M299 280L300 281L299 280z"/>
<path style="fill:#a6dee4; stroke:none;" d="M380.333 280.667L380.667 281.333L380.333 280.667M445.333 280.667L445.667 281.333L445.333 280.667M99.3333 281.667L99.6667 282.333L99.3333 281.667M201 281L202 282L201 281M228 281L229 282L228 281M271 281L272 282L271 281M298 281L299 282L298 281M400.333 281.667L400.667 282.333L400.333 281.667z"/>
<path style="fill:#7ebf67; stroke:none;" d="M54 282L55 283L54 282z"/>
<path style="fill:#a6dee4; stroke:none;" d="M230 282L231 283L230 282M269 282L270 283L269 282z"/>
<path style="fill:#7ebf67; stroke:none;" d="M445 282L446 283L445 282M99 283L100 284L99 283M120 283L121 284L120 283M202 283L203 284L202 283z"/>
<path style="fill:#a6dee4; stroke:none;" d="M231 283L232 284L231 283z"/>
<path style="fill:#7ebf67; stroke:none;" d="M232 283L233 284L232 283M267 283L268 284L267 283z"/>
<path style="fill:#a6dee4; stroke:none;" d="M268 283L269 284L268 283z"/>
<path style="fill:#7ebf67; stroke:none;" d="M297 283L298 284L297 283M379 283L380 284L379 283M400 283L401 284L400 283z"/>
<path style="fill:#a6dee4; stroke:none;" d="M75 284L75 287L76 287L75 284M120 284L121 285L120 284M203 284L204 285L203 284M233 284L234 285L233 284z"/>
<path style="fill:#7ebf67; stroke:none;" d="M234 284L235 285L234 284M265 284L266 285L265 284z"/>
<path style="fill:#a6dee4; stroke:none;" d="M266 284L267 285L266 284M296 284L297 285L296 284M379 284L380 285L379 284M424 284L424 287L425 287L424 284M236 285L237 286L236 285M263 285L264 286L263 285M55.3333 286.667L55.6667 287.333L55.3333 286.667M100 286L101 287L100 286M238.667 286.333L239.333 286.667L238.667 286.333M260.667 286.333L261.333 286.667L260.667 286.333M399 286L400 287L399 286M444.333 286.667L444.667 287.333L444.333 286.667z"/>
<path style="fill:#7ebf67; stroke:none;" d="M100 287L101 288L100 287M121 287L122 288L121 287M205 287L206 288L205 287z"/>
<path style="fill:#a6dee4; stroke:none;" d="M242 287L242 288L245 288L242 287z"/>
<path style="fill:#7ebf67; stroke:none;" d="M245 287L246 288L245 287M254 287L255 288L254 287z"/>
<path style="fill:#a6dee4; stroke:none;" d="M255 287L255 288L258 288L255 287z"/>
<path style="fill:#7ebf67; stroke:none;" d="M294 287L295 288L294 287M378 287L379 288L378 287M399 287L400 288L399 287z"/>
<path style="fill:#a6dee4; stroke:none;" d="M121 288L122 289L121 288z"/>
<path style="fill:#7ebf67; stroke:none;" d="M206 288L207 289L206 288M293 288L294 289L293 288z"/>
<path style="fill:#a6dee4; stroke:none;" d="M378 288L379 289L378 288M76.3333 289.667L76.6667 290.333L76.3333 289.667M207 289L208 290L207 289M292 289L293 290L292 289M423.333 289.667L423.667 290.333L423.333 289.667M101 290L102 291L101 290z"/>
<path style="fill:#7ebf67; stroke:none;" d="M122 290L123 291L122 290z"/>
<path style="fill:#a6dee4; stroke:none;" d="M208 290L209 291L208 290M291 290L292 291L291 290z"/>
<path style="fill:#7ebf67; stroke:none;" d="M377 290L378 291L377 290z"/>
<path style="fill:#a6dee4; stroke:none;" d="M398 290L399 291L398 290M56.3333 291.667L56.6667 292.333L56.3333 291.667z"/>
<path style="fill:#7ebf67; stroke:none;" d="M101 291L102 292L101 291z"/>
<path style="fill:#a6dee4; stroke:none;" d="M122 291L123 292L122 291M209 291L210 292L209 291M290 291L291 292L290 291M377 291L378 292L377 291z"/>
<path style="fill:#7ebf67; stroke:none;" d="M398 291L399 292L398 291z"/>
<path style="fill:#a6dee4; stroke:none;" d="M443.333 291.667L443.667 292.333L443.333 291.667z"/>
<path style="fill:#7ebf67; stroke:none;" d="M210 292L211 293L210 292M289 292L290 293L289 292z"/>
<path style="fill:#a6dee4; stroke:none;" d="M77.3333 293.667L77.6667 294.333L77.3333 293.667M102.333 293.667L102.667 294.333L102.333 293.667z"/>
<path style="fill:#7ebf67; stroke:none;" d="M123 293L124 294L123 293M211 293L212 294L211 293M288 293L289 294L288 293M376 293L377 294L376 293z"/>
<path style="fill:#a6dee4; stroke:none;" d="M397.333 293.667L397.667 294.333L397.333 293.667M422.333 293.667L422.667 294.333L422.333 293.667M123 294L124 295L123 294z"/>
<path style="fill:#7ebf67; stroke:none;" d="M212 294L213 295L212 294M287 294L288 295L287 294z"/>
<path style="fill:#a6dee4; stroke:none;" d="M376 294L377 295L376 294M57.3333 295.667L57.6667 296.333L57.3333 295.667M212 295L213 296L212 295M287 295L288 296L287 295M442.333 295.667L442.667 296.333L442.333 295.667z"/>
<path style="fill:#7ebf67; stroke:none;" d="M124 296L125 297L124 296M211 296L212 297L211 296M288 296L289 297L288 296M375 296L376 297L375 296z"/>
<path style="fill:#a6dee4; stroke:none;" d="M78.3333 297.667L78.6667 298.333L78.3333 297.667M103 297L104 298L103 297M124 297L125 298L124 297M375 297L376 298L375 297M396 297L397 298L396 297M421.333 297.667L421.667 298.333L421.333 297.667M210 298L211 299L210 298M289 298L290 299L289 298M58.3333 299.667L58.6667 300.333L58.3333 299.667M125 299L126 300L125 299M374 299L375 300L374 299M441.333 299.667L441.667 300.333L441.333 299.667z"/>
<path style="fill:#7ebf67; stroke:none;" d="M79 300L80 301L79 300z"/>
<path style="fill:#a6dee4; stroke:none;" d="M104 300L105 301L104 300M209 300L210 301L209 300M290 300L291 301L290 300M395 300L396 301L395 300z"/>
<path style="fill:#7ebf67; stroke:none;" d="M420 300L421 301L420 300z"/>
<path style="fill:#a6dee4; stroke:none;" d="M79 301L80 302L79 301z"/>
<path style="fill:#7ebf67; stroke:none;" d="M126 301L127 302L126 301M373 301L374 302L373 301z"/>
<path style="fill:#a6dee4; stroke:none;" d="M420 301L421 302L420 301M105.333 302.667L105.667 303.333L105.333 302.667M126 302L127 303L126 302M208 302L209 303L208 302M291 302L292 303L291 302M373 302L374 303L373 302M394.333 302.667L394.667 303.333L394.333 302.667M59 303L60 304L59 303z"/>
<path style="fill:#7ebf67; stroke:none;" d="M207 303L208 304L207 303M292 303L293 304L292 303z"/>
<path style="fill:#a6dee4; stroke:none;" d="M440 303L441 304L440 303z"/>
<path style="fill:#7ebf67; stroke:none;" d="M59 304L60 305L59 304z"/>
<path style="fill:#a6dee4; stroke:none;" d="M80 304L81 305L80 304M127 304L128 305L127 304M230 304L229 306L230 304M269 304L271 306L269 304M372 304L373 305L372 304M419 304L420 305L419 304z"/>
<path style="fill:#7ebf67; stroke:none;" d="M440 304L441 305L440 304z"/>
<path style="fill:#a6dee4; stroke:none;" d="M106 305L107 306L106 305M206 305L207 306L206 305z"/>
<path style="fill:#10a7b5; stroke:none;" d="M230 305L192 371C232.145 386.57 267.855 386.57 308 371L270 305C255.545 307.982 244.455 307.982 230 305z"/>
<path style="fill:#7ebf67; stroke:none;" d="M232 305L233 306L232 305z"/>
<path style="fill:#a6dee4; stroke:none;" d="M233 305L234 306L233 305M266 305L267 306L266 305z"/>
<path style="fill:#7ebf67; stroke:none;" d="M267 305L268 306L267 305z"/>
<path style="fill:#a6dee4; stroke:none;" d="M293 305L294 306L293 305M393 305L394 306L393 305M60.3333 306.667L60.6667 307.333L60.3333 306.667z"/>
<path style="fill:#7ebf67; stroke:none;" d="M106 306L107 307L106 306z"/>
<path style="fill:#a6dee4; stroke:none;" d="M128 306L129 307L128 306M236.667 306.333L237.333 306.667L236.667 306.333M262.667 306.333L263.333 306.667L262.667 306.333M371 306L372 307L371 306z"/>
<path style="fill:#7ebf67; stroke:none;" d="M393 306L394 307L393 306z"/>
<path style="fill:#a6dee4; stroke:none;" d="M439.333 306.667L439.667 307.333L439.333 306.667M81 307L82 308L81 307M205 307L206 308L205 307z"/>
<path style="fill:#7ebf67; stroke:none;" d="M228 307L229 308L228 307M241 307L242 308L241 307z"/>
<path style="fill:#a6dee4; stroke:none;" d="M242 307L242 308L245 308L242 307M255 307L255 308L258 308L255 307z"/>
<path style="fill:#7ebf67; stroke:none;" d="M258 307L259 308L258 307M271 307L272 308L271 307z"/>
<path style="fill:#a6dee4; stroke:none;" d="M294 307L295 308L294 307M418 307L419 308L418 307M107 308L108 309L107 308M129 308L130 309L129 308z"/>
<path style="fill:#7ebf67; stroke:none;" d="M204 308L205 309L204 308z"/>
<path style="fill:#a6dee4; stroke:none;" d="M227 308L228 309L227 308M272 308L273 309L272 308z"/>
<path style="fill:#7ebf67; stroke:none;" d="M295 308L296 309L295 308z"/>
<path style="fill:#a6dee4; stroke:none;" d="M370 308L371 309L370 308M392 308L393 309L392 308z"/>
<path style="fill:#7ebf67; stroke:none;" d="M82 309L83 310L82 309M417 309L418 310L417 309z"/>
<path style="fill:#a6dee4; stroke:none;" d="M61 310L62 311L61 310M82 310L83 311L82 310M108 310L109 311L108 310M130 310L131 311L130 310M203 310L204 311L203 310M226 310L227 311L226 310M273 310L274 311L273 310M296 310L297 311L296 310M369 310L370 311L369 310M391 310L392 311L391 310M417 310L418 311L417 310M438 310L439 311L438 310z"/>
<path style="fill:#7ebf67; stroke:none;" d="M83 312L84 313L83 312z"/>
<path style="fill:#a6dee4; stroke:none;" d="M109 312L110 313L109 312M131 312L132 313L131 312M202 312L203 313L202 312M225 312L226 313L225 312M274 312L275 313L274 312M297 312L298 313L297 312M368 312L369 313L368 312M390 312L391 313L390 312z"/>
<path style="fill:#7ebf67; stroke:none;" d="M416 312L417 313L416 312z"/>
<path style="fill:#a6dee4; stroke:none;" d="M62 313L63 314L62 313M83 313L84 314L83 313z"/>
<path style="fill:#7ebf67; stroke:none;" d="M109 313L110 314L109 313M390 313L391 314L390 313z"/>
<path style="fill:#a6dee4; stroke:none;" d="M416 313L417 314L416 313M437 313L438 314L437 313M132 314L133 315L132 314M201 314L202 315L201 314z"/>
<path style="fill:#7ebf67; stroke:none;" d="M224 314L225 315L224 314M275 314L276 315L275 314z"/>
<path style="fill:#a6dee4; stroke:none;" d="M298 314L299 315L298 314M367 314L368 315L367 314M84 315L85 316L84 315z"/>
<path style="fill:#7ebf67; stroke:none;" d="M110 315L111 316L110 315M200 315L201 316L200 315z"/>
<path style="fill:#a6dee4; stroke:none;" d="M223 315L224 316L223 315M276 315L277 316L276 315z"/>
<path style="fill:#7ebf67; stroke:none;" d="M299 315L300 316L299 315M389 315L390 316L389 315z"/>
<path style="fill:#a6dee4; stroke:none;" d="M415 315L416 316L415 315M63 316L64 317L63 316M133 316L134 317L133 316M366 316L367 317L366 316M436 316L437 317L436 316z"/>
<path style="fill:#7ebf67; stroke:none;" d="M85 317L86 318L85 317z"/>
<path style="fill:#a6dee4; stroke:none;" d="M111 317L112 318L111 317z"/>
<path style="fill:#7ebf67; stroke:none;" d="M134 317L135 318L134 317z"/>
<path style="fill:#a6dee4; stroke:none;" d="M199 317L200 318L199 317M222 317L223 318L222 317M277 317L278 318L277 317M300 317L301 318L300 317z"/>
<path style="fill:#7ebf67; stroke:none;" d="M365 317L366 318L365 317z"/>
<path style="fill:#a6dee4; stroke:none;" d="M388 317L389 318L388 317z"/>
<path style="fill:#7ebf67; stroke:none;" d="M414 317L415 318L414 317z"/>
<path style="fill:#a6dee4; stroke:none;" d="M85 318L86 319L85 318M414 318L415 319L414 318M64 319L65 320L64 319M112 319L113 320L112 319M135 319L136 320L135 319M198 319L199 320L198 319M221 319L222 320L221 319M278 319L279 320L278 319M301 319L302 320L301 319M364 319L365 320L364 319M387 319L388 320L387 319M435 319L436 320L435 319M86 320L87 321L86 320M413 320L414 321L413 320M65 321L66 322L65 321z"/>
<path style="fill:#7ebf67; stroke:none;" d="M113 321L114 322L113 321z"/>
<path style="fill:#a6dee4; stroke:none;" d="M136 321L137 322L136 321M197 321L198 322L197 321z"/>
<path style="fill:#7ebf67; stroke:none;" d="M220 321L221 322L220 321M279 321L280 322L279 321z"/>
<path style="fill:#a6dee4; stroke:none;" d="M302 321L303 322L302 321M363 321L364 322L363 321z"/>
<path style="fill:#7ebf67; stroke:none;" d="M386 321L387 322L386 321z"/>
<path style="fill:#a6dee4; stroke:none;" d="M434 321L435 322L434 321M87 322L88 323L87 322M137 322L138 323L137 322z"/>
<path style="fill:#7ebf67; stroke:none;" d="M196 322L197 323L196 322z"/>
<path style="fill:#a6dee4; stroke:none;" d="M219 322L220 323L219 322M280 322L281 323L280 322z"/>
<path style="fill:#7ebf67; stroke:none;" d="M303 322L304 323L303 322M362 322L363 323L362 322z"/>
<path style="fill:#a6dee4; stroke:none;" d="M412 322L413 323L412 322z"/>
<path style="fill:#7ebf67; stroke:none;" d="M114 323L115 324L114 323M385 323L386 324L385 323z"/>
<path style="fill:#a6dee4; stroke:none;" d="M66 324L67 325L66 324z"/>
<path style="fill:#7ebf67; stroke:none;" d="M88 324L89 325L88 324z"/>
<path style="fill:#a6dee4; stroke:none;" d="M115 324L116 325L115 324M138 324L139 325L138 324M195 324L196 325L195 324M218 324L219 325L218 324M281 324L282 325L281 324M304 324L305 325L304 324M361 324L362 325L361 324M384 324L385 325L384 324M411 324L412 325L411 324M433 324L434 325L433 324z"/>
<path style="fill:#7ebf67; stroke:none;" d="M139 325L140 326L139 325M360 325L361 326L360 325z"/>
<path style="fill:#a6dee4; stroke:none;" d="M67 326L68 327L67 326z"/>
<path style="fill:#7ebf67; stroke:none;" d="M89 326L90 327L89 326z"/>
<path style="fill:#a6dee4; stroke:none;" d="M116 326L117 327L116 326M194 326L195 327L194 326z"/>
<path style="fill:#7ebf67; stroke:none;" d="M217 326L218 327L217 326M282 326L283 327L282 326z"/>
<path style="fill:#a6dee4; stroke:none;" d="M305 326L306 327L305 326M383 326L384 327L383 326z"/>
<path style="fill:#7ebf67; stroke:none;" d="M410 326L411 327L410 326z"/>
<path style="fill:#a6dee4; stroke:none;" d="M432 326L433 327L432 326M89 327L90 328L89 327M140 327L141 328L140 327M359 327L360 328L359 327M410 327L411 328L410 327M68 328L69 329L68 328z"/>
<path style="fill:#7ebf67; stroke:none;" d="M90 328L91 329L90 328z"/>
<path style="fill:#a6dee4; stroke:none;" d="M117 328L118 329L117 328M141 328L142 329L141 328M193 328L194 329L193 328M306 328L307 329L306 328M358 328L359 329L358 328M382 328L383 329L382 328z"/>
<path style="fill:#7ebf67; stroke:none;" d="M409 328L410 329L409 328z"/>
<path style="fill:#a6dee4; stroke:none;" d="M431 328L432 329L431 328z"/>
<path style="fill:#7ebf67; stroke:none;" d="M68 329L69 330L68 329z"/>
<path style="fill:#a6dee4; stroke:none;" d="M90 329L91 330L90 329z"/>
<path style="fill:#7ebf67; stroke:none;" d="M192 329L193 330L192 329z"/>
<path style="fill:#a6dee4; stroke:none;" d="M215 329L216 330L215 329M284 329L285 330L284 329z"/>
<path style="fill:#7ebf67; stroke:none;" d="M307 329L308 330L307 329z"/>
<path style="fill:#a6dee4; stroke:none;" d="M409 329L410 330L409 329z"/>
<path style="fill:#7ebf67; stroke:none;" d="M431 329L432 330L431 329M91 330L92 331L91 330M118 330L119 331L118 330M381 330L382 331L381 330M408 330L409 331L408 330z"/>
<path style="fill:#a6dee4; stroke:none;" d="M69 331L70 332L69 331M91 331L92 332L91 331M119 331L120 332L119 331M143 331L144 332L143 331M191 331L192 332L191 331M214 331L215 332L214 331M285 331L286 332L285 331M308 331L309 332L308 331M356 331L357 332L356 331M380 331L381 332L380 331M408 331L409 332L408 331M430 331L431 332L430 331z"/>
<path style="fill:#7ebf67; stroke:none;" d="M92 332L93 333L92 332z"/>
<path style="fill:#a6dee4; stroke:none;" d="M144 332L145 333L144 332M355 332L356 333L355 332z"/>
<path style="fill:#7ebf67; stroke:none;" d="M407 332L408 333L407 332z"/>
<path style="fill:#a6dee4; stroke:none;" d="M70 333L71 334L70 333z"/>
<path style="fill:#7ebf67; stroke:none;" d="M120 333L121 334L120 333M145 333L146 334L145 333z"/>
<path style="fill:#a6dee4; stroke:none;" d="M190 333L191 334L190 333z"/>
<path style="fill:#7ebf67; stroke:none;" d="M213 333L214 334L213 333M286 333L287 334L286 333z"/>
<path style="fill:#a6dee4; stroke:none;" d="M309 333L310 334L309 333z"/>
<path style="fill:#7ebf67; stroke:none;" d="M354 333L355 334L354 333M379 333L380 334L379 333z"/>
<path style="fill:#a6dee4; stroke:none;" d="M429 333L430 334L429 333z"/>
<path style="fill:#7ebf67; stroke:none;" d="M93 334L94 335L93 334z"/>
<path style="fill:#a6dee4; stroke:none;" d="M121 334L122 335L121 334z"/>
<path style="fill:#7ebf67; stroke:none;" d="M189 334L190 335L189 334z"/>
<path style="fill:#a6dee4; stroke:none;" d="M212 334L213 335L212 334M287 334L288 335L287 334z"/>
<path style="fill:#7ebf67; stroke:none;" d="M310 334L311 335L310 334z"/>
<path style="fill:#a6dee4; stroke:none;" d="M378 334L379 335L378 334z"/>
<path style="fill:#7ebf67; stroke:none;" d="M406 334L407 335L406 334z"/>
<path style="fill:#a6dee4; stroke:none;" d="M71 335L72 336L71 335M428 335L429 336L428 335M94 336L95 337L94 336z"/>
<path style="fill:#7ebf67; stroke:none;" d="M122 336L123 337L122 336z"/>
<path style="fill:#a6dee4; stroke:none;" d="M147 336L148 337L147 336z"/>
<path style="fill:#7ebf67; stroke:none;" d="M188 336L189 337L188 336z"/>
<path style="fill:#a6dee4; stroke:none;" d="M211 336L212 337L211 336M288 336L289 337L288 336M311 336L312 337L311 336M352 336L353 337L352 336z"/>
<path style="fill:#7ebf67; stroke:none;" d="M377 336L378 337L377 336z"/>
<path style="fill:#a6dee4; stroke:none;" d="M405 336L406 337L405 336M72 337L73 338L72 337M123 337L124 338L123 337M148 337L149 338L148 337M351 337L352 338L351 337M376 337L377 338L376 337M427 337L428 338L427 337M95 338L96 339L95 338M149 338L150 339L149 338M187 338L188 339L187 338M210 338L211 339L210 338M289 338L290 339L289 338M312 338L313 339L312 338M350 338L351 339L350 338M404 338L405 339L404 338M73 339L74 340L73 339z"/>
<path style="fill:#7ebf67; stroke:none;" d="M124 339L125 340L124 339M150 339L151 340L150 339M349 339L350 340L349 339M375 339L376 340L375 339z"/>
<path style="fill:#a6dee4; stroke:none;" d="M426 339L427 340L426 339M96 340L97 341L96 340M125 340L126 341L125 340z"/>
<path style="fill:#7ebf67; stroke:none;" d="M151 340L152 341L151 340z"/>
<path style="fill:#a6dee4; stroke:none;" d="M186 340L187 341L186 340z"/>
<path style="fill:#7ebf67; stroke:none;" d="M209 340L210 341L209 340M290 340L291 341L290 340z"/>
<path style="fill:#a6dee4; stroke:none;" d="M313 340L314 341L313 340z"/>
<path style="fill:#7ebf67; stroke:none;" d="M348 340L349 341L348 340z"/>
<path style="fill:#a6dee4; stroke:none;" d="M374 340L375 341L374 340M403 340L404 341L403 340M74 341L75 342L74 341z"/>
<path style="fill:#7ebf67; stroke:none;" d="M97 341L98 342L97 341M152 341L153 342L152 341M185 341L186 342L185 341z"/>
<path style="fill:#a6dee4; stroke:none;" d="M208 341L209 342L208 341M291 341L292 342L291 341z"/>
<path style="fill:#7ebf67; stroke:none;" d="M314 341L315 342L314 341M347 341L348 342L347 341M402 341L403 342L402 341z"/>
<path style="fill:#a6dee4; stroke:none;" d="M425 341L426 342L425 341M75 343L76 344L75 343M98 343L99 344L98 343z"/>
<path style="fill:#7ebf67; stroke:none;" d="M127 343L128 344L127 343z"/>
<path style="fill:#a6dee4; stroke:none;" d="M184 343L185 344L184 343M207 343L208 344L207 343M292 343L293 344L292 343M315 343L316 344L315 343z"/>
<path style="fill:#7ebf67; stroke:none;" d="M372 343L373 344L372 343z"/>
<path style="fill:#a6dee4; stroke:none;" d="M401 343L402 344L401 343M424 343L425 344L424 343M128 344L129 345L128 344M371 344L372 345L371 344M76 345L77 346L76 345M129 345L130 346L129 345M183 345L184 346L183 345M206 345L207 346L206 345M293 345L294 346L293 345M316 345L317 346L316 345M370 345L371 346L370 345M423 345L424 346L423 345M100 346L101 347L100 346M399 346L400 347L399 346z"/>
<path style="fill:#7ebf67; stroke:none;" d="M77 347L78 348L77 347z"/>
<path style="fill:#a6dee4; stroke:none;" d="M182 347L183 348L182 347z"/>
<path style="fill:#7ebf67; stroke:none;" d="M205 347L206 348L205 347M294 347L295 348L294 347z"/>
<path style="fill:#a6dee4; stroke:none;" d="M317 347L318 348L317 347z"/>
<path style="fill:#7ebf67; stroke:none;" d="M422 347L423 348L422 347z"/>
<path style="fill:#a6dee4; stroke:none;" d="M78 348L79 349L78 348z"/>
<path style="fill:#7ebf67; stroke:none;" d="M131 348L132 349L131 348M159 348L160 349L159 348M181 348L182 349L181 348z"/>
<path style="fill:#a6dee4; stroke:none;" d="M204 348L205 349L204 348M295 348L296 349L295 348z"/>
<path style="fill:#7ebf67; stroke:none;" d="M318 348L319 349L318 348M340 348L341 349L340 348M368 348L369 349L368 348z"/>
<path style="fill:#a6dee4; stroke:none;" d="M421 348L422 349L421 348M102 349L103 350L102 349M132 349L133 350L132 349z"/>
<path style="fill:#7ebf67; stroke:none;" d="M160 349L161 350L160 349M339 349L340 350L339 349z"/>
<path style="fill:#a6dee4; stroke:none;" d="M367 349L368 350L367 349M397 349L398 350L397 349M79 350L80 351L79 350M133 350L134 351L133 350M161 350L162 351L161 350M180 350L181 351L180 350M203 350L204 351L203 350M296 350L297 351L296 350M319 350L320 351L319 350M338 350L339 351L338 350M366 350L367 351L366 350M420 350L421 351L420 350M134 351L135 352L134 351M162 351L163 352L162 351M337 351L338 352L337 351M365 351L366 352L365 351M80 352L81 353L80 352M104 352L105 353L104 352M163 352L164 353L163 352M179 352L180 353L179 352z"/>
<path style="fill:#7ebf67; stroke:none;" d="M202 352L203 353L202 352M297 352L298 353L297 352z"/>
<path style="fill:#a6dee4; stroke:none;" d="M320 352L321 353L320 352M336 352L337 353L336 352M395 352L396 353L395 352M419 352L420 353L419 352M81 353L82 354L81 353z"/>
<path style="fill:#7ebf67; stroke:none;" d="M105 353L106 354L105 353M394 353L395 354L394 353z"/>
<path style="fill:#a6dee4; stroke:none;" d="M418 353L419 354L418 353z"/>
<path style="fill:#7ebf67; stroke:none;" d="M166 354L167 355L166 354z"/>
<path style="fill:#a6dee4; stroke:none;" d="M178 354L179 355L178 354M321 354L322 355L321 354z"/>
<path style="fill:#7ebf67; stroke:none;" d="M333 354L334 355L333 354z"/>
<path style="fill:#a6dee4; stroke:none;" d="M82 355L83 356L82 355M106 355L107 356L106 355M167 355L168 356L167 355z"/>
<path style="fill:#7ebf67; stroke:none;" d="M177 355L178 356L177 355z"/>
<path style="fill:#a6dee4; stroke:none;" d="M200 355L201 356L200 355M299 355L300 356L299 355z"/>
<path style="fill:#7ebf67; stroke:none;" d="M322 355L323 356L322 355z"/>
<path style="fill:#a6dee4; stroke:none;" d="M332 355L333 356L332 355M393 355L394 356L393 355M417 355L418 356L417 355M107 356L108 357L107 356M168 356L169 357L168 356M331 356L332 357L331 356M392 356L393 357L392 356z"/>
<path style="fill:#7ebf67; stroke:none;" d="M83 357L84 358L83 357M108 357L109 358L108 357z"/>
<path style="fill:#a6dee4; stroke:none;" d="M176 357L177 358L176 357M199 357L200 358L199 357M300 357L301 358L300 357M323 357L324 358L323 357z"/>
<path style="fill:#7ebf67; stroke:none;" d="M416 357L417 358L416 357z"/>
<path style="fill:#a6dee4; stroke:none;" d="M84 358L85 359L84 358z"/>
<path style="fill:#7ebf67; stroke:none;" d="M140 358L141 359L140 358z"/>
<path style="fill:#a6dee4; stroke:none;" d="M171 358L172 359L171 358M328 358L329 359L328 358z"/>
<path style="fill:#7ebf67; stroke:none;" d="M359 358L360 359L359 358z"/>
<path style="fill:#a6dee4; stroke:none;" d="M415 358L416 359L415 358M109 359L110 360L109 359z"/>
<path style="fill:#7ebf67; stroke:none;" d="M141 359L142 360L141 359z"/>
<path style="fill:#a6dee4; stroke:none;" d="M172 359L173 360L172 359M175 359L176 360L175 359z"/>
<path style="fill:#7ebf67; stroke:none;" d="M198 359L199 360L198 359M301 359L302 360L301 359z"/>
<path style="fill:#a6dee4; stroke:none;" d="M324 359L325 360L324 359M327 359L328 360L327 359z"/>
<path style="fill:#7ebf67; stroke:none;" d="M358 359L359 360L358 359z"/>
<path style="fill:#a6dee4; stroke:none;" d="M390 359L391 360L390 359z"/>
<path style="fill:#7ebf67; stroke:none;" d="M85 360L86 361L85 360z"/>
<path style="fill:#a6dee4; stroke:none;" d="M110 360L111 361L110 360M174 360L175 361L174 360M197 360L198 361L197 360M302 360L303 361L302 360M325 360L326 361L325 360M389 360L390 361L389 360z"/>
<path style="fill:#7ebf67; stroke:none;" d="M414 360L415 361L414 360z"/>
<path style="fill:#a6dee4; stroke:none;" d="M86 361L87 362L86 361z"/>
<path style="fill:#7ebf67; stroke:none;" d="M111 361L112 362L111 361M388 361L389 362L388 361z"/>
<path style="fill:#a6dee4; stroke:none;" d="M413 361L414 362L413 361M196 362L197 363L196 362M303 362L304 363L303 362M88 364L89 365L88 364M113 364L114 365L113 364M195 364L196 365L195 364M304 364L305 365L304 364M386 364L387 365L386 364M411 364L412 365L411 364M89 365L90 366L89 365M114 365L115 366L114 365M148 365L149 366L148 365M351 365L352 366L351 365M385 365L386 366L385 365M410 365L411 366L410 365M115 366L116 367L115 366M149 366L150 367L149 366z"/>
<path style="fill:#7ebf67; stroke:none;" d="M194 366L195 367L194 366M305 366L306 367L305 366z"/>
<path style="fill:#a6dee4; stroke:none;" d="M350 366L351 367L350 366M384 366L385 367L384 366z"/>
<path style="fill:#7ebf67; stroke:none;" d="M90 367L91 368L90 367M116 367L117 368L116 367z"/>
<path style="fill:#a6dee4; stroke:none;" d="M150 367L151 368L150 367M193 367L194 368L193 367M306 367L307 368L306 367M349 367L350 368L349 367z"/>
<path style="fill:#7ebf67; stroke:none;" d="M383 367L384 368L383 367M409 367L410 368L409 367z"/>
<path style="fill:#a6dee4; stroke:none;" d="M91 368L92 369L91 368z"/>
<path style="fill:#7ebf67; stroke:none;" d="M117 368L118 369L117 368M151 368L152 369L151 368M348 368L349 369L348 368M382 368L383 369L382 368z"/>
<path style="fill:#a6dee4; stroke:none;" d="M408 368L409 369L408 368M192 369L193 370L192 369M307 369L308 370L307 369M154 370L155 371L154 370M345 370L346 371L345 370z"/>
<path style="fill:#7ebf67; stroke:none;" d="M93 371L94 372L93 371z"/>
<path style="fill:#a6dee4; stroke:none;" d="M155 371L156 372L155 371M193 371L194 372L193 371M306 371L307 372L306 371M344 371L345 372L344 371z"/>
<path style="fill:#7ebf67; stroke:none;" d="M406 371L407 372L406 371z"/>
<path style="fill:#a6dee4; stroke:none;" d="M94 372L95 373L94 372z"/>
<path style="fill:#7ebf67; stroke:none;" d="M156 372L157 373L156 372z"/>
<path style="fill:#a6dee4; stroke:none;" d="M195 372L196 373L195 372M304 372L305 373L304 372z"/>
<path style="fill:#7ebf67; stroke:none;" d="M343 372L344 373L343 372z"/>
<path style="fill:#a6dee4; stroke:none;" d="M405 372L406 373L405 372M95 373L96 374L95 373M197 373L198 374L197 373z"/>
<path style="fill:#7ebf67; stroke:none;" d="M198 373L199 374L198 373M301 373L302 374L301 373z"/>
<path style="fill:#a6dee4; stroke:none;" d="M302 373L303 374L302 373M404 373L405 374L404 373M159 374L160 375L159 374M200 374L201 375L200 374M299 374L300 375L299 374M340 374L341 375L340 374z"/>
<path style="fill:#7ebf67; stroke:none;" d="M160 375L161 376L160 375z"/>
<path style="fill:#a6dee4; stroke:none;" d="M202 375L203 376L202 375z"/>
<path style="fill:#7ebf67; stroke:none;" d="M203 375L204 376L203 375M296 375L297 376L296 375z"/>
<path style="fill:#a6dee4; stroke:none;" d="M297 375L298 376L297 375z"/>
<path style="fill:#7ebf67; stroke:none;" d="M339 375L340 376L339 375M97 376L98 377L97 376z"/>
<path style="fill:#a6dee4; stroke:none;" d="M162 376L163 377L162 376M205 376L206 377L205 376z"/>
<path style="fill:#7ebf67; stroke:none;" d="M206 376L207 377L206 376M293 376L294 377L293 376z"/>
<path style="fill:#a6dee4; stroke:none;" d="M294 376L295 377L294 376M337 376L338 377L337 376z"/>
<path style="fill:#7ebf67; stroke:none;" d="M402 376L403 377L402 376z"/>
<path style="fill:#a6dee4; stroke:none;" d="M98 377L99 378L98 377z"/>
<path style="fill:#7ebf67; stroke:none;" d="M163 377L164 378L163 377z"/>
<path style="fill:#a6dee4; stroke:none;" d="M208 377L209 378L208 377z"/>
<path style="fill:#7ebf67; stroke:none;" d="M209 377L210 378L209 377M290 377L291 378L290 377z"/>
<path style="fill:#a6dee4; stroke:none;" d="M291 377L292 378L291 377z"/>
<path style="fill:#7ebf67; stroke:none;" d="M336 377L337 378L336 377z"/>
<path style="fill:#a6dee4; stroke:none;" d="M401 377L402 378L401 377M99 378L100 379L99 378M165 378L166 379L165 378M211 378L212 379L211 378z"/>
<path style="fill:#7ebf67; stroke:none;" d="M212 378L213 379L212 378M287 378L288 379L287 378z"/>
<path style="fill:#a6dee4; stroke:none;" d="M288 378L289 379L288 378M334 378L335 379L334 378M400 378L401 379L400 378M100 379L101 380L100 379z"/>
<path style="fill:#7ebf67; stroke:none;" d="M166 379L167 380L166 379z"/>
<path style="fill:#a6dee4; stroke:none;" d="M215 379L216 380L215 379z"/>
<path style="fill:#7ebf67; stroke:none;" d="M216 379L217 380L216 379M283 379L284 380L283 379z"/>
<path style="fill:#a6dee4; stroke:none;" d="M284 379L285 380L284 379z"/>
<path style="fill:#7ebf67; stroke:none;" d="M333 379L334 380L333 379z"/>
<path style="fill:#a6dee4; stroke:none;" d="M399 379L400 380L399 379M101 380L102 381L101 380M168 380L169 381L168 380M218.667 380.333L219.333 380.667L218.667 380.333z"/>
<path style="fill:#7ebf67; stroke:none;" d="M220 380L221 381L220 380M279 380L280 381L279 380z"/>
<path style="fill:#a6dee4; stroke:none;" d="M280.667 380.333L281.333 380.667L280.667 380.333M331 380L332 381L331 380M398 380L399 381L398 380z"/>
<path style="fill:#7ebf67; stroke:none;" d="M169 381L170 382L169 381z"/>
<path style="fill:#a6dee4; stroke:none;" d="M223.667 381.333L224.333 381.667L223.667 381.333z"/>
<path style="fill:#7ebf67; stroke:none;" d="M225 381L226 382L225 381M274 381L275 382L274 381z"/>
<path style="fill:#a6dee4; stroke:none;" d="M275.667 381.333L276.333 381.667L275.667 381.333z"/>
<path style="fill:#7ebf67; stroke:none;" d="M330 381L331 382L330 381M131 382L132 383L131 382z"/>
<path style="fill:#a6dee4; stroke:none;" d="M171 382L172 383L171 382M228 382L228 383L231 383L228 382z"/>
<path style="fill:#7ebf67; stroke:none;" d="M231 382L232 383L231 382M268 382L269 383L268 382z"/>
<path style="fill:#a6dee4; stroke:none;" d="M269 382L269 383L272 383L269 382M328 382L329 383L328 382z"/>
<path style="fill:#7ebf67; stroke:none;" d="M368 382L369 383L368 382M103 383L104 384L103 383z"/>
<path style="fill:#a6dee4; stroke:none;" d="M132 383L133 384L132 383M173 383L174 384L173 383M236 383L236 384L240 384L236 383z"/>
<path style="fill:#7ebf67; stroke:none;" d="M240.667 383.333L241.333 383.667L240.667 383.333M258.667 383.333L259.333 383.667L258.667 383.333z"/>
<path style="fill:#a6dee4; stroke:none;" d="M260 383L260 384L264 384L260 383M326 383L327 384L326 383M367 383L368 384L367 383z"/>
<path style="fill:#7ebf67; stroke:none;" d="M396 383L397 384L396 383M104 384L105 385L104 384z"/>
<path style="fill:#a6dee4; stroke:none;" d="M133 384L134 385L133 384M175 384L176 385L175 384M324 384L325 385L324 384M366 384L367 385L366 384z"/>
<path style="fill:#7ebf67; stroke:none;" d="M395 384L396 385L395 384M105 385L106 386L105 385z"/>
<path style="fill:#a6dee4; stroke:none;" d="M134 385L135 386L134 385z"/>
<path style="fill:#7ebf67; stroke:none;" d="M176 385L177 386L176 385M323 385L324 386L323 385z"/>
<path style="fill:#a6dee4; stroke:none;" d="M365 385L366 386L365 385z"/>
<path style="fill:#7ebf67; stroke:none;" d="M394 385L395 386L394 385z"/>
<path style="fill:#a6dee4; stroke:none;" d="M106 386L107 387L106 386M135 386L136 387L135 386z"/>
<path style="fill:#7ebf67; stroke:none;" d="M178 386L179 387L178 386M321 386L322 387L321 386z"/>
<path style="fill:#a6dee4; stroke:none;" d="M364 386L365 387L364 386M393 386L394 387L393 386M107 387L108 388L107 387z"/>
<path style="fill:#7ebf67; stroke:none;" d="M180 387L181 388L180 387M319 387L320 388L319 387z"/>
<path style="fill:#a6dee4; stroke:none;" d="M392 387L393 388L392 387M108 388L109 389L108 388z"/>
<path style="fill:#7ebf67; stroke:none;" d="M138 388L139 389L138 388z"/>
<path style="fill:#a6dee4; stroke:none;" d="M182 388L183 389L182 388M317 388L318 389L317 388z"/>
<path style="fill:#7ebf67; stroke:none;" d="M361 388L362 389L361 388z"/>
<path style="fill:#a6dee4; stroke:none;" d="M391 388L392 389L391 388M109 389L110 390L109 389M139 389L140 390L139 389z"/>
<path style="fill:#7ebf67; stroke:none;" d="M184 389L185 390L184 389M315 389L316 390L315 389z"/>
<path style="fill:#a6dee4; stroke:none;" d="M360 389L361 390L360 389M390 389L391 390L390 389M110 390L111 391L110 390M140 390L141 391L140 390z"/>
<path style="fill:#7ebf67; stroke:none;" d="M186 390L187 391L186 390z"/>
<path style="fill:#a6dee4; stroke:none;" d="M187 390L188 391L187 390M312 390L313 391L312 390z"/>
<path style="fill:#7ebf67; stroke:none;" d="M313 390L314 391L313 390z"/>
<path style="fill:#a6dee4; stroke:none;" d="M359 390L360 391L359 390M389 390L390 391L389 390M111 391L112 392L111 391M189 391L190 392L189 391M310 391L311 392L310 391M388 391L389 392L388 391M112 392L113 393L112 392M143 392L144 393L143 392M191 392L192 393L191 392M308 392L309 393L308 392M356 392L357 393L356 392M387 392L388 393L387 392M113 393L114 394L113 393M144 393L145 394L144 393M194 393L195 394L194 393M305 393L306 394L305 393M355 393L356 394L355 393M386 393L387 394L386 393z"/>
<path style="fill:#7ebf67; stroke:none;" d="M114 394L115 395L114 394M146 394L147 395L146 394z"/>
<path style="fill:#a6dee4; stroke:none;" d="M196.667 394.333L197.333 394.667L196.667 394.333M302.667 394.333L303.333 394.667L302.667 394.333z"/>
<path style="fill:#7ebf67; stroke:none;" d="M353 394L354 395L353 394M385 394L386 395L385 394M115 395L116 396L115 395z"/>
<path style="fill:#a6dee4; stroke:none;" d="M147 395L148 396L147 395M199 395L200 396L199 395M300 395L301 396L300 395M352 395L353 396L352 395z"/>
<path style="fill:#7ebf67; stroke:none;" d="M384 395L385 396L384 395z"/>
<path style="fill:#a6dee4; stroke:none;" d="M202 396L203 397L202 396M297 396L298 397L297 396M150 397L151 398L150 397M205.667 397.333L206.333 397.667L205.667 397.333M293.667 397.333L294.333 397.667L293.667 397.333M349 397L350 398L349 397z"/>
<path style="fill:#7ebf67; stroke:none;" d="M208 398L209 399L208 398z"/>
<path style="fill:#a6dee4; stroke:none;" d="M209 398L210 399L209 398M290 398L291 399L290 398z"/>
<path style="fill:#7ebf67; stroke:none;" d="M291 398L292 399L291 398z"/>
<path style="fill:#a6dee4; stroke:none;" d="M120 399L121 400L120 399M153 399L154 400L153 399z"/>
<path style="fill:#7ebf67; stroke:none;" d="M212 399L213 400L212 399z"/>
<path style="fill:#a6dee4; stroke:none;" d="M213 399L214 400L213 399M286 399L287 400L286 399z"/>
<path style="fill:#7ebf67; stroke:none;" d="M287 399L288 400L287 399z"/>
<path style="fill:#a6dee4; stroke:none;" d="M346 399L347 400L346 399M379 399L380 400L379 399M121 400L122 401L121 400z"/>
<path style="fill:#7ebf67; stroke:none;" d="M216 400L217 401L216 400z"/>
<path style="fill:#a6dee4; stroke:none;" d="M217.667 400.333L218.333 400.667L217.667 400.333M281.667 400.333L282.333 400.667L281.667 400.333z"/>
<path style="fill:#7ebf67; stroke:none;" d="M283 400L284 401L283 400z"/>
<path style="fill:#a6dee4; stroke:none;" d="M378 400L379 401L378 400M122 401L123 402L122 401M156 401L157 402L156 401z"/>
<path style="fill:#7ebf67; stroke:none;" d="M221 401L222 402L221 401z"/>
<path style="fill:#a6dee4; stroke:none;" d="M222.667 401.333L223.333 401.667L222.667 401.333M276.667 401.333L277.333 401.667L276.667 401.333z"/>
<path style="fill:#7ebf67; stroke:none;" d="M278 401L279 402L278 401z"/>
<path style="fill:#a6dee4; stroke:none;" d="M343 401L344 402L343 401M377 401L378 402L377 401z"/>
<path style="fill:#feffff; stroke:none;" d="M50 402L50 450L98 450L73 427L50 402z"/>
<path style="fill:#7ebf67; stroke:none;" d="M123 402L124 403L123 402M158 402L159 403L158 402M227 402L228 403L227 402z"/>
<path style="fill:#a6dee4; stroke:none;" d="M228 402L228 403L231 403L228 402M269 402L269 403L272 403L269 402z"/>
<path style="fill:#7ebf67; stroke:none;" d="M272 402L273 403L272 402M341 402L342 403L341 402M376 402L377 403L376 402z"/>
<path style="fill:#feffff; stroke:none;" d="M449 402L402 450L450 450C450 436.474 454.209 414.414 449 402z"/>
<path style="fill:#a6dee4; stroke:none;" d="M159 403L160 404L159 403z"/>
<path style="fill:#7ebf67; stroke:none;" d="M235.667 403.333L236.333 403.667L235.667 403.333z"/>
<path style="fill:#a6dee4; stroke:none;" d="M237 403L237 404L243 404L237 403M257 403L257 404L263 404L257 403z"/>
<path style="fill:#7ebf67; stroke:none;" d="M263.667 403.333L264.333 403.667L263.667 403.333z"/>
<path style="fill:#a6dee4; stroke:none;" d="M340 403L341 404L340 403M126 404L127 405L126 404M161 404L162 405L161 404M338 404L339 405L338 404M373 404L374 405L373 404M127 405L128 406L127 405M163 405L164 406L163 405M336 405L337 406L336 405M372 405L373 406L372 405z"/>
<path style="fill:#7ebf67; stroke:none;" d="M128 406L129 407L128 406M165 406L166 407L165 406M334 406L335 407L334 406M371 406L372 407L371 406M167 407L168 408L167 407M332 407L333 408L332 407z"/>
<path style="fill:#a6dee4; stroke:none;" d="M131 408L132 409L131 408M168 408L169 409L168 408z"/>
<path style="fill:#7ebf67; stroke:none;" d="M169 408L170 409L169 408M330 408L331 409L330 408z"/>
<path style="fill:#a6dee4; stroke:none;" d="M331 408L332 409L331 408M368 408L369 409L368 408z"/>
<path style="fill:#7ebf67; stroke:none;" d="M132 409L133 410L132 409z"/>
<path style="fill:#a6dee4; stroke:none;" d="M170 409L171 410L170 409z"/>
<path style="fill:#7ebf67; stroke:none;" d="M171 409L172 410L171 409M328 409L329 410L328 409z"/>
<path style="fill:#a6dee4; stroke:none;" d="M329 409L330 410L329 409z"/>
<path style="fill:#7ebf67; stroke:none;" d="M367 409L368 410L367 409z"/>
<path style="fill:#a6dee4; stroke:none;" d="M134 410L135 411L134 410M172 410L173 411L172 410z"/>
<path style="fill:#7ebf67; stroke:none;" d="M173 410L174 411L173 410M326 410L327 411L326 410z"/>
<path style="fill:#a6dee4; stroke:none;" d="M327 410L328 411L327 410M365 410L366 411L365 410M135 411L136 412L135 411z"/>
<path style="fill:#7ebf67; stroke:none;" d="M175 411L176 412L175 411M324 411L325 412L324 411z"/>
<path style="fill:#a6dee4; stroke:none;" d="M364 411L365 412L364 411z"/>
<path style="fill:#7ebf67; stroke:none;" d="M136 412L137 413L136 412z"/>
<path style="fill:#a6dee4; stroke:none;" d="M177 412L178 413L177 412M322 412L323 413L322 412z"/>
<path style="fill:#7ebf67; stroke:none;" d="M363 412L364 413L363 412z"/>
<path style="fill:#a6dee4; stroke:none;" d="M138 413L139 414L138 413M179 413L180 414L179 413M320 413L321 414L320 413M361 413L362 414L361 413z"/>
<path style="fill:#7ebf67; stroke:none;" d="M139 414L140 415L139 414z"/>
<path style="fill:#a6dee4; stroke:none;" d="M181 414L182 415L181 414z"/>
<path style="fill:#7ebf67; stroke:none;" d="M182 414L183 415L182 414M317 414L318 415L317 414z"/>
<path style="fill:#a6dee4; stroke:none;" d="M318 414L319 415L318 414z"/>
<path style="fill:#7ebf67; stroke:none;" d="M360 414L361 415L360 414z"/>
<path style="fill:#a6dee4; stroke:none;" d="M141 415L142 416L141 415M184 415L185 416L184 415M315 415L316 416L315 415M358 415L359 416L358 415z"/>
<path style="fill:#7ebf67; stroke:none;" d="M142 416L143 417L142 416z"/>
<path style="fill:#a6dee4; stroke:none;" d="M186 416L187 417L186 416z"/>
<path style="fill:#7ebf67; stroke:none;" d="M187 416L188 417L187 416M312 416L313 417L312 416z"/>
<path style="fill:#a6dee4; stroke:none;" d="M313 416L314 417L313 416z"/>
<path style="fill:#7ebf67; stroke:none;" d="M357 416L358 417L357 416z"/>
<path style="fill:#a6dee4; stroke:none;" d="M144 417L145 418L144 417M189 417L190 418L189 417z"/>
<path style="fill:#7ebf67; stroke:none;" d="M190 417L191 418L190 417M309 417L310 418L309 417z"/>
<path style="fill:#a6dee4; stroke:none;" d="M310 417L311 418L310 417M355 417L356 418L355 417M146 418L147 419L146 418M192 418L193 419L192 418M307 418L308 419L307 418M353 418L354 419L353 418M147 419L148 420L147 419M195 419L196 420L195 419z"/>
<path style="fill:#7ebf67; stroke:none;" d="M196 419L197 420L196 419M303 419L304 420L303 419z"/>
<path style="fill:#a6dee4; stroke:none;" d="M304 419L305 420L304 419M352 419L353 420L352 419M149 420L150 421L149 420M198 420L199 421L198 420z"/>
<path style="fill:#7ebf67; stroke:none;" d="M199 420L200 421L199 420M300 420L301 421L300 420z"/>
<path style="fill:#a6dee4; stroke:none;" d="M301 420L302 421L301 420M350 420L351 421L350 420M151 421L152 422L151 421M201.667 421.333L202.333 421.667L201.667 421.333M297.667 421.333L298.333 421.667L297.667 421.333M348 421L349 422L348 421z"/>
<path style="fill:#7ebf67; stroke:none;" d="M152 422L153 423L152 422z"/>
<path style="fill:#a6dee4; stroke:none;" d="M205.667 422.333L206.333 422.667L205.667 422.333M293.667 422.333L294.333 422.667L293.667 422.333z"/>
<path style="fill:#7ebf67; stroke:none;" d="M347 422L348 423L347 422z"/>
<path style="fill:#a6dee4; stroke:none;" d="M154 423L155 424L154 423M209.667 423.333L210.333 423.667L209.667 423.333z"/>
<path style="fill:#7ebf67; stroke:none;" d="M211 423L212 424L211 423M288 423L289 424L288 423z"/>
<path style="fill:#a6dee4; stroke:none;" d="M289.667 423.333L290.333 423.667L289.667 423.333M345 423L346 424L345 423M156 424L157 425L156 424M213.667 424.333L214.333 424.667L213.667 424.333z"/>
<path style="fill:#7ebf67; stroke:none;" d="M215 424L216 425L215 424M284 424L285 425L284 424z"/>
<path style="fill:#a6dee4; stroke:none;" d="M285 424L286 425L285 424M343 424L344 425L343 424M158 425L159 426L158 425M219.667 425.333L220.333 425.667L219.667 425.333z"/>
<path style="fill:#7ebf67; stroke:none;" d="M221 425L222 426L221 425M278 425L279 426L278 425z"/>
<path style="fill:#a6dee4; stroke:none;" d="M279.667 425.333L280.333 425.667L279.667 425.333M341 425L342 426L341 425M160 426L161 427L160 426M225 426L225 427L228 427L225 426z"/>
<path style="fill:#7ebf67; stroke:none;" d="M228 426L229 427L228 426M271 426L272 427L271 426z"/>
<path style="fill:#a6dee4; stroke:none;" d="M272 426L272 427L275 427L272 426M339 426L340 427L339 426M162 427L163 428L162 427M233 427L233 428L238 428L233 427z"/>
<path style="fill:#7ebf67; stroke:none;" d="M238 427L238 428L241 428L238 427M259 427L259 428L262 428L259 427z"/>
<path style="fill:#a6dee4; stroke:none;" d="M262 427L262 428L267 428L262 427M337 427L338 428L337 427M164 428L165 429L164 428M335 428L336 429L335 428M166 429L167 430L166 429M333 429L334 430L333 429M168 430L169 431L168 430M331 430L332 431L331 430z"/>
<path style="fill:#7ebf67; stroke:none;" d="M170 431L171 432L170 431M329 431L330 432L329 431M172 432L173 433L172 432z"/>
<path style="fill:#a6dee4; stroke:none;" d="M173 432L174 433L173 432M326 432L327 433L326 432z"/>
<path style="fill:#7ebf67; stroke:none;" d="M327 432L328 433L327 432z"/>
<path style="fill:#a6dee4; stroke:none;" d="M175 433L176 434L175 433M324 433L325 434L324 433z"/>
<path style="fill:#7ebf67; stroke:none;" d="M177 434L178 435L177 434z"/>
<path style="fill:#a6dee4; stroke:none;" d="M178 434L179 435L178 434M321 434L322 435L321 434z"/>
<path style="fill:#7ebf67; stroke:none;" d="M322 434L323 435L322 434z"/>
<path style="fill:#a6dee4; stroke:none;" d="M180 435L181 436L180 435M319 435L320 436L319 435M183 436L184 437L183 436M316 436L317 437L316 436M186 437L187 438L186 437M313 437L314 438L313 437z"/>
<path style="fill:#7ebf67; stroke:none;" d="M188 438L189 439L188 438z"/>
<path style="fill:#a6dee4; stroke:none;" d="M189 438L190 439L189 438M310 438L311 439L310 438z"/>
<path style="fill:#7ebf67; stroke:none;" d="M311 438L312 439L311 438z"/>
<path style="fill:#a6dee4; stroke:none;" d="M192.667 439.333L193.333 439.667L192.667 439.333M306.667 439.333L307.333 439.667L306.667 439.333z"/>
<path style="fill:#7ebf67; stroke:none;" d="M195 440L196 441L195 440z"/>
<path style="fill:#a6dee4; stroke:none;" d="M196 440L197 441L196 440M303 440L304 441L303 440z"/>
<path style="fill:#7ebf67; stroke:none;" d="M304 440L305 441L304 440z"/>
<path style="fill:#a6dee4; stroke:none;" d="M199.667 441.333L200.333 441.667L199.667 441.333M299.667 441.333L300.333 441.667L299.667 441.333M203.667 442.333L204.333 442.667L203.667 442.333M295.667 442.333L296.333 442.667L295.667 442.333z"/>
<path style="fill:#7ebf67; stroke:none;" d="M297 442L298 443L297 442z"/>
<path style="fill:#a6dee4; stroke:none;" d="M207.667 443.333L208.333 443.667L207.667 443.333M291.667 443.333L292.333 443.667L291.667 443.333M212.667 444.333L213.333 444.667L212.667 444.333M286.667 444.333L287.333 444.667L286.667 444.333z"/>
<path style="fill:#7ebf67; stroke:none;" d="M217 445L218 446L217 445z"/>
<path style="fill:#a6dee4; stroke:none;" d="M218.667 445.333L219.333 445.667L218.667 445.333M280.667 445.333L281.333 445.667L280.667 445.333z"/>
<path style="fill:#7ebf67; stroke:none;" d="M282 445L283 446L282 445M224 446L225 447L224 446z"/>
<path style="fill:#a6dee4; stroke:none;" d="M225 446L225 447L228 447L225 446M272 446L272 447L275 447L272 446z"/>
<path style="fill:#7ebf67; stroke:none;" d="M275 446L276 447L275 446M233.667 447.333L234.333 447.667L233.667 447.333z"/>
<path style="fill:#a6dee4; stroke:none;" d="M235 447L235 448L242 448L235 447M258 447L258 448L265 448L258 447z"/>
<path style="fill:#7ebf67; stroke:none;" d="M265.667 447.333L266.333 447.667L265.667 447.333z"/>
</svg>
