<?xml version="1.0" standalone="yes"?>
<svg xmlns="http://www.w3.org/2000/svg" width="300" height="300">
<path style="fill:#fcfcfa; stroke:none;" d="M0 0L0 300L229 300L229 250C229 244.224 227.232 234.969 231.434 230.343C236.24 225.052 244.573 226 251 226L300 226L300 222L252 222C245.501 222 236.843 223.326 231.804 218.2C227.798 214.125 229 207.209 229 202L229 162L229 0L0 0z"/>
<path style="fill:#e5e549; stroke:none;" d="M229 0L229 163L229 203C229 208.01 227.708 215.089 231.804 218.867C236.837 223.508 245.742 222 252 222L300 222L300 0L229 0M125 6L124 8L125 6z"/>
<path style="fill:#609e58; stroke:none;" d="M125 7L125 8L130 7L125 7z"/>
<path style="fill:#e5e549; stroke:none;" d="M130 6L131 7L130 6z"/>
<path style="fill:#1b4a27; stroke:none;" d="M115 12L98 30C110.561 30 122.891 29.5296 135 33.5193C141.909 35.7957 147.424 40.2346 154 43C151.713 35.2258 141.273 25.001 144 17C142.784 14.8333 142.235 11.5393 140.401 9.85648C132.269 2.39542 122.993 11.356 115 12z"/>
<path style="fill:#609e58; stroke:none;" d="M133 7L133 8L136 8L133 7M123 8L124 9L123 8M138.667 8.33334L139.333 8.66666L138.667 8.33334M122 9L123 10L122 9M141 9L142 10L141 9M120 10L121 11L120 10z"/>
<path style="fill:#e5e549; stroke:none;" d="M118 11L119 12L118 11z"/>
<path style="fill:#609e58; stroke:none;" d="M119 11L120 12L119 11M114 12L115 13L114 12M116.667 12.3333L117.333 12.6667L116.667 12.3333M142 12L142 16L143 16L142 12z"/>
<path style="fill:#e5e549; stroke:none;" d="M114 13L115 14L114 13z"/>
<path style="fill:#fcfcfa; stroke:none;" d="M260 13L260 16C264.366 17.3079 264.081 19.8744 264 24L253 24L253 27L267 26C267 19.5684 267.878 13.601 260 13z"/>
<path style="fill:#609e58; stroke:none;" d="M114 14L115 15L114 14z"/>
<path style="fill:#fcfcfa; stroke:none;" d="M269 15L269 16L272 17L272 18L269 18L270 22L271 22L275 16L272 17L271 14L269 15z"/>
<path style="fill:#609e58; stroke:none;" d="M113 15L114 16L113 15M112 16L113 17L112 16M144 16L145 17L144 16z"/>
<path style="fill:#e5e549; stroke:none;" d="M110 17L111 18L110 17z"/>
<path style="fill:#609e58; stroke:none;" d="M143 17L144 18L143 17z"/>
<path style="fill:#e5e549; stroke:none;" d="M109 18L110 19L109 18z"/>
<path style="fill:#609e58; stroke:none;" d="M108 19L109 20L108 19z"/>
<path style="fill:#e5e549; stroke:none;" d="M142 19L143 20L142 19z"/>
<path style="fill:#609e58; stroke:none;" d="M107 20L108 21L107 20M142 20L143 21L142 20M106 21L107 22L106 21M143 22L144 23L143 22z"/>
<path style="fill:#e5e549; stroke:none;" d="M102 24L103 25L102 24z"/>
<path style="fill:#609e58; stroke:none;" d="M145 25L146 26L145 25z"/>
<path style="fill:#e5e549; stroke:none;" d="M99 27L100 28L99 27z"/>
<path style="fill:#609e58; stroke:none;" d="M146 27L147 28L146 27z"/>
<path style="fill:#fcfcfa; stroke:none;" d="M256 34L251 29L254 38L264 31L264 44L260 44L260 47C271.238 46.3774 269.787 21.0074 256 34z"/>
<path style="fill:#609e58; stroke:none;" d="M147 29L148 30L147 29z"/>
<path style="fill:#e5e549; stroke:none;" d="M98 31.3133C93.0654 33.2003 89.1936 39.0327 86.0008 43C63.7459 70.6533 89.8327 101.689 89.821 132C89.8146 148.607 84.5053 166.498 82.2824 183C79.4976 203.673 78.7974 224.329 76.8302 245C75.8429 255.375 71.3415 281.521 79.314 289.606C88.1693 298.585 114.289 296.019 126 296C135.602 295.985 149.025 295.975 157.957 292.121C164.979 289.091 164.99 279.493 165 273C165.029 254.979 164.094 236.945 164.001 219C163.893 198.376 160.296 177.469 157.845 157C156.834 148.561 154.374 139.506 155.17 131C157.092 110.453 174.177 83.6328 167.298 63C159.332 39.1077 121.669 22.2618 98 31.3133z"/>
<path style="fill:#609e58; stroke:none;" d="M99 30L99 31L108 31L99 30M117 30L117 31L122 31L117 30M126.667 31.3333L127.333 31.6667L126.667 31.3333M148 31L149 32L148 31M131 32L132 33L131 32M134.667 33.3333L135.333 33.6667L134.667 33.3333M149 33L150 34L149 33M137 34L138 35L137 34M139.667 35.3333L140.333 35.6667L139.667 35.3333M150 35L151 36L150 35M142 36L143 37L142 36z"/>
<path style="fill:#e5e549; stroke:none;" d="M151 36L152 37L151 36z"/>
<path style="fill:#609e58; stroke:none;" d="M143.667 37.3333L144.333 37.6667L143.667 37.3333M145.667 38.3333L146.333 38.6667L145.667 38.3333M152 38L153 39L152 38M147 39L148 40L147 39M148.667 40.3333L149.333 40.6667L148.667 40.3333M153 40L154 41L153 40M150 41L151 42L150 41M151 42L152 43L151 42M154 42L153 44L155 44L154 42z"/>
<path style="fill:#fcfcfa; stroke:none;" d="M251 50C253.264 59.7448 257.219 59.2959 264 53L264 63L260 63L260 66L264 66L264 72L260 72L260 75L264 75L256 90L264 85L264 93L267 93L267 62L265.397 51.0864L255 55L254 50L251 50M255 65L255 69L258 69L258 65L255 65z"/>
<path style="fill:#d41926; stroke:none;" d="M99 104L100 104C101.425 86.0888 112.367 73.1786 130 69C122.989 66.0582 95.9973 66.9176 92.6034 75.1088C88.8515 84.1641 94.9947 96.1708 99 104z"/>
<path style="fill:#fcfcfa; stroke:none;" d="M131 69L132 70L131 69z"/>
<path style="fill:#e5e549; stroke:none;" d="M124 70L124 72L126 70L124 70z"/>
<path style="fill:#fcfcfa; stroke:none;" d="M126 70L126 71L129 71L126 70z"/>
<path style="fill:#609e58; stroke:none;" d="M130 70L130 71L134 71L130 70z"/>
<path style="fill:#e5e549; stroke:none;" d="M122.333 71.6667L122.667 72.3333L122.333 71.6667z"/>
<path style="fill:#fcfcfa; stroke:none;" d="M123 71L124 72L123 71z"/>
<path style="fill:#609e58; stroke:none;" d="M125.667 71.3333L126.333 71.6667L125.667 71.3333z"/>
<path style="fill:#1b4a27; stroke:none;" d="M136 113L136 112L134 110L140 107L139 110C161.046 93.6206 142.105 57.9241 117 75.7894C108.9 81.5533 102.602 90.7089 103.105 101C103.986 119.028 123.536 121.796 136 113z"/>
<path style="fill:#609e58; stroke:none;" d="M138 71L139 72L138 71z"/>
<path style="fill:#e5e549; stroke:none;" d="M118 75L119 75L121 73L118 75z"/>
<path style="fill:#fcfcfa; stroke:none;" d="M121 72L122 73L121 72z"/>
<path style="fill:#609e58; stroke:none;" d="M140 72L141 73L140 72M106.333 73.6667L106.667 74.3333L106.333 73.6667M117 73L118 74L117 73z"/>
<path style="fill:#fcfcfa; stroke:none;" d="M119 73L120 74L119 73z"/>
<path style="fill:#609e58; stroke:none;" d="M120 73L121 74L120 73z"/>
<path style="fill:#fcfcfa; stroke:none;" d="M143 73L147 79L148 79L143 73z"/>
<path style="fill:#e5e549; stroke:none;" d="M116 74C110.67 78.0614 103.252 83.6742 104 91L105 91L104 88L106 89L105 86L107 87L109 84L116 74z"/>
<path style="fill:#fcfcfa; stroke:none;" d="M117 74L116 76L117 74z"/>
<path style="fill:#609e58; stroke:none;" d="M143 74L144 75L143 74M117 75L118 76L117 75z"/>
<path style="fill:#d41926; stroke:none;" d="M126 75L126 76L128 76L128 77C120.946 78.1677 122.093 84.8458 128 87C131.738 82.1605 133.591 76.6203 126 75z"/>
<path style="fill:#609e58; stroke:none;" d="M144 75L145 76L144 75z"/>
<path style="fill:#fcfcfa; stroke:none;" d="M255 75L255 78L258 78L258 75L255 75z"/>
<path style="fill:#609e58; stroke:none;" d="M103.333 76.6667L103.667 77.3333L103.333 76.6667z"/>
<path style="fill:#e5e549; stroke:none;" d="M145 76L146 77L145 76z"/>
<path style="fill:#609e58; stroke:none;" d="M114 77L115 78L114 77M138 77L139 78L138 77z"/>
<path style="fill:#e5e549; stroke:none;" d="M139 77L139 78L142 78L139 77M101 78L102 79L101 78z"/>
<path style="fill:#609e58; stroke:none;" d="M113 78L114 79L113 78M136 78L135 80L136 78z"/>
<path style="fill:#fcfcfa; stroke:none;" d="M132 105C141.335 103.007 138.893 85.4343 142 78C127.931 79.0703 134.101 96.1751 132 105z"/>
<path style="fill:#609e58; stroke:none;" d="M146 78L147 79L146 78M91.3333 79.6667L91.6667 80.3333L91.3333 79.6667M112 79L113 80L112 79z"/>
<path style="fill:#e5e549; stroke:none;" d="M141.333 79.6667L141.667 80.3333L141.333 79.6667z"/>
<path style="fill:#609e58; stroke:none;" d="M101 80L102 81L101 80M108 80L109 81L108 80z"/>
<path style="fill:#fcfcfa; stroke:none;" d="M110 80L108 83L110 80z"/>
<path style="fill:#609e58; stroke:none;" d="M111 80L112 81L111 80M147 80L148 81L147 80M110 81L111 82L110 81M134 81L135 82L134 81M140 81L141 82L140 81z"/>
<path style="fill:#fcfcfa; stroke:none;" d="M148 81L149 82L148 81z"/>
<path style="fill:#609e58; stroke:none;" d="M98 82L99 83L98 82M109 82L110 83L109 82M139 82L140 83L139 82M110 83L108 87L109 87L110 83M148.333 83.6667L148.667 84.3333L148.333 83.6667z"/>
<path style="fill:#fcfcfa; stroke:none;" d="M149.333 83.6667L149.667 84.3333L149.333 83.6667z"/>
<path style="fill:#609e58; stroke:none;" d="M97 84L98 85L97 84M105 84L106 85L105 84z"/>
<path style="fill:#fcfcfa; stroke:none;" d="M107 84L106 86L107 84z"/>
<path style="fill:#609e58; stroke:none;" d="M117.667 84.3333L118.333 84.6667L117.667 84.3333z"/>
<path style="fill:#e5e549; stroke:none;" d="M119 84L120 85L119 84z"/>
<path style="fill:#fcfcfa; stroke:none;" d="M120 84C111.878 87.4888 102.385 99.4496 109.858 108.566C114.49 114.217 119.819 109.448 120 104C105.197 105.255 122.072 89.0778 120 84z"/>
<path style="fill:#609e58; stroke:none;" d="M121 84L121 90L122 90L121 84M133 84L133 87L134 87L133 84M140 84L141 88L142 88L140 84M107 85L108 86L107 85M115 85L116 86L115 85z"/>
<path style="fill:#fcfcfa; stroke:none;" d="M105.333 86.6667L105.667 87.3333L105.333 86.6667z"/>
<path style="fill:#609e58; stroke:none;" d="M113 86L114 87L113 86z"/>
<path style="fill:#e5e549; stroke:none;" d="M114 86L115 87L114 86z"/>
<path style="fill:#fcfcfa; stroke:none;" d="M149 86L149 93L150 93L149 86z"/>
<path style="fill:#609e58; stroke:none;" d="M96 87L97 88L96 87M112 87L113 88L112 87M132 87L133 88L132 87z"/>
<path style="fill:#fcfcfa; stroke:none;" d="M104.333 88.6667L104.667 89.3333L104.333 88.6667z"/>
<path style="fill:#609e58; stroke:none;" d="M111 88L112 89L111 88M128 88L129 89L128 88M125 89L126 90L125 89z"/>
<path style="fill:#e5e549; stroke:none;" d="M126 89L127 90L126 89z"/>
<path style="fill:#fcfcfa; stroke:none;" d="M124 90L123 109C129.847 105.976 128.681 95.6481 129 89L124 90z"/>
<path style="fill:#609e58; stroke:none;" d="M140 89L141 90L140 89M102 90L103 91L102 90z"/>
<path style="fill:#fcfcfa; stroke:none;" d="M103 90C101.408 98.5767 100.817 108.098 107 115L108 114L103 90z"/>
<path style="fill:#e5e549; stroke:none;" d="M110 90L111 91L110 90M119.667 90.3333L120.333 90.6667L119.667 90.3333z"/>
<path style="fill:#609e58; stroke:none;" d="M130 90L130 93L131 93L130 90z"/>
<path style="fill:#e5e549; stroke:none;" d="M138 90L139 91L138 90z"/>
<path style="fill:#609e58; stroke:none;" d="M93 91L94 92L93 91z"/>
<path style="fill:#e5e549; stroke:none;" d="M102.333 91.6667L102.667 92.3333L102.333 91.6667z"/>
<path style="fill:#609e58; stroke:none;" d="M104 91L105 92L104 91M109 91L110 92L109 91M123.333 91.6667L123.667 92.3333L123.333 91.6667M138 91L138 96L139 96L138 91z"/>
<path style="fill:#e5e549; stroke:none;" d="M131.667 92.3333L132.333 92.6667L131.667 92.3333M103 93L104 94L103 93M123.333 93.6667L123.667 94.3333L123.333 93.6667M128 93L129 94L128 93z"/>
<path style="fill:#609e58; stroke:none;" d="M148.333 93.6667L148.667 94.3333L148.333 93.6667M94 94L95 95L94 94M103.333 94.6667L103.667 95.3333L103.333 94.6667M108 94L109 95L108 94M114 94L115 95L114 94z"/>
<path style="fill:#fcfcfa; stroke:none;" d="M256 101C273.316 107.909 263.174 85.9892 256 101z"/>
<path style="fill:#e5e549; stroke:none;" d="M108 95L109 96L108 95M128.333 95.6667L128.667 96.3333L128.333 95.6667z"/>
<path style="fill:#609e58; stroke:none;" d="M95 96L96 97L95 96z"/>
<path style="fill:#fcfcfa; stroke:none;" d="M148 96L149 97L148 96z"/>
<path style="fill:#e5e549; stroke:none;" d="M113 97L114 98L113 97z"/>
<path style="fill:#609e58; stroke:none;" d="M128 97L128 102L129 102L128 97M132 97L132 102L133 102L132 97M147.333 97.6667L147.667 98.3333L147.333 97.6667z"/>
<path style="fill:#e5e549; stroke:none;" d="M262 97L261 98L261 100L262 101L264 101L265 100L265 98L264 97L262 97z"/>
<path style="fill:#609e58; stroke:none;" d="M107 98L107 105L108 105L107 98M113 98L113 102L114 102L113 98M100.333 99.6667L100.667 100.333L100.333 99.6667M146 100L147 101L146 100z"/>
<path style="fill:#fcfcfa; stroke:none;" d="M147 100L148 101L147 100z"/>
<path style="fill:#609e58; stroke:none;" d="M122 101L122 107L123 107L122 101M98 102L99 103L98 102z"/>
<path style="fill:#e5e549; stroke:none;" d="M113 102L114 103L113 102M132.333 102.667L132.667 103.333L132.333 102.667M137 102L138 103L137 102z"/>
<path style="fill:#609e58; stroke:none;" d="M145 102L146 103L145 102z"/>
<path style="fill:#fcfcfa; stroke:none;" d="M146 102L147 103L146 102z"/>
<path style="fill:#609e58; stroke:none;" d="M137 103L138 104L137 103z"/>
<path style="fill:#fcfcfa; stroke:none;" d="M145 103L146 104L145 103z"/>
<path style="fill:#609e58; stroke:none;" d="M103.333 104.667L103.667 105.333L103.333 104.667M115 104L116 105L115 104M117.667 104.333L118.333 104.667L117.667 104.333z"/>
<path style="fill:#e5e549; stroke:none;" d="M135 104L136 105L135 104z"/>
<path style="fill:#609e58; stroke:none;" d="M136 104L137 105L136 104M141 104L142 105L141 104M144 104L145 105L144 104z"/>
<path style="fill:#e5e549; stroke:none;" d="M132 105L133 106L132 105z"/>
<path style="fill:#609e58; stroke:none;" d="M133 105L134 106L133 105z"/>
<path style="fill:#e5e549; stroke:none;" d="M103 106L104 107L103 106M108 106L109 107L108 106M127 106L128 107L127 106z"/>
<path style="fill:#609e58; stroke:none;" d="M140 106L141 107L140 106z"/>
<path style="fill:#fcfcfa; stroke:none;" d="M143 106L135 115L141 115L143 106M258 117L261 110L262 110L264 122L260 122L260 125L264 125L257 140L264 135L264 143L267 143C266.999 130.495 268.917 117.308 263 106C257.635 107.973 258.004 111.882 258 117z"/>
<path style="fill:#609e58; stroke:none;" d="M108 107L109 108L108 107z"/>
<path style="fill:#e5e549; stroke:none;" d="M122.333 107.667L122.667 108.333L122.333 107.667z"/>
<path style="fill:#609e58; stroke:none;" d="M134 110L135 114L140 111L140 107L134 110z"/>
<path style="fill:#e5e549; stroke:none;" d="M142 107L143 108L142 107z"/>
<path style="fill:#609e58; stroke:none;" d="M104 108L105 109L104 108M124 108L125 109L124 108M141 108L142 109L141 108M140 109L141 110L140 109M105 110L106 111L105 110z"/>
<path style="fill:#e5e549; stroke:none;" d="M111 110L112 111L111 110z"/>
<path style="fill:#609e58; stroke:none;" d="M118 110L119 111L118 110z"/>
<path style="fill:#fcfcfa; stroke:none;" d="M270 110L270 118L275 116L275 112L272 113L270 110z"/>
<path style="fill:#609e58; stroke:none;" d="M106 111L107 112L106 111M112.667 111.333L113.333 111.667L112.667 111.333z"/>
<path style="fill:#e5e549; stroke:none;" d="M114 111L115 112L114 111z"/>
<path style="fill:#609e58; stroke:none;" d="M115.667 111.333L116.333 111.667L115.667 111.333z"/>
<path style="fill:#e5e549; stroke:none;" d="M106 112L107 113L106 112M137 112L138 113L137 112M136 113L137 114L136 113z"/>
<path style="fill:#fcfcfa; stroke:none;" d="M108 114L109 115L108 114z"/>
<path style="fill:#e5e549; stroke:none;" d="M271 114L272 115L271 114z"/>
<path style="fill:#fcfcfa; stroke:none;" d="M109 115L124 127L124 126L120 120L130 118L130 117C121.943 119.085 116.481 118.781 109 115z"/>
<path style="fill:#609e58; stroke:none;" d="M110 115L111 116L110 115M132 115L133 116L132 115z"/>
<path style="fill:#fcfcfa; stroke:none;" d="M133 115L134 116L133 115z"/>
<path style="fill:#e5e549; stroke:none;" d="M111 116L112 117L111 116z"/>
<path style="fill:#609e58; stroke:none;" d="M130 116L131 117L130 116z"/>
<path style="fill:#fcfcfa; stroke:none;" d="M131 116L132 117L131 116z"/>
<path style="fill:#e5e549; stroke:none;" d="M113 117L114 118L113 117z"/>
<path style="fill:#609e58; stroke:none;" d="M114 117L115 118L114 117M127 117L128 118L127 117z"/>
<path style="fill:#e5e549; stroke:none;" d="M128 117L129 118L128 117M117 118L118 119L117 118z"/>
<path style="fill:#609e58; stroke:none;" d="M118 118L118 119L123 119L118 118z"/>
<path style="fill:#e5e549; stroke:none;" d="M123 118L124 119L123 118z"/>
<path style="fill:#609e58; stroke:none;" d="M142 120L143 121L142 120M139 122L140 123L139 122z"/>
<path style="fill:#fcfcfa; stroke:none;" d="M255 124L255 128L258 124L255 124M130 126L131 127L130 126z"/>
<path style="fill:#609e58; stroke:none;" d="M137 126L131 127L144 131L144 126L139 128L137 126M106 128L106 129L115 129L106 128M116 129L130 127L116 129z"/>
<path style="fill:#e5e549; stroke:none;" d="M121 127L122 128L121 127M123 127L124 128L123 127M130 127L131 128L130 127z"/>
<path style="fill:#fcfcfa; stroke:none;" d="M138 127L139 128L138 127z"/>
<path style="fill:#1b4a27; stroke:none;" d="M118 128L119 129L118 128z"/>
<path style="fill:#fcfcfa; stroke:none;" d="M130 128L119 129L120 131L113 132L114 136L139 135L139 134L136 134L139 129L130 128z"/>
<path style="fill:#e5e549; stroke:none;" d="M128.667 129.333L129.333 129.667L128.667 129.333M131.667 129.333L132.333 129.667L131.667 129.333M134 129L135 130L134 129z"/>
<path style="fill:#fcfcfa; stroke:none;" d="M103 130L106 135L112 134L103 130M139.667 133.333L140.333 133.667L139.667 133.333z"/>
<path style="fill:#609e58; stroke:none;" d="M143 133L141 135L143 138L144 138L143 133M107 137L108 137L110 135L107 137z"/>
<path style="fill:#1b4a27; stroke:none;" d="M113 143L113 141L109 141L109 136L113 134C106.416 135.405 106.12 141.877 113 143z"/>
<path style="fill:#609e58; stroke:none;" d="M113 134L114 135L113 134z"/>
<path style="fill:#e5e549; stroke:none;" d="M113 135L110 137L110 141L114 141L113 135M115 135L115 136L119 137L119 136L115 135M120 135L120 136L126 139L125 136L130 136L120 135M131 135L131 137L133 135L131 135z"/>
<path style="fill:#609e58; stroke:none;" d="M133 135L133 136L141 139C141.1 134.795 136.297 135.039 133 135M109 136L109 141L110 141L113 137L109 136M114 136L115 137L114 136z"/>
<path style="fill:#1b4a27; stroke:none;" d="M115 143L116 143L118 137C113.917 136.083 114.214 140.049 115 143z"/>
<path style="fill:#609e58; stroke:none;" d="M119 136L116 137L116 141L117 141L117 138L118 138L118 141L119 141L119 136z"/>
<path style="fill:#1b4a27; stroke:none;" d="M123 143L120 141L120 140L124 140L124 139L120 139L120 138L123 136C118.491 137.497 118.491 141.503 123 143z"/>
<path style="fill:#609e58; stroke:none;" d="M123 136L120 138L120 139C122.348 138.706 123.951 138.507 123 136z"/>
<path style="fill:#1b4a27; stroke:none;" d="M125 136L125 137L129 138L129 139L125 139C127.49 146.491 134.918 136.773 125 136z"/>
<path style="fill:#609e58; stroke:none;" d="M130 136L131 137L130 136z"/>
<path style="fill:#1b4a27; stroke:none;" d="M132 136L132 143L133 143L134 137L136 143L137 143L137 137L139 137L139 142L141 142C140.54 136.093 137.262 136.019 132 136z"/>
<path style="fill:#fcfcfa; stroke:none;" d="M113.333 137.667L113.667 138.333L113.333 137.667z"/>
<path style="fill:#609e58; stroke:none;" d="M126 137L129 139L129 138L126 137M131 137L130 143L131 137M133 138L133 139L135 143L136 143L135 137L133 138M137 137L137 143L138 143L139 137L137 137z"/>
<path style="fill:#fcfcfa; stroke:none;" d="M117 138L117 144L103 149L103 150L118 149L121 147L122 150L130 147L130 149L144 148L144 147L139 143C130.674 143.747 122.106 145.853 117 138z"/>
<path style="fill:#e5e549; stroke:none;" d="M134 138L134 143L126 143L126 144C130.36 143.985 136.232 143.876 134 138M138 138L138 143L139 143L138 138z"/>
<path style="fill:#fcfcfa; stroke:none;" d="M112 139L113 140L112 139z"/>
<path style="fill:#609e58; stroke:none;" d="M124 139L120 140L120 141L123 144L126 143L124 139M107.333 140.667L107.667 141.333L107.333 140.667M126 140L127 141L126 140z"/>
<path style="fill:#e5e549; stroke:none;" d="M127 140L128 141L127 140z"/>
<path style="fill:#609e58; stroke:none;" d="M128 140L129 141L128 140M133 140L134 141L133 140M113 141L113 143L115 143L113 141z"/>
<path style="fill:#e5e549; stroke:none;" d="M116 141L117 142L116 141M118 141L119 142L118 141z"/>
<path style="fill:#609e58; stroke:none;" d="M141 141L139 142L139 143L141 141M108 142L109 143L108 142M116 142L117 143L116 142M119 142L120 143L119 142M133 142L134 143L133 142M143 142L145 145L143 142z"/>
<path style="fill:#e5e549; stroke:none;" d="M120 143L120 144L123 144L120 143M137 143L138 144L137 143M124 144L125 145L124 144M134 145L135 146L134 145M115 146L116 147L115 146M118 146L119 147L118 146M121 146L122 147L121 146M124 146L122 149L124 146M132 146L133 147L132 146z"/>
<path style="fill:#fcfcfa; stroke:none;" d="M264 155L264 159L260 159L260 162L264 162L264 167C259.028 167.793 258.02 170.249 259 175L252 177L264 177L264 180C251.645 181.97 265.169 193.973 267 183L270 189L273 189C272.701 183.535 269.392 181.619 267.6 176.91C265.134 170.437 271.339 150.721 264.838 147.223C258.752 143.948 255.995 153.331 264 155z"/>
<path style="fill:#609e58; stroke:none;" d="M117 147L114 151L122 149L121 148L119 151L118 151L117 147z"/>
<path style="fill:#e5e549; stroke:none;" d="M120 147L121 148L120 147z"/>
<path style="fill:#609e58; stroke:none;" d="M129 147L123 149L134 151L131 148L132 150L129 147z"/>
<path style="fill:#e5e549; stroke:none;" d="M116 148L117 149L116 148M119 148L120 149L119 148M106 149L106 150L109 150L106 149z"/>
<path style="fill:#609e58; stroke:none;" d="M109 149C103.435 151.606 102.132 153.825 102 160C105.815 157.808 110.228 153.697 109 149z"/>
<path style="fill:#fcfcfa; stroke:none;" d="M113 149L112 152L113 153L116 152L113 149M115 149L116 150L115 149z"/>
<path style="fill:#e5e549; stroke:none;" d="M118.333 149.667L118.667 150.333L118.333 149.667M120 149L121 150L120 149M124 149L125 150L124 149M126 149L125 151L126 149M130.667 149.333L131.333 149.667L130.667 149.333z"/>
<path style="fill:#fcfcfa; stroke:none;" d="M134 149L135 150L134 149z"/>
<path style="fill:#609e58; stroke:none;" d="M140 149L137 155L132 157L133 153L130 155L127 154L130 157C128.475 159.412 127.171 161.814 125 159L121 163L120 158L118 157L116 158L115 157L119 157L125 153L123 155L109 155L112 157L112 158C105.915 160.069 101.493 164.454 101 171L102 171L108 162L108 167L112 165L112 180L117 180L115 178L115 177L131 174L131 173L126 173C128.941 168.008 131.824 170.461 133 175L129 175L129 176C137.682 176.656 142.068 174.29 143 165L142 165L141 167L139 165L141 168L134 169L135 155C139.462 155.865 141.839 153.799 144 150L140 149z"/>
<path style="fill:#e5e549; stroke:none;" d="M261 152L265 149L261 152M114 154L123 155L126 153L126 154L125 156L115 156L115 157L118 157L118 159L119 159L120 158L121 163L125 159C126.107 164.138 128.993 159.898 130 157L127 154L130 155L132 154C128.734 148.411 118.053 149.712 114 154z"/>
<path style="fill:#1b4a27; stroke:none;" d="M128 150L129 151L128 150z"/>
<path style="fill:#fcfcfa; stroke:none;" d="M126 151L127 152L126 151M131 151L132 153L133 153L134 151L131 151z"/>
<path style="fill:#609e58; stroke:none;" d="M144 151L145 152L144 151z"/>
<path style="fill:#fcfcfa; stroke:none;" d="M110 153L110 156L111 156L110 153M125 153L126 154L125 153M134.333 153.667L134.667 154.333L134.333 153.667z"/>
<path style="fill:#e5e549; stroke:none;" d="M113 154L114 155L113 154z"/>
<path style="fill:#1b4a27; stroke:none;" d="M114 155L115 156L114 155M116 155L116 156L119 156L116 155M124 155L125 156L124 155M128 155L129 156L128 155M130 155L131 156L130 155M133 155L134 156L133 155M135 155L136 156L135 155M137 155L138 156L137 155z"/>
<path style="fill:#fcfcfa; stroke:none;" d="M108 156L107 158L109 158L108 156z"/>
<path style="fill:#e5e549; stroke:none;" d="M112 156L113 157L112 156M132.667 156.333L133.333 156.667L132.667 156.333z"/>
<path style="fill:#fcfcfa; stroke:none;" d="M135 156L140 165L135 156z"/>
<path style="fill:#e5e549; stroke:none;" d="M134.333 157.667L134.667 158.333L134.333 157.667M112 158L113 159L112 158M115 158L117 160L115 158z"/>
<path style="fill:#fcfcfa; stroke:none;" d="M106 159L107 160L106 159z"/>
<path style="fill:#e5e549; stroke:none;" d="M118 160L117 167L118 167L118 160M134 160L133 164L138 165L136 160L134 160z"/>
<path style="fill:#fcfcfa; stroke:none;" d="M255 161L255 165L258 165L258 161L255 161z"/>
<path style="fill:#1b4a27; stroke:none;" d="M106 162C98.083 175.195 94.5049 204.515 100 221C100.851 223.553 103.461 230.022 105 232C106.42 233.826 108.514 232.623 110 235C111.453 237.325 108.266 236.066 108 236L109 240L111 237L112 237C112.157 250.453 121.625 253.017 133 253.258C138.023 253.364 143.015 250.943 146 256L129 258L129 259C135.106 260.805 150.105 261.135 153.972 254.772C157.087 249.649 154.306 238.484 153 233L151 233C143.954 245.081 124.338 242.473 115.39 232.787C111.624 228.709 110.038 222.649 107 218L110 214L111 214L113 219L126 218L121 200L120 200L119 203L116 202L111 208L110 200L109 200L109 210L108 210L104 201C109.532 199.815 108.234 185.587 107 181L109 180L110 180L114 181C111.392 187.061 110.823 191.15 114 197C122.274 195.916 120.254 189.317 123 183L112 180C114.533 174.652 113.385 170.562 112 165L108 167L108 162L106 162M129.667 162.333L130.333 162.667L129.667 162.333M127 165L127 168L133 167L127 165M134 169L141 168C138.149 165.017 135.391 164.786 134 169M141.333 165.667L141.667 166.333L141.333 165.667M123 166L120 171L125 166L123 166z"/>
<path style="fill:#e5e549; stroke:none;" d="M115.333 168.667L115.667 169.333L115.333 168.667z"/>
<path style="fill:#fcfcfa; stroke:none;" d="M253 168L252 172L256 171L253 168z"/>
<path style="fill:#1b4a27; stroke:none;" d="M126 173L133 172C130.521 168.601 127.408 168.991 126 173z"/>
<path style="fill:#e5e549; stroke:none;" d="M124 170L125 171L124 170M261 170L264 174L264 170L261 170M121 171L122 172L121 171z"/>
<path style="fill:#1b4a27; stroke:none;" d="M138 171L139 172L138 171z"/>
<path style="fill:#e5e549; stroke:none;" d="M123.667 172.333L124.333 172.667L123.667 172.333z"/>
<path style="fill:#609e58; stroke:none;" d="M100 173L100 176L101 176L100 173z"/>
<path style="fill:#e5e549; stroke:none;" d="M125 174L125 175L125 176L133 173L125 174z"/>
<path style="fill:#1b4a27; stroke:none;" d="M115 177L115 178C119.466 180.276 122.625 179.526 125 175L115 177z"/>
<path style="fill:#fcfcfa; stroke:none;" d="M127 174L128 175L127 174M126 175L127 176L126 175z"/>
<path style="fill:#1b4a27; stroke:none;" d="M136 175L137 176L136 175z"/>
<path style="fill:#609e58; stroke:none;" d="M123 179L128 177L123 179z"/>
<path style="fill:#1b4a27; stroke:none;" d="M125 181C139.948 187.878 130.179 167.463 125 181z"/>
<path style="fill:#e5e549; stroke:none;" d="M137 176L135 180L136 180L137 176z"/>
<path style="fill:#fcfcfa; stroke:none;" d="M138 176L129 183L129 184L136 186L138 176M135 177L136 178L135 177z"/>
<path style="fill:#e5e549; stroke:none;" d="M115 179L116 180L115 179z"/>
<path style="fill:#609e58; stroke:none;" d="M121 179L122 180L121 179z"/>
<path style="fill:#e5e549; stroke:none;" d="M122 179L119 180L127 184L122 179z"/>
<path style="fill:#fcfcfa; stroke:none;" d="M123 179L125 181L125 179L123 179z"/>
<path style="fill:#609e58; stroke:none;" d="M109 180L107 181C108.035 186.576 109.323 197.549 104 201L108 210L109 210L109 200L110 200L111 208L116 202L119 203L120 200L121 200L126 218L131 218C128.888 213.535 120.548 204.023 126 200L126 199L124 198L128 196L128 195L122 195L123 185L136 188L126 182L127 185L126 185L125 185C125.021 181.989 122.159 183.977 121.194 186.028C120.134 188.282 121.33 190.664 120.667 192.972C119.257 197.876 114.399 202.435 111 206C110.997 202.096 109.3 196.168 113 194L113 193L114 181L109 180z"/>
<path style="fill:#e5e549; stroke:none;" d="M116.667 180.333L117.333 180.667L116.667 180.333z"/>
<path style="fill:#fcfcfa; stroke:none;" d="M118 180L119 181L118 180M120 180L121 181L120 180M122 180L124 182L122 180z"/>
<path style="fill:#609e58; stroke:none;" d="M134 180L135 181L134 180M118 181L119 182L118 181M125 181L126 182L125 181z"/>
<path style="fill:#e5e549; stroke:none;" d="M134 181L135 182L134 181M108 182L109 183L108 182z"/>
<path style="fill:#609e58; stroke:none;" d="M121.667 182.333L122.333 182.667L121.667 182.333M131.667 182.333L132.333 182.667L131.667 182.333M99 183L99 187L100 187L99 183z"/>
<path style="fill:#e5e549; stroke:none;" d="M134 183L135 184L134 183M260 184L264 183L260 184z"/>
<path style="fill:#1b4a27; stroke:none;" d="M125.667 184.333L126.333 184.667L125.667 184.333z"/>
<path style="fill:#e5e549; stroke:none;" d="M129 184L130 185L129 184M110 185L110 188L111 188L110 185M132 185L133 186L132 185z"/>
<path style="fill:#609e58; stroke:none;" d="M118 187L114 193L115 191L114 191L113 193L116 196L118 187M116 189L117 190L116 189z"/>
<path style="fill:#fcfcfa; stroke:none;" d="M260 191L270 200L273 200C272.718 191.315 267.45 191.001 260 191z"/>
<path style="fill:#609e58; stroke:none;" d="M98 193L98 198L99 198L98 193z"/>
<path style="fill:#fcfcfa; stroke:none;" d="M110 194L111 195L110 194z"/>
<path style="fill:#e5e549; stroke:none;" d="M110 195L111 206L118 197L113 199L113 194L110 195z"/>
<path style="fill:#1b4a27; stroke:none;" d="M126 194L126 195L128 195L128 196L124 199C127.642 198.836 128.436 197.526 129 194L126 194z"/>
<path style="fill:#609e58; stroke:none;" d="M112 195L113 196L112 195z"/>
<path style="fill:#1b4a27; stroke:none;" d="M111 196L112 197L111 196z"/>
<path style="fill:#609e58; stroke:none;" d="M113 196L116 198L116 197L113 196M116 196L117 197L116 196z"/>
<path style="fill:#1b4a27; stroke:none;" d="M110 197L111 198L110 197z"/>
<path style="fill:#609e58; stroke:none;" d="M126 197L127 198L126 197M104 198L105 199L104 198z"/>
<path style="fill:#fcfcfa; stroke:none;" d="M113 198L114 199L113 198z"/>
<path style="fill:#609e58; stroke:none;" d="M128 198L129 199L128 198M102.333 199.667L102.667 200.333L102.333 199.667z"/>
<path style="fill:#e5e549; stroke:none;" d="M103.333 199.667L103.667 200.333L103.333 199.667z"/>
<path style="fill:#1b4a27; stroke:none;" d="M122 199L123 200L122 199z"/>
<path style="fill:#609e58; stroke:none;" d="M127 199L128 200L127 199z"/>
<path style="fill:#fcfcfa; stroke:none;" d="M112 200L113 201L112 200M115 200L116 201L115 200z"/>
<path style="fill:#1b4a27; stroke:none;" d="M118 200L119 201L118 200z"/>
<path style="fill:#fcfcfa; stroke:none;" d="M256 207C257.63 207.594 259.294 208.335 261.021 208.605C271.813 210.293 262.844 192.761 256 207z"/>
<path style="fill:#609e58; stroke:none;" d="M101.333 201.667L101.667 202.333L101.333 201.667M117 203L118 204L117 203z"/>
<path style="fill:#e5e549; stroke:none;" d="M262 203L261 204L261 206L262 207L264 207L265 206L265 204L264 203L262 203z"/>
<path style="fill:#609e58; stroke:none;" d="M97 205L97.885 228L100 240L100 241L107 239L112 241L112 237L111 237L109 240L108 236L109.25 234.278L100.444 220L97 205M134 213L133 216L134 213M138 213L138 220L139 220L138 213M110 214L107 218C109.29 222.928 111.519 229.738 115.39 233.61C123.939 242.159 145.746 246.44 151 233L153 235L154 235C152.671 225.414 134.609 223.458 127 228L126 226L125 226L122 229L123 226L118 226L116 218L113 219L110 214M119 217L119 218L125 218L119 217z"/>
<path style="fill:#e5e549; stroke:none;" d="M109 218L109 221L110 221L111 218L109 218z"/>
<path style="fill:#fcfcfa; stroke:none;" d="M109 219L110 220L109 219M118 221L119 222L118 221z"/>
<path style="fill:#609e58; stroke:none;" d="M136.667 221.333L137.333 221.667L136.667 221.333z"/>
<path style="fill:#fcfcfa; stroke:none;" d="M142 221L143 222L142 221z"/>
<path style="fill:#1b4a27; stroke:none;" d="M112 222L113 223L112 222z"/>
<path style="fill:#fcfcfa; stroke:none;" d="M140 223L141 224L140 223z"/>
<path style="fill:#1b4a27; stroke:none;" d="M113 224L114 225L113 224z"/>
<path style="fill:#e5e549; stroke:none;" d="M238 226L238 227L300 227L280 226L238 226M234 227L235 228L234 227z"/>
<path style="fill:#609e58; stroke:none;" d="M235 227L236 228L235 227z"/>
<path style="fill:#1b4a27; stroke:none;" d="M229 300L300 300L300 227L252 227C246.123 227 237.266 225.36 232.533 229.653C227.446 234.266 229 242.849 229 249L229 300z"/>
<path style="fill:#e5e549; stroke:none;" d="M128 228L128 229L131 229L128 228z"/>
<path style="fill:#609e58; stroke:none;" d="M233 228L234 229L233 228z"/>
<path style="fill:#e5e549; stroke:none;" d="M231 229L230 231L231 229z"/>
<path style="fill:#609e58; stroke:none;" d="M231 230L232 231L231 230M230 231L231 232L230 231z"/>
<path style="fill:#e5e549; stroke:none;" d="M229 232L230 233L229 232M101.333 233.667L101.667 234.333L101.333 233.667z"/>
<path style="fill:#609e58; stroke:none;" d="M229 233L230 234L229 233z"/>
<path style="fill:#e5e549; stroke:none;" d="M103 234L104 235L103 234M105 235L106 236L105 235z"/>
<path style="fill:#d41926; stroke:none;" d="M100.667 239.333L101.333 239.667L100.667 239.333M100 241L100 242L105 240L106 240L112 242L112 241L107 239L100 241z"/>
<path style="fill:#e5e549; stroke:none;" d="M133 239L134 240L133 239M103 240L104 241L103 240M105 240L106 241L105 240M135.667 240.333L136.333 240.667L135.667 240.333z"/>
<path style="fill:#609e58; stroke:none;" d="M154 240L154 244L155 244L154 240M105 241L103 244L111 248L111 252L107 252L107 253L119 253L119 255L114 254L123 256L123 257L118 257C122.805 262.769 131.11 261 138 261L138 260L129 259L129 258L146 256C143.735 249.565 131.203 253.597 125.428 252.992C118.83 252.3 115.288 247.257 112 242L105 241M279 241L279 242L283 242L279 241M101 242L102 243L101 242z"/>
<path style="fill:#e5e549; stroke:none;" d="M107.667 242.333L108.333 242.667L107.667 242.333z"/>
<path style="fill:#609e58; stroke:none;" d="M239 242L239 246L240 246L239 242z"/>
<path style="fill:#fcfcfa; stroke:none;" d="M240 242L240 246L251 246L243 265C250.377 263.723 254.654 248.674 255 242L240 242z"/>
<path style="fill:#609e58; stroke:none;" d="M255 242L256 243L255 242z"/>
<path style="fill:#e5e549; stroke:none;" d="M258 242L259 243L258 242z"/>
<path style="fill:#fcfcfa; stroke:none;" d="M257 254C259.436 253.917 263.394 252.99 265.377 254.832C269.182 258.366 263.501 261.337 260 258L257 258C259.675 274.917 280.12 256.037 266.946 250.603C265.11 249.846 262.937 250.023 261 250L262 246L271 246L271 242C259.681 242 258.998 243.237 257 254z"/>
<path style="fill:#609e58; stroke:none;" d="M276 242L277 243L276 242z"/>
<path style="fill:#fcfcfa; stroke:none;" d="M277.109 243.029C268.936 247.566 272.7 270.064 283.867 263.817C291.989 259.273 288.171 236.887 277.109 243.029z"/>
<path style="fill:#609e58; stroke:none;" d="M284 242L285 243L284 242z"/>
<path style="fill:#e5e549; stroke:none;" d="M255.333 243.667L255.667 244.333L255.333 243.667M275 243L276 244L275 243z"/>
<path style="fill:#609e58; stroke:none;" d="M285 243L286 244L285 243M274 244L275 245L274 244M286 244L287 245L286 244M255 245L256 246L255 245z"/>
<path style="fill:#e5e549; stroke:none;" d="M279 245L280 246L279 245z"/>
<path style="fill:#609e58; stroke:none;" d="M280 245L281 246L280 245z"/>
<path style="fill:#e5e549; stroke:none;" d="M281 245L282 246L281 245M250 246L251 247L250 246z"/>
<path style="fill:#609e58; stroke:none;" d="M257 246L257 251L258 251L257 246M273 246L274 247L273 246M278 246L279 247L278 246z"/>
<path style="fill:#1b4a27; stroke:none;" d="M279.545 247.176C276.635 249.018 277.651 262.232 281.455 259.824C284.365 257.982 283.349 244.768 279.545 247.176z"/>
<path style="fill:#609e58; stroke:none;" d="M282 246L283 247L282 246M287 246L288 247L287 246M99 247L100 250L101 250L102 247L99 247M254 247L255 248L254 247z"/>
<path style="fill:#e5e549; stroke:none;" d="M277 247L278 248L277 247M287 247L288 248L287 247z"/>
<path style="fill:#1b4a27; stroke:none;" d="M101 248L100 252L105 252L105 251L101 248z"/>
<path style="fill:#609e58; stroke:none;" d="M249 248L250 249L249 248M277 248L277 259L278 259L277 248z"/>
<path style="fill:#e5e549; stroke:none;" d="M283 248L284 249L283 248z"/>
<path style="fill:#609e58; stroke:none;" d="M102 249L103 250L102 249M155 249L155 254L156 254L155 249M253 249L254 250L253 249z"/>
<path style="fill:#e5e549; stroke:none;" d="M261 249L262 250L261 249z"/>
<path style="fill:#609e58; stroke:none;" d="M262 249L262 250L267 250L262 249M283 249L283 258L284 258L283 249M103 250L104 251L103 250M248 250L249 251L248 250M268 250L269 251L268 250M272 250L272 257L273 257L272 250M99 251L100 252L99 251M105 251L106 252L105 251z"/>
<path style="fill:#1b4a27; stroke:none;" d="M109.667 251.333L110.333 251.667L109.667 251.333z"/>
<path style="fill:#e5e549; stroke:none;" d="M252 251L253 252L252 251M257 251L258 252L257 251z"/>
<path style="fill:#609e58; stroke:none;" d="M269 251L270 252L269 251M100 252L100 253L104 253L100 252M247 252L248 253L247 252M252 252L253 253L252 252M270 252L271 253L270 252z"/>
<path style="fill:#e5e549; stroke:none;" d="M140.667 253.333L141.333 253.667L140.667 253.333z"/>
<path style="fill:#609e58; stroke:none;" d="M262 253L262 254L265 254L262 253M103 255L103 256L110 254L103 255z"/>
<path style="fill:#e5e549; stroke:none;" d="M123.333 254.667L123.667 255.333L123.333 254.667M127 254L128 255L127 254M132 254L133 255L132 254z"/>
<path style="fill:#609e58; stroke:none;" d="M246 254L247 255L246 254M251 254L252 255L251 254M258 254L258 255L262 255L258 254z"/>
<path style="fill:#e5e549; stroke:none;" d="M266 254L267 255L266 254z"/>
<path style="fill:#609e58; stroke:none;" d="M111 255L113 257L113 255L111 255z"/>
<path style="fill:#fcfcfa; stroke:none;" d="M113 255L114 256L113 255z"/>
<path style="fill:#e5e549; stroke:none;" d="M135 255L136 256L135 255z"/>
<path style="fill:#609e58; stroke:none;" d="M154 255L155 256L154 255z"/>
<path style="fill:#e5e549; stroke:none;" d="M246 255L247 256L246 255z"/>
<path style="fill:#609e58; stroke:none;" d="M153 256L154 257L153 256M245 256L246 257L245 256M250 256L251 257L250 256z"/>
<path style="fill:#e5e549; stroke:none;" d="M271.333 256.667L271.667 257.333L271.333 256.667z"/>
<path style="fill:#609e58; stroke:none;" d="M151 257L152 258L151 257z"/>
<path style="fill:#e5e549; stroke:none;" d="M245 257L246 258L245 257z"/>
<path style="fill:#609e58; stroke:none;" d="M147.667 258.333L148.333 258.667L147.667 258.333M249.333 258.667L249.667 259.333L249.333 258.667M256 258L256 261L257 261L256 258z"/>
<path style="fill:#e5e549; stroke:none;" d="M258 258L259 259L258 258M260 258L261 259L260 258z"/>
<path style="fill:#609e58; stroke:none;" d="M271 258L271 261L272 261L271 258z"/>
<path style="fill:#e5e549; stroke:none;" d="M283 258L284 259L283 258z"/>
<path style="fill:#609e58; stroke:none;" d="M142 259L142 260L145 260L142 259z"/>
<path style="fill:#e5e549; stroke:none;" d="M244 259L245 260L244 259z"/>
<path style="fill:#609e58; stroke:none;" d="M266 259L267 260L266 259z"/>
<path style="fill:#e5e549; stroke:none;" d="M277 259L278 260L277 259z"/>
<path style="fill:#609e58; stroke:none;" d="M287.333 259.667L287.667 260.333L287.333 259.667z"/>
<path style="fill:#e5e549; stroke:none;" d="M248 260L249 261L248 260M261 260L262 261L261 260z"/>
<path style="fill:#609e58; stroke:none;" d="M273 260L274 261L273 260M278 260L279 261L278 260M282 260L283 261L282 260M243 261L244 262L243 261M248 261L249 262L248 261z"/>
<path style="fill:#e5e549; stroke:none;" d="M263 261L264 262L263 261z"/>
<path style="fill:#609e58; stroke:none;" d="M264 261L265 262L264 261z"/>
<path style="fill:#e5e549; stroke:none;" d="M279 261L280 262L279 261z"/>
<path style="fill:#609e58; stroke:none;" d="M280.667 261.333L281.333 261.667L280.667 261.333M257 262L258 263L257 262M270 262L271 263L270 262M274 262L275 263L274 262M286 262L287 263L286 262M242.333 263.667L242.667 264.333L242.333 263.667M247 263L248 264L247 263M258 263L259 264L258 263M269 263L270 264L269 263z"/>
<path style="fill:#e5e549; stroke:none;" d="M275 263L276 264L275 263z"/>
<path style="fill:#609e58; stroke:none;" d="M285 263L286 264L285 263M259.667 264.333L260.333 264.667L259.667 264.333M267.667 264.333L268.333 264.667L267.667 264.333M276 264L277 265L276 264z"/>
<path style="fill:#e5e549; stroke:none;" d="M277 264L278 265L277 264M283 264L284 265L283 264z"/>
<path style="fill:#609e58; stroke:none;" d="M284 264L285 265L284 264M263.667 265.333L264.333 265.667L263.667 265.333M280.667 265.333L281.333 265.667L280.667 265.333M274 266L274 267L277 267L274 266z"/>
<path style="fill:#fcfcfa; stroke:none;" d="M274 267L274 287L278 286L278 267L274 267z"/>
<path style="fill:#e5e549; stroke:none;" d="M277.333 269.667L277.667 270.333L277.333 269.667z"/>
<path style="fill:#609e58; stroke:none;" d="M250 272L250 273L254 273L250 272M255 272L256 273L255 272z"/>
<path style="fill:#e5e549; stroke:none;" d="M256 272L257 273L256 272z"/>
<path style="fill:#fcfcfa; stroke:none;" d="M250 273L250 287L254 287L255 275C259.076 278.395 258.996 281.955 259 287L262 287C262.001 275.086 266.999 275.086 267 287L270 287C270 271.113 264.191 272.746 250 273z"/>
<path style="fill:#e5e549; stroke:none;" d="M258 272L259 273L258 272z"/>
<path style="fill:#609e58; stroke:none;" d="M259 272L260 273L259 272M263 272L264 273L263 272z"/>
<path style="fill:#e5e549; stroke:none;" d="M264 272L265 273L264 272M266 272L267 273L266 272z"/>
<path style="fill:#609e58; stroke:none;" d="M267 272L268 273L267 272M269 273L270 274L269 273z"/>
<path style="fill:#e5e549; stroke:none;" d="M255 275L256 276L255 275z"/>
<path style="fill:#609e58; stroke:none;" d="M256 275L257 276L256 275z"/>
<path style="fill:#e5e549; stroke:none;" d="M263 275L264 276L263 275z"/>
<path style="fill:#609e58; stroke:none;" d="M264 275L265 276L264 275z"/>
<path style="fill:#e5e549; stroke:none;" d="M265 275L266 276L265 275z"/>
<path style="fill:#609e58; stroke:none;" d="M270 275L270 287L271 287L270 275M254 276L255 277L254 276M262 276L262 287L263 287L262 276M266 276L266 287L267 287L266 276z"/>
<path style="fill:#e5e549; stroke:none;" d="M258 277L259 278L258 277z"/>
<path style="fill:#609e58; stroke:none;" d="M258.333 278.667L258.667 279.333L258.333 278.667z"/>
<path style="fill:#e5e549; stroke:none;" d="M258 280L259 281L258 280z"/>
<path style="fill:#609e58; stroke:none;" d="M258 281L258 284L259 284L258 281z"/>
<path style="fill:#e5e549; stroke:none;" d="M277.333 283.667L277.667 284.333L277.333 283.667M258 284L259 285L258 284z"/>
<path style="fill:#609e58; stroke:none;" d="M258.333 285.667L258.667 286.333L258.333 285.667z"/>
<path style="fill:#e5e549; stroke:none;" d="M277 286L278 287L277 286z"/>
</svg>
