<?xml version="1.0" standalone="yes"?>
<svg xmlns="http://www.w3.org/2000/svg" width="156" height="156">
<path style="fill:#020202; stroke:none;" d="M0 0L0 38L1 38C3.65045 20.3173 20.3351 3.64581 38 1C27.964 -3.21124 10.9106 0 0 0z"/>
<path style="fill:#ff6301; stroke:none;" d="M85 122L104 114L99 118L99 119C116.704 123.244 122.136 143.192 108 155C124.794 162.047 145.274 142.31 151.741 129C157.024 118.127 156 106.76 156 95C156 70.1584 162.548 36.1582 144.815 16.0008C125.582 -5.8613 94.0841 0 68 0C57.0668 0 44.5762 -1.67833 34 1.43904C24.4089 4.26605 15.6462 10.0644 9.52932 18C-5.44802 37.4307 0 66.9901 0 90C0 99.9936 -1.45745 111.284 1.15895 121C4.48027 133.334 12.6891 144.206 24 150.218C26.7249 151.667 34.1766 156.612 36.9722 153.356C42.3228 147.125 36.462 128.989 38.5579 121C40.6281 113.109 48.9832 109.708 51.5316 102C52.674 98.545 50.0046 90.4966 51.6312 88.5887C54.1057 85.6864 68.8943 85.6864 71.3688 88.5887C72.9954 90.4966 70.326 98.545 71.4684 102C74.0692 109.866 81.7503 114.248 85 122z"/>
<path style="fill:#020202; stroke:none;" d="M118 0L118 1C135.683 3.65041 152.354 20.3351 155 38L156 38L156 0L118 0z"/>
<path style="fill:#fffbf8; stroke:none;" d="M61 21L60 26C64.7257 27.2583 66.6229 25.8394 67 21L61 21z"/>
<path style="fill:#ffb07f; stroke:none;" d="M67 21L67 24L68 24L67 21M60.3333 22.6667L60.6667 23.3333L60.3333 22.6667z"/>
<path style="fill:#fffbf8; stroke:none;" d="M98 23L97 31L92 31L92 35L95 35C94.7734 40.2636 91.3326 47.751 93.064 52.7716C94.9358 58.1991 102.337 56.1366 104 52L99 50L102 35L108 31L103 31L104 23L98 23z"/>
<path style="fill:#ffb07f; stroke:none;" d="M104 23L104 26L105 26L104 23M97.3333 24.6667L97.6667 25.3333L97.3333 24.6667M60 26L61 27L60 26M66 26L67 27L66 26M96.3333 29.6667L96.6667 30.3333L96.3333 29.6667M103.333 29.6667L103.667 30.3333L103.333 29.6667M75.6667 30.3333L76.3333 30.6667L75.6667 30.3333z"/>
<path style="fill:#fffbf8; stroke:none;" d="M89 48C82.0739 48.2202 74.7823 54.6663 72 45L91 45C90.949 27.2355 68.3382 25.2623 66.186 43C64.38 57.8838 85.0542 61.9307 89 48z"/>
<path style="fill:#ffb07f; stroke:none;" d="M83 30L84 31L83 30z"/>
<path style="fill:#fffbf8; stroke:none;" d="M59 31L53.9722 54.9815L48 64C62.897 68.2685 64.5596 41.2315 65 31L59 31z"/>
<path style="fill:#ffb07f; stroke:none;" d="M65 31L65 34L66 34L65 31M73 31L74 32L73 31M86 31L87 32L86 31M58.3333 32.6667L58.6667 33.3333L58.3333 32.6667M87 32L88 33L87 32M91 32L91 35L92 35L91 32M70 33L71 34L70 33M88 33L89 34L88 33M107.333 33.6667L107.667 34.3333L107.333 33.6667M69 34L70 35L69 34M89 34L90 35L89 34M77 35L77 36L82 36L77 35M92 35L92 36L95 36L92 35M102 35L102 36L107 36L102 35M64.3333 36.6667L64.6667 37.3333L64.3333 36.6667z"/>
<path style="fill:#ff6301; stroke:none;" d="M74 41L84 41C82.8946 34.3765 75.7889 35.1071 74 41z"/>
<path style="fill:#ffb07f; stroke:none;" d="M83 36L84 37L83 36M90 36L91 37L90 36M57.3333 37.6667L57.6667 38.3333L57.3333 37.6667M67 37L68 38L67 37M84 38L84 41L85 41L84 38M101.333 38.6667L101.667 39.3333L101.333 38.6667M73.3333 39.6667L73.6667 40.3333L73.3333 39.6667M94.3333 39.6667L94.6667 40.3333L94.3333 39.6667M66 40L67 41L66 40M63.3333 41.6667L63.6667 42.3333L63.3333 41.6667M56.3333 42.6667L56.6667 43.3333L56.3333 42.6667M100.333 43.6667L100.667 44.3333L100.333 43.6667M65 44L65 48L66 48L65 44M93.3333 44.6667L93.6667 45.3333L93.3333 44.6667M72 45L73 46L72 45M62.3333 46.6667L62.6667 47.3333L62.3333 46.6667M55.3333 47.6667L55.6667 48.3333L55.3333 47.6667M72.3333 47.6667L72.6667 48.3333L72.3333 47.6667M82 48L83 49L82 48M99.3333 48.6667L99.6667 49.3333L99.3333 48.6667M92.3333 49.6667L92.6667 50.3333L92.3333 49.6667M66 50L67 51L66 50M61.3333 51.6667L61.6667 52.3333L61.3333 51.6667M76 51L76 52L79 52L76 51M103 51L104 52L103 51M54.3333 52.6667L54.6667 53.3333L54.3333 52.6667M67 52L68 53L67 52M87 52L88 53L87 52M92.3333 52.6667L92.6667 53.3333L92.3333 52.6667M86 53L87 54L86 53M69 54L70 55L69 54M85 54L86 55L85 54M103.333 54.6667L103.667 55.3333L103.333 54.6667M70 55L71 56L70 55M83 55L84 56L83 55M94 55L95 56L94 55M53.3333 56.6667L53.6667 57.3333L53.3333 56.6667M60.3333 56.6667L60.6667 57.3333L60.3333 56.6667M73.6667 56.3333L74.3333 56.6667L73.6667 56.3333M79 56L79 57L82 57L79 56M96 56L96 57L103 57L96 56M49 59L49 60L52 60L49 59M48.3333 60.6667L48.6667 61.3333L48.3333 60.6667M59 60L60 61L59 60M48 64L49 65L48 64M55 64L56 65L55 64z"/>
<path style="fill:#fffbf8; stroke:none;" d="M51.6227 88.0231C49.0194 90.1536 51.8155 92.4699 54.0586 92.8519C57.8074 93.4901 68.309 94.4879 71.3773 91.9769C73.9806 89.8464 71.1845 87.5301 68.9414 87.1481C65.1926 86.5098 54.6911 85.5121 51.6227 88.0231z"/>
<path style="fill:#ffb07f; stroke:none;" d="M49.3333 89.6667L49.6667 90.3333L49.3333 89.6667M73.3333 89.6667L73.6667 90.3333L73.3333 89.6667M53 93C52.0266 104.917 43.3698 108.146 39.2284 118.001C36.4393 124.638 38 133.93 38 141C38 145.435 36.1851 153.222 40 156L40 126C52.2729 126 74.8435 130.306 85 123L83 156C90.6053 156 104.57 158.706 110.671 153.427C124.17 141.749 114.007 120.408 98 119L97 124L95 124L94 123L95 119L85 122L70 93L53 93z"/>
<path style="fill:#98603e; stroke:none;" d="M95 119L102 115L95 119z"/>
<path style="fill:#020202; stroke:none;" d="M95 123L104 115C98.6719 114.816 95.7973 117.85 95 123z"/>
<path style="fill:#98603e; stroke:none;" d="M103 114L104 115L103 114M103 116L104 117L103 116M99.6667 117.333L100.333 117.667L99.6667 117.333z"/>
<path style="fill:#020202; stroke:none;" d="M0 118L0 156L38 156L38 155C16.6377 151.798 9.02684 134.583 0 118z"/>
<path style="fill:#98603e; stroke:none;" d="M98 118L99 119L98 118z"/>
<path style="fill:#020202; stroke:none;" d="M155 118C152.35 135.683 135.665 152.354 118 155L118 156L156 156C156 145.089 159.211 128.036 155 118z"/>
<path style="fill:#98603e; stroke:none;" d="M97.3333 120.667L97.6667 121.333L97.3333 120.667M94.3333 121.667L94.6667 122.333L94.3333 121.667z"/>
<path style="fill:#fffbf8; stroke:none;" d="M84 123C74.0028 130.191 52.0701 126 40 126L40 156L72 156L83.6821 154.106L85 135L84 123z"/>
<path style="fill:#98603e; stroke:none;" d="M95.6667 123.333L96.3333 123.667L95.6667 123.333z"/>
<path style="fill:#fffbf8; stroke:none;" d="M108 126L111 140L114 140C113.876 134.191 112.559 129.805 108 126z"/>
</svg>
