<?xml version="1.0" standalone="yes"?>
<svg xmlns="http://www.w3.org/2000/svg" width="66" height="64">
<path style="fill:#050403; stroke:none;" d="M0 0L0 37L9 34L6 0L0 0z"/>
<path style="fill:#f7dcda; stroke:none;" d="M8 24L9 22C9.05635 18.344 9.75716 16.7389 13 15L11 19L16 18L17 23L21 24L21 25L19 27L22 25L26 30C25.0166 23.316 20.3751 15.5092 26 10L24 12L24 13L27 17C29.1405 14.9418 30.6281 12.7978 27 12L27 11C32.6712 10.5519 37.625 4.30223 32 0C34.6016 8.99276 24.4903 9.84702 26 0L25 0L24 3C20.4869 1.06971 10.3376 -1.85178 6.64198 1.07022C3.78397 3.32993 5.41138 21.738 8 24z"/>
<path style="fill:#050403; stroke:none;" d="M10 0L10 1L15 1L10 0z"/>
<path style="fill:#dea656; stroke:none;" d="M20 0C22.1501 2.07487 23.2049 2.55988 25 0L20 0M26 0L27 1L26 0z"/>
<path style="fill:#e04148; stroke:none;" d="M27.4367 1.08642C23.5621 3.34417 26.5623 9.6174 30.7824 7.63194C35.3623 5.47723 31.5434 -1.30653 27.4367 1.08642z"/>
<path style="fill:#dea656; stroke:none;" d="M31 0L32 1L31 0M34 0L35 5L36 5L38 0L34 0z"/>
<path style="fill:#e04148; stroke:none;" d="M38 0L32 11C36.4062 9.54989 40.9033 4.43592 38 0z"/>
<path style="fill:#dea656; stroke:none;" d="M39 0L41 5L45 0L39 0z"/>
<path style="fill:#f7dcda; stroke:none;" d="M40 0L41 1L40 0z"/>
<path style="fill:#e04148; stroke:none;" d="M43 0L44 1L43 0z"/>
<path style="fill:#f7dcda; stroke:none;" d="M45 0L40 3L34 12C39.3341 9.12675 42.6933 9.6007 44 16L48 15L52 20C52.568 16.4176 53.5082 15.0567 57 14L56 22L60 27L59.0741 8.28549L58.3603 1.12732L45 0z"/>
<path style="fill:#050403; stroke:none;" d="M51 0L51 1L56 1L51 0M59 0L61 27L57 27C56.566 32.3135 55.6141 39.6812 51.6057 43.581C48.2569 46.8392 43.2783 46.8536 39 47.8981C26.454 50.9612 10.598 52.5004 1 41L0 41L0 64L66 64L66 0L59 0z"/>
<path style="fill:#dea656; stroke:none;" d="M32 1L33 2L32 1M25 2L26 3L25 2M28 3L28 4L31 5L28 3z"/>
<path style="fill:#f7dcda; stroke:none;" d="M28 4L30 6L30 4L28 4z"/>
<path style="fill:#dea656; stroke:none;" d="M28 5L29 6L28 5M33 5L34 6L33 5M38 5L39 6L38 5z"/>
<path style="fill:#849bbc; stroke:none;" d="M18 10L23 9L22 6L18 10z"/>
<path style="fill:#dea656; stroke:none;" d="M22 6L23 7L22 6M25 6L26 7L25 6M34 6L35 7L34 6M37 6L38 7L37 6M27.6667 8.33333L28.3333 8.66667L27.6667 8.33333M30 8L31 9L30 8M36 8L37 9L36 8M32 9L33 10L32 9M35 9L36 10L35 9M37 9L35 13L36 13L37 9z"/>
<path style="fill:#e04148; stroke:none;" d="M36 13L40 11L43 15C42.2192 10.1081 38.7556 8.06437 36 13z"/>
<path style="fill:#dea656; stroke:none;" d="M41 9L42 10L41 9M24 10L25 27L26 27L26 15L26 14L24 13L24 12L26 10L24 10M42 10L43 11L42 10M27 11L27 12L34 12L27 11M39 11L41 13L39 11M54 11L55 12L54 11z"/>
<path style="fill:#849bbc; stroke:none;" d="M31 12L31 13L42 17C39.3967 12.9804 35.582 12.3748 31 12z"/>
<path style="fill:#f7dcda; stroke:none;" d="M38 12L41 14L38 12z"/>
<path style="fill:#dea656; stroke:none;" d="M43 12C43.3112 15.9205 43.9126 19.8094 48 21L45 17L48 18L49 18L48 15L44 16L43 12z"/>
<path style="fill:#e04148; stroke:none;" d="M30 13L30 15L32 13L30 13z"/>
<path style="fill:#dea656; stroke:none;" d="M32 13L29 14L26 16L27 26L28 26L29 21L35 20L35 19L30 19L32 13z"/>
<path style="fill:#f7dcda; stroke:none;" d="M31 15L31 16L36 16L31 15z"/>
<path style="fill:#dea656; stroke:none;" d="M35 14L39 19L40 16L35 14z"/>
<path style="fill:#e04148; stroke:none;" d="M36 14L37 15L36 14z"/>
<path style="fill:#050403; stroke:none;" d="M37.6667 14.3333L38.3333 14.6667L37.6667 14.3333z"/>
<path style="fill:#dea656; stroke:none;" d="M47 26C54.9347 24.9662 56.9296 21.8693 57 14C51.5151 14.9146 49.7263 21.5576 47 26M11 26L6 24L6 25C11.1556 29.0329 12.0789 39.6687 12 46L15 46L14 44L16 47L17 47L20 39L21 41L22 41L22 33L19 35L21 30L21 29L19 29L19 28L23 31L22 25L19 27L21 25L21 24L17 23L16 18L11 19L13 15C6.28451 17.1272 10.4821 21.2014 11 26z"/>
<path style="fill:#849bbc; stroke:none;" d="M25 15L26 28L27 28L25 15z"/>
<path style="fill:#e04148; stroke:none;" d="M38.6667 15.3333L39.3333 15.6667L38.6667 15.3333z"/>
<path style="fill:#050403; stroke:none;" d="M41 15L45 26L50 21L46 23L41 15z"/>
<path style="fill:#849bbc; stroke:none;" d="M30 19L35 19L37 18C34.59 15.2557 31.8498 16.1451 30 19z"/>
<path style="fill:#050403; stroke:none;" d="M40 16L36 27L37 27L40 16z"/>
<path style="fill:#e04148; stroke:none;" d="M43 16L44 17L43 16M45 17L48 20L46 23L51 21L51 19L48 16L45 17z"/>
<path style="fill:#849bbc; stroke:none;" d="M28.3333 17.6667L28.6667 18.3333L28.3333 17.6667z"/>
<path style="fill:#050403; stroke:none;" d="M35 17L35 19L37 19L35 17z"/>
<path style="fill:#f7dcda; stroke:none;" d="M38 17L39 18L38 17z"/>
<path style="fill:#849bbc; stroke:none;" d="M39 17L40 18L39 17z"/>
<path style="fill:#dea656; stroke:none;" d="M41 17L42 18L41 17z"/>
<path style="fill:#e04148; stroke:none;" d="M42 17C39.0825 20.6832 39.5342 23.1414 42 27L22 31L19 28L19 29L21 29L21 30C17.889 30.6609 18.0348 32.192 19 35L22 33L22 41L21 41L20 39L17 47L16 47L14 44L13 47C24.3987 51.9105 28.1539 50.7903 40 47.8981C44.1367 46.8882 49.2546 46.9415 52.348 43.581C56.6856 38.869 54.5367 30.5016 60 27L56 22L45 26L42 20L42 17M31 18L31 19L34 19L31 18z"/>
<path style="fill:#849bbc; stroke:none;" d="M44 18L45 19L44 18z"/>
<path style="fill:#e04148; stroke:none;" d="M33 20L33 21L37 22L37 19L33 20z"/>
<path style="fill:#f7dcda; stroke:none;" d="M37 19L38 20L37 19z"/>
<path style="fill:#849bbc; stroke:none;" d="M38 19L39 20L38 19z"/>
<path style="fill:#dea656; stroke:none;" d="M42 19L43 20L42 19M37 20L38 21L37 20z"/>
<path style="fill:#f7dcda; stroke:none;" d="M29 21L27 29L31 26L32 26L32 29C34.7502 27.5191 35.5524 25.7469 32 25L32 24L36 23L29 21z"/>
<path style="fill:#849bbc; stroke:none;" d="M33 21L34 22L33 21z"/>
<path style="fill:#dea656; stroke:none;" d="M34 21L35 22L34 21z"/>
<path style="fill:#849bbc; stroke:none;" d="M37 21L38 22L37 21z"/>
<path style="fill:#dea656; stroke:none;" d="M7 22L8 23L7 22z"/>
<path style="fill:#e04148; stroke:none;" d="M8 22L12 25L11 22L8 22M14 22L15 23L14 22z"/>
<path style="fill:#dea656; stroke:none;" d="M36 22L32 24L32 25L36 22z"/>
<path style="fill:#e04148; stroke:none;" d="M49 22L50 23L49 22z"/>
<path style="fill:#dea656; stroke:none;" d="M57 22L58 23L57 22z"/>
<path style="fill:#849bbc; stroke:none;" d="M36.3333 23.6667L36.6667 24.3333L36.3333 23.6667M38 23L39 24L38 23z"/>
<path style="fill:#dea656; stroke:none;" d="M39 23L40 24L39 23M58.6667 23.3333L59.3333 23.6667L58.6667 23.3333z"/>
<path style="fill:#f7dcda; stroke:none;" d="M38 24L42 27L38 24z"/>
<path style="fill:#e04148; stroke:none;" d="M47 24L48 25L47 24z"/>
<path style="fill:#f7dcda; stroke:none;" d="M6 25L8 27L8 25L6 25M10 25L11 26L10 25z"/>
<path style="fill:#e04148; stroke:none;" d="M12 25L13 26L12 25z"/>
<path style="fill:#849bbc; stroke:none;" d="M35.3333 25.6667L35.6667 26.3333L35.3333 25.6667M37 25L38 26L37 25z"/>
<path style="fill:#050403; stroke:none;" d="M42 25L43 26L42 25z"/>
<path style="fill:#f7dcda; stroke:none;" d="M13 26L14 27L13 26z"/>
<path style="fill:#dea656; stroke:none;" d="M31 26L30 29L31 26M37 26L38 28L39 28L40 26L37 26z"/>
<path style="fill:#f7dcda; stroke:none;" d="M8 27L9 34C-4.89346 35.2615 2.47488 44.6395 11 48C12.8165 43.39 11.8798 30.3861 8 27M37 27L38 28L37 27z"/>
<path style="fill:#dea656; stroke:none;" d="M26 28L29 30L29 29L26 28M33 28L34 29L33 28z"/>
<path style="fill:#f7dcda; stroke:none;" d="M59 28L59 31L60 31L59 28M12 29L13 30L12 29z"/>
<path style="fill:#dea656; stroke:none;" d="M37 30L37 33L44 31L37 30z"/>
<path style="fill:#f7dcda; stroke:none;" d="M11 31L12 36L13 36L11 31M37 31L38 32L37 31z"/>
<path style="fill:#e04148; stroke:none;" d="M17 32L18 33L17 32z"/>
<path style="fill:#dea656; stroke:none;" d="M26 33L30 39L33 33L26 33z"/>
<path style="fill:#e04148; stroke:none;" d="M20 35L21 36L20 35z"/>
<path style="fill:#dea656; stroke:none;" d="M42 38L46 36L42 38z"/>
<path style="fill:#f7dcda; stroke:none;" d="M34 38C38.2696 42.3425 42.5609 40.3385 46 36L34 38z"/>
<path style="fill:#e04148; stroke:none;" d="M20 37L21 38L20 37z"/>
<path style="fill:#dea656; stroke:none;" d="M36 37L37 38L36 37M45 37L46 38L45 37z"/>
<path style="fill:#f7dcda; stroke:none;" d="M12.3333 38.6667L12.6667 39.3333L12.3333 38.6667z"/>
<path style="fill:#dea656; stroke:none;" d="M38.6667 38.3333L39.3333 38.6667L38.6667 38.3333M44 38L45 39L44 38M34 39L35 40L34 39M35 40L36 41L35 40M41 40L42 41L41 40z"/>
<path style="fill:#e04148; stroke:none;" d="M13 43L14 44L13 43z"/>
<path style="fill:#849bbc; stroke:none;" d="M11 47L11 48L14 49L15 48L11 47z"/>
<path style="fill:#dea656; stroke:none;" d="M12 47L13 48L12 47z"/>
</svg>
