<?xml version="1.0" standalone="yes"?>
<svg xmlns="http://www.w3.org/2000/svg" width="300" height="300">
<path style="fill:#fffefd; stroke:none;" d="M0 0L0 300L300 300L300 0L0 0z"/>
<path style="fill:#ee9d32; stroke:none;" d="M64 29L74 280L96 280C99.874 284.433 111.415 281.638 117 282.17C138.128 284.18 159.815 282.851 181 282L181 278L182 278L189 281L189 280L185 280L185 276L182 277L185 272L185 271L180 263L184 261C180.23 261.711 172.537 260.729 172 265L160 265L160 264L163 263L154 262L154 261L160 261L160 260L156 259L156 258L163 259L172 257L172 256L169 256L169 255L172 254L172 252L166 250L169 248L170 244L170 243L163 243L161 239L164 238L165 231L157 231L157 230L159 230L159 229L131 232L122 234L111 234L112 237L116 235L117 238L125 236L125 237L121 238L123 240L121 243L116 246L120 246L120 247L117 247L117 248L121 248C122.196 251.643 124.393 252.205 128 253L128 254L114 254L114 255L119 255L119 256L112 258L111 258L110 253L103 263L100 261L100 260L103 260L106 256L107 250L98 249L95 246C95.5632 238.322 93.2615 232.232 89 226L85 227C85.9256 217.646 88.428 207.341 88.2076 198C88.0841 192.768 83.6155 187.362 88 183L90 173L87 160L89 150L98 146L97 138L205 138C205 124.282 202.754 106.005 217 98L217 94L221 94L221 93L219 92L224 91L219.987 123.83L220 134L219 137C224.819 145.213 221.999 160.307 221.441 169.83C220.459 186.56 223.302 204.149 221.767 220.572C221.371 224.809 219.341 228.583 219 233L223 250L220 251L222 264L222 265C218.468 267.233 217.939 270.087 219 274L214 277L232.258 272.987L234 260L234 224L229 221L233 222C235.532 213.435 233.328 203.84 234.17 195C237.163 163.551 236 130.606 236 99C236 86.0399 240.348 67.5435 234 56C240.185 51.9899 237 33.8915 237 27L64 29z"/>
<path style="fill:#c16728; stroke:none;" d="M149 37L150 38L149 37z"/>
<path style="fill:#fffefd; stroke:none;" d="M151.985 38.0818C149.861 38.7682 148.108 40.3419 146 41.1111C143.805 41.9123 141.265 41.638 139.149 42.5995C134.598 44.6673 137.084 49.2117 141.019 49.8519C148.119 51.0067 161.19 51.3381 167.852 48.3974C178.1 43.8736 155.504 36.945 151.985 38.0818z"/>
<path style="fill:#c16728; stroke:none;" d="M135 39L136 40L135 39M147 39L148 40L147 39z"/>
<path style="fill:#929640; stroke:none;" d="M148 39L146 40L146 41L148 39z"/>
<path style="fill:#c16728; stroke:none;" d="M138 40L139 41L138 40z"/>
<path style="fill:#929640; stroke:none;" d="M137 41L137 42L143 41L137 41z"/>
<path style="fill:#c16728; stroke:none;" d="M144 40L145 41L144 40z"/>
<path style="fill:#ee9d32; stroke:none;" d="M148 40L149 41L148 40z"/>
<path style="fill:#c16728; stroke:none;" d="M136.333 41.6667L136.667 42.3333L136.333 41.6667z"/>
<path style="fill:#ee9d32; stroke:none;" d="M137 42L138 43L137 42z"/>
<path style="fill:#c16728; stroke:none;" d="M221.333 45.6667L221.667 46.3333L221.333 45.6667M231 48L232 51L233 51L233 48L231 48M235 73L236 74L235 73M208 77L211 75L208 77M195 79L195 80L187 81L184 78L185 81L183 83L201 82.9884L229 84L229 83L225 83C226.496 79.2607 222.811 80.8743 220 79C215.631 76.0871 194.12 83.521 196 76C193.375 76.7277 191.117 78.2274 195 79M176 78L177 79L176 78M226 78L227 79L226 78M167 79L168 80L167 79z"/>
<path style="fill:#ee9d32; stroke:none;" d="M212.667 79.3333L213.333 79.6667L212.667 79.3333z"/>
<path style="fill:#c16728; stroke:none;" d="M140 81L140 82L146 81L140 81M150 82L155 82L150 82M156.667 81.3333L157.333 81.6667L156.667 81.3333M178 82L179 83L178 82M221 89L221 90L224 90L221 89M219 92L221 93L221 94L217 94L217 98C201.979 103.08 205 125.936 205 138L97 138L98 146L89 150L87 160L90 173L88 183C84.8415 185.387 85.8646 188.556 87 192L88 192L87 188L124 185L124 184L123 180L117 180L117 179L124 177L117 177L117 176L122 172L122 171C117.804 171.106 116.239 170.645 114 167L122 169L122 168L120 168L120 167L123 165L118 167L116 165C116.523 162.46 116.595 162.315 114 162L116 159L112 157L118 157L118 156L112 156L113 151L144 151L145 153L147 157L146 153L150 153L149 163L152 166L153 166L151 161L151 160L158 162L158 161L155 160L155 159L162 160L162 161L160 162L162 166L165 165L164 162C167.942 162.484 172.047 163.707 173 159L174 167L169 167L169 168L176 168L176 169L169 171L166 169L168 173L163 173L164 167C162.038 167.617 155.8 170.609 159 172L159 173L149 170L150 167L144 167L144 163L147 162L147 161L142 161L138 164L138 168L138 169L142 165L143 165L142 169C147.725 170.607 150.576 174.408 152 180L149 174L145 171L140 171L140 177L131 174L131 178L144 179L144 184L138 184L138 185L147 185L145 182L156 178C156.622 173.244 165.26 175.367 169 174L171 182L166 180L168 182L168 183L161 185L165 184L186 188L185 185L186 184C194.842 188.255 214.968 178.875 220 188L221 188L222.076 149.001L219 137L220 134L220.151 124L224 91L219 92z"/>
<path style="fill:#929640; stroke:none;" d="M110 110L110 111L116 112L117 108L110 110z"/>
<path style="fill:#c16728; stroke:none;" d="M155 108L160 112L160 120C167.751 123.149 184.54 124.162 192.502 121.531C197.757 119.794 195.484 112.786 191 112C188.099 103.174 162.687 106.345 155 108z"/>
<path style="fill:#929640; stroke:none;" d="M119 108L124 111L119 108M142 110L142 111L149 111L149 108L142 110M191 109L191 111L195 112L195 108L191 109z"/>
<path style="fill:#fffefd; stroke:none;" d="M112 109L113 110L112 109z"/>
<path style="fill:#483e2c; stroke:none;" d="M117 109L119 111L119 109L117 109z"/>
<path style="fill:#c16728; stroke:none;" d="M119 109L116 110C111.626 113.349 108.101 112.21 109 119L112 115L113 115L114 120L123 118L126 119L125 122L127 120L129 121L130 118L138 118L137 122L138 122L140 121L141 117C145.913 119.778 152.686 115.098 146.713 112.481C138.228 108.765 126.076 116.758 119 109M137 109L139 111L137 109M139 109L140 110L139 109z"/>
<path style="fill:#929640; stroke:none;" d="M141 109L142 110L141 109z"/>
<path style="fill:#ee9d32; stroke:none;" d="M159 111L166 110L159 111M170 109L170 110L175 110L170 109M178 109L179 111L180 111L181 109L178 109z"/>
<path style="fill:#c16728; stroke:none;" d="M124 110L124 111L129 111L124 110M132 110L132 111L135 111L132 110z"/>
<path style="fill:#929640; stroke:none;" d="M137 110L138 111L137 110M140 110L141 111L140 110z"/>
<path style="fill:#ee9d32; stroke:none;" d="M191 111L192 112L191 111M116 112L116 116L120 112L116 112z"/>
<path style="fill:#929640; stroke:none;" d="M157 112L155 120L160 120L159 112L157 112z"/>
<path style="fill:#ee9d32; stroke:none;" d="M159.333 112.667L159.667 113.333L159.333 112.667z"/>
<path style="fill:#c16728; stroke:none;" d="M107 113L108 114L107 113z"/>
<path style="fill:#483e2c; stroke:none;" d="M143 113L144 114L143 113M148 113L149 114L148 113z"/>
<path style="fill:#929640; stroke:none;" d="M151 113L152 114L151 113z"/>
<path style="fill:#483e2c; stroke:none;" d="M120 115L121 116L120 115z"/>
<path style="fill:#ee9d32; stroke:none;" d="M130 115L130 116L135 116L130 115z"/>
<path style="fill:#483e2c; stroke:none;" d="M139 115L139 117L141 117L139 115z"/>
<path style="fill:#ee9d32; stroke:none;" d="M142 115L142 116L146 116L142 115M160 115L159 118L160 115M171.667 115.333L172.333 115.667L171.667 115.333M181 115L182 116L181 115z"/>
<path style="fill:#c16728; stroke:none;" d="M107 116L108 117L107 116z"/>
<path style="fill:#483e2c; stroke:none;" d="M124 116L126 118L126 116L124 116z"/>
<path style="fill:#929640; stroke:none;" d="M107 117L108 118L107 117z"/>
<path style="fill:#483e2c; stroke:none;" d="M119 117L120 118L119 117M128 120L129 120L130 118L128 120M132.667 117.333L133.333 117.667L132.667 117.333M136 117L137 118L136 117z"/>
<path style="fill:#c16728; stroke:none;" d="M111 119L112 120L111 119z"/>
<path style="fill:#483e2c; stroke:none;" d="M139 119L140 120L139 119z"/>
<path style="fill:#fffefd; stroke:none;" d="M153 119L154 120L153 119z"/>
<path style="fill:#ee9d32; stroke:none;" d="M164.667 119.333L165.333 119.667L164.667 119.333M170 119L170 120L173 120L170 119M177 119L177 120L180 120L177 119M182.667 119.333L183.333 119.667L182.667 119.333M190.667 119.333L191.333 119.667L190.667 119.333z"/>
<path style="fill:#483e2c; stroke:none;" d="M127 120L128 121L127 120M138 120L139 121L138 120z"/>
<path style="fill:#fffefd; stroke:none;" d="M151 121L152 122L151 121z"/>
<path style="fill:#c16728; stroke:none;" d="M93.6667 122.333L94.3333 122.667L93.6667 122.333M128 122L129 123L128 122z"/>
<path style="fill:#929640; stroke:none;" d="M129 122L130 125L126 127L126 128L131 124L132 124L132 129L136 129L136 128L134 122L129 122z"/>
<path style="fill:#483e2c; stroke:none;" d="M128 123L128 126L130 123L128 123M131 124L129 128C131.649 127.432 132.355 126.412 131 124z"/>
<path style="fill:#fffefd; stroke:none;" d="M143 125L144 126L143 125M155 125L153 129L155 125M160 125L161 126L160 125z"/>
<path style="fill:#929640; stroke:none;" d="M140 126L141 134L142 134L143 129L151 129L140 126z"/>
<path style="fill:#fffefd; stroke:none;" d="M147 126L148 127L147 126M150 126L150 127L153 127L150 126z"/>
<path style="fill:#929640; stroke:none;" d="M156 130L164 134L170 134L170 130L164 130L164 126C160.171 126.475 157.352 125.962 156 130M167 127L167 128L174 130L171 131L171 132L174 131L175 131L179 132L179 129L176 126L167 127z"/>
<path style="fill:#c16728; stroke:none;" d="M95 128L96 129L95 128M124 128L125 133L129 137L136 134C139.24 134.939 141.348 135.161 143 132L142 132L141 134L140 131C137.315 132.678 135.999 132.088 135 129L131 131L131 132L136 133L136 134L133 135L134 133L133 133L129 134L128 128L124 128z"/>
<path style="fill:#ee9d32; stroke:none;" d="M127 129L131 134L132 134L131 130L133 131C131.268 128.331 130.058 128.29 127 129z"/>
<path style="fill:#fffefd; stroke:none;" d="M166 128L167 129L166 128z"/>
<path style="fill:#ee9d32; stroke:none;" d="M167 128L174 131L174 130L167 128z"/>
<path style="fill:#929640; stroke:none;" d="M137 129L138 130L137 129z"/>
<path style="fill:#483e2c; stroke:none;" d="M143 129L142 135L152 131L143 129z"/>
<path style="fill:#c16728; stroke:none;" d="M147.667 129.333L148.333 129.667L147.667 129.333M150.667 129.333L151.333 129.667L150.667 129.333M179.667 129.333L180.333 129.667L179.667 129.333z"/>
<path style="fill:#929640; stroke:none;" d="M128 130L129 131L128 130M131 130L132 131L131 130z"/>
<path style="fill:#c16728; stroke:none;" d="M136 130L137 131L136 130z"/>
<path style="fill:#ee9d32; stroke:none;" d="M141.667 130.333L142.333 130.667L141.667 130.333z"/>
<path style="fill:#929640; stroke:none;" d="M145 130L146 131L145 130z"/>
<path style="fill:#c16728; stroke:none;" d="M152 130L153 131L152 130M158.333 130.667L158.667 131.333L158.333 130.667z"/>
<path style="fill:#483e2c; stroke:none;" d="M159 130L159 131L162 131L159 130M168 130L169 131L168 130z"/>
<path style="fill:#c16728; stroke:none;" d="M122.667 131.333L123.333 131.667L122.667 131.333z"/>
<path style="fill:#ee9d32; stroke:none;" d="M140.333 131.667L140.667 132.333L140.333 131.667z"/>
<path style="fill:#c16728; stroke:none;" d="M153 135L152 131C147.117 132.503 147.902 136.193 153 135z"/>
<path style="fill:#929640; stroke:none;" d="M157.333 131.667L157.667 132.333L157.333 131.667z"/>
<path style="fill:#c16728; stroke:none;" d="M161 131L163 134L164 133L161 131z"/>
<path style="fill:#ee9d32; stroke:none;" d="M162 131L163 132L162 131z"/>
<path style="fill:#c16728; stroke:none;" d="M164 131L165 132L164 131z"/>
<path style="fill:#483e2c; stroke:none;" d="M169 131L169 132L173 134L169 131z"/>
<path style="fill:#ee9d32; stroke:none;" d="M174 131L175 132L174 131z"/>
<path style="fill:#c16728; stroke:none;" d="M173 136L173 137L182 135L183 132L173 136z"/>
<path style="fill:#ee9d32; stroke:none;" d="M127 132L128 133L127 132z"/>
<path style="fill:#929640; stroke:none;" d="M129 132L129 134L131 134L131 132L129 132M132 132L133 133L132 132z"/>
<path style="fill:#ee9d32; stroke:none;" d="M133 132L133 135L136 134L136 133L133 132z"/>
<path style="fill:#c16728; stroke:none;" d="M146 132L147 133L146 132z"/>
<path style="fill:#483e2c; stroke:none;" d="M166 132L167 133L166 132z"/>
<path style="fill:#c16728; stroke:none;" d="M172 132L173 133L172 132M173 134L176 134L175 132L173 134z"/>
<path style="fill:#483e2c; stroke:none;" d="M176 132L176 134L178 132L176 132z"/>
<path style="fill:#929640; stroke:none;" d="M180 132L181 133L180 132z"/>
<path style="fill:#c16728; stroke:none;" d="M144 133L144 135L146 133L144 133M157 133L157 135L159 135L157 133z"/>
<path style="fill:#ee9d32; stroke:none;" d="M165 133L166 134L165 133z"/>
<path style="fill:#c16728; stroke:none;" d="M170 133L170 136C172.006 134.873 172.006 134.127 170 133M159 136L162 136L161 134L159 136z"/>
<path style="fill:#483e2c; stroke:none;" d="M164 134L164 135L171 135L164 134z"/>
<path style="fill:#929640; stroke:none;" d="M172 134L177 135L172 134z"/>
<path style="fill:#ee9d32; stroke:none;" d="M174 134L175 135L174 134z"/>
<path style="fill:#483e2c; stroke:none;" d="M131 135L132 136L131 135z"/>
<path style="fill:#c16728; stroke:none;" d="M164 135L164 136L169 137L164 135z"/>
<path style="fill:#483e2c; stroke:none;" d="M105 139L106 140L105 139M126 139L127 140L126 139M131 139L131 141L133 139L131 139M134 140L134 141L146 142L146 143L151 144L149 140L152 141C148.665 137.174 138.571 139.131 134 140M153 141L158 141C156.231 138.966 154.769 138.966 153 141M159 141L162 141L161 139L159 141M164 139L164 140L168 140L163 143L163 145L172 143L172 142L169 143L169 139L164 139M171.333 139.667L171.667 140.333L171.333 139.667M99 140L99 150L107 150L105 145L104 145L103 148L101 140L99 140M121 140L122 141L121 140z"/>
<path style="fill:#c16728; stroke:none;" d="M145 140L145 141L148 142L145 140M156 140L157 141L156 140z"/>
<path style="fill:#483e2c; stroke:none;" d="M181 140L182 141L181 140M203.333 140.667L203.667 141.333L203.333 140.667M104 141L105 142L104 141z"/>
<path style="fill:#ee9d32; stroke:none;" d="M111 141L112 142L111 141M115.667 141.333L116.333 141.667L115.667 141.333M119 141L120 142L119 141M122 141L122 142L125 142L122 141M126 141L127 142L126 141M133 141L134 142L133 141z"/>
<path style="fill:#c16728; stroke:none;" d="M134 141L134 144L135 144L134 141z"/>
<path style="fill:#ee9d32; stroke:none;" d="M135 141L136 142L135 141M137 141L138 142L137 141M140 141L141 142L140 141M145.667 141.333L146.333 141.667L145.667 141.333M152 141L153 142L152 141M156 141L157 142L156 141M170 141L171 142L170 141M178 141L179 142L178 141M183 141L184 142L183 141M191 141L192 142L191 141z"/>
<path style="fill:#483e2c; stroke:none;" d="M126 142L127 143L126 142M132 142C132.773 145.625 136.346 146.497 138 143L132 142M134 142L135 143L134 142M157 142L158 143L157 142M173 144L176 143L173 144M129 143L130 144L129 143M139 144L139 145L143 144L139 144M156 143L157 144L156 143z"/>
<path style="fill:#c16728; stroke:none;" d="M96 144L97 145L96 144z"/>
<path style="fill:#483e2c; stroke:none;" d="M107 144L108 145L107 144M125.667 144.333L126.333 144.667L125.667 144.333M159 144L160 147L161 147L162 144L159 144M175 144L166 149L166 150C168.77 149.804 176.306 147.237 175 144M203 144L199 146L199 147L203 146L201 150C204.331 149.286 204.591 146.762 203 144z"/>
<path style="fill:#ee9d32; stroke:none;" d="M112 145L113 146L112 145z"/>
<path style="fill:#483e2c; stroke:none;" d="M127 146L128 147L127 146M131 146L131 147L136 147L131 146M108.333 147.667L108.667 148.333L108.333 147.667M124 148L124 149L128 149L124 148M128 149L128 150L135 150L128 149M110 149L111 150L110 149M117 149L118 150L117 149M176 149L177 150L176 149M180 149L180 150L192 150L180 149z"/>
<path style="fill:#ee9d32; stroke:none;" d="M113 151L112 156L118 156L118 157L112 157L116 159L114 162L118 167L123 165L120 167L120 168L122 168L122 169L114 167C115.8 171.039 117.764 171.307 122 171L122 172L117 176L117 177L124 177L117 179L117 180L123 180L124 184L124 185L118 185L118 187L144 186L144 185L138 185L138 184L144 184L144 179L131 178L131 174L140 177L140 171L145 171L149 174C149.013 177.194 148.597 179.271 152 180C151.187 173.964 148.213 169.959 142 169L143 165L142 165L138 169L138 168L140 167L138 164L142 161L147 161L147 162L144 163L144 167L150 167L149 170L159 173L159 172L157 171L164 167L163 173L168 173L166 169L169 171L176 169L176 168L169 168L169 167L174 167L173 159C171.994 163.509 167.753 162.237 164 162L165 165L162 166L162 161L162 160L155 159L155 160L158 161L158 162L151 160L151 161L153 166L152 166L149 163L150 153L146 153L147 157L144 156L145 153L144 151L113 151M151 154L156 155L156 156L151 156L151 157L162 159C165.037 154.077 167.762 154.735 173 154L164 156L164 157L176 157L175 155L182 153L182 152L171 153C167.501 148.985 154.013 149.823 151 154z"/>
<path style="fill:#c16728; stroke:none;" d="M121 152L122 153L121 152M153 152L154 153L153 152M162 152L162 153L165 153L162 152M140 156L143 156L142 154L140 156M120 158C123.244 156.919 126.663 157.35 126 160L132 156C128.278 155.194 122.645 154.969 120 158z"/>
<path style="fill:#ee9d32; stroke:none;" d="M164 159L164 161L166 161L166 159L164 159M168 159L168 160L171 160L168 159M181 159L182 160L181 159z"/>
<path style="fill:#c16728; stroke:none;" d="M87 161L88 162L87 161M118 162L118 163L122 164L118 162M167 164L168 165L167 164M152 169L156 168L152 169M166.667 167.333L167.333 167.667L166.667 167.333z"/>
<path style="fill:#483e2c; stroke:none;" d="M208 168L209 169L208 168z"/>
<path style="fill:#ee9d32; stroke:none;" d="M176.667 169.333L177.333 169.667L176.667 169.333z"/>
<path style="fill:#c16728; stroke:none;" d="M154 170L156 172L156 170L154 170z"/>
<path style="fill:#ee9d32; stroke:none;" d="M173 172L174 176L177 175L176 171L173 172z"/>
<path style="fill:#c16728; stroke:none;" d="M127 173L128 174L127 173z"/>
<path style="fill:#ee9d32; stroke:none;" d="M156 178L145 182L147 186L160 186L168 183L168 182L166 180L171 182L169 174C165.104 174.983 156.567 173.49 156 178z"/>
<path style="fill:#c16728; stroke:none;" d="M120 175L120 176L125 176L120 175z"/>
<path style="fill:#ee9d32; stroke:none;" d="M144 175L145 176L144 175z"/>
<path style="fill:#c16728; stroke:none;" d="M164 176L165 178L166 178L167 176L164 176z"/>
<path style="fill:#ee9d32; stroke:none;" d="M144 177L148 179L144 177M175 177L176 181L177 181L175 177z"/>
<path style="fill:#c16728; stroke:none;" d="M126.667 178.333L127.333 178.667L126.667 178.333z"/>
<path style="fill:#ee9d32; stroke:none;" d="M115 179L116 180L115 179M118 182L118 184L120 184L120 182L118 182z"/>
<path style="fill:#c16728; stroke:none;" d="M149.667 183.333L150.333 183.667L149.667 183.333M154 183L155 184L154 183z"/>
<path style="fill:#ee9d32; stroke:none;" d="M164 184L165 185L164 184z"/>
<path style="fill:#929640; stroke:none;" d="M176 185L176 186L181 186L176 185z"/>
<path style="fill:#ee9d32; stroke:none;" d="M186 184L187 185L186 184z"/>
<path style="fill:#483e2c; stroke:none;" d="M186 188L148 187.965L87 188L89 218L87 217L91 225C103.385 234.474 120.969 231 136 231C143.822 231 151.555 231.713 159 229C159.661 232.966 169.752 230.541 173 230.218C182.659 229.256 221.215 233.251 214 217L218 222L221 222L221 215L218 217L217 217L220.945 202L221 189C217.299 180.278 203.477 184.844 196 185.795C192.43 186.249 188.514 185.123 186 188z"/>
<path style="fill:#929640; stroke:none;" d="M112 187L112 188L165 187L165 185L132.001 186.824L112 187M185 185L185 186L189 186L185 185M167 186L167 187L173 187L167 186M175 186L176 187L175 186M101 187L102 188L101 187M104 187L104 188L107 188L104 187z"/>
<path style="fill:#c16728; stroke:none;" d="M140.667 187.333L141.333 187.667L140.667 187.333M144 187L144 188L153 188L144 187M154 187L154 188L160 188L154 187M219 189L219 191L221 189L219 189z"/>
<path style="fill:#929640; stroke:none;" d="M220 190L220 193L221 193L220 190M86 191L87 192L86 191M87.3333 192.667L87.6667 193.333L87.3333 192.667z"/>
<path style="fill:#c16728; stroke:none;" d="M220.333 193.667L220.667 194.333L220.333 193.667z"/>
<path style="fill:#929640; stroke:none;" d="M116 194L120 199L116 194M165 195L166 196L165 195M109 197L113 201L112 196L109 197z"/>
<path style="fill:#c16728; stroke:none;" d="M88 197L89 198L88 197z"/>
<path style="fill:#929640; stroke:none;" d="M97 197L98 198L97 197M221 197L221 201L222 201L221 197z"/>
<path style="fill:#c16728; stroke:none;" d="M89 198L90 199L89 198z"/>
<path style="fill:#929640; stroke:none;" d="M129 198L129 202L130 202L129 198M180 198L181 199L180 198M88.3333 199.667L88.6667 200.333L88.3333 199.667M167 199L164 200L164 201L167 199z"/>
<path style="fill:#fffefd; stroke:none;" d="M180 199L181 200L180 199z"/>
<path style="fill:#929640; stroke:none;" d="M93 200L94 206L95 206L93 200M179.667 200.333L180.333 200.667L179.667 200.333z"/>
<path style="fill:#c16728; stroke:none;" d="M88 201L89 202L88 201z"/>
<path style="fill:#929640; stroke:none;" d="M106.333 201.667L106.667 202.333L106.333 201.667M154 201L157 206L154 201z"/>
<path style="fill:#c16728; stroke:none;" d="M87.3333 202.667L87.6667 203.333L87.3333 202.667M221.333 203.667L221.667 204.333L221.333 203.667z"/>
<path style="fill:#929640; stroke:none;" d="M168 205L169 209L170 209L168 205M221 205L222 206L221 205M86 206L87 211L88 211L86 206z"/>
<path style="fill:#c16728; stroke:none;" d="M87.3333 206.667L87.6667 207.333L87.3333 206.667M220 206L219 208L220 206z"/>
<path style="fill:#929640; stroke:none;" d="M182 207L182 208L183 211L184 211L182 207M220 207L221 208L220 207z"/>
<path style="fill:#c16728; stroke:none;" d="M86 208L87 209L86 208z"/>
<path style="fill:#929640; stroke:none;" d="M115 208L115 211L116 211L115 208z"/>
<path style="fill:#fffefd; stroke:none;" d="M183 208L184 209L183 208z"/>
<path style="fill:#929640; stroke:none;" d="M219 208L219 214L217 217L218 217L221 215L220 218L221 218L219 208M123 209L123 210L130 211L130 209L123 209M161.333 209.667L161.667 210.333L161.333 209.667M172 209L169 215L172 209z"/>
<path style="fill:#ee9d32; stroke:none;" d="M183 209L184 210L183 209z"/>
<path style="fill:#929640; stroke:none;" d="M213.333 210.667L213.667 211.333L213.333 210.667z"/>
<path style="fill:#c16728; stroke:none;" d="M86 211L87 212L86 211z"/>
<path style="fill:#929640; stroke:none;" d="M100 211L102 215L103 215L100 211z"/>
<path style="fill:#c16728; stroke:none;" d="M87 212L88 213L87 212z"/>
<path style="fill:#ee9d32; stroke:none;" d="M170 212L171 213L170 212z"/>
<path style="fill:#c16728; stroke:none;" d="M86 213L87 214L86 213z"/>
<path style="fill:#929640; stroke:none;" d="M189 213L191 216L189 213z"/>
<path style="fill:#ee9d32; stroke:none;" d="M218 213L219 214L218 213z"/>
<path style="fill:#c16728; stroke:none;" d="M87 214L88 215L87 214z"/>
<path style="fill:#929640; stroke:none;" d="M211 214L209 219L212 218L211 214M87 215L87 217L89 217L87 215M112 215C108.022 217.002 105.721 218.438 105 223L112 224L112 223L108 222L113 216L112 215M186 215L187 216L186 215z"/>
<path style="fill:#c16728; stroke:none;" d="M86.3333 217.667L86.6667 218.333L86.3333 217.667M88 217L89 218L88 217z"/>
<path style="fill:#929640; stroke:none;" d="M169 217L170 218L169 217M214 217L216 224L220 224L217 217L214 217z"/>
<path style="fill:#c16728; stroke:none;" d="M221 217L222 218L221 217z"/>
<path style="fill:#929640; stroke:none;" d="M103 218L104 219L103 218M180 218L180 220L183 220L183 218L180 218z"/>
<path style="fill:#c16728; stroke:none;" d="M220 218L221 222L219 221L220 224L189 229L189 230L191 230L191 231L171 230L171 231L177 231L177 232L165 232L164 238L161 239L163 243L170 243L170 244L169 248L166 250L172 252L172 254L169 255L169 256L172 256L172 257L163 259L156 258L156 259L160 260L160 261L154 261L154 262L163 263L160 264L160 265L172 265C172.575 260.598 180.329 261.987 184 261L180 263L185 271L185 272L182 273L182 277L185 276C186.116 281.207 202.939 278 208 278C208 274.209 215.771 274.255 219 274L222 265L222 264L220 251L223 250L219 233L223 221L223 220L220 218z"/>
<path style="fill:#929640; stroke:none;" d="M222 218L223 219L222 218M86 221L90 220L86 221M94 219L95 220L94 219z"/>
<path style="fill:#fffefd; stroke:none;" d="M106 219L107 220L106 219z"/>
<path style="fill:#929640; stroke:none;" d="M116 219L121 223L121 224L124 223L122 221L122 220L126 220L126 219L116 219M203.333 219.667L203.667 220.333L203.333 219.667M221 219L222 220L221 219z"/>
<path style="fill:#c16728; stroke:none;" d="M87 220L88 221L87 220z"/>
<path style="fill:#ee9d32; stroke:none;" d="M88 220L91 223L88 220z"/>
<path style="fill:#fffefd; stroke:none;" d="M89 220L90 221L89 220z"/>
<path style="fill:#929640; stroke:none;" d="M167 220L168 221L167 220M195 222L195 223L200 221L195 222M207.333 220.667L207.667 221.333L207.333 220.667M211.667 220.333L212.333 220.667L211.667 220.333z"/>
<path style="fill:#483e2c; stroke:none;" d="M85 221L86 224L89 221L85 221z"/>
<path style="fill:#929640; stroke:none;" d="M90 221L91 222L90 221z"/>
<path style="fill:#c16728; stroke:none;" d="M84 222L85 223L84 222z"/>
<path style="fill:#929640; stroke:none;" d="M89 222L87 225L91 227L96 230L90 225L89 222M91 222L92 223L91 222z"/>
<path style="fill:#ee9d32; stroke:none;" d="M122 222L123 223L122 222z"/>
<path style="fill:#929640; stroke:none;" d="M156 223L156 224L160 222L156 223M172 222L174 226L172 222z"/>
<path style="fill:#c16728; stroke:none;" d="M85 223L87 226L85 223z"/>
<path style="fill:#ee9d32; stroke:none;" d="M87 223L87 225L89 223L87 223z"/>
<path style="fill:#929640; stroke:none;" d="M136 223L136 224L141 227L136 223M170 223L171 224L170 223M204 223L205 224L204 223z"/>
<path style="fill:#ee9d32; stroke:none;" d="M90 224L91 225L90 224z"/>
<path style="fill:#929640; stroke:none;" d="M102.333 224.667L102.667 225.333L102.333 224.667z"/>
<path style="fill:#483e2c; stroke:none;" d="M89 225L90 226L89 225z"/>
<path style="fill:#929640; stroke:none;" d="M104.333 225.667L104.667 226.333L104.333 225.667z"/>
<path style="fill:#fffefd; stroke:none;" d="M85 226L85 227L88 227L85 226z"/>
<path style="fill:#929640; stroke:none;" d="M99 226L98 229L99 226M193 227L193 228L197 227L193 227z"/>
<path style="fill:#ee9d32; stroke:none;" d="M91 227L92 228L91 227z"/>
<path style="fill:#c16728; stroke:none;" d="M91.3333 228.667L91.6667 229.333L91.3333 228.667M95 228L96 229L95 228z"/>
<path style="fill:#483e2c; stroke:none;" d="M92 229L93 230L92 229z"/>
<path style="fill:#c16728; stroke:none;" d="M93 229L94 230L93 229z"/>
<path style="fill:#ee9d32; stroke:none;" d="M94 229L96 232L94 229z"/>
<path style="fill:#929640; stroke:none;" d="M93 230L94 231L93 230z"/>
<path style="fill:#c16728; stroke:none;" d="M96 232L93 231L95 246L98 249L107 250L106 256L100 260L100 261L103 263L110 253L109 256L111 258L112 258L119 256L119 255L114 255L114 254L128 254L128 253L121 248L117 248L117 247L120 247L120 246L116 246L121 243L121 238L125 237L125 236L117 238L116 235L111 234L115 234C112.156 232.343 95.9736 228.04 96 232z"/>
<path style="fill:#929640; stroke:none;" d="M155 230L156 231L155 230M157 230L158 231L157 230z"/>
<path style="fill:#c16728; stroke:none;" d="M168.667 230.333L169.333 230.667L168.667 230.333z"/>
<path style="fill:#929640; stroke:none;" d="M180 230L180 231L191 231L180 230M104 231L104 232L107 232L104 231M108 231L108 232L116 234L108 231z"/>
<path style="fill:#c16728; stroke:none;" d="M112 231L112 232L138 232L112 231z"/>
<path style="fill:#929640; stroke:none;" d="M138.667 231.333L139.333 231.667L138.667 231.333z"/>
<path style="fill:#c16728; stroke:none;" d="M140 231L141 232L140 231z"/>
<path style="fill:#929640; stroke:none;" d="M141 231L141 232L151 232L141 231M165 231L165 232L177 232L165 231z"/>
<path style="fill:#ee9d32; stroke:none;" d="M168 231L169 232L168 231M172 231L173 232L172 231z"/>
<path style="fill:#929640; stroke:none;" d="M119 232L119 233L122 234L119 232M164 232L165 233L164 232z"/>
<path style="fill:#c16728; stroke:none;" d="M120 233L121 234L120 233z"/>
<path style="fill:#ee9d32; stroke:none;" d="M168 233L169 234L168 233M171 233L171 234L174 234L171 233z"/>
<path style="fill:#c16728; stroke:none;" d="M116 234L117 235L116 234M122 234L123 235L122 234z"/>
<path style="fill:#ee9d32; stroke:none;" d="M167.333 234.667L167.667 235.333L167.333 234.667M165 237L165 238L168 238L165 237M115 238L116 239L115 238z"/>
<path style="fill:#c16728; stroke:none;" d="M136 240L137 241L136 240M149 240L149 244L149 240M134.667 242.333L135.333 242.667L134.667 242.333M155 242L155 243L158 243L155 242z"/>
<path style="fill:#ee9d32; stroke:none;" d="M99 244L100 245L99 244M170 246L170 247L173 248L173 245L170 246z"/>
<path style="fill:#c16728; stroke:none;" d="M95 248L96 249L95 248M159 248L160 249L159 248z"/>
<path style="fill:#ee9d32; stroke:none;" d="M112.667 250.333L113.333 250.667L112.667 250.333z"/>
<path style="fill:#c16728; stroke:none;" d="M128 250L128 252L130 250L128 250M159 253L163 251L159 253M144 252L145 253L144 252M101 253L101 255L103 253L101 253z"/>
<path style="fill:#ee9d32; stroke:none;" d="M111 253L112 254L111 253z"/>
<path style="fill:#c16728; stroke:none;" d="M168 253L169 254L168 253M136 255L135 257L136 255M142 257L145 255L142 257M166 255L167 256L166 255z"/>
<path style="fill:#ee9d32; stroke:none;" d="M104 257L105 258L104 257z"/>
<path style="fill:#c16728; stroke:none;" d="M129 258L129 262L136 264L137 258L129 258M152.667 258.333L153.333 258.667L152.667 258.333z"/>
<path style="fill:#ee9d32; stroke:none;" d="M171 260L174 260L173 258L171 260z"/>
<path style="fill:#c16728; stroke:none;" d="M143 261L144 262L143 261M104 263L105 264L104 263z"/>
<path style="fill:#ee9d32; stroke:none;" d="M216 272L217 273L216 272z"/>
<path style="fill:#929640; stroke:none;" d="M207 276L207 277L215 276L207 276z"/>
<path style="fill:#c16728; stroke:none;" d="M216 275L217 276L216 275z"/>
<path style="fill:#929640; stroke:none;" d="M217.667 275.333L218.333 275.667L217.667 275.333z"/>
<path style="fill:#ee9d32; stroke:none;" d="M208 276L209 277L208 276M210 277L211 278L210 277z"/>
<path style="fill:#c16728; stroke:none;" d="M180 280L183 280L182 278L180 280z"/>
<path style="fill:#929640; stroke:none;" d="M185 279L185 280L202 279L185 279z"/>
<path style="fill:#ee9d32; stroke:none;" d="M202 278L202 279L205 279L202 278M193 279L193 280L197 280L193 279z"/>
<path style="fill:#929640; stroke:none;" d="M94.6667 280.333L95.3333 280.667L94.6667 280.333M180 280L180 281L183 281L180 280M152 282L152 283L166 284L152 282z"/>
<path style="fill:#c16728; stroke:none;" d="M164 282L164 283L170 283L164 282z"/>
<path style="fill:#929640; stroke:none;" d="M170 282L170 283L173 283L170 282M139 283L139 284L144 284L139 283z"/>
<path style="fill:#c16728; stroke:none;" d="M144 283L145 284L144 283z"/>
<path style="fill:#483e2c; stroke:none;" d="M145 283L145 284L163 284L145 283z"/>
<path style="fill:#ee9d32; stroke:none;" d="M166.667 283.333L167.333 283.667L166.667 283.333z"/>
</svg>
