<?xml version="1.0" standalone="yes"?>
<svg xmlns="http://www.w3.org/2000/svg" width="512" height="512">
<path style="fill:#ffffff; stroke:none;" d="M0 0L0 235L1 235C1.06224 141.015 76.1846 51.9972 160 18.2006C182.881 8.97446 209.124 1.01639 234 1L212 0L165 0L0 0z"/>
<path style="fill:#010101; stroke:none;" d="M234 0.424377C187.945 6.47433 146.616 19.3628 108 46.0255C81.9464 64.0145 59.5176 87.7135 42 114C25.082 139.387 12.4017 168.111 6 198C-2.57477 238.034 -2.57892 280.184 7.375 320C39.2659 447.564 166.569 527.924 295 509.715C330.483 504.684 364.91 491.357 395 472.05C514.108 395.624 546.606 232.991 470.782 115C456.439 92.6797 437.781 72.1601 417 55.6643C390.228 34.4128 359.844 18.7204 327 9.29089C297.919 0.941711 264.215 -3.54474 234 0.424377z"/>
<path style="fill:#ffffff; stroke:none;" d="M278 0L278 1C368.955 1.05997 454.525 72.6309 490.306 152C501.541 176.923 510.924 206.402 511 234L512 234L512 0L278 0M248 28.4244C231.489 30.5923 215.322 31.3939 199 35.4753C152.414 47.1249 109.678 74.7588 79.4599 112C-4.761 215.796 20.0637 372.383 131 446.333C151.667 460.11 174.871 470.491 199 476.525C227.506 483.653 256.912 485.543 286 481.718C397.518 467.054 483.992 368.582 483.992 256C483.992 157.767 418.647 70.103 326 39.3333C302.457 31.5144 272.87 25.1589 248 28.4244z"/>
<path style="fill:#010101; stroke:none;" d="M372 121.653C364.119 124.123 357.65 133.35 352 139L311 180L163 328C150.735 340.265 130.233 354.448 122.457 370C117.294 380.325 124.758 391.45 136 390.953C145.352 390.54 151.907 381.093 158 375L202 331L328 205C347.286 185.714 372.921 166.471 388.347 144C396.397 132.274 385.697 117.359 372 121.653M177 136.439C169.797 137.573 163.133 139.99 157 143.94C113.358 172.046 143.935 238.852 193 230.674C252.496 220.758 236.335 127.099 177 136.439z"/>
<path style="fill:#ffffff; stroke:none;" d="M179 165.532C155.692 171.086 164.745 207.555 188 201.952C212.072 196.152 202.855 159.848 179 165.532M0 277L0 512L234 512L234 511C146.746 510.942 59.5061 442.655 24.3086 366C15.5755 346.981 9.02703 327.469 4.66127 307C2.67294 297.678 3.61699 285.616 0 277M511 278C510.924 305.598 501.541 335.077 490.306 360C454.525 439.369 368.955 510.94 278 511L278 512L512 512L512 347L512 300L511 278z"/>
<path style="fill:#010101; stroke:none;" d="M319 281.465C259.188 292.229 276.324 385.93 336 375.385C343.271 374.1 349.977 371.894 356 367.51C396.877 337.758 368.645 272.53 319 281.465z"/>
<path style="fill:#ffffff; stroke:none;" d="M327 309.529C302.094 311.794 306.142 349.829 331 346.814C354.26 343.993 350.273 307.413 327 309.529z"/>
</svg>
