<?xml version="1.0" standalone="yes"?>
<svg xmlns="http://www.w3.org/2000/svg" width="300" height="300">
<path style="fill:#f7f6f9; stroke:none;" d="M0 0L0 300L300 300L300 0L0 0z"/>
<path style="fill:#58a8a4; stroke:none;" d="M104 25L104 26L110 26L104 25z"/>
<path style="fill:#8e6bc1; stroke:none;" d="M110.667 25.3333L111.333 25.6667L110.667 25.3333z"/>
<path style="fill:#58a8a4; stroke:none;" d="M112 25L112 26L115 26L112 25M100 26L101 27L100 26z"/>
<path style="fill:#8e6bc1; stroke:none;" d="M101 26L102 27L101 26z"/>
<path style="fill:#634a9a; stroke:none;" d="M99 28L98 40L123 41C123.44 37.5214 125.316 31.8069 122.972 28.7029C118.93 23.3481 104.044 25.5728 99 28z"/>
<path style="fill:#8e6bc1; stroke:none;" d="M119 26L120 27L119 26z"/>
<path style="fill:#58a8a4; stroke:none;" d="M236 26L236 27L239 27L236 26z"/>
<path style="fill:#8e6bc1; stroke:none;" d="M239 26L240 27L239 26z"/>
<path style="fill:#58a8a4; stroke:none;" d="M240 26L240 27L265 27L240 26z"/>
<path style="fill:#8e6bc1; stroke:none;" d="M265 26L266 27L265 26z"/>
<path style="fill:#58a8a4; stroke:none;" d="M266 26L267 27L266 26z"/>
<path style="fill:#8e6bc1; stroke:none;" d="M99 27L100 28L99 27z"/>
<path style="fill:#58a8a4; stroke:none;" d="M122 27L123 28L122 27z"/>
<path style="fill:#8e6bc1; stroke:none;" d="M232 27L233 28L232 27z"/>
<path style="fill:#634a9a; stroke:none;" d="M228 35L226 47L226 81L226 223L230 218C236.204 217.486 241.491 212.821 248 212.199C258.516 211.195 266.252 217.649 275 222L275 93C275 75.274 279.353 51.0475 274.566 34.0146C271.537 23.2327 243.826 25.6167 235 27.2284C230.64 28.0247 227.935 30.7022 228 35z"/>
<path style="fill:#8e6bc1; stroke:none;" d="M269 27L270 28L269 27z"/>
<path style="fill:#58a8a4; stroke:none;" d="M98 28L98 31L99 31L98 28z"/>
<path style="fill:#8e6bc1; stroke:none;" d="M230 28L231 29L230 28M270.667 28.3333L271.333 28.6667L270.667 28.3333M229 29L230 30L229 29M264 29L265 30L264 29M272 29L273 30L272 29M99 30L100 31L99 30M228 30L229 31L228 30M231 30L232 31L231 30M271 30L272 31L271 30M273 30L274 31L273 30M98 31L98 39L99 39L98 31M227 31L228 32L227 31M229 32L230 33L229 32M274 32L275 33L274 32M226 33L226 35L228 35L226 33z"/>
<path style="fill:#58a8a4; stroke:none;" d="M275 34L276 35L275 34z"/>
<path style="fill:#8e6bc1; stroke:none;" d="M275 35L275 178L275 211C275 215.118 276.242 221.81 273 221L276 224L276 91L276 53L275 35M104 36L104 38L106 38L106 36L104 36M123 37L123 41C115.904 40.9804 106.032 37.7818 99.2855 40.6034C93.4432 43.0467 88.8071 51.2 85.0031 56C72.069 72.3206 63.1264 92.0292 57.4275 112C54.7391 121.421 54.0777 130.795 52.4753 140.285C51.8035 144.265 50.4913 151.928 53.0278 155.486C55.5887 159.079 63.0694 158.919 67 159L67 158L60 157L61 143L71 142L69 144L69 145C73.0995 149.763 85.0595 159.27 90.348 149.772C103.417 126.299 84.6146 76.0281 121 71C124.752 65.8566 125.982 62.407 126 56L121 55L121 54L126 54L126 53L117 52L117 51L129 51L128 54L132 55C133.056 63.4481 141.21 72.8316 144.548 81C155.089 106.797 165.11 130.55 162 159C173.543 156.42 169.427 135.116 167.482 126C163.017 105.065 154.172 84.2067 142.935 66C136.74 55.9619 128.449 47.3647 123 37M226 37L227 38L226 37z"/>
<path style="fill:#58a8a4; stroke:none;" d="M96 42L97 43L96 42z"/>
<path style="fill:#634a9a; stroke:none;" d="M121 43L113 44L113 45L125 46L125 45L121 43M110.667 44.3333L111.333 44.6667L110.667 44.3333z"/>
<path style="fill:#58a8a4; stroke:none;" d="M93 45L94 46L93 45M128 46L129 47L128 46z"/>
<path style="fill:#634a9a; stroke:none;" d="M107 47L107 48L127 49L107 47z"/>
<path style="fill:#58a8a4; stroke:none;" d="M129 47L130 48L129 47M130 48L131 49L130 48M90 49L91 50L90 49M131 49L132 50L131 49z"/>
<path style="fill:#634a9a; stroke:none;" d="M117 51L117 52L126 53L126 54L121 54L121 55L126 56L121 71C91.7944 69.2109 98.3673 113.023 94.8002 131C93.0131 140.006 90.4817 159.914 76.1844 151.821C73.3733 150.23 71.4894 147.047 69 145L69 144L71 142L61 143L60 157L75 158L75 157L72 157C77.1941 151.696 88.3567 152.65 91 160L141 160C146.029 160 157.06 161.206 161.204 158.012C166.036 154.289 162.55 138.11 162.064 133.015C160.203 113.492 151.066 93.5447 142.745 76C139.591 69.3504 133.673 61.988 132 55L128 54L129 51L117 51M95 51L96 52L95 51z"/>
<path style="fill:#58a8a4; stroke:none;" d="M134 53L135 54L134 53z"/>
<path style="fill:#634a9a; stroke:none;" d="M93 56L96 55L93 56M114 54L114 55L120 55L114 54z"/>
<path style="fill:#58a8a4; stroke:none;" d="M136 56L137 57L136 56z"/>
<path style="fill:#8e6bc1; stroke:none;" d="M248 56L249 57L248 56z"/>
<path style="fill:#634a9a; stroke:none;" d="M93 57L88 64C83.5031 67.1959 83.4319 72.1113 85 77C90.3314 73.6679 97.881 63.6242 93 57z"/>
<path style="fill:#58a8a4; stroke:none;" d="M137 57L138 58L137 57z"/>
<path style="fill:#8e6bc1; stroke:none;" d="M244 62L245 62L255 61C251.358 58.0616 246.651 57.8096 244 62M255 58L256 59L255 58z"/>
<path style="fill:#58a8a4; stroke:none;" d="M82 59L83 60L82 59M138 59L139 60L138 59M139 60L140 61L139 60z"/>
<path style="fill:#f7f6f9; stroke:none;" d="M245 62L253 62L247 70L246 66L245 66L246 72L253 68L253 86L247 86C248.99 91.6622 253.362 92.7077 254.556 85.9954C255.605 80.1019 256.732 67.8796 254.322 62.3179C252.761 58.7166 247.005 59.7058 245 62z"/>
<path style="fill:#8e6bc1; stroke:none;" d="M241 61L242 62L241 61z"/>
<path style="fill:#58a8a4; stroke:none;" d="M247.667 61.3333L248.333 61.6667L247.667 61.3333M250 61L251 62L250 61M140 62L141 63L140 62z"/>
<path style="fill:#8e6bc1; stroke:none;" d="M248.667 62.3333L249.333 62.6667L248.667 62.3333M252 62L253 63L252 62z"/>
<path style="fill:#58a8a4; stroke:none;" d="M79 63L80 64L79 63M141 63L142 64L141 63z"/>
<path style="fill:#8e6bc1; stroke:none;" d="M246 64L247 65L246 64M250 64L251 65L250 64M252 64L253 65L252 64z"/>
<path style="fill:#58a8a4; stroke:none;" d="M142 65L143 66L142 65z"/>
<path style="fill:#8e6bc1; stroke:none;" d="M245 65L246 66L245 65M248 65L249 66L248 65M254.333 65.6667L254.667 66.3333L254.333 65.6667z"/>
<path style="fill:#58a8a4; stroke:none;" d="M143 66L144 67L143 66M244.333 66.6667L244.667 67.3333L244.333 66.6667M77 67L78 68L77 67z"/>
<path style="fill:#8e6bc1; stroke:none;" d="M241 67L242 68L241 67M246.667 67.3333L247.333 67.6667L246.667 67.3333z"/>
<path style="fill:#58a8a4; stroke:none;" d="M254 67L255 68L254 67M144 68L145 69L144 68z"/>
<path style="fill:#8e6bc1; stroke:none;" d="M244.333 68.6667L244.667 69.3333L244.333 68.6667M252 68L253 69L252 68M247 69L248 70L247 69M255 69L256 70L255 69z"/>
<path style="fill:#58a8a4; stroke:none;" d="M75 70L76 71L75 70M145 70L146 71L145 70z"/>
<path style="fill:#8e6bc1; stroke:none;" d="M241 70L242 71L241 70M245.333 70.6667L245.667 71.3333L245.333 70.6667M249 71L250 72L249 71M84 72L85 75L86 75L84 72z"/>
<path style="fill:#58a8a4; stroke:none;" d="M146 72L147 73L146 72z"/>
<path style="fill:#634a9a; stroke:none;" d="M77 73C69.7677 95.8947 56.9298 114.074 58 139L64 140L65 135C59.5387 122.027 72.0806 88.2383 83 80C82.084 76.1892 80.8011 74.1725 77 73z"/>
<path style="fill:#58a8a4; stroke:none;" d="M147.333 73.6667L147.667 74.3333L147.333 73.6667M148.333 75.6667L148.667 76.3333L148.333 75.6667M149 77L150 78L149 77M150 79L151 80L150 79z"/>
<path style="fill:#f7f6f9; stroke:none;" d="M77 134L77 135L74 136L75 139C82.8413 135.887 81.4876 130.168 82.1698 123C83.5138 108.877 84 94.191 84 80C73.1186 83.3566 67.958 109.023 65.4753 119C64.6201 122.437 62.025 129.364 64.7816 132.397C67.3059 135.174 73.6261 134 77 134z"/>
<path style="fill:#58a8a4; stroke:none;" d="M151.333 80.6667L151.667 81.3333L151.333 80.6667z"/>
<path style="fill:#8e6bc1; stroke:none;" d="M255 80L256 81L255 80M252 81L253 82L252 81M79 82L80 83L79 82M78 83L79 84L78 83z"/>
<path style="fill:#58a8a4; stroke:none;" d="M152.333 83.6667L152.667 84.3333L152.333 83.6667z"/>
<path style="fill:#8e6bc1; stroke:none;" d="M246.667 83.3333L247.333 83.6667L246.667 83.3333M250 83L251 84L250 83z"/>
<path style="fill:#58a8a4; stroke:none;" d="M153 85L154 86L153 85z"/>
<path style="fill:#8e6bc1; stroke:none;" d="M240 85L241 86L240 85M244 85L245 86L244 85M247 85L247 86L253 86L247 85M255 85L256 86L255 85z"/>
<path style="fill:#58a8a4; stroke:none;" d="M77 86L78 87L77 86z"/>
<path style="fill:#8e6bc1; stroke:none;" d="M242 86L243 87L242 86M246 86L247 87L246 86M254 86L254 91L255 91L254 86z"/>
<path style="fill:#58a8a4; stroke:none;" d="M66 87L67 88L66 87M154 87L155 88L154 87z"/>
<path style="fill:#8e6bc1; stroke:none;" d="M244 87L245 88L244 87z"/>
<path style="fill:#58a8a4; stroke:none;" d="M76 88L77 89L76 88z"/>
<path style="fill:#634a9a; stroke:none;" d="M250 88L252 90L250 88z"/>
<path style="fill:#8e6bc1; stroke:none;" d="M251 88L252 89L251 88z"/>
<path style="fill:#58a8a4; stroke:none;" d="M252 88L253 89L252 88z"/>
<path style="fill:#8e6bc1; stroke:none;" d="M75 89L76 90L75 89z"/>
<path style="fill:#58a8a4; stroke:none;" d="M155.333 89.6667L155.667 90.3333L155.333 89.6667z"/>
<path style="fill:#8e6bc1; stroke:none;" d="M250 89L251 90L250 89z"/>
<path style="fill:#58a8a4; stroke:none;" d="M75 90L76 91L75 90z"/>
<path style="fill:#8e6bc1; stroke:none;" d="M248 90L249 91L248 90z"/>
<path style="fill:#58a8a4; stroke:none;" d="M156.333 91.6667L156.667 92.3333L156.333 91.6667z"/>
<path style="fill:#8e6bc1; stroke:none;" d="M249 91L250 92L249 91M253 91L254 92L253 91M74 92L75 93L74 92z"/>
<path style="fill:#58a8a4; stroke:none;" d="M83 92L84 93L83 92M157 93L158 98L159 98L157 93z"/>
<path style="fill:#8e6bc1; stroke:none;" d="M249.667 93.3333L250.333 93.6667L249.667 93.3333M252 93L249 95L249 96L255 97L252 93z"/>
<path style="fill:#58a8a4; stroke:none;" d="M63 94L64 95L63 94z"/>
<path style="fill:#8e6bc1; stroke:none;" d="M73 94L74 95L73 94z"/>
<path style="fill:#f7f6f9; stroke:none;" d="M250 96L250 97L253 97L250 117L257 120L253 124L248 121L249 125L257 122L257 128L252 128L252 130C257.368 129.395 260.723 125.943 257 121C258.775 117.563 256.163 116.345 255.313 112.91C253.857 107.024 258.087 97.3497 250 96z"/>
<path style="fill:#58a8a4; stroke:none;" d="M72 97L73 98L72 97z"/>
<path style="fill:#8e6bc1; stroke:none;" d="M250 97L250 98L253 99L250 97z"/>
<path style="fill:#58a8a4; stroke:none;" d="M252 97L253 98L252 97z"/>
<path style="fill:#8e6bc1; stroke:none;" d="M257 97L256 98L257 101L260 98L257 97z"/>
<path style="fill:#58a8a4; stroke:none;" d="M159.333 98.6667L159.667 99.3333L159.333 98.6667z"/>
<path style="fill:#8e6bc1; stroke:none;" d="M249 98L250 99L249 98z"/>
<path style="fill:#f7f6f9; stroke:none;" d="M257.667 98.3333L258.333 98.6667L257.667 98.3333z"/>
<path style="fill:#8e6bc1; stroke:none;" d="M71 99L72 100L71 99M255 100L256 101L255 100z"/>
<path style="fill:#58a8a4; stroke:none;" d="M160 101L161 105L162 105L160 101M60 102L61 103L60 102z"/>
<path style="fill:#8e6bc1; stroke:none;" d="M70 102L71 103L70 102M252 103L253 104L252 103M69 105L70 106L69 105z"/>
<path style="fill:#58a8a4; stroke:none;" d="M162.333 106.667L162.667 107.333L162.333 106.667z"/>
<path style="fill:#8e6bc1; stroke:none;" d="M68 108L69 109L68 108z"/>
<path style="fill:#58a8a4; stroke:none;" d="M163.333 109.667L163.667 110.333L163.333 109.667z"/>
<path style="fill:#8e6bc1; stroke:none;" d="M67.3333 110.667L67.6667 111.333L67.3333 110.667z"/>
<path style="fill:#58a8a4; stroke:none;" d="M164 112L164 115L165 115L164 112z"/>
<path style="fill:#8e6bc1; stroke:none;" d="M252 112L253 113L252 112M249 113L250 114L249 113M256 113L257 114L256 113M66 114L67 115L66 114M252 114L253 115L252 114M255 114L258 116L258 115L255 114z"/>
<path style="fill:#58a8a4; stroke:none;" d="M66 115L67 116L66 115M165 116L165 120L166 120L165 116z"/>
<path style="fill:#8e6bc1; stroke:none;" d="M249 116L250 117L249 116z"/>
<path style="fill:#58a8a4; stroke:none;" d="M257 116L258 117L257 116z"/>
<path style="fill:#8e6bc1; stroke:none;" d="M250 117L250 118L252 120L257 119L250 117z"/>
<path style="fill:#58a8a4; stroke:none;" d="M258 117L259 118L258 117z"/>
<path style="fill:#8e6bc1; stroke:none;" d="M65 118L66 119L65 118z"/>
<path style="fill:#634a9a; stroke:none;" d="M253 119L253 120L257 120L253 119z"/>
<path style="fill:#8e6bc1; stroke:none;" d="M262 118L263 119L262 118z"/>
<path style="fill:#58a8a4; stroke:none;" d="M82 120L82 128L83 128L82 120M166 120L166 123L167 123L166 120z"/>
<path style="fill:#8e6bc1; stroke:none;" d="M248 120L248 121L250 123L251 123L248 120z"/>
<path style="fill:#58a8a4; stroke:none;" d="M253 120L254 121L253 120z"/>
<path style="fill:#8e6bc1; stroke:none;" d="M257 120L257 121L260 121L260 120L257 120z"/>
<path style="fill:#634a9a; stroke:none;" d="M258 120L259 121L258 120z"/>
<path style="fill:#8e6bc1; stroke:none;" d="M252 121L251 124L252 121M64 122L65 123L64 122z"/>
<path style="fill:#58a8a4; stroke:none;" d="M248 122L249 123L248 122z"/>
<path style="fill:#8e6bc1; stroke:none;" d="M256 122L257 123L256 122z"/>
<path style="fill:#58a8a4; stroke:none;" d="M64 123L65 124L64 123z"/>
<path style="fill:#8e6bc1; stroke:none;" d="M248.333 123.667L248.667 124.333L248.333 123.667z"/>
<path style="fill:#58a8a4; stroke:none;" d="M167 125L168 126L167 125z"/>
<path style="fill:#8e6bc1; stroke:none;" d="M249 125L249 126L252 126L249 125z"/>
<path style="fill:#58a8a4; stroke:none;" d="M252.667 125.333L253.333 125.667L252.667 125.333z"/>
<path style="fill:#8e6bc1; stroke:none;" d="M254.333 125.667L254.667 126.333L254.333 125.667M259 125L260 126L259 125M63.3333 126.667L63.6667 127.333L63.3333 126.667M261 126L262 127L261 126M256 127L257 128L256 127z"/>
<path style="fill:#58a8a4; stroke:none;" d="M63 128L64 129L63 128z"/>
<path style="fill:#8e6bc1; stroke:none;" d="M251 128L250 130L252 130L251 128M258 128L259 129L258 128z"/>
<path style="fill:#58a8a4; stroke:none;" d="M256 129L257 130L256 129z"/>
<path style="fill:#8e6bc1; stroke:none;" d="M257 129L258 130L257 129M252 130L253 131L252 130M63.3333 131.667L63.6667 132.333L63.3333 131.667z"/>
<path style="fill:#58a8a4; stroke:none;" d="M168 131L168 135L169 135L168 131z"/>
<path style="fill:#8e6bc1; stroke:none;" d="M64 133L65 134L64 133z"/>
<path style="fill:#58a8a4; stroke:none;" d="M77.6667 133.333L78.3333 133.667L77.6667 133.333z"/>
<path style="fill:#8e6bc1; stroke:none;" d="M251.667 133.333L252.333 133.667L251.667 133.333M255 133L256 134L255 133z"/>
<path style="fill:#58a8a4; stroke:none;" d="M70.6667 134.333L71.3333 134.667L70.6667 134.333M76 134L77 135L76 134M249 134L250 135L249 134z"/>
<path style="fill:#f7f6f9; stroke:none;" d="M249 139C252.83 141.112 252.951 143.839 253 148C246.936 150.02 251.828 153.845 257 150L257 154L259 154C258.306 149.495 256.191 140.408 254.317 136.323C252.285 131.893 249.403 136.584 249 139z"/>
<path style="fill:#8e6bc1; stroke:none;" d="M254 134L255 135L254 134z"/>
<path style="fill:#58a8a4; stroke:none;" d="M74.6667 135.333L75.3333 135.667L74.6667 135.333z"/>
<path style="fill:#8e6bc1; stroke:none;" d="M248 135L248 138L249 138L248 135z"/>
<path style="fill:#58a8a4; stroke:none;" d="M251 135L252 136L251 135M66 136C67.2619 140.314 71.2058 140.189 75 139L75 137L71 136L73 138L73 139L70 136L66 136z"/>
<path style="fill:#f7f6f9; stroke:none;" d="M70 136L73 139L73 138L70 136z"/>
<path style="fill:#634a9a; stroke:none;" d="M251.667 136.333L252.333 136.667L251.667 136.333z"/>
<path style="fill:#58a8a4; stroke:none;" d="M52 137L53 138L52 137z"/>
<path style="fill:#f7f6f9; stroke:none;" d="M67 137L68 138L67 137z"/>
<path style="fill:#58a8a4; stroke:none;" d="M78 137L79 138L78 137z"/>
<path style="fill:#8e6bc1; stroke:none;" d="M251.667 137.333L252.333 137.667L251.667 137.333z"/>
<path style="fill:#58a8a4; stroke:none;" d="M53 138L54 139L53 138z"/>
<path style="fill:#8e6bc1; stroke:none;" d="M254 138L255 139L254 138z"/>
<path style="fill:#58a8a4; stroke:none;" d="M52 139L51 143L52 143L52 139z"/>
<path style="fill:#8e6bc1; stroke:none;" d="M249.667 139.333L250.333 139.667L249.667 139.333z"/>
<path style="fill:#58a8a4; stroke:none;" d="M251 139L252 140L251 139M254 139L255 140L254 139M169 140L169 152L170 152L169 140z"/>
<path style="fill:#8e6bc1; stroke:none;" d="M250 141L251 142L250 141M249 143L250 144L249 143z"/>
<path style="fill:#58a8a4; stroke:none;" d="M51 144L51 152L52 152L51 144z"/>
<path style="fill:#8e6bc1; stroke:none;" d="M257 144L258 145L257 144M260 145L261 146L260 145M258 146L259 147L258 146M262 146L261 149L262 146M250 147L250 148L253 148L250 147M255 147L256 148L255 147M248.667 148.333L249.333 148.667L248.667 148.333M257 148L258 149L257 148z"/>
<path style="fill:#58a8a4; stroke:none;" d="M252 149L253 150L252 149z"/>
<path style="fill:#8e6bc1; stroke:none;" d="M258 149L259 150L258 149M248.333 150.667L248.667 151.333L248.333 150.667z"/>
<path style="fill:#634a9a; stroke:none;" d="M251 150L252 151L251 150z"/>
<path style="fill:#8e6bc1; stroke:none;" d="M252 150L251 152L253 152L252 150M256 150L257 151L256 150M259 150L260 151L259 150M261 150L262 151L261 150z"/>
<path style="fill:#58a8a4; stroke:none;" d="M249 152L250 153L249 152z"/>
<path style="fill:#8e6bc1; stroke:none;" d="M254 152L253 154L255 154L254 152M243 153L244 154L243 153M250 153L251 154L250 153z"/>
<path style="fill:#58a8a4; stroke:none;" d="M251 153L252 154L251 153z"/>
<path style="fill:#8e6bc1; stroke:none;" d="M256 153L257 154L256 153M260 153L261 154L260 153M75 157L75 158L72 160L91 160C90.2587 154.218 76.3876 149.904 72.8333 155.222C71.8013 156.766 74.3556 156.862 75 157M257.667 154.333L258.333 154.667L257.667 154.333M244 155L243 158L248 160L248 159L246 158L249 157L249 156L246 157L246 155L244 155z"/>
<path style="fill:#f7f6f9; stroke:none;" d="M247 155L246 157L248 157L247 155M250 155L253 157L250 180L259 183C258.178 180.075 256.04 177.827 255.313 174.91C253.675 168.334 258.393 157.548 250 155z"/>
<path style="fill:#8e6bc1; stroke:none;" d="M253 155L253 156L257 157L257 156L253 155z"/>
<path style="fill:#58a8a4; stroke:none;" d="M52 156L53 157L52 156M168 156L169 157L168 156z"/>
<path style="fill:#8e6bc1; stroke:none;" d="M240 156L241 157L240 156z"/>
<path style="fill:#58a8a4; stroke:none;" d="M254 156L255 157L254 156M55 157L56 158L55 157z"/>
<path style="fill:#8e6bc1; stroke:none;" d="M70.6667 157.333L71.3333 157.667L70.6667 157.333z"/>
<path style="fill:#f7f6f9; stroke:none;" d="M244 157L245 158L244 157z"/>
<path style="fill:#58a8a4; stroke:none;" d="M245 157L246 158L245 157z"/>
<path style="fill:#8e6bc1; stroke:none;" d="M250 157L250 158L253 158L250 157z"/>
<path style="fill:#58a8a4; stroke:none;" d="M164 158L165 159L164 158z"/>
<path style="fill:#f7f6f9; stroke:none;" d="M246.667 158.333L247.333 158.667L246.667 158.333z"/>
<path style="fill:#8e6bc1; stroke:none;" d="M152 159L152 160L157 160L152 159z"/>
<path style="fill:#58a8a4; stroke:none;" d="M157 159L158 160L157 159z"/>
<path style="fill:#8e6bc1; stroke:none;" d="M250 159L251 160L250 159M260 159L261 160L260 159z"/>
<path style="fill:#58a8a4; stroke:none;" d="M92.6667 160.333L93.3333 160.667L92.6667 160.333z"/>
<path style="fill:#8e6bc1; stroke:none;" d="M94 160L94 161L106 161L94 160M130 160L130 161L141 161L130 160z"/>
<path style="fill:#58a8a4; stroke:none;" d="M141 160L141 161L144 161L141 160M120 161L120 162L128 162L120 161z"/>
<path style="fill:#8e6bc1; stroke:none;" d="M105 162C108.701 167.131 128.299 167.131 132 162L105 162z"/>
<path style="fill:#58a8a4; stroke:none;" d="M118 165L118 166L123 166L118 165M112 169L112 170L116 171L116 172L108 169L104 174L108 172L107 174L123 174L117 169L120 171L116 168L113 170L113 169L115 169L112 169M136.667 168.333L137.333 168.667L136.667 168.333M140 168L145 174L146 169L144 168L143 168L143 170L140 168z"/>
<path style="fill:#8e6bc1; stroke:none;" d="M109.667 169.333L110.333 169.667L109.667 169.333z"/>
<path style="fill:#634a9a; stroke:none;" d="M113.667 169.333L114.333 169.667L113.667 169.333M117 169L124 174L127 172L117 169M119 169L120 170L119 169z"/>
<path style="fill:#58a8a4; stroke:none;" d="M123 169L124 170L123 169M126 169L125 171L126 169M129 169L128 174L131 174L131 170L129 169M133.667 169.333L134.333 169.667L133.667 169.333M104 170L105 171L104 170z"/>
<path style="fill:#634a9a; stroke:none;" d="M112 170L116 172L116 171L112 170z"/>
<path style="fill:#f7f6f9; stroke:none;" d="M118 170L119 171L118 170z"/>
<path style="fill:#58a8a4; stroke:none;" d="M121.667 170.333L122.333 170.667L121.667 170.333z"/>
<path style="fill:#8e6bc1; stroke:none;" d="M126 170L127 171L126 170z"/>
<path style="fill:#634a9a; stroke:none;" d="M129 170L131 173L131 170L129 170M133 170L133 172L135 172L135 170L133 170z"/>
<path style="fill:#58a8a4; stroke:none;" d="M136 170L135 174L136 174L140 173L140 172L137 172L137 171L139 171L136 170z"/>
<path style="fill:#8e6bc1; stroke:none;" d="M139 170L140 171L139 170z"/>
<path style="fill:#f7f6f9; stroke:none;" d="M140 170L141 171L140 170z"/>
<path style="fill:#634a9a; stroke:none;" d="M104.333 171.667L104.667 172.333L104.333 171.667M109.667 171.333L110.333 171.667L109.667 171.333M137 171L137 172L142 172L137 171M105 174L108 172L105 174z"/>
<path style="fill:#58a8a4; stroke:none;" d="M124 172L125 173L124 172M126 172L125 174L127 174L126 172z"/>
<path style="fill:#634a9a; stroke:none;" d="M136 172L137 173L136 172z"/>
<path style="fill:#8e6bc1; stroke:none;" d="M129 173L130 174L129 173M56 177C61.8714 178.091 69.8093 177.195 73 183L99 187L99 188C94.6742 190.426 90.813 192.88 90 198L91 198L93 195L92 197L99 193L106 186L114 187L118 186L120 185L121 184L120 182L123 193L124 193L125 182L122 182L126 181L125 179L126 179C136.906 182.599 148.097 189.763 144 202L145 203L150 202L148 198L152 200L151 196L152 196L155 197L154 202L155 202L159 194L144 189L144 188L160 192C156.846 187.396 149.187 187.07 144 186L144 185L163 183L163 178L164 178L164 231L163 231L163 227L146 240L146 241L150 242L150 240L155 241L155 240L152 239L152 238C157.429 236.757 158.559 236.186 162 241L160 241L162 244L160 248L160 263C166.544 257.375 170.958 242.186 165 235L168 231C164.246 226.045 167.352 220.58 167.807 215C168.857 202.139 168 188.901 168 176C145.956 176.723 123.214 174.452 101 176.09C95.1021 176.525 90.6113 181.013 85 181.367C76.9652 181.873 63.154 167.216 56 177z"/>
<path style="fill:#58a8a4; stroke:none;" d="M158 174L158 175L163 175L158 174z"/>
<path style="fill:#cf1822; stroke:none;" d="M64 175L65 176L64 175z"/>
<path style="fill:#58a8a4; stroke:none;" d="M149.667 175.333L150.333 175.667L149.667 175.333M152 175L153 176L152 175M163 175L164 176L163 175M53 176C54.3893 179.534 56.0436 182.542 60 183L60 186L58 185C58.2656 189.83 59.8457 193.164 54 194L54 195L56 196L54 196L54 197L56 197L56 200L52 207C59.1983 205.347 77.9556 214.532 74 200L77 204L81 202L74 210L82 203C87.9515 202.428 89.7657 196.904 92 192L80 199C75.724 197.69 72.1795 196.426 76 192L76 191L74 183L72 179L53 176z"/>
<path style="fill:#cf1822; stroke:none;" d="M68.6667 176.333L69.3333 176.667L68.6667 176.333z"/>
<path style="fill:#58a8a4; stroke:none;" d="M95 176L95 177L98 177L95 176z"/>
<path style="fill:#634a9a; stroke:none;" d="M124 177L123 180L124 177M127 177L128 178L127 177z"/>
<path style="fill:#8e6bc1; stroke:none;" d="M248 177L249 178L248 177M250 177L250 178L253 178L250 177M255 177L256 178L255 177M258 177L259 178L258 177z"/>
<path style="fill:#634a9a; stroke:none;" d="M63 178L63 179L67 179L63 178M120 178L121 180L120 180L92 182L92 184C100.262 184.854 109.62 185.229 117 181L116 183L117 183L122 178L120 178z"/>
<path style="fill:#58a8a4; stroke:none;" d="M127 178L128 179L127 178z"/>
<path style="fill:#f7f6f9; stroke:none;" d="M163 178L163 185L164 185L163 178z"/>
<path style="fill:#58a8a4; stroke:none;" d="M168 178L168 196L169 196L168 178z"/>
<path style="fill:#8e6bc1; stroke:none;" d="M249 178L250 179L249 178M257 178L258 179L257 178M260 178L261 179L260 178z"/>
<path style="fill:#f7f6f9; stroke:none;" d="M56 179L57 180L56 179z"/>
<path style="fill:#58a8a4; stroke:none;" d="M125.667 179.333L126.333 179.667L125.667 179.333z"/>
<path style="fill:#8e6bc1; stroke:none;" d="M248 179L249 180L248 179z"/>
<path style="fill:#58a8a4; stroke:none;" d="M253.667 179.333L254.333 179.667L253.667 179.333z"/>
<path style="fill:#8e6bc1; stroke:none;" d="M258 179L259 180L258 179z"/>
<path style="fill:#634a9a; stroke:none;" d="M59.3333 180.667L59.6667 181.333L59.3333 180.667M72 180L72 183L73 183L72 180z"/>
<path style="fill:#f7f6f9; stroke:none;" d="M124 180L123 182L124 180z"/>
<path style="fill:#cf1822; stroke:none;" d="M126.602 181.086C124.206 182.86 124.97 195.33 129.412 192.673C132.395 190.888 131.062 177.784 126.602 181.086z"/>
<path style="fill:#634a9a; stroke:none;" d="M130 180L131 181L130 180z"/>
<path style="fill:#f7f6f9; stroke:none;" d="M131 180L132 181L131 180z"/>
<path style="fill:#58a8a4; stroke:none;" d="M132 180L133 184L134 184L132 180z"/>
<path style="fill:#634a9a; stroke:none;" d="M141 181L141 183L160 181L141 181z"/>
<path style="fill:#58a8a4; stroke:none;" d="M256 180L257 181L256 180z"/>
<path style="fill:#f7f6f9; stroke:none;" d="M61 181L61 195L71 197C71 186.733 69.987 185.525 61 181z"/>
<path style="fill:#58a8a4; stroke:none;" d="M122 181L123 182L122 181M124 181L125 182L124 181z"/>
<path style="fill:#8e6bc1; stroke:none;" d="M131 181L130 186L131 186L131 181M251 181L252 182L251 181M260 181L261 182L260 181z"/>
<path style="fill:#58a8a4; stroke:none;" d="M120.667 182.333L121.333 182.667L120.667 182.333M123 182L124 183L123 182z"/>
<path style="fill:#f7f6f9; stroke:none;" d="M132 182L130 186L130 187L131 194L133 202L131 202L132 204L130 207L129 208L127 207C125.628 211.567 121.272 211.897 117 212L117 201L116 201L112 221L102 218C111.321 220.12 108.839 207.376 107 202L113 199L113 198L104 203L105 201L104 201C98.5165 206.859 94.2683 199.238 102 198L108 194C110.096 190.247 112.205 190.509 116 192L117 185L101 190.92L82 203L71 213L72 217L75 216L74 219L77 221L81 221L82 216L82 212L84 215L85 215L85 211L90 214C89.2792 220.603 91.0417 225.591 98 227L98 231L108 228L108 227L100 229L100 228L112 223L113 226L133 216L132 214L133 214L135 209L134 212L136 210L137 210L139 211L139 212L137 215L138 213L139 213C142.065 214.681 146.1 209.354 148 207L144 208L148 204L148 203L142 206L141 206C141.22 199.637 141.549 194.178 134 193L134 191L145 193L145 192L132 182z"/>
<path style="fill:#8e6bc1; stroke:none;" d="M248.667 182.333L249.333 182.667L248.667 182.333M254 182L255 183L254 182M259 182L260 183L259 182M262 182L263 183L262 182z"/>
<path style="fill:#634a9a; stroke:none;" d="M59 183L59 186L60 186L59 183z"/>
<path style="fill:#f7f6f9; stroke:none;" d="M76 191L76 192C70.8541 195.767 75.7681 198.199 80 199L95 189L88 188L88 187L91 184C87.3506 183.843 64.2637 182.529 76 191z"/>
<path style="fill:#58a8a4; stroke:none;" d="M119 183L120 184L119 183z"/>
<path style="fill:#634a9a; stroke:none;" d="M121 183L122 184L121 183z"/>
<path style="fill:#cf1822; stroke:none;" d="M122 183C117.079 186.26 112.471 205.103 119.318 208.878C126.636 212.913 132.343 200.253 132 195L126 198L126 199L124 207L122 183z"/>
<path style="fill:#58a8a4; stroke:none;" d="M135 183L141 189L135 183z"/>
<path style="fill:#634a9a; stroke:none;" d="M144 185L144 186L160 190L162 183L144 185z"/>
<path style="fill:#58a8a4; stroke:none;" d="M162 183L160 190C163.704 189.21 164.21 185.781 162 183z"/>
<path style="fill:#8e6bc1; stroke:none;" d="M257 183L258 184L257 183z"/>
<path style="fill:#58a8a4; stroke:none;" d="M55 184L56 188L53 189L56 193L57 184L55 184M91 184L88 187L88 188L95 189L93 192L99 188L99 187L91 187L91 186L93 185L91 184z"/>
<path style="fill:#f7f6f9; stroke:none;" d="M118 184L119 185L118 184z"/>
<path style="fill:#58a8a4; stroke:none;" d="M124 184L125 185L124 184z"/>
<path style="fill:#8e6bc1; stroke:none;" d="M161.333 184.667L161.667 185.333L161.333 184.667z"/>
<path style="fill:#58a8a4; stroke:none;" d="M114 185L114 187L116 185L114 185z"/>
<path style="fill:#f7f6f9; stroke:none;" d="M124 185L124 190L125 190L124 185z"/>
<path style="fill:#8e6bc1; stroke:none;" d="M125 185L126 186L125 185M91 186L92 187L91 186z"/>
<path style="fill:#634a9a; stroke:none;" d="M92.6667 186.333L93.3333 186.667L92.6667 186.333M106 186L107 187L106 186z"/>
<path style="fill:#58a8a4; stroke:none;" d="M105 188L105 189L114 189L113 186L105 188z"/>
<path style="fill:#634a9a; stroke:none;" d="M116 186L117 187L116 186M126.333 186.667L126.667 187.333L126.333 186.667z"/>
<path style="fill:#58a8a4; stroke:none;" d="M131 186L132 187L131 186M135 186L136 187L135 186z"/>
<path style="fill:#8e6bc1; stroke:none;" d="M156 186L156 187L160 187L156 186z"/>
<path style="fill:#f7f6f9; stroke:none;" d="M163 186L160 190C161.342 203.728 141.019 228.898 127 229L127 230C131.221 233.315 130.243 236.242 129 241C121.201 239.519 113.851 238.548 107 243L107 244L141 243L141 242L139 241L162 223L162 221L164 222L163 186z"/>
<path style="fill:#634a9a; stroke:none;" d="M103.667 187.333L104.333 187.667L103.667 187.333z"/>
<path style="fill:#8e6bc1; stroke:none;" d="M115 187L115 195L116 195L115 187M130 187L131 188L130 187z"/>
<path style="fill:#634a9a; stroke:none;" d="M116 188L117 189L116 188z"/>
<path style="fill:#8e6bc1; stroke:none;" d="M125 188L126 189L125 188M131 188L132 189L131 188z"/>
<path style="fill:#634a9a; stroke:none;" d="M144 188L144 189C148.713 191.858 153.363 195.304 159 194L159 192L144 188z"/>
<path style="fill:#8e6bc1; stroke:none;" d="M160 188L161 189L160 188z"/>
<path style="fill:#58a8a4; stroke:none;" d="M102.667 189.333L103.333 189.667L102.667 189.333z"/>
<path style="fill:#634a9a; stroke:none;" d="M131 189L132 190L131 189z"/>
<path style="fill:#58a8a4; stroke:none;" d="M141 189L144 191L141 189M100.667 190.333L101.333 190.667L100.667 190.333z"/>
<path style="fill:#8e6bc1; stroke:none;" d="M109 190L108 192L109 190z"/>
<path style="fill:#cf1822; stroke:none;" d="M108 195C105.004 194.358 96.028 197.528 96.8472 201.866C97.7036 206.4 102.21 203.811 103 201C106.41 200.737 107.901 200.321 109 197C119.389 196.191 110.765 185.916 108 195z"/>
<path style="fill:#8e6bc1; stroke:none;" d="M113 190L114 191L113 190M131.333 190.667L131.667 191.333L131.333 190.667z"/>
<path style="fill:#634a9a; stroke:none;" d="M59 191L60 192L59 191z"/>
<path style="fill:#8e6bc1; stroke:none;" d="M74 191L75 192L74 191z"/>
<path style="fill:#58a8a4; stroke:none;" d="M99 191L100 192L99 191M124 191L125 192L124 191M134 191L134 192L134 193L137 192L137 191L134 191z"/>
<path style="fill:#8e6bc1; stroke:none;" d="M135 191L136 192L135 191M136 192L136 193L140 192L136 192z"/>
<path style="fill:#58a8a4; stroke:none;" d="M140 191L141 192L140 191M144 191L146 196L147 196L144 191M161 191L162 192L161 191M97 192L98 193L97 192z"/>
<path style="fill:#f7f6f9; stroke:none;" d="M124 192L124 206C126.71 203.238 126.386 201.522 125 198L130 194L124 192z"/>
<path style="fill:#8e6bc1; stroke:none;" d="M125 192L126 193L125 192z"/>
<path style="fill:#634a9a; stroke:none;" d="M137 192L137 193C140.729 195.841 141.849 198.349 142 203C149.08 198.149 143.713 192.218 137 192z"/>
<path style="fill:#58a8a4; stroke:none;" d="M143 192L144 193L143 192M159 192L158 199C153.715 200.007 147.691 209.744 147 214L127 227C130.997 232.155 136.439 226.193 140.089 223.286C149.299 215.952 159.211 203.935 161 192L159 192M95 193L95 195L97 193L95 193M116 193L116 196L117 196L116 193z"/>
<path style="fill:#634a9a; stroke:none;" d="M123 193L123 204L124 204L123 193z"/>
<path style="fill:#58a8a4; stroke:none;" d="M125 193L126 194L125 193z"/>
<path style="fill:#634a9a; stroke:none;" d="M126 193L127 194L126 193M129 193L130 194L129 193z"/>
<path style="fill:#58a8a4; stroke:none;" d="M130 193L131 194L130 193M138 193L139 194L138 193z"/>
<path style="fill:#8e6bc1; stroke:none;" d="M144 193L145 194L144 193M103 194L104 195L103 194M107 194L108 195L107 194M130 194L130 195L133 195L130 194z"/>
<path style="fill:#58a8a4; stroke:none;" d="M139 194L140 195L139 194z"/>
<path style="fill:#8e6bc1; stroke:none;" d="M145 194L146 195L145 194M88 195L89 196L88 195z"/>
<path style="fill:#634a9a; stroke:none;" d="M91 195L91 197L93 195L91 195z"/>
<path style="fill:#58a8a4; stroke:none;" d="M94 195L95 196L94 195z"/>
<path style="fill:#8e6bc1; stroke:none;" d="M102 195L103 196L102 195z"/>
<path style="fill:#f7f6f9; stroke:none;" d="M115 195L115 197L117 197L115 195z"/>
<path style="fill:#8e6bc1; stroke:none;" d="M129 195L130 196L129 195z"/>
<path style="fill:#634a9a; stroke:none;" d="M132.333 195.667L132.667 196.333L132.333 195.667z"/>
<path style="fill:#58a8a4; stroke:none;" d="M140 195L141 196L140 195z"/>
<path style="fill:#634a9a; stroke:none;" d="M152 195L153 196L152 195z"/>
<path style="fill:#f7f6f9; stroke:none;" d="M56 196L57 197L56 196z"/>
<path style="fill:#58a8a4; stroke:none;" d="M93 196L94 197L93 196M113 197L113 198L117 198L113 197z"/>
<path style="fill:#8e6bc1; stroke:none;" d="M141 196L142 197L141 196z"/>
<path style="fill:#634a9a; stroke:none;" d="M151 196L152 200L148 198L150 202L148 201L148 202L149 209L150 209L155 197L151 196z"/>
<path style="fill:#f7f6f9; stroke:none;" d="M158 196L159 197L158 196z"/>
<path style="fill:#58a8a4; stroke:none;" d="M91.6667 197.333L92.3333 197.667L91.6667 197.333z"/>
<path style="fill:#8e6bc1; stroke:none;" d="M109 197L110 198L109 197z"/>
<path style="fill:#58a8a4; stroke:none;" d="M110 197L111 198L110 197z"/>
<path style="fill:#8e6bc1; stroke:none;" d="M111.667 197.333L112.333 197.667L111.667 197.333M113 198L113 199L115 204L116 204L115 197L113 198M126 197L127 198L126 197z"/>
<path style="fill:#58a8a4; stroke:none;" d="M141.333 197.667L141.667 198.333L141.333 197.667z"/>
<path style="fill:#f7f6f9; stroke:none;" d="M157.333 197.667L157.667 198.333L157.333 197.667M56 198L57 199L56 198z"/>
<path style="fill:#634a9a; stroke:none;" d="M59 198L59 202L60 202L59 198z"/>
<path style="fill:#8e6bc1; stroke:none;" d="M97 198L98 199L97 198z"/>
<path style="fill:#58a8a4; stroke:none;" d="M109 198L110 199L109 198z"/>
<path style="fill:#cf1822; stroke:none;" d="M114 198L108 202C109.21 208.516 110.854 216.721 103 219L103 220C115.115 221.785 117.707 206.835 114 198z"/>
<path style="fill:#f7f6f9; stroke:none;" d="M116 198L117 199L116 198z"/>
<path style="fill:#8e6bc1; stroke:none;" d="M125 198L126 199L125 198M132 198L133 199L132 198z"/>
<path style="fill:#634a9a; stroke:none;" d="M146 198L147 199L146 198z"/>
<path style="fill:#8e6bc1; stroke:none;" d="M96 199L97 200L96 199M111 199L112 200L111 199z"/>
<path style="fill:#58a8a4; stroke:none;" d="M116.333 199.667L116.667 200.333L116.333 199.667M125 199L127 201L125 199z"/>
<path style="fill:#634a9a; stroke:none;" d="M126 199L127 200L126 199z"/>
<path style="fill:#58a8a4; stroke:none;" d="M132 199L133 200L132 199z"/>
<path style="fill:#8e6bc1; stroke:none;" d="M74 200C75.4165 207.721 70.5831 209.148 64 209L64 210C71.8419 211.447 77.1499 209.615 81 202L77 204L74 200M110 200L111 201L110 200M127 200L127 203L128 203L127 200z"/>
<path style="fill:#634a9a; stroke:none;" d="M131 200L132 201L131 200z"/>
<path style="fill:#58a8a4; stroke:none;" d="M141.333 200.667L141.667 201.333L141.333 200.667z"/>
<path style="fill:#634a9a; stroke:none;" d="M146 200L147 201L146 200z"/>
<path style="fill:#f7f6f9; stroke:none;" d="M56 201L57 202L56 201z"/>
<path style="fill:#8e6bc1; stroke:none;" d="M103 201L104 202L103 201z"/>
<path style="fill:#58a8a4; stroke:none;" d="M104 203L107 201L104 203z"/>
<path style="fill:#8e6bc1; stroke:none;" d="M108 201L109 202L108 201M131 201L132 202L131 201z"/>
<path style="fill:#58a8a4; stroke:none;" d="M132 201L133 202L132 201z"/>
<path style="fill:#8e6bc1; stroke:none;" d="M96 202L97 203L96 202M107.333 202.667L107.667 203.333L107.333 202.667M141 202L144 204L144 203L141 202z"/>
<path style="fill:#58a8a4; stroke:none;" d="M144 202L145 203L144 202M146.667 202.333L147.333 202.667L146.667 202.333z"/>
<path style="fill:#634a9a; stroke:none;" d="M59.3333 203.667L59.6667 204.333L59.3333 203.667z"/>
<path style="fill:#8e6bc1; stroke:none;" d="M130 203L131 204L130 203z"/>
<path style="fill:#58a8a4; stroke:none;" d="M131 203L132 204L131 203M148 203L144 207L148 207L148 203z"/>
<path style="fill:#8e6bc1; stroke:none;" d="M98 204L99 205L98 204M101 204L102 205L101 204z"/>
<path style="fill:#58a8a4; stroke:none;" d="M103 204L104 205L103 204z"/>
<path style="fill:#8e6bc1; stroke:none;" d="M108.333 204.667L108.667 205.333L108.333 204.667z"/>
<path style="fill:#634a9a; stroke:none;" d="M115 204L115 209L116 209L115 204z"/>
<path style="fill:#8e6bc1; stroke:none;" d="M126 204L127 205L126 204z"/>
<path style="fill:#634a9a; stroke:none;" d="M129 204L130 205L129 204z"/>
<path style="fill:#58a8a4; stroke:none;" d="M141.333 204.667L141.667 205.333L141.333 204.667z"/>
<path style="fill:#8e6bc1; stroke:none;" d="M148 204L149 205L148 204z"/>
<path style="fill:#58a8a4; stroke:none;" d="M158 204L159 205L158 204M91 205L89 209L89 210L94 209L93 205L91 205M96 205L97 206L96 205z"/>
<path style="fill:#8e6bc1; stroke:none;" d="M102 205L103 206L102 205M125 205L126 206L125 205z"/>
<path style="fill:#58a8a4; stroke:none;" d="M130 205L131 206L130 205z"/>
<path style="fill:#8e6bc1; stroke:none;" d="M146 205L144 208L146 205M53 206C53 213.028 49.8302 230.641 56 235L56 236L52 237C55.0903 249.181 50.8571 259.658 65 267L62 264L66 262L65 256L59 248L64 249L64 248L61 247L61 246L65 244L65 243L62 244L63 240L67 239L67 240L66 243L67 243L72 240L72 241L69 241L69 242L72 243L78 241L78 242L73 243L76 244L77 246L77 247L72 247L72 248L91 250L91 249L83 248L83 247L86 247L86 242L77 244L77 240L77 239L82 239L81 242L83 239L88 238L87 235L89 236L89 235L83 235L85 227L86 230L87 230L88 224L90 225L91 225L91 224L88 219L87 219L84 221L84 222L87 225L84 224L84 228L83 228L83 224L74 229L72 221L72 226L71 226L71 223L65 220L63 223L66 224L66 227L66 228C63.953 228.787 63.953 229.213 66 230L66 231C63.2361 232.063 64.7891 232.74 67 233L67 234L63 238L58 238L58 237L61 236L60 232L57 206L53 206z"/>
<path style="fill:#634a9a; stroke:none;" d="M57 206C57.2426 210.699 55.7505 231.385 60 232L59 236L59 237L63 238L67 234L67 233L64 233L66 231L66 230L66 228L66 227L66 224L59 217L66 216C62.3921 212.854 61.5303 209.904 67 209L57 206z"/>
<path style="fill:#58a8a4; stroke:none;" d="M87 206L88 207L87 206M97 206L97 207L102 207L97 206M106 206L107 207L106 206z"/>
<path style="fill:#8e6bc1; stroke:none;" d="M124 206L125 207L124 206z"/>
<path style="fill:#634a9a; stroke:none;" d="M127 206L128 207L127 206z"/>
<path style="fill:#8e6bc1; stroke:none;" d="M128 206L129 207L128 206z"/>
<path style="fill:#58a8a4; stroke:none;" d="M129 206L130 207L129 206z"/>
<path style="fill:#8e6bc1; stroke:none;" d="M148 206C147.044 209.346 140.36 217.352 137 215L134 219L136 215L130 223L128 226L125 225L126 227L123 226L128 232L128 231L125 229L127 227C136.369 226.662 142.898 215.126 150 210L148 206M151 206L152 207L151 206M108 207L109 208L108 207M126 207L126 210L127 210L126 207z"/>
<path style="fill:#58a8a4; stroke:none;" d="M128 207L129 208L128 207z"/>
<path style="fill:#8e6bc1; stroke:none;" d="M141 207L139 211L144 209L144 208L141 207z"/>
<path style="fill:#58a8a4; stroke:none;" d="M52 208L52 217L53 217L52 208z"/>
<path style="fill:#634a9a; stroke:none;" d="M72 208L73 209L72 208z"/>
<path style="fill:#58a8a4; stroke:none;" d="M108 208L109 209L108 208z"/>
<path style="fill:#8e6bc1; stroke:none;" d="M117 208L118 209L117 208z"/>
<path style="fill:#58a8a4; stroke:none;" d="M126.667 208.333L127.333 208.667L126.667 208.333M140 208L141 209L140 208z"/>
<path style="fill:#f7f6f9; stroke:none;" d="M141 208L142 209L141 208z"/>
<path style="fill:#58a8a4; stroke:none;" d="M147 208L148 209L147 208z"/>
<path style="fill:#cf1822; stroke:none;" d="M62 209L64 211L64 212L61 213L69 214C67.8036 210.357 65.6074 209.795 62 209z"/>
<path style="fill:#8e6bc1; stroke:none;" d="M118 209L119 210L118 209z"/>
<path style="fill:#634a9a; stroke:none;" d="M122 209L123 210L122 209z"/>
<path style="fill:#8e6bc1; stroke:none;" d="M123 209L120 211L120 212L125 210L123 209z"/>
<path style="fill:#58a8a4; stroke:none;" d="M124 209L126 211L126 209L124 209M132 211L135 210L132 211M138 209L139 210L138 209M156 209L157 210L156 209z"/>
<path style="fill:#8e6bc1; stroke:none;" d="M244.667 209.333L245.333 209.667L244.667 209.333M263 209L264 210L263 209z"/>
<path style="fill:#634a9a; stroke:none;" d="M115 210L116 211L115 210z"/>
<path style="fill:#58a8a4; stroke:none;" d="M116 210L117 211L116 210M118 210L120 212L118 210z"/>
<path style="fill:#f7f6f9; stroke:none;" d="M119 210L119 211L123 211L119 210z"/>
<path style="fill:#58a8a4; stroke:none;" d="M130.333 210.667L130.667 211.333L130.333 210.667z"/>
<path style="fill:#8e6bc1; stroke:none;" d="M133 210L135 213L135 212L133 210z"/>
<path style="fill:#634a9a; stroke:none;" d="M136 210L138 212L136 210z"/>
<path style="fill:#58a8a4; stroke:none;" d="M144.667 210.333L145.333 210.667L144.667 210.333z"/>
<path style="fill:#8e6bc1; stroke:none;" d="M247 210L248 211L247 210M61 211L61 212L64 212L61 211z"/>
<path style="fill:#58a8a4; stroke:none;" d="M69 212L69 213L74 213L74 211L69 212M85 211L85 215L84 215L82 212L82 216L81 221L77 221L74 219L75 216L72 217L72 214L71 214L70 214L69 217L70 217L70 215L71 215L69 218L71 221L69 224L71 226L72 226L72 221L74 229L83 224L83 228L84 228L84 224L87 225L84 222L84 221L88 219L91 224L90 214L85 211M91 211L90 214L91 211z"/>
<path style="fill:#8e6bc1; stroke:none;" d="M115.333 211.667L115.667 212.333L115.333 211.667M117.667 211.333L118.333 211.667L117.667 211.333z"/>
<path style="fill:#58a8a4; stroke:none;" d="M123 211L124 212L123 211M128 211L128 214L129 214L128 211z"/>
<path style="fill:#634a9a; stroke:none;" d="M133 211L134 212L133 211z"/>
<path style="fill:#8e6bc1; stroke:none;" d="M136.333 211.667L136.667 212.333L136.333 211.667M138 211L139 212L138 211z"/>
<path style="fill:#58a8a4; stroke:none;" d="M143 211L142 213L144 213L143 211M156.333 211.667L156.667 212.333L156.333 211.667z"/>
<path style="fill:#8e6bc1; stroke:none;" d="M159 211L160 214L161 214L159 211M64 212L64 213L68 213L64 212z"/>
<path style="fill:#58a8a4; stroke:none;" d="M131.333 212.667L131.667 213.333L131.333 212.667M135 212L133 216L134 216L135 214L135 217L136 217L135 212M139 212L140 213L139 212M159 212L160 213L159 212z"/>
<path style="fill:#8e6bc1; stroke:none;" d="M245 212L245 213L254 213L245 212M63 214L63 215L66 216L63 217L63 218L69 220L71 219L71 215L70 215L67 218L71 213L63 214M130 213L131 214L130 213z"/>
<path style="fill:#58a8a4; stroke:none;" d="M138 213L138 217L139 217L138 213M141 213L142 214L141 213z"/>
<path style="fill:#f7f6f9; stroke:none;" d="M146 213L147 214L146 213z"/>
<path style="fill:#8e6bc1; stroke:none;" d="M242.667 213.333L243.333 213.667L242.667 213.333M257.667 213.333L258.333 213.667L257.667 213.333z"/>
<path style="fill:#f7f6f9; stroke:none;" d="M86 214L87 215L86 214z"/>
<path style="fill:#8e6bc1; stroke:none;" d="M108 214L108 217L109 217L108 214M114 214L115 215L114 214M128 214L128 217L129 217L130 214L128 214z"/>
<path style="fill:#634a9a; stroke:none;" d="M131 214L132 215L131 214z"/>
<path style="fill:#8e6bc1; stroke:none;" d="M132 214L133 215L132 214z"/>
<path style="fill:#f7f6f9; stroke:none;" d="M134 214L135 215L134 214z"/>
<path style="fill:#58a8a4; stroke:none;" d="M140 214L141 215L140 214M157 214L159 216L159 214L157 214M160 214L161 215L160 214z"/>
<path style="fill:#8e6bc1; stroke:none;" d="M238.667 214.333L239.333 214.667L238.667 214.333M261.667 214.333L262.333 214.667L261.667 214.333z"/>
<path style="fill:#58a8a4; stroke:none;" d="M114 215L114 217L116 215L114 215z"/>
<path style="fill:#8e6bc1; stroke:none;" d="M125 215L126 216L125 215z"/>
<path style="fill:#634a9a; stroke:none;" d="M126 215L125 218L128 216L126 215M129.667 215.333L130.333 215.667L129.667 215.333z"/>
<path style="fill:#58a8a4; stroke:none;" d="M163.333 215.667L163.667 216.333L163.333 215.667z"/>
<path style="fill:#8e6bc1; stroke:none;" d="M236.667 215.333L237.333 215.667L236.667 215.333z"/>
<path style="fill:#58a8a4; stroke:none;" d="M263 215L264 216L263 215z"/>
<path style="fill:#634a9a; stroke:none;" d="M67.6667 216.333L68.3333 216.667L67.6667 216.333z"/>
<path style="fill:#8e6bc1; stroke:none;" d="M88 216L87 218L88 216M113 216L112 218L114 218L113 216M122 216L122 220L123 220L122 216z"/>
<path style="fill:#634a9a; stroke:none;" d="M123.333 216.667L123.667 217.333L123.333 216.667z"/>
<path style="fill:#8e6bc1; stroke:none;" d="M132 216L133 217L132 216z"/>
<path style="fill:#634a9a; stroke:none;" d="M133 216L113 228L117 228L114 235L112 229L113 232L108 232L96 231L97 227L91 225L92 227L89 224L88 224L87 230L86 230L85 227L83 235L89 235L83 239C84.5541 244.313 91.4338 243 96 243L96 244L85 244L83 247L83 248L91 249L91 250L72 248L72 247L77 247L77 246L76 244L73 244L74 242L66 243L63 240L62 244L65 243L65 244L61 246L61 247L64 248L64 249L59 248C59.4301 251.355 61.5134 256.021 65 256L66 262L62 264C80.6495 279.569 120.949 275.793 143 270.985C153.126 268.777 159.348 266.118 160.998 255.7C161.513 252.456 162.823 250.207 160 248L162 244L162 240L136 243.715L96 245L96 244L107 242L106 240L119 237L119 239L129 240L129 232L122 228L120 233C121.797 227.402 125.135 225.845 130 223L133 216M136 216L137 217L136 216z"/>
<path style="fill:#58a8a4; stroke:none;" d="M150 216L143 228L146 227L147 230L148 230L145 224C148.855 223.243 151.814 219.875 150 216z"/>
<path style="fill:#8e6bc1; stroke:none;" d="M232 216L233 217L232 216M235 216L236 217L235 216z"/>
<path style="fill:#58a8a4; stroke:none;" d="M229 226L243 216C236.696 217.124 231.984 220.299 229 226M246.667 216.333L247.333 216.667L246.667 216.333z"/>
<path style="fill:#8e6bc1; stroke:none;" d="M248 216L248 217L252 217L248 216z"/>
<path style="fill:#58a8a4; stroke:none;" d="M252 216L252 217L255 217L252 216M265 216L266 217L265 216z"/>
<path style="fill:#8e6bc1; stroke:none;" d="M266 216L267 217L266 216M272 216L273 217L272 216z"/>
<path style="fill:#cf1822; stroke:none;" d="M59 217L59 218L64 221L61 220C62.3383 221.841 64.5676 222.69 65 220L69 223C67.5092 218.085 63.6942 217.61 59 217z"/>
<path style="fill:#58a8a4; stroke:none;" d="M67 217L68 218L67 217M78 217L79 218L78 217z"/>
<path style="fill:#f7f6f9; stroke:none;" d="M82 217L82 218L86 219L82 217z"/>
<path style="fill:#58a8a4; stroke:none;" d="M101 217L102 218L101 217M121 217L122 218L121 217M124 217L125 218L124 217z"/>
<path style="fill:#8e6bc1; stroke:none;" d="M126 217L127 218L126 217z"/>
<path style="fill:#58a8a4; stroke:none;" d="M130 217L131 218L130 217z"/>
<path style="fill:#634a9a; stroke:none;" d="M135 217L134 219L135 217z"/>
<path style="fill:#58a8a4; stroke:none;" d="M156 217L149 228C152.373 225.396 156.388 221.509 156 217z"/>
<path style="fill:#8e6bc1; stroke:none;" d="M233 217L234 218L233 217z"/>
<path style="fill:#634a9a; stroke:none;" d="M226 233L257 232.014L276 232C266.012 214.723 232.296 208.788 226 233z"/>
<path style="fill:#58a8a4; stroke:none;" d="M258 217L259 218L258 217z"/>
<path style="fill:#8e6bc1; stroke:none;" d="M267 217L268 218L267 217M59 218L64 221L59 218z"/>
<path style="fill:#634a9a; stroke:none;" d="M102 218L103 219L102 218z"/>
<path style="fill:#8e6bc1; stroke:none;" d="M111 218L112 219L111 218M129 218L130 219L129 218z"/>
<path style="fill:#58a8a4; stroke:none;" d="M135 218L136 219L135 218z"/>
<path style="fill:#8e6bc1; stroke:none;" d="M230.333 218.667L230.667 219.333L230.333 218.667M239 218L240 219L239 218z"/>
<path style="fill:#58a8a4; stroke:none;" d="M261.667 218.333L262.333 218.667L261.667 218.333z"/>
<path style="fill:#8e6bc1; stroke:none;" d="M269 218L270 219L269 218M102 219L103 220L102 219M110 219L111 220L110 219z"/>
<path style="fill:#58a8a4; stroke:none;" d="M112 219L113 220L112 219M127 219L128 220L127 219z"/>
<path style="fill:#634a9a; stroke:none;" d="M133 219L130 221L130 222L134 220L133 219z"/>
<path style="fill:#8e6bc1; stroke:none;" d="M228 219L229 220L228 219M237 219L238 220L237 219M263 219L264 220L263 219z"/>
<path style="fill:#58a8a4; stroke:none;" d="M264 219L265 220L264 219z"/>
<path style="fill:#8e6bc1; stroke:none;" d="M270 219L271 220L270 219z"/>
<path style="fill:#f7f6f9; stroke:none;" d="M69.3333 220.667L69.6667 221.333L69.3333 220.667z"/>
<path style="fill:#8e6bc1; stroke:none;" d="M70 220L71 221L70 220z"/>
<path style="fill:#f7f6f9; stroke:none;" d="M82 220L83 221L82 220z"/>
<path style="fill:#634a9a; stroke:none;" d="M87 220L88 221L87 220z"/>
<path style="fill:#58a8a4; stroke:none;" d="M101 220L104 223L101 220z"/>
<path style="fill:#8e6bc1; stroke:none;" d="M104 220L105 221L104 220M107 220L108 221L107 220z"/>
<path style="fill:#58a8a4; stroke:none;" d="M110.667 220.333L111.333 220.667L110.667 220.333M125 220L126 221L125 220z"/>
<path style="fill:#8e6bc1; stroke:none;" d="M126 220L127 221L126 220z"/>
<path style="fill:#58a8a4; stroke:none;" d="M133 220L134 221L133 220z"/>
<path style="fill:#f7f6f9; stroke:none;" d="M140 220L141 221L140 220z"/>
<path style="fill:#8e6bc1; stroke:none;" d="M229 220L230 221L229 220M235 220L236 221L235 220z"/>
<path style="fill:#58a8a4; stroke:none;" d="M265 220L265 221L276 233C271.654 233.003 267.56 232.3 266 237L255 237L255 239L267 240L264 242L264 243L270 243L266 245C268.048 261.603 242.092 251.133 232 253L232 252L242 250L254 252L250 247L252 250L241 249L244 246L244 245L239 243L243 243L242 240L254 238L254 237C250.433 237.205 242.659 238.495 242 234L241 233L231 233L229.942 251.683L224 256L237 253C245.371 258.863 263.009 254.312 273 255L272 251L274 255L277 255C273.881 260.072 270.023 267.169 264 269L264 270L266 271C269.885 267.834 274.038 264.647 276.231 260C281.529 248.774 279.378 222.901 265 220M271 220L272 221L271 220M108.667 221.333L109.333 221.667L108.667 221.333M119 221L120 222L119 221M123 221L124 222L123 221z"/>
<path style="fill:#8e6bc1; stroke:none;" d="M124 221L125 222L124 221z"/>
<path style="fill:#58a8a4; stroke:none;" d="M132 221L133 222L132 221M162 221L139 241L148 242L148 241L146 240L163 227L163 231L164 231L162 221z"/>
<path style="fill:#8e6bc1; stroke:none;" d="M228 221L229 222L228 221M234 221L235 222L234 221z"/>
<path style="fill:#58a8a4; stroke:none;" d="M250 221L251 222L250 221z"/>
<path style="fill:#8e6bc1; stroke:none;" d="M266 221L267 222L266 221z"/>
<path style="fill:#58a8a4; stroke:none;" d="M272 221L273 222L272 221z"/>
<path style="fill:#f7f6f9; stroke:none;" d="M80 222L81 223L80 222z"/>
<path style="fill:#8e6bc1; stroke:none;" d="M104.667 222.333L105.333 222.667L104.667 222.333z"/>
<path style="fill:#58a8a4; stroke:none;" d="M106.667 222.333L107.333 222.667L106.667 222.333z"/>
<path style="fill:#8e6bc1; stroke:none;" d="M117 222L118 223L117 222M122 222L123 223L122 222M127 222L128 223L127 222z"/>
<path style="fill:#634a9a; stroke:none;" d="M133.667 222.333L134.333 222.667L133.667 222.333z"/>
<path style="fill:#8e6bc1; stroke:none;" d="M227 222L228 223L227 222M244 222L244 225L245 225L244 222z"/>
<path style="fill:#f7f6f9; stroke:none;" d="M245 222L242 229L243 229C248.187 223.385 252.836 223.394 258 229C259.43 222.762 249.193 222.242 245 222z"/>
<path style="fill:#58a8a4; stroke:none;" d="M248 222L249 223L248 222M252 222L253 223L252 222M273 222L274 223L273 222z"/>
<path style="fill:#f7f6f9; stroke:none;" d="M78 223L79 224L78 223z"/>
<path style="fill:#8e6bc1; stroke:none;" d="M111 223L110 226L113 224L111 223z"/>
<path style="fill:#58a8a4; stroke:none;" d="M119 223L120 224L119 223z"/>
<path style="fill:#8e6bc1; stroke:none;" d="M120 223L121 224L120 223M226 223L227 224L226 223M250 223L251 224L250 223z"/>
<path style="fill:#58a8a4; stroke:none;" d="M254 223L255 224L254 223z"/>
<path style="fill:#8e6bc1; stroke:none;" d="M269 223L270 224L269 223z"/>
<path style="fill:#58a8a4; stroke:none;" d="M91 224L92 225L91 224M110 224L111 225L110 224M117 224L118 225L117 224z"/>
<path style="fill:#634a9a; stroke:none;" d="M131 224L132 225L131 224z"/>
<path style="fill:#8e6bc1; stroke:none;" d="M137 224L138 225L137 224z"/>
<path style="fill:#f7f6f9; stroke:none;" d="M145 224L146 225L145 224z"/>
<path style="fill:#58a8a4; stroke:none;" d="M248 224L249 225L248 224M252 224L253 225L252 224z"/>
<path style="fill:#8e6bc1; stroke:none;" d="M256 224L257 225L256 224M270 224L271 225L270 224z"/>
<path style="fill:#58a8a4; stroke:none;" d="M275 224L276 225L275 224z"/>
<path style="fill:#8e6bc1; stroke:none;" d="M77 225L78 226L77 225z"/>
<path style="fill:#58a8a4; stroke:none;" d="M90 225L91 226L90 225M105 225L103 228L105 225z"/>
<path style="fill:#8e6bc1; stroke:none;" d="M107 225L106 227L107 225z"/>
<path style="fill:#58a8a4; stroke:none;" d="M108 225L108 229L105 228L105 229L113 232L111 230L111 229L116 229L116 228L113 225L112 225L108 225z"/>
<path style="fill:#634a9a; stroke:none;" d="M109 225L110 226L109 225z"/>
<path style="fill:#f7f6f9; stroke:none;" d="M111.333 225.667L111.667 226.333L111.333 225.667z"/>
<path style="fill:#58a8a4; stroke:none;" d="M114 225L115 226L114 225M126.667 225.333L127.333 225.667L126.667 225.333z"/>
<path style="fill:#634a9a; stroke:none;" d="M129 225L130 226L129 225M145 225L146 226L145 225z"/>
<path style="fill:#58a8a4; stroke:none;" d="M243 225L244 226L243 225M246 225L247 226L246 225M254 225L255 226L254 225M257 225L258 226L257 225z"/>
<path style="fill:#8e6bc1; stroke:none;" d="M271 225L272 226L271 225z"/>
<path style="fill:#58a8a4; stroke:none;" d="M52 226L52 233L53 233L52 226z"/>
<path style="fill:#8e6bc1; stroke:none;" d="M90.6667 226.333L91.3333 226.667L90.6667 226.333M94 226L95 227L94 226z"/>
<path style="fill:#f7f6f9; stroke:none;" d="M109 226L110 227L109 226z"/>
<path style="fill:#58a8a4; stroke:none;" d="M124.667 226.333L125.333 226.667L124.667 226.333M140 226L140 230L139 230L136 228L135 234C138.126 232.02 142.15 229.875 140 226z"/>
<path style="fill:#8e6bc1; stroke:none;" d="M245 226L246 227L245 226M259 226L260 227L259 226M272 226L273 227L272 226M88 227L88 228L91 229L88 227M92 227L96 230L96 229L92 227z"/>
<path style="fill:#58a8a4; stroke:none;" d="M97.3333 227.667L97.6667 228.333L97.3333 227.667z"/>
<path style="fill:#8e6bc1; stroke:none;" d="M104 227L105 228L104 227z"/>
<path style="fill:#58a8a4; stroke:none;" d="M121 227L121 228L124 228L121 227z"/>
<path style="fill:#8e6bc1; stroke:none;" d="M228 227L229 228L228 227z"/>
<path style="fill:#58a8a4; stroke:none;" d="M243.333 227.667L243.667 228.333L243.333 227.667z"/>
<path style="fill:#8e6bc1; stroke:none;" d="M257.333 227.667L257.667 228.333L257.333 227.667z"/>
<path style="fill:#58a8a4; stroke:none;" d="M259.333 227.667L259.667 228.333L259.333 227.667M71 228L72 229L71 228M79 228L83 232L82 228L79 228M100 228L101 229L100 228z"/>
<path style="fill:#8e6bc1; stroke:none;" d="M101 228L101 229L104 229L101 228z"/>
<path style="fill:#634a9a; stroke:none;" d="M107 228L108 229L107 228z"/>
<path style="fill:#8e6bc1; stroke:none;" d="M116 228L117 229L116 228M117 230L120 228L117 230M121 228L121 233L122 233L121 228z"/>
<path style="fill:#634a9a; stroke:none;" d="M139.333 228.667L139.667 229.333L139.333 228.667z"/>
<path style="fill:#8e6bc1; stroke:none;" d="M227 228L228 229L227 228M97 229L96 231L97 229M104 229L104 230L107 230L104 229M111 229L112 230L111 229M113 229L113 230L116 230L113 229z"/>
<path style="fill:#634a9a; stroke:none;" d="M125 229L127 232L125 229z"/>
<path style="fill:#58a8a4; stroke:none;" d="M144 229L146 231L146 229L144 229z"/>
<path style="fill:#634a9a; stroke:none;" d="M146 229L147 230L146 229z"/>
<path style="fill:#58a8a4; stroke:none;" d="M226 229L227 230L226 229z"/>
<path style="fill:#8e6bc1; stroke:none;" d="M242 229L243 230L242 229z"/>
<path style="fill:#58a8a4; stroke:none;" d="M258 229L259 230L258 229M72.3333 230.667L72.6667 231.333L72.3333 230.667M77 230L76 235L77 235L77 230M97 230L98 231L97 230M101 230L102 231L101 230z"/>
<path style="fill:#8e6bc1; stroke:none;" d="M102 230L103 231L102 230M108 230L108 232L110 232L108 230z"/>
<path style="fill:#58a8a4; stroke:none;" d="M115.333 230.667L115.667 231.333L115.333 230.667M126 230L126 231L129 232L126 230M167 230L168 231L167 230z"/>
<path style="fill:#8e6bc1; stroke:none;" d="M98 231L98 232L102 232L98 231M105.667 231.333L106.333 231.667L105.667 231.333M117 231L119 233L119 231L117 231z"/>
<path style="fill:#634a9a; stroke:none;" d="M136 231L137 232L136 231z"/>
<path style="fill:#58a8a4; stroke:none;" d="M142 234L145 231L142 234M225 231L226 232L225 231M79 232L80 233L79 232z"/>
<path style="fill:#634a9a; stroke:none;" d="M80 232L81 233L80 232z"/>
<path style="fill:#8e6bc1; stroke:none;" d="M111 232L112 233L111 232M113 232L114 233L113 232M115 232L114 235L115 232z"/>
<path style="fill:#58a8a4; stroke:none;" d="M120 232L121 233L120 232z"/>
<path style="fill:#8e6bc1; stroke:none;" d="M129 232L129 235L130 235L129 232z"/>
<path style="fill:#58a8a4; stroke:none;" d="M130 232L130 236L131 236L130 232z"/>
<path style="fill:#634a9a; stroke:none;" d="M142 232L143 233L142 232z"/>
<path style="fill:#8e6bc1; stroke:none;" d="M225 232L226 233L225 232M245 232L245 233L251 233L245 232z"/>
<path style="fill:#58a8a4; stroke:none;" d="M251 232L252 233L251 232z"/>
<path style="fill:#8e6bc1; stroke:none;" d="M252.667 232.333L253.333 232.667L252.667 232.333z"/>
<path style="fill:#58a8a4; stroke:none;" d="M254 232L255 233L254 232z"/>
<path style="fill:#8e6bc1; stroke:none;" d="M255 232L256 233L255 232z"/>
<path style="fill:#58a8a4; stroke:none;" d="M256 232L256 233L261 233L256 232z"/>
<path style="fill:#8e6bc1; stroke:none;" d="M261.667 232.333L262.333 232.667L261.667 232.333z"/>
<path style="fill:#58a8a4; stroke:none;" d="M264 232L265 233L264 232z"/>
<path style="fill:#8e6bc1; stroke:none;" d="M275 232L276 233L275 232z"/>
<path style="fill:#58a8a4; stroke:none;" d="M53 233L54 234L53 233z"/>
<path style="fill:#8e6bc1; stroke:none;" d="M61 233L62 234L61 233z"/>
<path style="fill:#634a9a; stroke:none;" d="M81 233L82 234L81 233z"/>
<path style="fill:#58a8a4; stroke:none;" d="M140 233L134 237L135 241L141 236L140 233z"/>
<path style="fill:#634a9a; stroke:none;" d="M161 233L161 237L162 237L163 233L161 233z"/>
<path style="fill:#f7f6f9; stroke:none;" d="M233 233L234 234L233 233z"/>
<path style="fill:#8e6bc1; stroke:none;" d="M237 233L238 234L237 233z"/>
<path style="fill:#f7f6f9; stroke:none;" d="M239 233L240 234L239 233M241 233L241 236C245.079 237.217 251.067 238.723 254 235L255 235L266 237L267 233L241 233z"/>
<path style="fill:#58a8a4; stroke:none;" d="M80 234L82 236L80 234z"/>
<path style="fill:#8e6bc1; stroke:none;" d="M123 234L124 235L123 234z"/>
<path style="fill:#634a9a; stroke:none;" d="M140 234L141 235L140 234M158 234L159 235L158 234z"/>
<path style="fill:#58a8a4; stroke:none;" d="M166 234L167 238L168 238L166 234z"/>
<path style="fill:#8e6bc1; stroke:none;" d="M236 234L238 236L236 234M271 235L271 236L275 236L271 235z"/>
<path style="fill:#58a8a4; stroke:none;" d="M52 235L52 237L54 235L52 235z"/>
<path style="fill:#f7f6f9; stroke:none;" d="M54 235L55 236L54 235z"/>
<path style="fill:#58a8a4; stroke:none;" d="M55 235L56 236L55 235z"/>
<path style="fill:#634a9a; stroke:none;" d="M58 235L59 236L58 235z"/>
<path style="fill:#f7f6f9; stroke:none;" d="M78 235C78.7508 238.504 80.878 237.659 84 238L78 235M87.3333 235.667L87.6667 236.333L87.3333 235.667z"/>
<path style="fill:#8e6bc1; stroke:none;" d="M117 235L118 236L117 235z"/>
<path style="fill:#634a9a; stroke:none;" d="M152 238L152 239L160 238C157.686 235.08 155.124 236.849 152 238z"/>
<path style="fill:#f7f6f9; stroke:none;" d="M165 235L166 236L165 235M233 235L234 236L233 235z"/>
<path style="fill:#634a9a; stroke:none;" d="M236 235L236 238L237 238L236 235z"/>
<path style="fill:#58a8a4; stroke:none;" d="M252 235L253 236L252 235z"/>
<path style="fill:#8e6bc1; stroke:none;" d="M254.333 235.667L254.667 236.333L254.333 235.667z"/>
<path style="fill:#f7f6f9; stroke:none;" d="M56 236L57 237L56 236z"/>
<path style="fill:#58a8a4; stroke:none;" d="M84 236L85 237L84 236z"/>
<path style="fill:#8e6bc1; stroke:none;" d="M112 237L122 240L122 239L119 239L119 237L112 237M130 236L131 237L130 236z"/>
<path style="fill:#f7f6f9; stroke:none;" d="M163.667 236.333L164.333 236.667L163.667 236.333z"/>
<path style="fill:#8e6bc1; stroke:none;" d="M233 236L232 238L234 238L233 236z"/>
<path style="fill:#634a9a; stroke:none;" d="M234.333 236.667L234.667 237.333L234.333 236.667z"/>
<path style="fill:#8e6bc1; stroke:none;" d="M235 236L236 237L235 236z"/>
<path style="fill:#634a9a; stroke:none;" d="M238 236L238 238L240 238L240 236L238 236M267.667 236.333L268.333 236.667L267.667 236.333z"/>
<path style="fill:#8e6bc1; stroke:none;" d="M269 236L270 237L269 236z"/>
<path style="fill:#f7f6f9; stroke:none;" d="M58.6667 237.333L59.3333 237.667L58.6667 237.333z"/>
<path style="fill:#8e6bc1; stroke:none;" d="M121 237L122 238L121 237M129 237L130 238L129 237z"/>
<path style="fill:#f7f6f9; stroke:none;" d="M161 237L162 238L161 237z"/>
<path style="fill:#58a8a4; stroke:none;" d="M235 237L236 238L235 237z"/>
<path style="fill:#8e6bc1; stroke:none;" d="M240.667 237.333L241.333 237.667L240.667 237.333z"/>
<path style="fill:#634a9a; stroke:none;" d="M254 237L255 238L254 237z"/>
<path style="fill:#8e6bc1; stroke:none;" d="M268 237L269 238L268 237z"/>
<path style="fill:#f7f6f9; stroke:none;" d="M60.6667 238.333L61.3333 238.667L60.6667 238.333z"/>
<path style="fill:#8e6bc1; stroke:none;" d="M110 238L106 241L110 238z"/>
<path style="fill:#58a8a4; stroke:none;" d="M110 241L115 239L110 241z"/>
<path style="fill:#8e6bc1; stroke:none;" d="M127 238L128 239L127 238z"/>
<path style="fill:#58a8a4; stroke:none;" d="M129 238L130 239L129 238z"/>
<path style="fill:#8e6bc1; stroke:none;" d="M156 238L159 240L156 238z"/>
<path style="fill:#f7f6f9; stroke:none;" d="M159 238L160 239L159 238z"/>
<path style="fill:#634a9a; stroke:none;" d="M162 238L163 239L162 238z"/>
<path style="fill:#8e6bc1; stroke:none;" d="M235.667 238.333L236.333 238.667L235.667 238.333M238 238L239 239L238 238z"/>
<path style="fill:#f7f6f9; stroke:none;" d="M242 240L241 243L241 244L259 244L259 243L256 243L260 241L260 244L267 244L267 243L264 243L264 242L267 240L242 240z"/>
<path style="fill:#58a8a4; stroke:none;" d="M52 239L53 240L52 239z"/>
<path style="fill:#f7f6f9; stroke:none;" d="M64.6667 239.333L65.3333 239.667L64.6667 239.333z"/>
<path style="fill:#58a8a4; stroke:none;" d="M66 239L67 240L66 239M77 239L78 240L77 239z"/>
<path style="fill:#634a9a; stroke:none;" d="M78 239L79 242L81 242L82 239L78 239z"/>
<path style="fill:#58a8a4; stroke:none;" d="M116 239L116 240L119 240L116 239z"/>
<path style="fill:#8e6bc1; stroke:none;" d="M125.667 239.333L126.333 239.667L125.667 239.333z"/>
<path style="fill:#58a8a4; stroke:none;" d="M154 239L154 240L157 240L154 239z"/>
<path style="fill:#634a9a; stroke:none;" d="M232 239L232 240L235 240L232 239z"/>
<path style="fill:#8e6bc1; stroke:none;" d="M271 239L272 240L271 239M273.667 239.333L274.333 239.667L273.667 239.333z"/>
<path style="fill:#58a8a4; stroke:none;" d="M53 240L54 241L53 240z"/>
<path style="fill:#f7f6f9; stroke:none;" d="M68 240L68 241L71 241L68 240z"/>
<path style="fill:#58a8a4; stroke:none;" d="M71 240L72 241L71 240M122 240L122 241L126 241L122 240M128 240L129 241L128 240M150.667 240.333L151.333 240.667L150.667 240.333z"/>
<path style="fill:#8e6bc1; stroke:none;" d="M233 240L234 241L233 240M236 240L237 241L236 240z"/>
<path style="fill:#f7f6f9; stroke:none;" d="M72 241L72 242L76 242L72 241z"/>
<path style="fill:#58a8a4; stroke:none;" d="M76.6667 241.333L77.3333 241.667L76.6667 241.333z"/>
<path style="fill:#8e6bc1; stroke:none;" d="M104 241L105 242L104 241z"/>
<path style="fill:#58a8a4; stroke:none;" d="M108.667 241.333L109.333 241.667L108.667 241.333z"/>
<path style="fill:#f7f6f9; stroke:none;" d="M233 241L234 242L233 241z"/>
<path style="fill:#8e6bc1; stroke:none;" d="M238 241L239 242L238 241z"/>
<path style="fill:#58a8a4; stroke:none;" d="M256 241L256 242L260 242L256 241M53 242L54 243L53 242z"/>
<path style="fill:#f7f6f9; stroke:none;" d="M78 242L78 243L83 243L78 242z"/>
<path style="fill:#58a8a4; stroke:none;" d="M83 242L84 243L83 242z"/>
<path style="fill:#8e6bc1; stroke:none;" d="M101 242L101 243L104 243L101 242M105 242L106 243L105 242z"/>
<path style="fill:#58a8a4; stroke:none;" d="M97 243L97 244L110 245L110 244L108 242L97 243z"/>
<path style="fill:#8e6bc1; stroke:none;" d="M142 242L142 243L145 243L142 242z"/>
<path style="fill:#634a9a; stroke:none;" d="M236 242L239 246L236 242M256 242L257 243L256 242z"/>
<path style="fill:#8e6bc1; stroke:none;" d="M259.333 242.667L259.667 243.333L259.333 242.667z"/>
<path style="fill:#f7f6f9; stroke:none;" d="M268 242L269 243L268 242z"/>
<path style="fill:#8e6bc1; stroke:none;" d="M271.333 242.667L271.667 243.333L271.333 242.667M68.6667 243.333L69.3333 243.667L68.6667 243.333z"/>
<path style="fill:#634a9a; stroke:none;" d="M77 243L77 244L81 244L77 243z"/>
<path style="fill:#58a8a4; stroke:none;" d="M86.6667 243.333L87.3333 243.667L86.6667 243.333z"/>
<path style="fill:#f7f6f9; stroke:none;" d="M88.6667 243.333L89.3333 243.667L88.6667 243.333z"/>
<path style="fill:#58a8a4; stroke:none;" d="M90 243L90 244L93 244L90 243z"/>
<path style="fill:#8e6bc1; stroke:none;" d="M93 243L94 245L95 245L96 243L93 243z"/>
<path style="fill:#58a8a4; stroke:none;" d="M132 243L133 244L132 243z"/>
<path style="fill:#8e6bc1; stroke:none;" d="M133 243L133 244L138 244L133 243z"/>
<path style="fill:#58a8a4; stroke:none;" d="M166 243L167 244L166 243z"/>
<path style="fill:#634a9a; stroke:none;" d="M232 243L234 246L234 243L232 243z"/>
<path style="fill:#8e6bc1; stroke:none;" d="M235.333 243.667L235.667 244.333L235.333 243.667M239 243L240 244L239 243z"/>
<path style="fill:#58a8a4; stroke:none;" d="M247 243L248 244L247 243z"/>
<path style="fill:#634a9a; stroke:none;" d="M257.333 243.667L257.667 244.333L257.333 243.667z"/>
<path style="fill:#8e6bc1; stroke:none;" d="M269 243L270 244L269 243M87 244L88 245L87 244M96 244L96 245L105 245L96 244M110 244L110 245L125 245L110 244z"/>
<path style="fill:#634a9a; stroke:none;" d="M239 244L239 245L252 245L239 244z"/>
<path style="fill:#58a8a4; stroke:none;" d="M252.667 244.333L253.333 244.667L252.667 244.333z"/>
<path style="fill:#634a9a; stroke:none;" d="M254.667 244.333L255.333 244.667L254.667 244.333z"/>
<path style="fill:#58a8a4; stroke:none;" d="M256 244L257 245L256 244M258 244L259 245L258 244z"/>
<path style="fill:#634a9a; stroke:none;" d="M259 244L259 245L270 245L259 244z"/>
<path style="fill:#58a8a4; stroke:none;" d="M51 245L51 248L52 248L51 245z"/>
<path style="fill:#8e6bc1; stroke:none;" d="M66.6667 245.333L67.3333 245.667L66.6667 245.333z"/>
<path style="fill:#634a9a; stroke:none;" d="M79 245L80 246L79 245z"/>
<path style="fill:#58a8a4; stroke:none;" d="M167 245L168 246L167 245z"/>
<path style="fill:#f7f6f9; stroke:none;" d="M240 245L241 246L240 245M241 246C243.977 250.355 247.189 249.649 252 250L252 249L250 247L254 248L254 252L241 252L241 254L266 254L266 253L255 252L256 249C260.617 250.854 264.312 250.396 267 246C263.626 244.901 249.666 243.004 249 247L241 246z"/>
<path style="fill:#58a8a4; stroke:none;" d="M247 245L247 247L249 247L247 245z"/>
<path style="fill:#8e6bc1; stroke:none;" d="M271 245L272 246L271 245M64 246L65 247L64 246M233 246L234 247L233 246z"/>
<path style="fill:#58a8a4; stroke:none;" d="M264 246L265 247L264 246z"/>
<path style="fill:#634a9a; stroke:none;" d="M268 246L269 247L268 246z"/>
<path style="fill:#8e6bc1; stroke:none;" d="M269 246L270 247L269 246M236 247L237 248L236 247M268 247L269 248L268 247z"/>
<path style="fill:#f7f6f9; stroke:none;" d="M231 248L232 249L231 248z"/>
<path style="fill:#8e6bc1; stroke:none;" d="M241.667 248.333L242.333 248.667L241.667 248.333M250 248L251 249L250 248M253 248L254 249L253 248z"/>
<path style="fill:#58a8a4; stroke:none;" d="M167 249L168 250L167 249z"/>
<path style="fill:#f7f6f9; stroke:none;" d="M240 249L241 250L240 249z"/>
<path style="fill:#634a9a; stroke:none;" d="M256 249L258 251L256 249z"/>
<path style="fill:#8e6bc1; stroke:none;" d="M265 249L266 250L265 249z"/>
<path style="fill:#634a9a; stroke:none;" d="M266 249L267 253L266 249z"/>
<path style="fill:#8e6bc1; stroke:none;" d="M269 249L270 250L269 249M231.333 250.667L231.667 251.333L231.333 250.667M237 250C238.769 252.034 240.231 252.034 242 250L237 250z"/>
<path style="fill:#634a9a; stroke:none;" d="M249 250L250 251L249 250z"/>
<path style="fill:#58a8a4; stroke:none;" d="M255 250L265 253C264.049 248.56 258.757 250.457 255 250z"/>
<path style="fill:#634a9a; stroke:none;" d="M269 250L270 251L269 250z"/>
<path style="fill:#58a8a4; stroke:none;" d="M52 251L53 252L52 251M166.333 251.667L166.667 252.333L166.333 251.667z"/>
<path style="fill:#634a9a; stroke:none;" d="M232 252L232 253L237 252L232 252z"/>
<path style="fill:#8e6bc1; stroke:none;" d="M272 251L273 255L274 255L272 251M265 252L266 253L265 252M75 253L75 254L92 256L75 253z"/>
<path style="fill:#f7f6f9; stroke:none;" d="M231 253L232 254L231 253z"/>
<path style="fill:#8e6bc1; stroke:none;" d="M237 253L236 255L238 255L237 253z"/>
<path style="fill:#f7f6f9; stroke:none;" d="M267 253L268 254L267 253z"/>
<path style="fill:#58a8a4; stroke:none;" d="M53 254L54 255L53 254M165 254L166 255L165 254z"/>
<path style="fill:#8e6bc1; stroke:none;" d="M230 254L231 255L230 254M271 254L272 255L271 254M275 254L276 255L275 254z"/>
<path style="fill:#634a9a; stroke:none;" d="M225 255C232.812 279.466 267.758 276.144 277 255L225 255z"/>
<path style="fill:#58a8a4; stroke:none;" d="M54 256L55 257L54 256z"/>
<path style="fill:#8e6bc1; stroke:none;" d="M72 256L72 257L93 259L72 256z"/>
<path style="fill:#634a9a; stroke:none;" d="M161 257L162 258L161 257z"/>
<path style="fill:#58a8a4; stroke:none;" d="M225 257L226 258L225 257M55 258L56 259L55 258M226 259L227 260L226 259z"/>
<path style="fill:#634a9a; stroke:none;" d="M161 260L162 261L161 260z"/>
<path style="fill:#58a8a4; stroke:none;" d="M227 260L228 261L227 260M57 261L58 262L57 261M58 262L59 263L58 262M228 262L229 263L228 262z"/>
<path style="fill:#8e6bc1; stroke:none;" d="M272 262L273 263L272 262z"/>
<path style="fill:#58a8a4; stroke:none;" d="M59 263L60 264L59 263M229 263L230 264L229 263z"/>
<path style="fill:#8e6bc1; stroke:none;" d="M158 264L159 265L158 264z"/>
<path style="fill:#58a8a4; stroke:none;" d="M230 264C232.451 269.131 237.201 272.68 243 272L230 264z"/>
<path style="fill:#8e6bc1; stroke:none;" d="M157 265L158 266L157 265M66 267L67 268L66 267M68.6667 268.333L69.3333 268.667L68.6667 268.333M151 268L152 269L151 268M265 268L266 269L265 268z"/>
<path style="fill:#f7f6f9; stroke:none;" d="M266 268L267 269L266 268z"/>
<path style="fill:#8e6bc1; stroke:none;" d="M71 269L72 270L71 269M148 269L149 270L148 269M237 269L238 270L237 269z"/>
<path style="fill:#f7f6f9; stroke:none;" d="M265 269L266 270L265 269z"/>
<path style="fill:#58a8a4; stroke:none;" d="M74 270L75 271L74 270z"/>
<path style="fill:#8e6bc1; stroke:none;" d="M75.6667 270.333L76.3333 270.667L75.6667 270.333M145 270L146 271L145 270M261 270L262 271L261 270z"/>
<path style="fill:#58a8a4; stroke:none;" d="M262 270L263 271L262 270M79 271L80 272L79 271z"/>
<path style="fill:#8e6bc1; stroke:none;" d="M80 271L81 272L80 271M140.667 271.333L141.333 271.667L140.667 271.333z"/>
<path style="fill:#58a8a4; stroke:none;" d="M258.667 271.333L259.333 271.667L258.667 271.333M84 272L85 273L84 272z"/>
<path style="fill:#8e6bc1; stroke:none;" d="M85 272L85 273L88 273L85 272M134.667 272.333L135.333 272.667L134.667 272.333z"/>
<path style="fill:#58a8a4; stroke:none;" d="M136 272L137 273L136 272M245 272L245 273L250 273L245 272z"/>
<path style="fill:#8e6bc1; stroke:none;" d="M250.667 272.333L251.333 272.667L250.667 272.333z"/>
<path style="fill:#58a8a4; stroke:none;" d="M252 272L252 273L256 273L252 272M92 273L93 274L92 273z"/>
<path style="fill:#8e6bc1; stroke:none;" d="M93 273L93 274L96 274L93 273M125 273L125 274L129 274L125 273z"/>
<path style="fill:#58a8a4; stroke:none;" d="M129 273L130 274L129 273M104 274L104 275L117 275L104 274z"/>
</svg>
